<?xml version="1.0" encoding="UTF-8"?>
<svg id="Layer_2" data-name="Layer 2" xmlns="http://www.w3.org/2000/svg" xmlns:xlink="http://www.w3.org/1999/xlink" viewBox="0 0 960 108">
  <defs>
    <style>
      .cls-1 {
        fill: none;
      }

      .cls-2 {
        fill: #fffcf0;
      }

      .cls-3 {
        fill: #f4f2ea;
      }

      .cls-4 {
        clip-path: url(#clippath);
      }
    </style>
    <clipPath id="clippath">
      <rect class="cls-1" width="960" height="108"/>
    </clipPath>
  </defs>
  <g id="Layer_1-2" data-name="Layer 1">
    <g id="Clouds">
      <g class="cls-4">
        <g id="Clouds-2" data-name="Clouds">
          <path class="cls-2" d="M486.28,11.88c.1.02.19.05.29.04.1-.02.18-.08.27-.14.63-.43,1.54-.41,2.15.05.04.03.08.06.13.06.04,0,.08-.03.11-.05.38-.24.93-.15,1.21.2.4-.09.82-.11,1.22-.03.11.02.23.05.32.12s.13.21.07.31c.33-.04.67.17.79.47.06.15.07.32.15.46s.26.25.4.17c.05.08.06.19.02.28.22-.04.45,0,.65.07-.27.08-.56.08-.84.08-2.1-.01-4.19-.02-6.29-.04-.51,0-1.03,0-1.54,0-.26,0-1.15.15-1.35-.02-.21-.18.49-.57.64-.71.52-.48.67-1.5,1.6-1.32Z"/>
          <path class="cls-3" d="M475.47,15.25c.4-.64,1.15-1.04,1.9-1.04.12,0,.25,0,.36-.04.14-.07.21-.22.28-.36.48-.92,1.34-1.64,2.34-1.95-.16-.32-.19-.73.01-1.02s.67-.4.93-.16c-.01-.25.22-.43.45-.53s.48-.17.63-.38c.18-.25.1-.59.12-.9.04-1,1.05-1.7,2.02-1.96.57-.15,1.2-.21,1.74.05s.9.91.68,1.46c.27-.19.66-.08.87.16s.27.59.27.91c0,.09,0,.18.05.25.07.09.2.08.31.1.3.05.53.35.5.66.2.05.4.11.6.16-.08.18.04.39.19.52s.34.21.48.36c.13.15.19.36.26.55.26.68.79,1.21,1.3,1.73.25-.08.52.05.71.23s.33.41.53.58c.35.3.82.39,1.26.53.66.21,1.28.54,1.81.98-.62.15-1.27.15-1.91.15-5.8,0-11.59.01-17.39.02-.75-.03-1.52-.11-2.27-.13-.12,0-.27-.02-.32-.13-.06-.11,0-.24.09-.33.3-.36.74-.5,1.21-.46Z"/>
          <path class="cls-3" d="M403.01,13.8c.28-.44.79-.71,1.3-.71.08,0,.17,0,.24-.03.09-.05.14-.15.19-.24.33-.63.92-1.12,1.6-1.34-.11-.22-.13-.5,0-.7s.46-.28.64-.11c0-.17.15-.3.31-.36s.33-.12.43-.26c.12-.17.07-.4.08-.61.03-.69.72-1.16,1.38-1.34.39-.1.82-.14,1.19.03s.62.62.47,1c.18-.13.45-.06.6.11s.19.4.18.63c0,.06,0,.13.03.17.05.06.14.06.21.07.2.04.36.24.34.45.14.04.27.07.41.11-.06.12.03.27.13.35s.24.14.33.24c.09.1.13.24.18.37.18.46.54.83.89,1.18.17-.06.36.03.49.16s.23.28.36.4c.24.21.56.27.86.36.45.14.88.37,1.24.67-.43.1-.87.1-1.31.11-3.97,0-7.94,0-11.91.01-.51-.02-1.04-.07-1.55-.09-.08,0-.18-.01-.22-.09-.04-.07,0-.16.06-.23.2-.25.51-.35.83-.31Z"/>
          <path class="cls-2" d="M495.42,12.28c.76-.52,1.89-.4,2.53.26-.23-.16-.26-.51-.1-.74s.45-.33.73-.31c.42.03.85.41.77.83.36-.12.77-.08,1.09.11s.55.54.61.91c0,.05.02.11.06.15.05.04.11.03.17.02.51-.08,1.06.14,1.37.54.2.26.33.6.62.75.2.1.45.09.66.19s.36.39.2.54c-4.18.06-8.36.04-12.54-.07.13,0,.45-1.28.55-1.44.26-.38.54-.68.75-1.1.44-.88,1.69-1.06,2.52-.65Z"/>
          <path class="cls-3" d="M527.43,12.08c3.56-.2,7.17.38,10.66-.35.22-.05.49-.13.55-.35.05-.17-.04-.35-.18-.46s-.32-.14-.49-.15c-.37-.03-.74.02-1.08.15-.02-.3-.26-.55-.53-.68s-.58-.15-.88-.17c-.05-.4-.19-.82-.52-1.06-.3-.22-.71-.23-1.07-.14s-.68.3-1,.49c-.04.03-.09.05-.14.04-.04-.01-.06-.04-.09-.07-.2-.23-.52-.32-.83-.31s-.59.13-.87.27c-.14.07-.27.15-.37.27s-.12.3-.04.43c-.38.12-.74.29-1.07.51-.32.21-.62.47-.99.55-.35.07-.72-.04-1.06.06-.42.12-.68.53-.9.91"/>
          <path class="cls-3" d="M432.7,13.81c3.56-.2,7.17.38,10.66-.35.22-.05.49-.13.55-.35.05-.17-.04-.35-.18-.46s-.32-.14-.49-.15c-.37-.03-.74.02-1.08.15-.02-.3-.26-.55-.53-.68s-.58-.15-.88-.17c-.05-.4-.19-.82-.52-1.06-.3-.22-.71-.23-1.07-.14s-.68.3-1,.49c-.04.03-.09.05-.14.04-.04-.01-.06-.04-.09-.07-.2-.23-.52-.32-.83-.31s-.59.13-.87.27c-.14.07-.27.15-.37.27s-.12.3-.04.43c-.38.12-.74.29-1.07.51-.32.21-.62.47-.99.55-.35.07-.72-.04-1.06.06-.42.12-.68.53-.9.91"/>
          <path class="cls-2" d="M518.63,10c.13-.19.22-.41.37-.59.32-.39.85-.53,1.33-.66.47-.12.96-.24,1.45-.25s1,.13,1.36.46c.08.07.16.15.26.16.08,0,.16-.04.24-.07.48-.18,1,.11,1.39.44.11.09.22.18.35.23.11.04.23.04.35.03.33-.01.67-.08,1-.03s.67.27.73.6c.05.29-.12.58-.12.88.34.02.73.05.96.3.23.24.25.61.41.91.21.43.71.69,1.19.62-.45.51-1.17.68-1.84.77-1.05.14-2.11.16-3.17.19-2.54.06-5.09.12-7.63.18-.9.02-1.81.04-2.69-.13-.33-.06-.72-.21-.79-.55-.05-.27.14-.52.35-.69.75-.61,1.78-.67,2.58-1.2.29-.19.52-.46.81-.66.41-.29.83-.51,1.12-.95Z"/>
          <path class="cls-2" d="M398.35,12.16c.13-.19.22-.41.37-.59.32-.39.85-.53,1.33-.66.47-.12.96-.24,1.45-.25s1,.13,1.36.46c.08.07.16.15.26.16.08,0,.16-.04.24-.07.48-.18,1,.11,1.39.44.11.09.22.18.35.23.11.04.23.04.35.03.33-.01.67-.08,1-.03s.67.27.73.6c.05.29-.12.58-.12.88.34.02.73.05.96.3.23.24.25.61.41.91.21.43.71.69,1.19.62-.45.51-1.17.68-1.84.77-1.05.14-2.11.16-3.17.19-2.54.06-5.09.12-7.63.18-.9.02-1.81.04-2.69-.13-.33-.06-.72-.21-.79-.55-.05-.27.14-.52.35-.69.75-.61,1.78-.67,2.58-1.2.29-.19.52-.46.81-.66.41-.29.83-.51,1.12-.95Z"/>
          <path class="cls-2" d="M595.88,10c.13-.19.22-.41.37-.59.32-.39.85-.53,1.33-.66.47-.12.96-.24,1.45-.25s1,.13,1.36.46c.08.07.16.15.26.16.08,0,.16-.04.24-.07.48-.18,1,.11,1.39.44.11.09.22.18.35.23.11.04.23.04.35.03.33-.01.67-.08,1-.03s.67.27.73.6c.05.29-.12.58-.12.88.34.02.73.05.96.3.23.24.25.61.41.91.21.43.71.69,1.19.62-.45.51-1.17.68-1.84.77-1.05.14-2.11.16-3.17.19-2.54.06-5.09.12-7.63.18-.9.02-1.81.04-2.69-.13-.33-.06-.72-.21-.79-.55-.05-.27.14-.52.35-.69.75-.61,1.78-.67,2.58-1.2.29-.19.52-.46.81-.66.41-.29.83-.51,1.12-.95Z"/>
          <path class="cls-3" d="M365.4,10.64c.28-.55.79-.9,1.32-.9.08,0,.17,0,.25-.04.1-.06.15-.19.2-.31.33-.79.93-1.41,1.62-1.68-.11-.27-.13-.62,0-.88s.46-.35.64-.14c0-.21.15-.37.31-.46s.34-.15.43-.32c.12-.22.07-.51.08-.77.03-.86.73-1.46,1.4-1.69.4-.13.83-.18,1.2.04s.63.78.47,1.26c.18-.16.46-.07.61.14s.19.51.18.79c0,.07,0,.16.03.21.05.07.14.07.21.09.21.04.37.3.35.56.14.05.28.09.42.14-.06.16.03.34.13.45s.24.18.33.31c.09.13.13.31.18.47.18.58.55,1.04.9,1.49.17-.07.36.04.49.2s.23.35.37.5c.24.26.57.34.87.45.46.18.89.47,1.26.85-.43.13-.88.13-1.32.13-4.02,0-8.03,0-12.05.01-.52-.02-1.05-.09-1.57-.12-.08,0-.18-.02-.22-.11-.04-.09,0-.21.06-.29.21-.31.51-.43.84-.39Z"/>
          <path class="cls-2" d="M363.49,9.14c.09-.17.15-.35.26-.51.22-.33.59-.46.92-.56.33-.1.66-.21,1-.21s.69.11.94.39c.05.06.11.13.18.14.06,0,.11-.03.17-.06.33-.16.69.1.97.38.07.08.15.16.24.19.08.03.16.03.24.03.23-.01.46-.07.69-.02s.46.23.5.51c.04.25-.09.5-.08.75.24.01.5.04.67.26.16.21.18.53.28.78.15.37.49.59.82.54-.31.44-.81.58-1.28.66-.73.12-1.46.14-2.19.16-1.76.05-3.53.1-5.29.16-.62.02-1.25.04-1.87-.11-.23-.06-.5-.18-.54-.47-.04-.23.1-.45.24-.59.52-.52,1.23-.58,1.79-1.03.2-.17.36-.4.56-.57.29-.25.58-.44.78-.81Z"/>
          <path class="cls-3" d="M615.91,15.93c.28-.55.79-.9,1.32-.9.08,0,.17,0,.25-.04.1-.06.15-.19.2-.31.33-.79.93-1.41,1.62-1.68-.11-.27-.13-.62,0-.88s.46-.35.64-.14c0-.21.15-.37.31-.46s.34-.15.43-.32c.12-.22.07-.51.08-.77.03-.86.73-1.46,1.4-1.69.4-.13.83-.18,1.2.04s.63.78.47,1.26c.18-.16.46-.07.61.14s.19.51.18.79c0,.07,0,.16.03.21.05.07.14.07.21.09.21.04.37.3.35.56.14.05.28.09.42.14-.06.16.03.34.13.45s.24.18.33.31c.09.13.13.31.18.47.18.58.55,1.04.9,1.49.17-.07.36.04.49.2s.23.35.37.5c.24.26.57.34.87.45.46.18.89.47,1.26.85-.43.13-.88.13-1.32.13-4.02,0-8.03,0-12.05.01-.52-.02-1.05-.09-1.57-.12-.08,0-.18-.02-.22-.11-.04-.09,0-.21.06-.29.21-.31.51-.43.84-.39Z"/>
          <path class="cls-2" d="M612.78,13.84c.09-.17.15-.35.26-.51.22-.33.59-.46.92-.56.33-.1.66-.21,1-.21s.69.11.94.39c.05.06.11.13.18.14.06,0,.11-.03.17-.06.33-.16.69.1.97.38.07.08.15.16.24.19.08.03.16.03.24.03.23-.01.46-.07.69-.02s.46.23.5.51c.04.25-.09.5-.08.75.24.01.5.04.67.26.16.21.18.53.28.78.15.37.49.59.82.54-.31.44-.81.58-1.28.66-.73.12-1.46.14-2.19.16-1.76.05-3.53.1-5.29.16-.62.02-1.25.04-1.87-.11-.23-.06-.5-.18-.54-.47-.04-.23.1-.45.24-.59.52-.52,1.23-.58,1.79-1.03.2-.17.36-.4.56-.57.29-.25.58-.44.78-.81Z"/>
          <path class="cls-3" d="M567.25,13.27c-.28-.04-.56-.08-.79-.18-.27-.11-.36-.55-.68-.69-.44-.19-.89.17-1.28-.23-.27-.28-.63-.53-.97-.38-.05.03-.11.06-.17.06-.07,0-.13-.08-.18-.14-.25-.28-.6-.39-.94-.39-.34,0-.67.11-1,.21-.34.11-.7.23-.92.56-.05.07-.09.15-.13.24-.13-.1-.29-.16-.45-.19-.33-.05-.67.01-1,.03-.12,0-.24,0-.35-.03-.13-.05-.24-.14-.35-.23-.4-.32-.92-.62-1.39-.44-.08.03-.16.07-.24.07-.1,0-.18-.09-.26-.16-.36-.33-.87-.46-1.36-.46-.49,0-.97.12-1.45.25-.49.12-1.01.27-1.33.66-.15.18-.24.4-.37.59-.29.43-.7.66-1.12.95-.29.2-.51.47-.81.66-.8.53-1.83.59-2.58,1.2-.21.17-.4.42-.35.69.06.33.45.48.79.55.88.17,1.79.15,2.69.13,3.49-.08,6.95-.39,10.41-.05,3.68.36,7.49.4,11.04-.79.23-.08.47-.17.61-.36.32-.44-.06-1.04-.42-1.44-.34.17-.72.35-1.1.29-.43-.07-.76-.42-1.16-.6s-1.02-.06-1.04.38c-.24-.58-.8-.67-1.35-.75Z"/>
          <path class="cls-2" d="M451.12,5.66c.43-.06.87-.11,1.3-.06s.86.25,1.12.6c.33.44.32,1.04.4,1.58.02.11.04.23.12.3.1.09.25.09.38.1.78.03,1.53.43,2,1.05.06.09.13.18.22.23.12.06.27.04.41.03.14-.01.28,0,.42.01.2.03.38-.11.42-.31.05-.21.17-.4.33-.54.27-.24.64-.33,1-.33.46,0,.96.24,1.16.62.08.15.24.25.41.23.23-.03.49.04.66.2.19.18.27.46.23.71-.03.16.06.32.2.39.41.22.74.6.88,1.04.05.15.19.25.34.26.25.02.48.13.65.32.08.09.15.21.25.28.2.14.47.09.7.18.36.14.53.57.87.76.34.19.77.09,1.16.13s.84.38.68.75c-.03.06-.07.12-.12.16-.14.1-.32.1-.49.1-7.32-.12-14.61.57-21.86.58-2.24,0-4.49-.06-6.73-.18-.41-.02-.51-.59-.12-.75l1.31-.52c.26-.1.53-.21.76-.38.19-.14.35-.31.55-.41.68-.34,1.59.18,2.27.02.2-.05.32-.25.28-.45-.06-.34.19-.74.51-.92.41-.23.9-.24,1.36-.35s.94-.4,1-.87c.04-.27-.08-.55-.02-.82.26-1.2,1.91-.26,2.53-.77s.42-1.51.77-2.21c.39-.77.92-.66,1.69-.77Z"/>
          <path class="cls-2" d="M476.58,7.16c2.07-.07,3.86-.08,5.93.01-.01-.2-.22-.32-.42-.34s-.39.03-.59.03c-.36-.02-.68-.24-.97-.46s-.59-.46-.94-.52-.79.15-.83.51c-.16-.2-.38-.37-.63-.34s-.45.35-.29.54c-.31.01-.62.08-.91.18-.14.05-.26.13-.32.26-.05.11-.02.13-.02.13"/>
          <path class="cls-2" d="M497.9,7.9c.03-.23-.22-.45-.45-.38-.04-.2-.35-.28-.47-.12-.1-.1-.19-.21-.33-.26s-.3-.03-.38.09c-.24-.34-.79-.38-1.09-.1-.28-.13-.65-.25-.86-.03-.04.04-.07.1-.11.14-.33.32-.85-.12-.92.5-.06.56.36.28.7.19s3.89.04,3.9-.04Z"/>
          <path class="cls-2" d="M502.29,8.18c-.2-.16-.47-.2-.73-.23-.31-.04-.62-.07-.93-.11-.05,0-.1-.01-.14-.03-.12-.04-.2-.14-.3-.22-.29-.23-.72-.25-1.03-.05-.06.04-.11.08-.18.09-.25.03-.35-.14-.61,0-.09.05-.35.22-.32.35.06.22.69.14.84.14,1.13-.04,2.26-.04,3.39.07Z"/>
          <path class="cls-2" d="M397.36,8c.03-.23-.22-.45-.45-.38-.04-.2-.35-.28-.47-.12-.1-.1-.19-.21-.33-.26s-.3-.03-.38.09c-.24-.34-.79-.38-1.09-.1-.28-.13-.65-.25-.86-.03-.04.04-.07.1-.11.14-.33.32-.85-.12-.92.5-.06.56.36.28.7.19s3.89.04,3.9-.04Z"/>
          <path class="cls-2" d="M401.75,8.28c-.2-.16-.47-.2-.73-.23-.31-.04-.62-.07-.93-.11-.05,0-.1-.01-.14-.03-.12-.04-.2-.14-.3-.22-.29-.23-.72-.25-1.03-.05-.06.04-.11.08-.18.09-.25.03-.35-.14-.61,0-.09.05-.35.22-.32.35.06.22.69.14.84.14,1.13-.04,2.26-.04,3.39.07Z"/>
          <path class="cls-2" d="M499.26,6.12c.08-.11.26-.11.34-.01.22-.39.87-.41,1.13-.04.27-.14.61-.13.87.03.08.05.15.11.23.14.1.04.22.05.33.05.59.04,1.17.19,1.71.44-.27.05-.55.07-.83.08-.82.04-1.64.07-2.46.11-.41.02-.82.04-1.23.03-.25,0-.87.06-1.03-.18-.12-.17,0-.44.17-.54.32-.19.55.21.78-.11Z"/>
          <path class="cls-2" d="M555.97,6.72c2.07-.07,3.86-.08,5.93.01-.01-.2-.22-.32-.42-.34s-.39.03-.59.03c-.36-.02-.68-.24-.97-.46s-.59-.46-.94-.52-.79.15-.83.51c-.16-.2-.38-.37-.63-.34s-.45.35-.29.54c-.31.01-.62.08-.91.18-.14.05-.26.13-.32.26-.05.11-.02.13-.02.13"/>
          <path class="cls-2" d="M577.29,7.47c.03-.23-.22-.45-.45-.38-.04-.2-.35-.28-.47-.12-.1-.1-.19-.21-.33-.26s-.3-.03-.38.09c-.24-.34-.79-.38-1.09-.1-.28-.13-.65-.25-.86-.03-.04.04-.07.1-.11.14-.33.32-.85-.12-.92.5-.06.56.36.28.7.19s3.89.04,3.9-.04Z"/>
          <path class="cls-2" d="M630.19,13.71c2.07-.07,3.86-.08,5.93.01-.01-.2-.22-.32-.42-.34s-.39.03-.59.03c-.36-.02-.68-.24-.97-.46s-.59-.46-.94-.52-.79.15-.83.51c-.16-.2-.38-.37-.63-.34s-.45.35-.29.54c-.31.01-.62.08-.91.18-.14.05-.26.13-.32.26-.05.11-.02.13-.02.13"/>
          <path class="cls-2" d="M651.51,14.46c.03-.23-.22-.45-.45-.38-.04-.2-.35-.28-.47-.12-.1-.1-.19-.21-.33-.26s-.3-.03-.38.09c-.24-.34-.79-.38-1.09-.1-.28-.13-.65-.25-.86-.03-.04.04-.07.1-.11.14-.33.32-.85-.12-.92.5-.06.56.36.28.7.19s3.89.04,3.9-.04Z"/>
          <path class="cls-2" d="M578.65,5.68c.08-.11.26-.11.34-.01.22-.39.87-.41,1.13-.04.27-.14.61-.13.87.03.08.05.15.11.23.14.1.04.22.05.33.05.59.04,1.17.19,1.71.44-.27.05-.55.07-.83.08-.82.04-1.64.07-2.46.11-.41.02-.82.04-1.23.03-.25,0-.87.06-1.03-.18-.12-.17,0-.44.17-.54.32-.19.55.21.78-.11Z"/>
          <path class="cls-2" d="M574.39,13.61c-.28-.04-.56-.08-.79-.18-.27-.11-.36-.55-.68-.69-.44-.19-.89.17-1.28-.23-.27-.28-.63-.53-.97-.38-.05.03-.11.06-.17.06-.07,0-.13-.08-.18-.14-.25-.28-.6-.39-.94-.39-.34,0-.67.11-1,.21-.34.11-.7.23-.92.56-.05.07-.09.15-.13.24-.13-.1-.29-.16-.45-.19-.33-.05-.67.01-1,.03-.12,0-.24,0-.35-.03-.13-.05-.24-.14-.35-.23-.4-.32-.92-.62-1.39-.44-.08.03-.16.07-.24.07-.1,0-.18-.09-.26-.16-.36-.33-.87-.46-1.36-.46-.49,0-.97.12-1.45.25-.49.12-1.01.27-1.33.66-.15.18-.24.4-.37.59-.29.43-.7.66-1.12.95-.29.2-.51.47-.81.66-.8.53-1.83.59-2.58,1.2-.21.17-.4.42-.35.69.06.33.45.48.79.55.88.17,1.79.15,2.69.13,3.49-.08,6.95-.39,10.41-.05,3.68.36,7.49.4,11.04-.79.23-.08.47-.17.61-.36.32-.44-.06-1.04-.42-1.44-.34.17-.72.35-1.1.29-.43-.07-.76-.42-1.16-.6s-1.02-.06-1.04.38c-.24-.58-.8-.67-1.35-.75Z"/>
        </g>
        <g id="Clouds-3" data-name="Clouds">
          <path class="cls-2" d="M163.16,11.82c.1.02.19.05.29.04.1-.02.18-.08.27-.14.63-.43,1.54-.41,2.15.05.04.03.08.06.13.06.04,0,.08-.03.11-.05.38-.24.93-.15,1.21.2.4-.09.82-.11,1.22-.03.11.02.23.05.32.12s.13.21.07.31c.33-.04.67.17.79.47.06.15.07.32.15.46s.26.25.4.17c.05.08.06.19.02.28.22-.04.45,0,.65.07-.27.08-.56.08-.84.08-2.1-.01-4.19-.02-6.29-.04-.51,0-1.03,0-1.54,0-.26,0-1.15.15-1.35-.02-.21-.18.49-.57.64-.71.52-.48.67-1.5,1.6-1.32Z"/>
          <path class="cls-3" d="M152.35,15.2c.4-.64,1.15-1.04,1.9-1.04.12,0,.25,0,.36-.04.14-.07.21-.22.28-.36.48-.92,1.34-1.64,2.34-1.95-.16-.32-.19-.73.01-1.02s.67-.4.93-.16c-.01-.25.22-.43.45-.53s.48-.17.63-.38c.18-.25.1-.59.12-.9.04-1,1.05-1.7,2.02-1.96.57-.15,1.2-.21,1.74.05s.9.91.68,1.46c.27-.19.66-.08.87.16s.27.59.27.91c0,.09,0,.18.05.25.07.09.2.08.31.1.3.05.53.35.5.66.2.05.4.11.6.16-.08.18.04.39.19.52s.34.21.48.36c.13.15.19.36.26.55.26.68.79,1.21,1.3,1.73.25-.08.52.05.71.23s.33.41.53.58c.35.3.82.39,1.26.53.66.21,1.28.54,1.81.98-.62.15-1.27.15-1.91.15-5.8,0-11.59.01-17.39.02-.75-.03-1.52-.11-2.27-.13-.12,0-.27-.02-.32-.13-.06-.11,0-.24.09-.33.3-.36.74-.5,1.21-.46Z"/>
          <path class="cls-3" d="M79.89,13.75c.28-.44.79-.71,1.3-.71.08,0,.17,0,.24-.03.09-.05.14-.15.19-.24.33-.63.92-1.12,1.6-1.34-.11-.22-.13-.5,0-.7s.46-.28.64-.11c0-.17.15-.3.31-.36s.33-.12.43-.26c.12-.17.07-.4.08-.61.03-.69.72-1.16,1.38-1.34.39-.1.82-.14,1.19.03s.62.62.47,1c.18-.13.45-.06.6.11s.19.4.18.63c0,.06,0,.13.03.17.05.06.14.06.21.07.2.04.36.24.34.45.14.04.27.07.41.11-.06.12.03.27.13.35s.24.14.33.24c.09.1.13.24.18.37.18.46.54.83.89,1.18.17-.06.36.03.49.16s.23.28.36.4c.24.21.56.27.86.36.45.14.88.37,1.24.67-.43.1-.87.1-1.31.11-3.97,0-7.94,0-11.91.01-.51-.02-1.04-.07-1.55-.09-.08,0-.18-.01-.22-.09-.04-.07,0-.16.06-.23.2-.25.51-.35.83-.31Z"/>
          <path class="cls-2" d="M172.3,12.22c.76-.52,1.89-.4,2.53.26-.23-.16-.26-.51-.1-.74s.45-.33.73-.31c.42.03.85.41.77.83.36-.12.77-.08,1.09.11s.55.54.61.91c0,.05.02.11.06.15.05.04.11.03.17.02.51-.08,1.06.14,1.37.54.2.26.33.6.62.75.2.1.45.09.66.19s.36.39.2.54c-4.18.06-8.36.04-12.54-.07.13,0,.45-1.28.55-1.44.26-.38.54-.68.75-1.1.44-.88,1.69-1.06,2.52-.65Z"/>
          <path class="cls-3" d="M204.31,12.02c3.56-.2,7.17.38,10.66-.35.22-.05.49-.13.55-.35.05-.17-.04-.35-.18-.46s-.32-.14-.49-.15c-.37-.03-.74.02-1.08.15-.02-.3-.26-.55-.53-.68s-.58-.15-.88-.17c-.05-.4-.19-.82-.52-1.06-.3-.22-.71-.23-1.07-.14s-.68.3-1,.49c-.04.03-.09.05-.14.04-.04-.01-.06-.04-.09-.07-.2-.23-.52-.32-.83-.31s-.59.13-.87.27c-.14.07-.27.15-.37.27s-.12.3-.04.43c-.38.12-.74.29-1.07.51-.32.21-.62.47-.99.55-.35.07-.72-.04-1.06.06-.42.12-.68.53-.9.91"/>
          <path class="cls-3" d="M109.58,13.76c3.56-.2,7.17.38,10.66-.35.22-.05.49-.13.55-.35.05-.17-.04-.35-.18-.46s-.32-.14-.49-.15c-.37-.03-.74.02-1.08.15-.02-.3-.26-.55-.53-.68s-.58-.15-.88-.17c-.05-.4-.19-.82-.52-1.06-.3-.22-.71-.23-1.07-.14s-.68.3-1,.49c-.04.03-.09.05-.14.04-.04-.01-.06-.04-.09-.07-.2-.23-.52-.32-.83-.31s-.59.13-.87.27c-.14.07-.27.15-.37.27s-.12.3-.04.43c-.38.12-.74.29-1.07.51-.32.21-.62.47-.99.55-.35.07-.72-.04-1.06.06-.42.12-.68.53-.9.91"/>
          <path class="cls-2" d="M195.51,9.94c.13-.19.22-.41.37-.59.32-.39.85-.53,1.33-.66.47-.12.96-.24,1.45-.25s1,.13,1.36.46c.08.07.16.15.26.16.08,0,.16-.04.24-.07.48-.18,1,.11,1.39.44.11.09.22.18.35.23.11.04.23.04.35.03.33-.01.67-.08,1-.03s.67.27.73.6c.05.29-.12.58-.12.88.34.02.73.05.96.3.23.24.25.61.41.91.21.43.71.69,1.19.62-.45.51-1.17.68-1.84.77-1.05.14-2.11.16-3.17.19-2.54.06-5.09.12-7.63.18-.9.02-1.81.04-2.69-.13-.33-.06-.72-.21-.79-.55-.05-.27.14-.52.35-.69.75-.61,1.78-.67,2.58-1.2.29-.19.52-.46.81-.66.41-.29.83-.51,1.12-.95Z"/>
          <path class="cls-2" d="M75.23,12.1c.13-.19.22-.41.37-.59.32-.39.85-.53,1.33-.66.47-.12.96-.24,1.45-.25s1,.13,1.36.46c.08.07.16.15.26.16.08,0,.16-.04.24-.07.48-.18,1,.11,1.39.44.11.09.22.18.35.23.11.04.23.04.35.03.33-.01.67-.08,1-.03s.67.27.73.6c.05.29-.12.58-.12.88.34.02.73.05.96.3.23.24.25.61.41.91.21.43.71.69,1.19.62-.45.51-1.17.68-1.84.77-1.05.14-2.11.16-3.17.19-2.54.06-5.09.12-7.63.18-.9.02-1.81.04-2.69-.13-.33-.06-.72-.21-.79-.55-.05-.27.14-.52.35-.69.75-.61,1.78-.67,2.58-1.2.29-.19.52-.46.81-.66.41-.29.83-.51,1.12-.95Z"/>
          <path class="cls-2" d="M272.76,9.94c.13-.19.22-.41.37-.59.32-.39.85-.53,1.33-.66.47-.12.96-.24,1.45-.25s1,.13,1.36.46c.08.07.16.15.26.16.08,0,.16-.04.24-.07.48-.18,1,.11,1.39.44.11.09.22.18.35.23.11.04.23.04.35.03.33-.01.67-.08,1-.03s.67.27.73.6c.05.29-.12.58-.12.88.34.02.73.05.96.3.23.24.25.61.41.91.21.43.71.69,1.19.62-.45.51-1.17.68-1.84.77-1.05.14-2.11.16-3.17.19-2.54.06-5.09.12-7.63.18-.9.02-1.81.04-2.69-.13-.33-.06-.72-.21-.79-.55-.05-.27.14-.52.35-.69.75-.61,1.78-.67,2.58-1.2.29-.19.52-.46.81-.66.41-.29.83-.51,1.12-.95Z"/>
          <path class="cls-3" d="M42.28,10.58c.28-.55.79-.9,1.32-.9.08,0,.17,0,.25-.04.1-.06.15-.19.2-.31.33-.79.93-1.41,1.62-1.68-.11-.27-.13-.62,0-.88s.46-.35.64-.14c0-.21.15-.37.31-.46s.34-.15.43-.32c.12-.22.07-.51.08-.77.03-.86.73-1.46,1.4-1.69.4-.13.83-.18,1.2.04s.63.78.47,1.26c.18-.16.46-.07.61.14s.19.51.18.79c0,.07,0,.16.03.21.05.07.14.07.21.09.21.04.37.3.35.56.14.05.28.09.42.14-.06.16.03.34.13.45s.24.18.33.31c.09.13.13.31.18.47.18.58.55,1.04.9,1.49.17-.07.36.04.49.2s.23.35.37.5c.24.26.57.34.87.45.46.18.89.47,1.26.85-.43.13-.88.13-1.32.13-4.02,0-8.03,0-12.05.01-.52-.02-1.05-.09-1.57-.12-.08,0-.18-.02-.22-.11-.04-.09,0-.21.06-.29.21-.31.51-.43.84-.39Z"/>
          <path class="cls-2" d="M40.37,9.09c.09-.17.15-.35.26-.51.22-.33.59-.46.92-.56.33-.1.66-.21,1-.21s.69.11.94.39c.05.06.11.13.18.14.06,0,.11-.03.17-.06.33-.16.69.1.97.38.07.08.15.16.24.19.08.03.16.03.24.03.23-.01.46-.07.69-.02s.46.23.5.51c.04.25-.09.5-.08.75.24.01.5.04.67.26.16.21.18.53.28.78.15.37.49.59.82.54-.31.44-.81.58-1.28.66-.73.12-1.46.14-2.19.16-1.76.05-3.53.1-5.29.16-.62.02-1.25.04-1.87-.11-.23-.06-.5-.18-.54-.47-.04-.23.1-.45.24-.59.52-.52,1.23-.58,1.79-1.03.2-.17.36-.4.56-.57.29-.25.58-.44.78-.81Z"/>
          <path class="cls-3" d="M292.79,15.87c.28-.55.79-.9,1.32-.9.08,0,.17,0,.25-.04.1-.06.15-.19.2-.31.33-.79.93-1.41,1.62-1.68-.11-.27-.13-.62,0-.88s.46-.35.64-.14c0-.21.15-.37.31-.46s.34-.15.43-.32c.12-.22.07-.51.08-.77.03-.86.73-1.46,1.4-1.69.4-.13.83-.18,1.2.04s.63.78.47,1.26c.18-.16.46-.07.61.14s.19.51.18.79c0,.07,0,.16.03.21.05.07.14.07.21.09.21.04.37.3.35.56.14.05.28.09.42.14-.06.16.03.34.13.45s.24.18.33.31c.09.13.13.31.18.47.18.58.55,1.04.9,1.49.17-.07.36.04.49.2s.23.35.37.5c.24.26.57.34.87.45.46.18.89.47,1.26.85-.43.13-.88.13-1.32.13-4.02,0-8.03,0-12.05.01-.52-.02-1.05-.09-1.57-.12-.08,0-.18-.02-.22-.11-.04-.09,0-.21.06-.29.21-.31.51-.43.84-.39Z"/>
          <path class="cls-2" d="M289.67,13.78c.09-.17.15-.35.26-.51.22-.33.59-.46.92-.56.33-.1.66-.21,1-.21s.69.11.94.39c.05.06.11.13.18.14.06,0,.11-.03.17-.06.33-.16.69.1.97.38.07.08.15.16.24.19.08.03.16.03.24.03.23-.01.46-.07.69-.02s.46.23.5.51c.04.25-.09.5-.08.75.24.01.5.04.67.26.16.21.18.53.28.78.15.37.49.59.82.54-.31.44-.81.58-1.28.66-.73.12-1.46.14-2.19.16-1.76.05-3.53.1-5.29.16-.62.02-1.25.04-1.87-.11-.23-.06-.5-.18-.54-.47-.04-.23.1-.45.24-.59.52-.52,1.23-.58,1.79-1.03.2-.17.36-.4.56-.57.29-.25.58-.44.78-.81Z"/>
          <path class="cls-3" d="M244.13,13.22c-.28-.04-.56-.08-.79-.18-.27-.11-.36-.55-.68-.69-.44-.19-.89.17-1.28-.23-.27-.28-.63-.53-.97-.38-.05.03-.11.06-.17.06-.07,0-.13-.08-.18-.14-.25-.28-.6-.39-.94-.39-.34,0-.67.11-1,.21-.34.11-.7.23-.92.56-.05.07-.09.15-.13.24-.13-.1-.29-.16-.45-.19-.33-.05-.67.01-1,.03-.12,0-.24,0-.35-.03-.13-.05-.24-.14-.35-.23-.4-.32-.92-.62-1.39-.44-.08.03-.16.07-.24.07-.1,0-.18-.09-.26-.16-.36-.33-.87-.46-1.36-.46-.49,0-.97.12-1.45.25-.49.12-1.01.27-1.33.66-.15.18-.24.4-.37.59-.29.43-.7.66-1.12.95-.29.2-.51.47-.81.66-.8.53-1.83.59-2.58,1.2-.21.17-.4.42-.35.69.06.33.45.48.79.55.88.17,1.79.15,2.69.13,3.49-.08,6.95-.39,10.41-.05,3.68.36,7.49.4,11.04-.79.23-.08.47-.17.61-.36.32-.44-.06-1.04-.42-1.44-.34.17-.72.35-1.1.29-.43-.07-.76-.42-1.16-.6s-1.02-.06-1.04.38c-.24-.58-.8-.67-1.35-.75Z"/>
          <path class="cls-2" d="M128,5.6c.43-.06.87-.11,1.3-.06s.86.25,1.12.6c.33.44.32,1.04.4,1.58.02.11.04.23.12.3.1.09.25.09.38.1.78.03,1.53.43,2,1.05.06.09.13.18.22.23.12.06.27.04.41.03.14-.01.28,0,.42.01.2.03.38-.11.42-.31.05-.21.17-.4.33-.54.27-.24.64-.33,1-.33.46,0,.96.24,1.16.62.08.15.24.25.41.23.23-.03.49.04.66.2.19.18.27.46.23.71-.03.16.06.32.2.39.41.22.74.6.88,1.04.05.15.19.25.34.26.25.02.48.13.65.32.08.09.15.21.25.28.2.14.47.09.7.18.36.14.53.57.87.76.34.19.77.09,1.16.13s.84.38.68.75c-.03.06-.07.12-.12.16-.14.1-.32.1-.49.1-7.32-.12-14.61.57-21.86.58-2.24,0-4.49-.06-6.73-.18-.41-.02-.51-.59-.12-.75l1.31-.52c.26-.1.53-.21.76-.38.19-.14.35-.31.55-.41.68-.34,1.59.18,2.27.02.2-.05.32-.25.28-.45-.06-.34.19-.74.51-.92.41-.23.9-.24,1.36-.35s.94-.4,1-.87c.04-.27-.08-.55-.02-.82.26-1.2,1.91-.26,2.53-.77s.42-1.51.77-2.21c.39-.77.92-.66,1.69-.77Z"/>
          <path class="cls-2" d="M153.46,7.1c2.07-.07,3.86-.08,5.93.01-.01-.2-.22-.32-.42-.34s-.39.03-.59.03c-.36-.02-.68-.24-.97-.46s-.59-.46-.94-.52-.79.15-.83.51c-.16-.2-.38-.37-.63-.34s-.45.35-.29.54c-.31.01-.62.08-.91.18-.14.05-.26.13-.32.26-.05.11-.02.13-.02.13"/>
          <path class="cls-2" d="M174.78,7.85c.03-.23-.22-.45-.45-.38-.04-.2-.35-.28-.47-.12-.1-.1-.19-.21-.33-.26s-.3-.03-.38.09c-.24-.34-.79-.38-1.09-.1-.28-.13-.65-.25-.86-.03-.04.04-.07.1-.11.14-.33.32-.85-.12-.92.5-.06.56.36.28.7.19s3.89.04,3.9-.04Z"/>
          <path class="cls-2" d="M179.17,8.12c-.2-.16-.47-.2-.73-.23-.31-.04-.62-.07-.93-.11-.05,0-.1-.01-.14-.03-.12-.04-.2-.14-.3-.22-.29-.23-.72-.25-1.03-.05-.06.04-.11.08-.18.09-.25.03-.35-.14-.61,0-.09.05-.35.22-.32.35.06.22.69.14.84.14,1.13-.04,2.26-.04,3.39.07Z"/>
          <path class="cls-2" d="M74.24,7.94c.03-.23-.22-.45-.45-.38-.04-.2-.35-.28-.47-.12-.1-.1-.19-.21-.33-.26s-.3-.03-.38.09c-.24-.34-.79-.38-1.09-.1-.28-.13-.65-.25-.86-.03-.04.04-.07.1-.11.14-.33.32-.85-.12-.92.5-.06.56.36.28.7.19s3.89.04,3.9-.04Z"/>
          <path class="cls-2" d="M78.63,8.22c-.2-.16-.47-.2-.73-.23-.31-.04-.62-.07-.93-.11-.05,0-.1-.01-.14-.03-.12-.04-.2-.14-.3-.22-.29-.23-.72-.25-1.03-.05-.06.04-.11.08-.18.09-.25.03-.35-.14-.61,0-.09.05-.35.22-.32.35.06.22.69.14.84.14,1.13-.04,2.26-.04,3.39.07Z"/>
          <path class="cls-2" d="M176.14,6.06c.08-.11.26-.11.34-.01.22-.39.87-.41,1.13-.04.27-.14.61-.13.87.03.08.05.15.11.23.14.1.04.22.05.33.05.59.04,1.17.19,1.71.44-.27.05-.55.07-.83.08-.82.04-1.64.07-2.46.11-.41.02-.82.04-1.23.03-.25,0-.87.06-1.03-.18-.12-.17,0-.44.17-.54.32-.19.55.21.78-.11Z"/>
          <path class="cls-2" d="M232.86,6.66c2.07-.07,3.86-.08,5.93.01-.01-.2-.22-.32-.42-.34s-.39.03-.59.03c-.36-.02-.68-.24-.97-.46s-.59-.46-.94-.52-.79.15-.83.51c-.16-.2-.38-.37-.63-.34s-.45.35-.29.54c-.31.01-.62.08-.91.18-.14.05-.26.13-.32.26-.05.11-.02.13-.02.13"/>
          <path class="cls-2" d="M254.17,7.41c.03-.23-.22-.45-.45-.38-.04-.2-.35-.28-.47-.12-.1-.1-.19-.21-.33-.26s-.3-.03-.38.09c-.24-.34-.79-.38-1.09-.1-.28-.13-.65-.25-.86-.03-.04.04-.07.1-.11.14-.33.32-.85-.12-.92.5-.06.56.36.28.7.19s3.89.04,3.9-.04Z"/>
          <path class="cls-2" d="M307.07,13.65c2.07-.07,3.86-.08,5.93.01-.01-.2-.22-.32-.42-.34s-.39.03-.59.03c-.36-.02-.68-.24-.97-.46s-.59-.46-.94-.52-.79.15-.83.51c-.16-.2-.38-.37-.63-.34s-.45.35-.29.54c-.31.01-.62.08-.91.18-.14.05-.26.13-.32.26-.05.11-.02.13-.02.13"/>
          <path class="cls-2" d="M328.39,14.4c.03-.23-.22-.45-.45-.38-.04-.2-.35-.28-.47-.12-.1-.1-.19-.21-.33-.26s-.3-.03-.38.09c-.24-.34-.79-.38-1.09-.1-.28-.13-.65-.25-.86-.03-.04.04-.07.1-.11.14-.33.32-.85-.12-.92.5-.06.56.36.28.7.19s3.89.04,3.9-.04Z"/>
          <path class="cls-2" d="M255.54,5.63c.08-.11.26-.11.34-.01.22-.39.87-.41,1.13-.04.27-.14.61-.13.87.03.08.05.15.11.23.14.1.04.22.05.33.05.59.04,1.17.19,1.71.44-.27.05-.55.07-.83.08-.82.04-1.64.07-2.46.11-.41.02-.82.04-1.23.03-.25,0-.87.06-1.03-.18-.12-.17,0-.44.17-.54.32-.19.55.21.78-.11Z"/>
          <path class="cls-2" d="M251.27,13.55c-.28-.04-.56-.08-.79-.18-.27-.11-.36-.55-.68-.69-.44-.19-.89.17-1.28-.23-.27-.28-.63-.53-.97-.38-.05.03-.11.06-.17.06-.07,0-.13-.08-.18-.14-.25-.28-.6-.39-.94-.39-.34,0-.67.11-1,.21-.34.11-.7.23-.92.56-.05.07-.09.15-.13.24-.13-.1-.29-.16-.45-.19-.33-.05-.67.01-1,.03-.12,0-.24,0-.35-.03-.13-.05-.24-.14-.35-.23-.4-.32-.92-.62-1.39-.44-.08.03-.16.07-.24.07-.1,0-.18-.09-.26-.16-.36-.33-.87-.46-1.36-.46-.49,0-.97.12-1.45.25-.49.12-1.01.27-1.33.66-.15.18-.24.4-.37.59-.29.43-.7.66-1.12.95-.29.2-.51.47-.81.66-.8.53-1.83.59-2.58,1.2-.21.17-.4.42-.35.69.06.33.45.48.79.55.88.17,1.79.15,2.69.13,3.49-.08,6.95-.39,10.41-.05,3.68.36,7.49.4,11.04-.79.23-.08.47-.17.61-.36.32-.44-.06-1.04-.42-1.44-.34.17-.72.35-1.1.29-.43-.07-.76-.42-1.16-.6s-1.02-.06-1.04.38c-.24-.58-.8-.67-1.35-.75Z"/>
        </g>
        <g id="Clouds-4" data-name="Clouds">
          <path class="cls-2" d="M789.42,11.97c.1.02.19.05.29.04.1-.02.18-.08.27-.14.63-.43,1.54-.41,2.15.05.04.03.08.06.13.06.04,0,.08-.03.11-.05.38-.24.93-.15,1.21.2.4-.09.82-.11,1.22-.03.11.02.23.05.32.12s.13.21.07.31c.33-.04.67.17.79.47.06.15.07.32.15.46s.26.25.4.17c.05.08.06.19.02.28.22-.04.45,0,.65.07-.27.08-.56.08-.84.08-2.1-.01-4.19-.02-6.29-.04-.51,0-1.03,0-1.54,0-.26,0-1.15.15-1.35-.02-.21-.18.49-.57.64-.71.52-.48.67-1.5,1.6-1.32Z"/>
          <path class="cls-3" d="M778.61,15.35c.4-.64,1.15-1.04,1.9-1.04.12,0,.25,0,.36-.04.14-.07.21-.22.28-.36.48-.92,1.34-1.64,2.34-1.95-.16-.32-.19-.73.01-1.02s.67-.4.93-.16c-.01-.25.22-.43.45-.53s.48-.17.63-.38c.18-.25.1-.59.12-.9.04-1,1.05-1.7,2.02-1.96.57-.15,1.2-.21,1.74.05s.9.91.68,1.46c.27-.19.66-.08.87.16s.27.59.27.91c0,.09,0,.18.05.25.07.09.2.08.31.1.3.05.53.35.5.66.2.05.4.11.6.16-.08.18.04.39.19.52s.34.21.48.36c.13.15.19.36.26.55.26.68.79,1.21,1.3,1.73.25-.08.52.05.71.23s.33.41.53.58c.35.3.82.39,1.26.53.66.21,1.28.54,1.81.98-.62.15-1.27.15-1.91.15-5.8,0-11.59.01-17.39.02-.75-.03-1.52-.11-2.27-.13-.12,0-.27-.02-.32-.13-.06-.11,0-.24.09-.33.3-.36.74-.5,1.21-.46Z"/>
          <path class="cls-3" d="M706.16,13.9c.28-.44.79-.71,1.3-.71.08,0,.17,0,.24-.03.09-.05.14-.15.19-.24.33-.63.92-1.12,1.6-1.34-.11-.22-.13-.5,0-.7s.46-.28.64-.11c0-.17.15-.3.31-.36s.33-.12.43-.26c.12-.17.07-.4.08-.61.03-.69.72-1.16,1.38-1.34.39-.1.82-.14,1.19.03s.62.62.47,1c.18-.13.45-.06.6.11s.19.4.18.63c0,.06,0,.13.03.17.05.06.14.06.21.07.2.04.36.24.34.45.14.04.27.07.41.11-.06.12.03.27.13.35s.24.14.33.24c.09.1.13.24.18.37.18.46.54.83.89,1.18.17-.06.36.03.49.16s.23.28.36.4c.24.21.56.27.86.36.45.14.88.37,1.24.67-.43.1-.87.1-1.31.11-3.97,0-7.94,0-11.91.01-.51-.02-1.04-.07-1.55-.09-.08,0-.18-.01-.22-.09-.04-.07,0-.16.06-.23.2-.25.51-.35.83-.31Z"/>
          <path class="cls-2" d="M798.56,12.37c.76-.52,1.89-.4,2.53.26-.23-.16-.26-.51-.1-.74s.45-.33.73-.31c.42.03.85.41.77.83.36-.12.77-.08,1.09.11s.55.54.61.91c0,.05.02.11.06.15.05.04.11.03.17.02.51-.08,1.06.14,1.37.54.2.26.33.6.62.75.2.1.45.09.66.19s.36.39.2.54c-4.18.06-8.36.04-12.54-.07.13,0,.45-1.28.55-1.44.26-.38.54-.68.75-1.1.44-.88,1.69-1.06,2.52-.65Z"/>
          <path class="cls-3" d="M830.58,12.17c3.56-.2,7.17.38,10.66-.35.22-.05.49-.13.55-.35.05-.17-.04-.35-.18-.46s-.32-.14-.49-.15c-.37-.03-.74.02-1.08.15-.02-.3-.26-.55-.53-.68s-.58-.15-.88-.17c-.05-.4-.19-.82-.52-1.06-.3-.22-.71-.23-1.07-.14s-.68.3-1,.49c-.04.03-.09.05-.14.04-.04-.01-.06-.04-.09-.07-.2-.23-.52-.32-.83-.31s-.59.13-.87.27c-.14.07-.27.15-.37.27s-.12.3-.04.43c-.38.12-.74.29-1.07.51-.32.21-.62.47-.99.55-.35.07-.72-.04-1.06.06-.42.12-.68.53-.9.91"/>
          <path class="cls-3" d="M735.84,13.91c3.56-.2,7.17.38,10.66-.35.22-.05.49-.13.55-.35.05-.17-.04-.35-.18-.46s-.32-.14-.49-.15c-.37-.03-.74.02-1.08.15-.02-.3-.26-.55-.53-.68s-.58-.15-.88-.17c-.05-.4-.19-.82-.52-1.06-.3-.22-.71-.23-1.07-.14s-.68.3-1,.49c-.04.03-.09.05-.14.04-.04-.01-.06-.04-.09-.07-.2-.23-.52-.32-.83-.31s-.59.13-.87.27c-.14.07-.27.15-.37.27s-.12.3-.04.43c-.38.12-.74.29-1.07.51-.32.21-.62.47-.99.55-.35.07-.72-.04-1.06.06-.42.12-.68.53-.9.91"/>
          <path class="cls-2" d="M821.77,10.09c.13-.19.22-.41.37-.59.32-.39.85-.53,1.33-.66.47-.12.96-.24,1.45-.25s1,.13,1.36.46c.08.07.16.15.26.16.08,0,.16-.04.24-.07.48-.18,1,.11,1.39.44.11.09.22.18.35.23.11.04.23.04.35.03.33-.01.67-.08,1-.03s.67.27.73.6c.05.29-.12.58-.12.88.34.02.73.05.96.3.23.24.25.61.41.91.21.43.71.69,1.19.62-.45.51-1.17.68-1.84.77-1.05.14-2.11.16-3.17.19-2.54.06-5.09.12-7.63.18-.9.02-1.81.04-2.69-.13-.33-.06-.72-.21-.79-.55-.05-.27.14-.52.35-.69.75-.61,1.78-.67,2.58-1.2.29-.19.52-.46.81-.66.41-.29.83-.51,1.12-.95Z"/>
          <path class="cls-2" d="M701.49,12.25c.13-.19.22-.41.37-.59.32-.39.85-.53,1.33-.66.47-.12.96-.24,1.45-.25s1,.13,1.36.46c.08.07.16.15.26.16.08,0,.16-.04.24-.07.48-.18,1,.11,1.39.44.11.09.22.18.35.23.11.04.23.04.35.03.33-.01.67-.08,1-.03s.67.27.73.6c.05.29-.12.58-.12.88.34.02.73.05.96.3.23.24.25.61.41.91.21.43.71.69,1.19.62-.45.51-1.17.68-1.84.77-1.05.14-2.11.16-3.17.19-2.54.06-5.09.12-7.63.18-.9.02-1.81.04-2.69-.13-.33-.06-.72-.21-.79-.55-.05-.27.14-.52.35-.69.75-.61,1.78-.67,2.58-1.2.29-.19.52-.46.81-.66.41-.29.83-.51,1.12-.95Z"/>
          <path class="cls-2" d="M899.03,10.09c.13-.19.22-.41.37-.59.32-.39.85-.53,1.33-.66.47-.12.96-.24,1.45-.25s1,.13,1.36.46c.08.07.16.15.26.16.08,0,.16-.04.24-.07.48-.18,1,.11,1.39.44.11.09.22.18.35.23.11.04.23.04.35.03.33-.01.67-.08,1-.03s.67.27.73.6c.05.29-.12.58-.12.88.34.02.73.05.96.3.23.24.25.61.41.91.21.43.71.69,1.19.62-.45.51-1.17.68-1.84.77-1.05.14-2.11.16-3.17.19-2.54.06-5.09.12-7.63.18-.9.02-1.81.04-2.69-.13-.33-.06-.72-.21-.79-.55-.05-.27.14-.52.35-.69.75-.61,1.78-.67,2.58-1.2.29-.19.52-.46.81-.66.41-.29.83-.51,1.12-.95Z"/>
          <path class="cls-3" d="M668.54,10.73c.28-.55.79-.9,1.32-.9.08,0,.17,0,.25-.04.1-.06.15-.19.2-.31.33-.79.93-1.41,1.62-1.68-.11-.27-.13-.62,0-.88s.46-.35.64-.14c0-.21.15-.37.31-.46s.34-.15.43-.32c.12-.22.07-.51.08-.77.03-.86.73-1.46,1.4-1.69.4-.13.83-.18,1.2.04s.63.78.47,1.26c.18-.16.46-.07.61.14s.19.51.18.79c0,.07,0,.16.03.21.05.07.14.07.21.09.21.04.37.3.35.56.14.05.28.09.42.14-.06.16.03.34.13.45s.24.18.33.31c.09.13.13.31.18.47.18.58.55,1.04.9,1.49.17-.07.36.04.49.2s.23.35.37.5c.24.26.57.34.87.45.46.18.89.47,1.26.85-.43.13-.88.13-1.32.13-4.02,0-8.03,0-12.05.01-.52-.02-1.05-.09-1.57-.12-.08,0-.18-.02-.22-.11-.04-.09,0-.21.06-.29.21-.31.51-.43.84-.39Z"/>
          <path class="cls-2" d="M666.63,9.24c.09-.17.15-.35.26-.51.22-.33.59-.46.92-.56.33-.1.66-.21,1-.21s.69.11.94.39c.05.06.11.13.18.14.06,0,.11-.03.17-.06.33-.16.69.1.97.38.07.08.15.16.24.19.08.03.16.03.24.03.23-.01.46-.07.69-.02s.46.23.5.51c.04.25-.09.5-.08.75.24.01.5.04.67.26.16.21.18.53.28.78.15.37.49.59.82.54-.31.44-.81.58-1.28.66-.73.12-1.46.14-2.19.16-1.76.05-3.53.1-5.29.16-.62.02-1.25.04-1.87-.11-.23-.06-.5-.18-.54-.47-.04-.23.1-.45.24-.59.52-.52,1.23-.58,1.79-1.03.2-.17.36-.4.56-.57.29-.25.58-.44.78-.81Z"/>
          <path class="cls-3" d="M919.06,16.02c.28-.55.79-.9,1.32-.9.08,0,.17,0,.25-.04.1-.06.15-.19.2-.31.33-.79.93-1.41,1.62-1.68-.11-.27-.13-.62,0-.88s.46-.35.64-.14c0-.21.15-.37.31-.46s.34-.15.43-.32c.12-.22.07-.51.08-.77.03-.86.73-1.46,1.4-1.69.4-.13.83-.18,1.2.04s.63.78.47,1.26c.18-.16.46-.07.61.14s.19.51.18.79c0,.07,0,.16.03.21.05.07.14.07.21.09.21.04.37.3.35.56.14.05.28.09.42.14-.06.16.03.34.13.45s.24.18.33.31c.09.13.13.31.18.47.18.58.55,1.04.9,1.49.17-.07.36.04.49.2s.23.35.37.5c.24.26.57.34.87.45.46.18.89.47,1.26.85-.43.13-.88.13-1.32.13-4.02,0-8.03,0-12.05.01-.52-.02-1.05-.09-1.57-.12-.08,0-.18-.02-.22-.11-.04-.09,0-.21.06-.29.21-.31.51-.43.84-.39Z"/>
          <path class="cls-2" d="M915.93,13.93c.09-.17.15-.35.26-.51.22-.33.59-.46.92-.56.33-.1.66-.21,1-.21s.69.11.94.39c.05.06.11.13.18.14.06,0,.11-.03.17-.06.33-.16.69.1.97.38.07.08.15.16.24.19.08.03.16.03.24.03.23-.01.46-.07.69-.02s.46.23.5.51c.04.25-.09.5-.08.75.24.01.5.04.67.26.16.21.18.53.28.78.15.37.49.59.82.54-.31.44-.81.58-1.28.66-.73.12-1.46.14-2.19.16-1.76.05-3.53.1-5.29.16-.62.02-1.25.04-1.87-.11-.23-.06-.5-.18-.54-.47-.04-.23.1-.45.24-.59.52-.52,1.23-.58,1.79-1.03.2-.17.36-.4.56-.57.29-.25.58-.44.78-.81Z"/>
          <path class="cls-3" d="M870.39,13.37c-.28-.04-.56-.08-.79-.18-.27-.11-.36-.55-.68-.69-.44-.19-.89.17-1.28-.23-.27-.28-.63-.53-.97-.38-.05.03-.11.06-.17.06-.07,0-.13-.08-.18-.14-.25-.28-.6-.39-.94-.39-.34,0-.67.11-1,.21-.34.11-.7.23-.92.56-.05.07-.09.15-.13.24-.13-.1-.29-.16-.45-.19-.33-.05-.67.01-1,.03-.12,0-.24,0-.35-.03-.13-.05-.24-.14-.35-.23-.4-.32-.92-.62-1.39-.44-.08.03-.16.07-.24.07-.1,0-.18-.09-.26-.16-.36-.33-.87-.46-1.36-.46-.49,0-.97.12-1.45.25-.49.12-1.01.27-1.33.66-.15.18-.24.4-.37.59-.29.43-.7.66-1.12.95-.29.2-.51.47-.81.66-.8.53-1.83.59-2.58,1.2-.21.17-.4.42-.35.69.06.33.45.48.79.55.88.17,1.79.15,2.69.13,3.49-.08,6.95-.39,10.41-.05,3.68.36,7.49.4,11.04-.79.23-.08.47-.17.61-.36.32-.44-.06-1.04-.42-1.44-.34.17-.72.35-1.1.29-.43-.07-.76-.42-1.16-.6s-1.02-.06-1.04.38c-.24-.58-.8-.67-1.35-.75Z"/>
          <path class="cls-2" d="M754.26,5.75c.43-.06.87-.11,1.3-.06s.86.25,1.12.6c.33.44.32,1.04.4,1.58.02.11.04.23.12.3.1.09.25.09.38.1.78.03,1.53.43,2,1.05.06.09.13.18.22.23.12.06.27.04.41.03.14-.01.28,0,.42.01.2.03.38-.11.42-.31.05-.21.17-.4.33-.54.27-.24.64-.33,1-.33.46,0,.96.24,1.16.62.08.15.24.25.41.23.23-.03.49.04.66.2.19.18.27.46.23.71-.03.16.06.32.2.39.41.22.74.6.88,1.04.05.15.19.25.34.26.25.02.48.13.65.32.08.09.15.21.25.28.2.14.47.09.7.18.36.14.53.57.87.76.34.19.77.09,1.16.13s.84.38.68.75c-.03.06-.07.12-.12.16-.14.1-.32.1-.49.1-7.32-.12-14.61.57-21.86.58-2.24,0-4.49-.06-6.73-.18-.41-.02-.51-.59-.12-.75l1.31-.52c.26-.1.53-.21.76-.38.19-.14.35-.31.55-.41.68-.34,1.59.18,2.27.02.2-.05.32-.25.28-.45-.06-.34.19-.74.51-.92.41-.23.9-.24,1.36-.35s.94-.4,1-.87c.04-.27-.08-.55-.02-.82.26-1.2,1.91-.26,2.53-.77s.42-1.51.77-2.21c.39-.77.92-.66,1.69-.77Z"/>
          <path class="cls-2" d="M779.72,7.25c2.07-.07,3.86-.08,5.93.01-.01-.2-.22-.32-.42-.34s-.39.03-.59.03c-.36-.02-.68-.24-.97-.46s-.59-.46-.94-.52-.79.15-.83.51c-.16-.2-.38-.37-.63-.34s-.45.35-.29.54c-.31.01-.62.08-.91.18-.14.05-.26.13-.32.26-.05.11-.02.13-.02.13"/>
          <path class="cls-2" d="M801.04,8c.03-.23-.22-.45-.45-.38-.04-.2-.35-.28-.47-.12-.1-.1-.19-.21-.33-.26s-.3-.03-.38.09c-.24-.34-.79-.38-1.09-.1-.28-.13-.65-.25-.86-.03-.04.04-.07.1-.11.14-.33.32-.85-.12-.92.5-.06.56.36.28.7.19s3.89.04,3.9-.04Z"/>
          <path class="cls-2" d="M805.43,8.27c-.2-.16-.47-.2-.73-.23-.31-.04-.62-.07-.93-.11-.05,0-.1-.01-.14-.03-.12-.04-.2-.14-.3-.22-.29-.23-.72-.25-1.03-.05-.06.04-.11.08-.18.09-.25.03-.35-.14-.61,0-.09.05-.35.22-.32.35.06.22.69.14.84.14,1.13-.04,2.26-.04,3.39.07Z"/>
          <path class="cls-2" d="M700.5,8.09c.03-.23-.22-.45-.45-.38-.04-.2-.35-.28-.47-.12-.1-.1-.19-.21-.33-.26s-.3-.03-.38.09c-.24-.34-.79-.38-1.09-.1-.28-.13-.65-.25-.86-.03-.04.04-.07.1-.11.14-.33.32-.85-.12-.92.5-.06.56.36.28.7.19s3.89.04,3.9-.04Z"/>
          <path class="cls-2" d="M704.89,8.37c-.2-.16-.47-.2-.73-.23-.31-.04-.62-.07-.93-.11-.05,0-.1-.01-.14-.03-.12-.04-.2-.14-.3-.22-.29-.23-.72-.25-1.03-.05-.06.04-.11.08-.18.09-.25.03-.35-.14-.61,0-.09.05-.35.22-.32.35.06.22.69.14.84.14,1.13-.04,2.26-.04,3.39.07Z"/>
          <path class="cls-2" d="M802.4,6.21c.08-.11.26-.11.34-.01.22-.39.87-.41,1.13-.04.27-.14.61-.13.87.03.08.05.15.11.23.14.1.04.22.05.33.05.59.04,1.17.19,1.71.44-.27.05-.55.07-.83.08-.82.04-1.64.07-2.46.11-.41.02-.82.04-1.23.03-.25,0-.87.06-1.03-.18-.12-.17,0-.44.17-.54.32-.19.55.21.78-.11Z"/>
          <path class="cls-2" d="M859.12,6.81c2.07-.07,3.86-.08,5.93.01-.01-.2-.22-.32-.42-.34s-.39.03-.59.03c-.36-.02-.68-.24-.97-.46s-.59-.46-.94-.52-.79.15-.83.51c-.16-.2-.38-.37-.63-.34s-.45.35-.29.54c-.31.01-.62.08-.91.18-.14.05-.26.13-.32.26-.05.11-.02.13-.02.13"/>
          <path class="cls-2" d="M880.43,7.56c.03-.23-.22-.45-.45-.38-.04-.2-.35-.28-.47-.12-.1-.1-.19-.21-.33-.26s-.3-.03-.38.09c-.24-.34-.79-.38-1.09-.1-.28-.13-.65-.25-.86-.03-.04.04-.07.1-.11.14-.33.32-.85-.12-.92.5-.06.56.36.28.7.19s3.89.04,3.9-.04Z"/>
          <path class="cls-2" d="M933.34,13.8c2.07-.07,3.86-.08,5.93.01-.01-.2-.22-.32-.42-.34s-.39.03-.59.03c-.36-.02-.68-.24-.97-.46s-.59-.46-.94-.52-.79.15-.83.51c-.16-.2-.38-.37-.63-.34s-.45.35-.29.54c-.31.01-.62.08-.91.18-.14.05-.26.13-.32.26-.05.11-.02.13-.02.13"/>
          <path class="cls-2" d="M954.65,14.55c.03-.23-.22-.45-.45-.38-.04-.2-.35-.28-.47-.12-.1-.1-.19-.21-.33-.26s-.3-.03-.38.09c-.24-.34-.79-.38-1.09-.1-.28-.13-.65-.25-.86-.03-.04.04-.07.1-.11.14-.33.32-.85-.12-.92.5-.06.56.36.28.7.19s3.89.04,3.9-.04Z"/>
          <path class="cls-2" d="M881.8,5.78c.08-.11.26-.11.34-.01.22-.39.87-.41,1.13-.04.27-.14.61-.13.87.03.08.05.15.11.23.14.1.04.22.05.33.05.59.04,1.17.19,1.71.44-.27.05-.55.07-.83.08-.82.04-1.64.07-2.46.11-.41.02-.82.04-1.23.03-.25,0-.87.06-1.03-.18-.12-.17,0-.44.17-.54.32-.19.55.21.78-.11Z"/>
          <path class="cls-2" d="M877.53,13.7c-.28-.04-.56-.08-.79-.18-.27-.11-.36-.55-.68-.69-.44-.19-.89.17-1.28-.23-.27-.28-.63-.53-.97-.38-.05.03-.11.06-.17.06-.07,0-.13-.08-.18-.14-.25-.28-.6-.39-.94-.39-.34,0-.67.11-1,.21-.34.11-.7.23-.92.56-.05.07-.09.15-.13.24-.13-.1-.29-.16-.45-.19-.33-.05-.67.01-1,.03-.12,0-.24,0-.35-.03-.13-.05-.24-.14-.35-.23-.4-.32-.92-.62-1.39-.44-.08.03-.16.07-.24.07-.1,0-.18-.09-.26-.16-.36-.33-.87-.46-1.36-.46-.49,0-.97.12-1.45.25-.49.12-1.01.27-1.33.66-.15.18-.24.4-.37.59-.29.43-.7.66-1.12.95-.29.2-.51.47-.81.66-.8.53-1.83.59-2.58,1.2-.21.17-.4.42-.35.69.06.33.45.48.79.55.88.17,1.79.15,2.69.13,3.49-.08,6.95-.39,10.41-.05,3.68.36,7.49.4,11.04-.79.23-.08.47-.17.61-.36.32-.44-.06-1.04-.42-1.44-.34.17-.72.35-1.1.29-.43-.07-.76-.42-1.16-.6s-1.02-.06-1.04.38c-.24-.58-.8-.67-1.35-.75Z"/>
        </g>
      </g>
    </g>
  </g>
</svg>