<?xml version="1.0" encoding="UTF-8"?>
<svg id="Layer_2" data-name="Layer 2" xmlns="http://www.w3.org/2000/svg" xmlns:xlink="http://www.w3.org/1999/xlink" viewBox="0 0 966.07 108">
  <defs>
    <style>
      .cls-1 {
        fill: none;
      }

      .cls-2 {
        fill: url(#linear-gradient-8);
      }

      .cls-3 {
        fill: url(#linear-gradient-7);
      }

      .cls-4 {
        fill: url(#linear-gradient-5);
      }

      .cls-5 {
        fill: url(#linear-gradient-6);
      }

      .cls-6 {
        fill: url(#linear-gradient-4);
      }

      .cls-7 {
        fill: url(#linear-gradient-3);
      }

      .cls-8 {
        fill: url(#linear-gradient-2);
      }

      .cls-9 {
        fill: url(#linear-gradient);
      }

      .cls-10 {
        clip-path: url(#clippath);
      }
    </style>
    <clipPath id="clippath">
      <rect class="cls-1" x="3.81" width="960" height="108"/>
    </clipPath>
    <linearGradient id="linear-gradient" x1="0" y1="36.58" x2="966.07" y2="36.58" gradientUnits="userSpaceOnUse">
      <stop offset="0" stop-color="#d3ae50"/>
      <stop offset=".07" stop-color="#cda950"/>
      <stop offset=".17" stop-color="#bc9d51"/>
      <stop offset=".28" stop-color="#a18954"/>
      <stop offset=".4" stop-color="#7b6d57"/>
      <stop offset=".43" stop-color="#726658"/>
      <stop offset=".62" stop-color="#726658"/>
      <stop offset=".65" stop-color="#726658"/>
      <stop offset=".74" stop-color="#6c6257"/>
      <stop offset=".84" stop-color="#5e5655"/>
      <stop offset=".96" stop-color="#454451"/>
      <stop offset="1" stop-color="#3b3c50"/>
    </linearGradient>
    <linearGradient id="linear-gradient-2" x1="714.83" y1="21.56" x2="766.77" y2="21.56" gradientUnits="userSpaceOnUse">
      <stop offset="0" stop-color="#726658"/>
      <stop offset="1" stop-color="#3b3c50"/>
    </linearGradient>
    <linearGradient id="linear-gradient-3" x1="727.86" y1="24.79" x2="780.62" y2="24.79" xlink:href="#linear-gradient-2"/>
    <linearGradient id="linear-gradient-4" x1="648.51" y1="25" x2="715.82" y2="25" xlink:href="#linear-gradient-2"/>
    <linearGradient id="linear-gradient-5" x1="686.32" y1="20.94" x2="723.97" y2="20.94" xlink:href="#linear-gradient-2"/>
    <linearGradient id="linear-gradient-6" x1="757.92" y1="23.2" x2="826.62" y2="23.2" xlink:href="#linear-gradient-2"/>
    <linearGradient id="linear-gradient-7" x1="824.13" y1="21.99" x2="918.66" y2="21.99" xlink:href="#linear-gradient-2"/>
    <linearGradient id="linear-gradient-8" x1="892.61" y1="19.72" x2="961.91" y2="19.72" xlink:href="#linear-gradient-2"/>
  </defs>
  <g id="Layer_1-2" data-name="Layer 1">
    <g id="Glasshouse_Mountains" data-name="Glasshouse Mountains">
      <g class="cls-10">
        <path class="cls-9" d="M965.07,21.34s-669.26-4.62-685.3-.43c-24.97,6.52-103.49,18.45-161.22,19.42C29.36,41.84-.96,45.23.02,53.91l966.05.09-1-32.66Z"/>
        <path class="cls-8" d="M727.61,20.36c1.24-.64,2.9-1.56,4.18-2.13,1.4-.63,2.93-1.49,4.46-1.63,1.98-.18,4-.23,5.95.18,2.83.59,5.37,2.12,7.98,3.36,5.18,2.45,10.86,3.82,16.59,3.99-.15,1.01-1.4,1.36-2.41,1.48-9.74,1.11-19.57,1.2-29.36.91-4.96-.15-9.92-.4-14.88-.67-1.83-.1-8.33-.72-3.57-2.48,3.92-1.44,4.49.37,11.07-3Z"/>
        <path class="cls-7" d="M748.32,22.86c1.82-.96,3.48-2.29,5.47-2.84,2.16-.59,4.48-.18,6.59.57,2.11.75,4.1,1.82,6.2,2.59,3.65,1.34,7.56,1.75,11.42,2.22,1.08.13,2.41.5,2.6,1.57.12.68-.35,1.36-.96,1.7s-1.31.42-2,.49c-9.48.91-19.03.71-28.55.5-6.8-.15-13.63-.3-20.35-1.33-.34-.05-.74-.16-.85-.48-.16-.49.46-.84.95-.98,1.69-.47,3.43-1.14,5.15-1.47,1.55-.29,3.22-.14,4.8-.24,3.43-.22,6.37-1.02,9.53-2.3Z"/>
        <g id="Glasshouse_Mountains-2" data-name="Glasshouse Mountains">
          <path class="cls-6" d="M663.62,22.98c1.65-1.02,3.2-2.44,5.11-2.63,1.06-.11,2.11.19,3.15.4,2.59.51,5.29.53,7.84-.16,1.41-.38,2.69-1.36,4.14-1.29.4.02.8.12,1.2.14.61.02,1.21-.15,1.81-.25s1.25-.13,1.79.17c.1.06.2.12.31.15.4.1.48-.19.81.14.27.28.54.56.82.83.53.54,1.06,1.08,1.59,1.62.84.86,1.71,1.74,2.8,2.18,1.02.41,2.14.42,3.2.69,1.38.35,2.62,1.15,3.98,1.59,1.88.62,3.9.54,5.86.76,2.66.3,5.23,1.15,7.78,2-5.6.54-11.24.61-16.85.19-3.74-.28-7.52-.76-11.23-.18-1.87.29-3.68.86-5.55,1.18-6.87,1.2-13.83-.89-20.78-1.27-2.89-.16-5.79-.02-8.68.17-.87.06-1.76.12-2.58-.17s-1.57-1.02-1.62-1.92c-.15-2.53,5.14-1.68,6.52-1.81,2.98-.28,5.98-.93,8.59-2.54Z"/>
          <path class="cls-4" d="M723.97,27.61c-1.04-.91-3.73-1-4.81-1.86-3.49-2.82-2.82-1.53-5.82-3.28-.53-.31-3.08-1.2-3.48-1.68-.37-.45-1.01-1.1-1.17-1.65-.41-1.46-2.17-2.86-3.56-4.26-4.24-2.14-3.17-.18-5.13-.83-.83-.27-1.22-.6-2.07-.39s-1.53.95-1.65,2.19c-1.86.11-2.76,1.18-3.55,2.87s-1.36,3.57-2.76,4.81c-1.21,1.07-3,1.61-3.66,3.08,6.69.73,13.42.98,20.14,1.23,3.28.12,6.55.25,9.83.37,2.67.1,5.19.37,7.68-.59Z"/>
          <path class="cls-5" d="M811.4,25.93c-2.03-.12-4.08-.25-6.05-.77-1.29-.34-2.53-.85-3.77-1.36-1.55-.63-3.09-1.26-4.64-1.89-.62-.26-1.13-.35-1.67-.8-.47-.4-.91-.86-1.48-1.12-.24-.11-.52-.18-.71-.37-.13-.12-.34-.26-.41-.42-.25-.56-.2-1.62-.49-2.17-.7-1.35-.6-1.28-.92-1.95-.19-.4-.23-.6-.66-.55-.32.04-.56.31-.84.47-.36.2-.82.23-1.12.51-.19.18-.29.43-.43.65-.15.24-.33.45-.48.69-.42.7-.41,1.57-.32,2.39.02.14.03.27,0,.41-.02.14-.09.26-.17.38-.21.29-.22.56-1.06.76-.42.1-.81.45-1.17.69s-1.36.76-1.7.99c-.69.47-1.81.96-2.69,1.23-4.03,1.24-6.84,2.05-10.87,3.27-2.02.61-4.03,1.24-6.02,1.92-.99.34-1.98.7-2.96,1.09-.49.19-.98.39-1.46.59-.25.11-.5.21-.76.32-.13.06-.5.31-.64.28,5.71,1.05,11.57.69,17.36.33,5.95-.37,11.91-.75,17.81-1.64,4.7-.71,9.36-1.74,14.1-2.01,3.57-.2,7.16.03,10.74-.1,2.69-.1,6.21-.07,8.69-1.15-1.49-.44-3.37-.18-4.93-.22-3.43-.08-6.87-.26-10.3-.46Z"/>
          <path class="cls-3" d="M844,23.47c2.37-.63,7-1.97,9.23-2.98,1.73-.78,4.67-1.8,6.31-2.76,2.08-1.21,4.12-2.33,6.53-2.48,3.51-.22,6.54,2.21,9.39,4.26,2.85,2.05,6.52,3.92,9.74,2.5,1.19-.52,2.42-2.08,3.62-2.59,3.44-1.45,6.03-3.12,7.33-2.58,1.43.6,3.64,2.26,5.43,3.65,4.69,3.65,11.43,2.87,17.02,4.88.27.97-.39,2.01-1.27,2.5s-1.93.56-2.93.62c-9.11.48-18.23.16-27.35-.15-10.52-.36-21.04-.73-31.56-1.09-9.1-.31-18.21-.63-27.29-1.32-1.16-.09-3.43,1.09-4.06.11,3.69-1.41,15.95-3.06,19.87-2.58"/>
          <path class="cls-2" d="M951.98,26.77c-2.08.32-3.26-2.44-4.72-3.96-3.79-3.97-4.52-6.86-5.21-7.42s-.44-2-1.3-2.32c-.48-.18-.97-.65-1.49-.63-1.66.04-1.8.56-3-.03-.29-.14-1.78-.14-2.07-.28-.6-.28-.62-1.11-1.17-1.4-.33-.18-.9,0-1.26.03-.55.05-1.09.1-1.64.14-.17.01-.33.03-.49-.01-.24-.06-.43-.23-.61-.39-.59-.52-1.17-1.04-1.76-1.55-.4-.36-.81-.71-1.26-1.01-.43-.28-.9-.49-1.29-.82-.33-.28-.58-.64-.91-.92-.43-.38-.99-.63-1.56-.69-.38-.04-.77,0-1.16-.03-.27-.02-.54-.07-.82-.06-.33.02-.65.14-.96.26-.8.31-1.64.65-2.25,1.28s-1.39,1.2-2.01,1.88c-.35.39-.66.82-1.05,1.16-.29.26-.63.46-.97.64-.54.29-1.26.45-1.7.86-.35.33-.71.66-1.02,1.02-.58.66-1.13,1.17-1.88,1.63-5.37,3.23-10.12,7.51-13.89,12.52.12,1.38-2.18,3.18-1.9,4.53.41,1.95,17.96,1.78,27.09,2.51,11.09.88,14.97-.77,26.04-1.78,1.27-.12,15.57-.32,16.14-2.43.33-1.23-8.72-2.32-9.91-2.76Z"/>
        </g>
      </g>
    </g>
  </g>
</svg>