<?xml version="1.0" encoding="UTF-8"?>
<svg id="Layer_2" data-name="Layer 2" xmlns="http://www.w3.org/2000/svg" xmlns:xlink="http://www.w3.org/1999/xlink" viewBox="0 0 963.91 111.71">
  <defs>
    <style>
      .cls-1 {
        fill: none;
      }

      .cls-2 {
        opacity: .38;
      }

      .cls-2, .cls-3 {
        fill: #665446;
      }

      .cls-4 {
        fill: #3e4b20;
      }

      .cls-5 {
        fill: url(#linear-gradient-2);
      }

      .cls-6 {
        fill: #332b24;
      }

      .cls-7 {
        fill: #475531;
      }

      .cls-8 {
        fill: url(#linear-gradient);
      }

      .cls-9 {
        fill: #494951;
      }

      .cls-10 {
        fill: #3c4d43;
      }

      .cls-11 {
        fill: #0a1318;
      }

      .cls-12 {
        fill: #5b6040;
      }

      .cls-13 {
        fill: #3d3f4b;
      }

      .cls-14 {
        fill: #313d31;
      }

      .cls-15 {
        fill: #2f341e;
      }

      .cls-16 {
        fill: #c4c2b7;
      }

      .cls-17 {
        fill: #182422;
      }

      .cls-18 {
        fill: #27302b;
      }

      .cls-19 {
        opacity: .34;
      }

      .cls-20 {
        opacity: .58;
      }

      .cls-21 {
        fill: #070f1a;
      }

      .cls-22 {
        fill: #5a491b;
      }

      .cls-23 {
        fill: #3a442b;
      }

      .cls-24 {
        fill: #837c52;
      }

      .cls-25 {
        fill: #30311f;
      }

      .cls-26 {
        clip-path: url(#clippath);
      }
    </style>
    <clipPath id="clippath">
      <rect class="cls-1" x="3.91" width="960" height="108"/>
    </clipPath>
    <linearGradient id="linear-gradient" x1="0" y1="63.39" x2="632.17" y2="63.39" gradientUnits="userSpaceOnUse">
      <stop offset="0" stop-color="#515240"/>
      <stop offset="0" stop-color="#535441"/>
      <stop offset=".08" stop-color="#68694c"/>
      <stop offset=".17" stop-color="#787a55"/>
      <stop offset=".28" stop-color="#83865b"/>
      <stop offset=".43" stop-color="#8a8d5f"/>
      <stop offset=".85" stop-color="#8c8f60"/>
    </linearGradient>
    <linearGradient id="linear-gradient-2" x1="149.25" y1="78.95" x2="515.35" y2="78.95" gradientUnits="userSpaceOnUse">
      <stop offset="0" stop-color="#515240"/>
      <stop offset=".35" stop-color="#6f7150"/>
      <stop offset=".65" stop-color="#84875b"/>
      <stop offset=".85" stop-color="#8c8f60"/>
    </linearGradient>
  </defs>
  <g id="Layer_1-2" data-name="Layer 1">
    <g id="left_mountains_background" data-name="left mountains background">
      <g class="cls-26">
        <path class="cls-24" d="M564.31,110.78s-563.41,0-563.41,0c0-22.6-.23-45.21,0-67.81.1-9.84,35.57-8.96,47.84-8.72,24.52.49,49.05,1.48,73.5,3.76,32.1,3,64.54,8.2,96.35,2.61,36.37-6.4,72.19-26.78,108.23-18.42,18.16,4.21,34.29,15.45,51.99,21.55,21.35,7.37,44.88,6.96,66.01-1.15,14.45-5.54,27.62-14.49,41.96-20.36,21.4-8.76,45.22-10.36,67.44-4.51,15.09,3.97,29.86,11.67,39.82,24.69,9.95,13.02,44.42,52.94,38.21,68.48"/>
        <path class="cls-8" d="M563.51,111.59s-563.41,0-563.41,0C.1,88.99-.13,66.38.1,43.78c.1-9.84,35.57-8.96,47.84-8.72,24.52.49,49.05,1.48,73.5,3.76,32.1,3,64.54,8.2,96.35,2.61,36.37-6.4,72.19-26.78,108.23-18.42,18.16,4.21,34.29,15.45,51.99,21.55,21.35,7.37,44.88,6.96,66.01-1.15,14.45-5.54,27.62-14.49,41.96-20.36,21.4-8.76,45.22-10.36,67.44-4.51,15.09,3.97,29.86,11.67,39.82,24.69,9.95,13.02,44.42,52.94,38.21,68.48"/>
        <path class="cls-2" d="M147.39,109.12c15.83-5.05,26.8-17.96,41.83-24.65,8.84-3.94,18.73-5.56,28.24-7.99,11.06-2.82,21.7-6.77,32.31-10.71,3.25-1.2,6.26-3.17,9.58-4.06,3.24-.87,6.94-1.1,10.27-1.86,8.01-1.83,15.87-4.11,23.81-6.15,15.07-3.87,31.02-7.11,46.65-3.91,13.19,2.7,24.69,9.47,37.23,13.71,13.03,4.4,26.92,6.49,39.93,11.32,14.96,5.55,29.27,12.67,44.94,16.41,12.24,2.92,25.55,3.87,35.93,10.29,4.95,3.06,9.39,7.4,15.38,8.08"/>
        <path class="cls-5" d="M149.25,108.48c15.83-4.96,26.8-17.63,41.83-24.2,8.84-3.86,18.73-5.46,28.24-7.84,11.06-2.77,21.7-6.64,32.31-10.51,3.25-1.18,6.26-3.11,9.58-3.98s6.94-1.08,10.27-1.83c8.01-1.8,15.87-4.04,23.81-6.04,15.07-3.8,31.02-6.98,46.65-3.84,13.19,2.65,24.69,9.3,37.23,13.46,13.03,4.32,26.92,6.37,39.93,11.11,14.96,5.45,29.27,12.44,44.94,16.1,12.24,2.86,25.55,3.8,35.93,10.1,4.95,3,9.39,7.26,15.38,7.93"/>
        <g id="trees_background" data-name="trees background">
          <g>
            <g>
              <path class="cls-24" d="M462.9,35.66c.02-.36.03-.72.05-1.07.01-.23.02-.47.12-.68.07-.15.18-.27.26-.42.36-.67-.09-1.47-.41-2.17s-.38-1.74.34-2.01c.28-.11.6-.04.9-.01,1.45.13,2.87-.67,4.32-.56.57.04,1.12.22,1.69.22s1.2-.25,1.39-.78c.11-.29.07-.6.02-.9-.28-1.64-1.04-3.19-2.15-4.43-1.03-1.14-2.41-2.11-2.82-3.59-.34-1.23.03-2.69-.74-3.7-.49-.64-1.42-1.1-1.37-1.91.02-.36.26-.66.48-.94.45-.56.92-1.13,1.19-1.8s.3-1.48-.1-2.08c-.66-.98-2.09-.99-3.26-.79-1.48.25-2.98.66-4.16,1.59-.39.31-.8.69-1.29.64-.26-.03-.49-.17-.71-.32-.83-.57-1.93-1.23-2.76-.65-1.12.77-.34,2.82-1.38,3.69-.35.29-.83.37-1.19.64-.83.64-.63,1.92-.35,2.93-.78-.59-2.04-.85-2.62-.07-.84,1.13.75,2.79.16,4.07-.54,1.15-2.33.99-3.16,1.94-.3.34-.43.79-.56,1.22-.37,1.23-.74,2.46-1.12,3.69-.06.2-.13.41-.3.53-.18.14-.43.13-.66.12-1.07-.04-2.3.13-2.89,1.02-.53.8-.3,1.96.39,2.61s1.75.84,2.68.62c.53.51,1.29,1.06,1.94.7.22-.12.38-.33.57-.5.61-.55,1.57-.67,2.3-.27.28.15.51.37.75.58,1.14,1.04,2.28,2.08,3.41,3.11.42.38.87.78,1.43.87.55.09,1.1-.14,1.66-.22s1.24.05,1.45.57c.07.17.08.37.11.55.5,2.74,3.97.88,5.37.04.54-.32,1.07-.63,1.29-1.27s0-1.28.33-1.9c.91-1.71,3.26-1.21,4.39-2.62.19-.24.33-.52.55-.72.61-.54,1.61-.28,2.24.25s1.07,1.25,1.73,1.74c1.03.77,2.39.84,3.67.94.32.02.65.06.91.23.51.34.57,1.03.74,1.62.26.94.92,1.77,1.77,2.25.15.09.33.18.38.35.03.11.01.22-.01.33-.2.96-.39,1.93-.59,2.89-.15.73-.31,1.49-.74,2.1-.22.32-.53.62-.59,1.01-.06.39.15.78.17,1.18.04.7-.53,1.31-1.18,1.56s-1.37.22-2.07.18c-1.11-.06-2.29-.14-3.22-.76-.71-.48-1.2-1.24-1.89-1.76-1.3-.96-3.24-.86-4.52.13s-1.9,2.72-1.67,4.32c.04.28.09.59-.09.8-.14.16-.37.21-.58.22-1.19.07-2.32-.66-3.51-.63-.96.03-1.88.6-2.33,1.44-1.07-.84-1.8-2.04-2.75-3.02s-2.34-1.75-3.65-1.37c-1.29.37-2.28,1.78-3.61,1.58.42.5.06,1.27-.39,1.74s-1.02.93-1.07,1.58c-.03.45.22.88.18,1.33-.05.56-.54,1.01-1.08,1.16s-1.12.07-1.67-.06c-1.46-.34-2.9-.99-3.84-2.16s-1.25-2.91-.46-4.18c.19-.3.45-.58.78-.68.77-.25,1.87.36,2.3-.33-.69-.61-1.64-.81-2.45-1.25s-1.54-1.37-1.2-2.22c.31-.78,1.3-1.02,2.13-.96s1.68.32,2.49.12c1.62-.41,2.41-2.46,4.04-2.85,1.87-.45,3.8,1.58,5.59.85.77-.31,1.28-1.08,2.05-1.4,1.58-.65,3.25.86,4.96.82,1.51-.03,2.7-1.23,3.71-2.35.37-.41.76-.86.81-1.42.03-.44-.16-.87-.23-1.3s.08-.98.51-1.1c-.42.27-.47.39-.61.87-.05.17-.08.35-.18.5-.14.23-.62-.11-.55.15Z"/>
              <path class="cls-14" d="M455.7,55.69c-.64.37-1.61.33-1.94-.33-.21-.43-.07-.95-.15-1.42-.09-.54-.48-1.02-.99-1.22s-1.13-.09-1.55.27c-.34.29-.75.76-1.13.52-.2-.12-.25-.39-.27-.63-.08-.8-.07-1.62.02-2.42.07.77.25,1.53.53,2.25.47-.34.87-.78,1.38-1.07s1.18-.4,1.65-.05c.85.63.39,2.13,1.15,2.86.46.44,1.23.41,1.79.1.57-.31.92-.85,1.35-1.31.25.2.52.43.74.64-1.18.3-1.55,1.21-2.58,1.81Z"/>
              <path class="cls-24" d="M463.49,47.65c-.18-.78-.1-1.62.22-2.35.33.56.64,1.17.61,1.82-.02.36-.14.7-.18,1.05s.03.75.31.97c.4-.17.65-.56.95-.87s.73-.59,1.14-.45c-.46.66-1.14,1.18-1.9,1.44-.19.07-.41.14-.49.33-.21.53-.18,1.08-.94,1.1-.06-.45.37-.73.5-1.16.19-.65-.09-1.25-.23-1.88Z"/>
              <path class="cls-14" d="M460.88,30.44c1.02-.38,1.89-1.13,2.43-2.07-.02.59-.15,1.17-.38,1.71-.05.11-.1.23-.2.31-.11.09-.26.12-.4.16-.52.13-1.01.4-1.4.78"/>
              <path class="cls-24" d="M466.71,49.45c.37.07.7-.25.89-.57s.35-.69.68-.88.87,0,.83.37c.55-.47.68-1.34.31-1.95s-1.22-.88-1.88-.61c.17-.5.62-.84.99-1.21s.7-.9.53-1.4c-.17-.52-.79-.75-1.34-.79s-1.13.01-1.62-.24c-.79-.4-1.25-1.54-2.14-1.45-.42.04-.74.36-1.07.62-.66.54-1.44.92-2.28,1.11-.75.17-1.66.26-2.01.94-.31.6,0,1.39-.32,1.98-.44.81-1.65.67-2.44,1.14-.16.1-.32.26-.28.44.04.21.3.28.51.31.63.09,1.29.19,1.93.12s1.16-.53,1.75-.59c1.02-.11,1.74.82,2.32,1.5.53.62.92,1.07,1.81.97.53-.06,1-.57,1.5-.56.62,0,.77.66,1.32.76Z"/>
              <path class="cls-14" d="M460.16,63.43c0-.24-1.29-47.1-1.29-47.1l.69-1.21,3.1,47.98-2.5.32Z"/>
              <path class="cls-14" d="M469.88,50.95c.93-1.11,1.94-2.39,3.38-2.52.69-.06,1.44.16,2.06-.16.66-.34.9-1.14,1.08-1.86-.24.39-.5.78-.86,1.06-.48.37-1.11.49-1.71.6-.73.14-1.47.27-2.2.41.42-.36.83-.73,1.25-1.09-.57.55-1.3.94-2.08,1.11-.13-.48-.26-.97-.38-1.45-.16-.59-.25-1.36.27-1.69-.62.21-.96,1.02-.67,1.61.26.54.95.94.86,1.53-.04.25-.21.45-.38.64-.36.4-.72.8-1.07,1.2-.75.85-1.74,1.85-2.99,1.53-.38-.1-5.42-1.25-5.13.11.16.73,5.26,1,5.87.9,1.11-.19,2.03-1.11,2.72-1.93Z"/>
              <path class="cls-14" d="M457.19,55.88c.26.7-.04,1.56-.67,1.96-1.12.69-2.77-.11-3.82.68-.17.12-.31.28-.5.38-.26.13-.57.12-.86.11-1.31-.07-2.64-.14-3.85-.63-.59-.24-1.15-.58-1.77-.72-.87-.2-1.81,0-2.67-.24.75-.04,1.5-.08,2.25-.13-.68-.17-1.31-.54-1.77-1.06,2.89.14,5.55,2.41,8.39,1.87-1.03.31-2.06-.45-2.88-1.16-1.09-.94-2.17-1.89-3.26-2.83,1.34.24,2.26,1.44,3.35,2.27,1.65,1.25,3.92,1.66,5.9,1.07.44-.13.91-.34,1.1-.76.4-.84.14-1.59,1.36-1.52.5.03,1.96.43,1.96,1.09,0,.78-.89.81-1.31.48,0,0-1.02-1.04-.96-.86Z"/>
              <path class="cls-14" d="M456.53,47.32l-3.45-1.17c-.48-.16-1.05-.32-1.46-.02-.24.17-.37.45-.57.65-.58.6-1.55.48-2.36.32-.67-.13-1.35-.27-1.96-.57-.74-.38-1.34-.99-2.02-1.47-2.29-1.61-5.6-1.78-7.23-4.05,2.34,1.03,4.64,2.14,6.9,3.34.39-.3.36-.95.06-1.35s-.77-.62-1.23-.82c.57.27,1.15.54,1.72.81.34-.37-.08-.92-.16-1.41-.12-.75.85-1.41,1.51-1.02-.44,1.08-.7,2.3-.35,3.41s1.46,2.04,2.62,1.86c.04,0,.08-.01.12-.03.23-.13-.04-.46-.27-.6-.61-.35-1.08-.93-1.3-1.59,1.11.18,1.86,1.39,2.98,1.5.48.05.95-.12,1.42-.2,2.59-.47,4.96,1.48,7.53,2.06"/>
              <path class="cls-14" d="M447.24,40.92c-.55-.94-1.46-1.6-2.26-2.34s-1.56-1.64-1.64-2.73c.03.42,1.38,1.41,1.71,1.7.61.56,1.25,1.1,1.91,1.61,1.26.98,2.75,2.17,4.26,2.72.19-.33.28-.75.23-1.12-.38.43-.57,1.15-1.07,1.49-1.03.7-2.61-.45-3.14-1.34Z"/>
              <path class="cls-24" d="M464.56,28.31c.32,0,.32-.5,0-.5s-.32.5,0,.5h0Z"/>
            </g>
            <g>
              <path class="cls-11" d="M387.12,49.08c-.78-1.03-1.57-2.08-2.05-3.28s-.61-2.6-.07-3.77c.1-.22.23-.44.2-.69-.05-.49-.63-.68-1.09-.87-1.49-.6-2.47-2.29-2.24-3.88.06-.4.18-.79.42-1.11.61-.81,1.98-.88,2.67-.14-.56-.59,2.85-6.08,3.4-6.67,1.7-1.8,4.07-2.24,6.49-1.22.47.2.93.46,1.44.54,1.14.18,2.3-.55,3.44-.32,3.97.82,2.8,8.09,4.46,10.49.87,1.27,2.56,1.71,3.59,2.85.78.87,1.2,2.13,2.25,2.63.73.34,1.61.21,2.37.47.52.18.97.53,1.4.87.77.61,1.54,1.22,2.3,1.82.35.28.7.56.93.94.75,1.26-.2,2.84-.13,4.31.07,1.38,1.03,2.51,1.65,3.75.94,1.88,1.09,4.05,1.23,6.15.07,1.07,0,2.4-.97,2.87-.37.18-.79.18-1.19.18-9.83.01-19.66.02-29.49.03-.76-.59-1.8-.4-2.6-.93-.77-.51-1-1.53-1.16-2.44-.25-1.42-.49-2.95.11-4.27.31-.68.84-1.32.8-2.07-.02-.48-.28-.91-.48-1.35-.35-.76-.51-1.67-.18-2.44.46-1.08,1.76-1.55,2.5-2.46Z"/>
              <path class="cls-14" d="M385.92,49.54c-.78-1.03-1.57-2.08-2.05-3.28s-.61-2.6-.07-3.77c.1-.22.23-.44.2-.69-.05-.49-.63-.68-1.09-.87-1.49-.6-2.47-2.29-2.24-3.88.06-.4.18-.79.42-1.11.61-.81,1.98-.88,2.67-.14-.56-.59,2.85-6.08,3.4-6.67,1.7-1.8,4.07-2.24,6.49-1.22.47.2.93.46,1.44.54,1.14.18,2.3-.55,3.44-.32,3.97.82,2.8,8.09,4.46,10.49.87,1.27,2.56,1.71,3.59,2.85.78.87,1.2,2.13,2.25,2.63.73.34,1.61.21,2.37.47.52.18.97.53,1.4.87.77.61,1.54,1.22,2.3,1.82.35.28.7.56.93.94.75,1.26-.2,2.84-.13,4.31.07,1.38,1.03,2.51,1.65,3.75.94,1.88,1.09,4.05,1.23,6.15.07,1.07,0,2.4-.97,2.87-.37.18-.79.18-1.19.18-9.83.01-19.66.02-29.49.03-.76-.59-1.8-.4-2.6-.93-.77-.51-1-1.53-1.16-2.44-.25-1.42-.49-2.95.11-4.27.31-.68.84-1.32.8-2.07-.02-.48-.28-.91-.48-1.35-.35-.76-.51-1.67-.18-2.44.46-1.08,1.76-1.55,2.5-2.46Z"/>
              <path class="cls-21" d="M376.6,64.05c-1.77-.52-3.75-1.21-4.5-2.89-.3-.67-.36-1.41-.41-2.13-.1-1.3-.07-2.88,1.03-3.57.82-.51,2.09-.43,2.5-1.3.16-.34.12-.74.11-1.12-.03-.85.06-1.7.28-2.52.07-.27.16-.54.35-.75.23-.26.57-.38.87-.54,1-.55,1.57-1.62,2.09-2.63.19-.36.39-.73.73-.95.27-.17.6-.22.92-.29,1.49-.32,2.99-1.37,3.15-2.88.06-.51-.05-1.03-.04-1.55s.16-1.08.59-1.37c.23-.16.55-.25.63-.52.09-.29-.17-.56-.31-.83-.22-.44-.13-.99.15-1.41s.7-.7,1.14-.92c.5-.25,1.24-.36,1.49.14.26.53-.34,1.05-.59,1.59-.26.54-.15,1.18.11,1.72s.65.99.98,1.48c.75,1.1,1.22,2.4,1.36,3.73.1,1.03.02,2.13.55,3.02.3.51.81,1.06.58,1.61-.15.34-.52.5-.84.68s-.64.51-.55.87c.05.21.22.35.37.5,1.45,1.49.9,4.34,2.58,5.57.25.18.56.34.63.64.05.2-.03.4-.1.59-.33.88-.57,1.86-.28,2.76.56,1.68,2.77,2.36,3.37,4.03-6.87-.29-13.75-.36-20.62-.22"/>
              <path class="cls-10" d="M400.79,64.2c.3.26.72.34,1.11.41.86.15,1.79.29,2.57-.09.5-.24.97-.69,1.51-.59.38.07.76.41,1.1.22.15-.08.23-.25.29-.41.61-1.61.14-3.4-.34-5.06-.03-.11-.07-.23-.16-.31-.1-.08-.23-.09-.36-.09-1.15-.04-2.3.08-3.41.37.15-.34.21-.72.17-1.08-.73-.35-1.65-.27-2.32.2-.03-.69-.65-1.19-1.21-1.59,1.25.6,2.57,1.21,3.95,1.18.16,0,.33-.02.46-.11.23-.16.26-.47.36-.73.17-.47.59-.8.85-1.23.27-.45.35-.99.5-1.49.3-1.04.89-1.98,1.22-3.02s.34-2.29-.41-3.08c-.32-.34-.74-.56-1.17-.73-.69-.27-1.62-.38-2.05.23-.74-.41-.56-1.5-.79-2.31-.21-.74-.84-1.33-1.57-1.58s-1.54-.19-2.27.08c-.48.17-.95.45-1.24.87s-.36,1.02-.07,1.45c.18.27.5.48.54.8.07.58-.73.84-1,1.36-.09.18-.12.39-.21.57-.29.54-1.08.57-1.65.33s-1.08-.64-1.69-.73c-.6-.09-1.23.17-1.6.66s-.44,1.17-.19,1.72c-.96-.51-2.08-.71-3.16-.58-.76.09-1.52.36-2.09.87s-.94,1.28-.85,2.04c.13,1.12,1.12,1.91,2.1,2.48.2.12.41.23.55.42.12.15.18.35.23.54.26,1.06.1,2.22-.43,3.17-.12.21-.26.42-.31.65-.19.8.61,1.47,1.33,1.84.62.32,1.27.59,1.93.81.21.07.43.14.6.28.25.21.34.54.53.8.57.79,1.63.59,2.21-.03s.86-1.11,1.81-1.02c.88.09,1.77.68,2.67.5.58-.12.68-.53,1.18-.09.34.29.44.81.79,1.11Z"/>
              <path class="cls-10" d="M395.71,46.47c-.96.35-1.99.61-2.99.41s-1.94-1-2.01-2.02l-.44.42c-1.02-.67-1.42-2.12-.91-3.22.31-.66.91-1.2,1.02-1.93.11-.71-.28-1.41-.29-2.13,0-.99.75-1.88,1.69-2.19s1.99-.08,2.83.45c.23-.4.72-.58,1.17-.56s.89.19,1.31.36c.27.11.57.24.69.51.06.13.08.28.14.42.24.51.96.49,1.51.63.42.11.81.38,1.06.73.35.49.44,1.15.22,1.71s-.79.97-1.38.99c.14.58.27,1.16.41,1.74.02.1.05.21.02.32-.07.25-.37.32-.63.36-.85.11-1.71.22-2.56.33-.13.02-.28.04-.38.13-.1.09-.13.24-.14.37-.04.81.6,1.7.12,2.35-.23.31-.63.43-1.01.48-.78.09-1.72-.14-2.02-.86"/>
              <path class="cls-18" d="M381.27,60.76c.4-.65.57-1.49.23-2.17-.11-.21-.26-.4-.34-.62-.25-.63.09-1.38-.17-2-.27-.63-1.04-.88-1.46-1.43-.4-.52-.46-1.26-.94-1.7-.5-.45-1.38-.35-1.77.19s-.21,1.4.37,1.74c-1.03.41-1.74,1.51-1.68,2.62.01.23.04.49-.12.65-.17.17-.48.11-.66-.06s-.24-.42-.3-.66c-.57.68-.58,1.66-.42,2.52.26,1.4,1.27,4.26,2.98,4.4.93.08,1.64-.72,2.23-1.31.7-.7,1.53-1.33,2.05-2.18Z"/>
              <path class="cls-17" d="M408.47,58.98c.39.15.78.31,1.11.56s.6.62.65,1.03c.07.48-.14,1.02.11,1.43.23.38.72.47,1.16.5.56.04,1.12.03,1.68-.03.18-.02.37-.05.51-.17.14-.12.19-.3.24-.48.34-1.34.46-2.74.35-4.13,0-.08-.02-.17-.06-.23-.1-.14-.31-.11-.48-.07-1.06.26-2.11.58-3.13.96-.5.19-1.09.52-1.06,1.06"/>
            </g>
            <g>
              <path class="cls-9" d="M419.55,58.44c.24-1.46.27-2.95.3-4.44.4,2.34.52,4.76.35,7.14-.05.69-.13,1.38-.13,2.08,0,.38.29,1.51.15,1.82-.23.52-.53-.01-.77-.4-1.17-1.88-.23-4.15.1-6.19Z"/>
              <path class="cls-7" d="M417.23,56.95c-.03-.13-.03-.27-.1-.38-.13-.22-.44-.23-.7-.29-.61-.13-1.06-.67-1.28-1.25s-.23-1.22-.24-1.84c-.01-.6.01-1.28.47-1.67.52-.44,1.33-.25,1.91.11.2.12.4.27.64.3.46.06.85-.31,1.18-.64.95-.95,2.05-1.79,3.33-2.19.75-.23,1.72-.23,2.13.44.39.64,0,1.45-.11,2.19-.1.63.02,1.27-.05,1.91-.08.8-.44,1.54-.79,2.26-.31.64-.7,1.35-1.39,1.54-.85.23-1.79-.08-2.67.12-.74.17-2.09.46-2.33-.61Z"/>
              <path class="cls-13" d="M431.41,57.15c.04-.8.27-1.63,0-2.38-.18-.49-.56-.88-.94-1.23-1.71-1.59-3.71-2.88-5.87-3.79,1.21-.26,2.48-.23,3.68.09.4.1.8.25,1.09.55.28.3.4.71.5,1.11.95,3.54,1.81,7.11,2.56,10.7-.65-1.97-.87-4.09-.64-6.16.09-.84.26-1.67.4-2.51.45-2.76.54-5.57.62-8.36.45,2.79.87,5.61.66,8.43.15-.51.31-1.03.46-1.54.39-1.32.96-2.83,2.26-3.27-.02,1.94-1.36,3.61-1.86,5.49-.43,1.62-.23,3.37-.77,4.96.03-1.72.91-3.4,2.31-4.4.42-.3.88-.54,1.25-.89.68-.63,1.01-1.55,1.36-2.41.71-1.77,1.62-3.52,3.07-4.75-.36,2.58-1.53,5.03-3.31,6.93-.68.73-1.45,1.38-2.07,2.16-.57.73-.99,1.56-1.4,2.39-.48.96-.96,1.94-1.24,2.99-.16.6.03,2.04-.88,1.61-.8-.38-.64-1.64-.77-2.35-.2-1.11-.53-2.23-.47-3.37Z"/>
              <path class="cls-4" d="M426.88,59.94c.01-.77.27-1.53.61-2.22.09-.19.2-.38.38-.48.48-.25,1.02.34,1.55.26.44-.07.68-.56.83-.98.56.66.9,1.47,1.22,2.27.56,1.37,1.57,3.92-.7,4.13-1.93.18-3.93-.85-3.89-2.99Z"/>
              <path class="cls-23" d="M435.89,57.16c.32.79.8,1.52,1.42,2.11.41.4.92.82.92,1.39,0,.15-.04.3,0,.44.08.36.57.48.91.35s.6-.42.9-.64c1.03-.75,2.58-.68,3.41-1.66.52-.62.64-1.56,1.3-2.04.73-.53,1.81-.25,2.57-.73.46-.3.72-.84.8-1.39s0-1.1-.07-1.64c-.04-.29-.1-.62-.34-.8-.42-.3-.98.08-1.4.39-1.21.89-2.83,1.2-4.29.82-.14-.04-.28-.08-.39-.17-.2-.15-.28-.41-.41-.62-.28-.47-.83-.77-1.37-.75s-1.07.36-1.31.86c-.01-.42-.03-.84-.04-1.26,0-.14,0-.27-.06-.4-.13-.29-.48-.4-.8-.42-1.28-.05-2.43,1.26-2.21,2.52.08.47.32.9.41,1.36.22,1.09-.35,2.21-.22,3.31.21-.06.32-.34.36-.55s.09-.36-.09-.49Z"/>
              <path class="cls-15" d="M439.71,46.31l1.71,2.51c.19.28.39.57.67.76.62.42,1.62.39,1.89,1.08.24-.13.47-.26.71-.4-.12.46-.23.93-.35,1.39-.02.08-.04.16,0,.23.04.06.11.09.18.11.71.21,1.51.06,2.09-.39.5-.38,1.04-1.01,1.62-.75.2.09.39.29.6.23.12-.03.2-.14.27-.24.78-1.11,1.19-2.67.45-3.8-.16-.24-.37-.47-.42-.75-.11-.6.5-1.04.85-1.54.65-.93.39-2.21,0-3.28-.09-.24-.2-.5-.44-.59-.17-.07-.36-.04-.54-.08-.67-.16-.66-1.11-1.01-1.71-.4-.68-1.29-.86-2.08-.93-.77-.06-1.54-.07-2.31-.03-.14,0-.3.02-.41.11-.11.09-.15.24-.18.38-.29,1.17-.58,2.34-.87,3.5-.04.15-.08.31-.2.41-.34.29-.81-.19-1.25-.26-.21-.03-.42.03-.61.09-.43.15-.85.36-1.16.69s-.48.81-.36,1.25c.25.9,1.57,1.24,1.68,2.16.04.36-.12.73-.06,1.09s.59.65.78.33"/>
              <path class="cls-25" d="M428.34,47.64l-.57-1.77c-.17-.54-.35-1.11-.26-1.67s.55-1.1,1.12-1.09c.11-.22-.25-.36-.5-.34-1.93.18-3.82.78-5.5,1.74-.15.09-.33.18-.5.14-.14-.03-.25-.15-.33-.27-.53-.77-.47-1.9.16-2.6.44-.49,1.08-.75,1.7-.99s1.26-.48,1.72-.96.65-1.28.26-1.81c-1.17.48-2.5.32-3.76.14-.16-.02-.33-.05-.46-.15-.09-.07-.14-.17-.19-.27-.58-1.13-.84-2.42-.73-3.69.04-.54.23-1.17.75-1.33.36-.11.74.06,1.11.02.58-.06.99-.59,1.23-1.13s.37-1.13.75-1.57,1.11-.67,1.54-.28c.14.13.24.32.41.39.29.13.61-.12.84-.33.69-.64,1.47-1.21,2.37-1.48s1.94-.18,2.69.4c.29.23.53.52.85.7.9.49,1.97-.09,2.93-.43,1.12-.4,2.47-.42,3.38.34.58.49.9,1.24,1.41,1.8.62.68,1.5,1.05,2.36,1.37s1.76.61,2.48,1.17,1.27,1.46,1.13,2.37c-.04.26-.15.53-.35.7-.43.35-1.06.17-1.62.18-.91.01-1.78.67-2.05,1.54-.14.45-.13.93-.29,1.37s-.6.84-1.06.72c.23.27.47.54.59.87s.08.74-.18.98c-.1.1-.23.16-.37.2-.84.28-1.87-.08-2.56.46-.95.74-.44,2.46-1.34,3.26-.64.56-1.82.5-2.11,1.29-.14.4.02.86-.12,1.26-.33.92-1.77.68-2.49,1.33-.48.43-.59,1.23-1.17,1.52-.54.27-1.19-.07-1.61-.5s-.76-.97-1.29-1.26c-.05.08-.37-.23-.41-.32-.17-.35-.34-.7-.4-1.08s.02-.8.28-1.08c-.5.14-1.05.19-1.55.03s-.94-.54-1.06-1.05.17-1.11.67-1.25c.54-.15,1.07.22,1.51.56"/>
            </g>
            <g>
              <path class="cls-22" d="M478.98,58.94c.13.08.26.18.28.32.03.18-.13.33-.21.49-.15.31,0,.69.25.91s.6.31.94.36c2.31.32,4.49-1.03,6.43-2.33.28-.19.59-.42.62-.76.02-.25-.13-.48-.25-.71-.26-.49-.4-1.05-.3-1.59s.47-1.05.99-1.23c.42-.15.95-.09,1.26-.41.16-.16.23-.38.3-.59.28-.85.53-1.84.05-2.6-.79.2-1.43.77-2.1,1.24s-1.47.89-2.27.72c-.75-.16-1.33-.82-2.07-1-.95-.24-1.92.34-2.57,1.07s-1.11,1.61-1.8,2.31c-.68.69-.67,1.27-.82,2.17s.54,1.17,1.25,1.61Z"/>
              <path class="cls-22" d="M488.19,50.49c.28,0,.58-.02.81-.18.21-.14.33-.37.44-.59.35-.7.64-1.55.31-2.26-.11-.23-.28-.44-.34-.69-.17-.64.44-1.23,1.04-1.5s1.31-.4,1.76-.89c.5-.53.54-1.34.46-2.07-.07-.61-.22-1.25-.64-1.71-.67-.74-1.87-.86-2.49-1.65-.49-.63-.48-1.55-1-2.16-.68-.8-1.92-.71-2.95-.51-.6.12-1.28.31-1.57.86-.22.41-.15.91-.19,1.37-.04.51-.22,1-.39,1.48-.48,1.33-1.01,2.74-2.12,3.62-.38.3-.85.58-.97,1.05-.09.36.07.74.25,1.07.36.66.83,1.25,1.17,1.92.53,1.07.94,1.83,2.09,2.25,1.43.52,2.79.64,4.31.58Z"/>
              <path class="cls-22" d="M469.94,43.3c-.72.12-1.49-.11-2.02-.62-.13-.12-.26-.26-.43-.28-.18-.02-.34.1-.48.21-.47.38-.98.89-.85,1.48.05.23.21.45.16.68-.05.25-.31.39-.55.46-.96.25-2.01-.29-2.52-1.13s-.53-1.92-.23-2.87c.11-.34.26-.68.53-.92.47-.42,1.17-.44,1.8-.36.12.02.25.03.35-.03.16-.1.17-.33.13-.51-.17-.65-.77-1.1-1.41-1.31s-1.31-.24-1.97-.36c-.24-.04-.49-.1-.66-.27-.26-.23-.31-.61-.35-.95-.1-1.02-.13-2.09.27-3.04s1.37-1.72,2.39-1.61c.56.06,1.23.33,1.59-.09.13-.15.17-.35.23-.54.29-.95,1.05-1.71,1.91-2.2s1.83-.77,2.79-1.04c1-.28,2.18-.53,2.99.12.38.31.66.8,1.14.91.26.06.52,0,.78-.09.77-.24,1.51-.57,2.29-.75s1.64-.19,2.35.2c.97.53,1.43,1.69,2.29,2.39.85.7,1.99.9,2.97,1.4,1.12.57,2.03,1.57,2.48,2.75.08.22.16.45.13.68-.08.66-.88.96-1.55.95s-1.37-.17-1.96.13c-.78.4-1,1.4-1.04,2.27s0,1.83-.55,2.52c-.29.37-.72.6-1.08.89s-.71.69-.71,1.16c0,.27.12.54.09.81-.05.48-.56.8-1.04.82s-.94-.18-1.38-.38c-1.6-.71-3.22-1.34-4.87-1.91-.51-.18-1.83-.88-2.34-.69-.22.08-.45.52-.66.68-.3.22-.65.37-1.02.44Z"/>
              <path class="cls-22" d="M475.71,50.78c.58-.63,1.43-.94,2.14-1.41,1.17-.78,1.99-2.06,2.21-3.45.09-.57.08-1.18-.2-1.68-.36-.63-1.07-.97-1.78-1.13-2.5-.57-5.15.65-7.64.06-.79-.19-1.67-.54-2.37-.13-.65.38-.82,1.26-.74,2.01s.32,1.5.21,2.25c-.04.27-.13.54-.13.82,0,.41.18.8.43,1.13.36.49.85.86,1.27,1.3s.78.98.79,1.59c0,.38-.11.8.12,1.09.09.11.22.18.35.24,2.39,1.12,3.97-1.22,5.33-2.71Z"/>
              <path class="cls-22" d="M470.06,61.7c-.23.02-.46.05-.67-.04-.49-.21-.56-.85-.71-1.36-.31-1.06-1.26-2.05-.92-3.1.23-.71,1.1-1.13,1.79-.86.54.2.98.75,1.56.69.35-.04.63-.29.9-.5,1.42-1.11,3.27-1.45,5.04-1.76.27-.05.55-.09.8.02.28.13.43.42.56.7.32.74.52,1.69-.02,2.29-.23.25-.55.4-.88.5-1.2.38-2.59.33-3.56,1.12-.32.25-.58.59-.77.95-.12.22-.15.78-.29.93-.43.46-2.18.35-2.81.42Z"/>
              <path class="cls-9" d="M481.59,50.09c.97-1.06,2.02-2.11,2.62-3.42-1.29,1.46-2.58,2.92-3.86,4.38-.56.64-1.12,1.27-1.74,1.86-.57.54-1.18,1.04-1.64,1.68-.44.61-.73,1.33-.97,2.05-.74,2.17-1.17,4.47-1.05,6.76-.23-2.17.6-4.29.89-6.45.2-1.42.16-2.87.4-4.29.64-3.83,3.17-7.05,4.63-10.66-1.24,1.93-2.49,3.86-3.73,5.78-.27-1.18-.13-2.46.4-3.55.42-.86,1.07-1.64,1.17-2.58-.64.72-1.28,1.43-1.92,2.15.03-1.75.04-3.5.03-5.25,0-.39-.05-.86-.39-1.05-.75,1.21-.49,2.75-.36,4.17.25,2.63-.01,5.27-.28,7.9-.1-3.61-1.68-7.15-4.3-9.64.4,2.31,1.06,4.57,1.94,6.74.55,1.35,1.2,2.67,1.57,4.07.26.98.39,2,.44,3.02.1,1.92-.05,3.88-.65,5.71-.47-1.84-.52-3.75-.79-5.63-.15-1.07-.43-2.21-1.24-2.92-.59-.51-1.37-.72-2.12-.91-2.2-.55-4.42-1.02-6.65-1.41,1.23,1.12,2.97,1.4,4.57,1.83.55.15,1.11.33,1.51.73.37.36.57.86.76,1.35.98,2.53,1.96,5.08,2.42,7.75.08.49.43,3.5,1.28,2.86.28-.21.3-1.07.38-1.39.16-.6.34-1.2.55-1.79.84-2.37,2.06-4.58,3.52-6.62.81-1.13,1.68-2.2,2.62-3.22Z"/>
            </g>
            <g>
              <path class="cls-4" d="M328.83,53.96c-.6.04-1.18-.22-1.67-.56-.33-.22-.64-.48-1.01-.61-.69-.23-1.45.05-2.16-.06-1.01-.16-1.73-1.06-2.19-1.97-.17-.33-.33-.69-.62-.93-.2-.17-.45-.27-.7-.35-.7-.22-1.45-.25-2.17-.42s-1.44-.51-1.81-1.15c-.6-1.05,0-2.34.14-3.54.25-2.25-1.21-4.28-2.59-6.07-.42-.54-.83-1.07-1.25-1.61,2.36-.95,4.84-1.63,7.38-1.87.85-.08,1.72-.11,2.55-.35.85-.25,1.64-.71,2.5-.91,1.71-.41,3.49.24,5.25.22,1.67-.01,3.27-.61,4.92-.83,1.43-.19,2.88-.09,4.3.13.43.07.92.18,1.13.57.26.48-.07,1.08.05,1.61.17.71,1.07,1.01,1.36,1.68.19.43.09.96.29,1.38.26.55.94.8,1.17,1.36.17.4.06.87-.14,1.27-.49.96-1.45,1.61-1.93,2.57-.42.85-.42,1.85-.75,2.74-.43,1.14-1.43,2.06-2.61,2.37-.81.22-1.7.17-2.44.56-1.13.6-1.6,2.06-2.74,2.63-.77.39-1.81.22-2.53.69s-.68,1.38-1.73,1.45Z"/>
              <path class="cls-25" d="M334.22,63.8c-1.14-.91-1.21-2.57-1.51-4-.24-1.17-.68-2.3-.97-3.46-.47-1.92-.5-3.95-.09-5.89.07-.32.15-.63.31-.91.14-.24.34-.44.54-.63,1.11-1.04,2.46-1.79,3.79-2.53,1.31-.73,2.62-1.45,3.94-2.18-3.11.55-5.78,2.45-8.39,4.22-.1.07-.24.14-.35.08-.04-.02-.06-.06-.09-.09-.47-.7-.07-1.69.58-2.22s1.49-.75,2.25-1.11c2.03-.97,3.4-2.9,4.67-4.75-2.34,2.2-5.89,2.9-7.94,5.37-.15-.38.03-.81.29-1.12s.58-.57.8-.91c.24-.37.33-.82.43-1.25.33-1.45.75-2.88,1.27-4.27-.62,2.01-2.02,3.66-2.99,5.52-.44.85-.8,1.76-1,2.7-.48-.06-.76-.54-1.11-.88-.53-.52-1.29-.72-1.99-.98-1.03-.39-2-.94-2.85-1.64.81,1.16,2.01,1.97,3.13,2.84s2.22,1.89,2.66,3.23c-1.81-.91-3.88-1.12-5.89-1.31l4.67,1.86c-1.56.39-2.99,1.33-3.96,2.62l2.4-1.77c.19-.14.38-.28.61-.35.25-.07.51-.05.76-.02.44.04.87.08,1.31.13.09,0,.18.02.26.07.09.06.14.17.18.27.32.86.28,1.8.23,2.72-.06,1.02-.14,2.05-.23,3.07-.2,2.35-.53,4.84-2,6.69,1.74.38,3.53.54,5.31.47.21,0,.43-.02.62-.12"/>
            </g>
            <g>
              <path class="cls-9" d="M353.74,56c-.22-1.1-.25-2.22-.28-3.34-.38,1.76-.49,3.57-.32,5.36.05.52.12,1.04.12,1.56,0,.29-.27,1.13-.14,1.36.21.39.5,0,.72-.3,1.08-1.41.22-3.11-.09-4.65Z"/>
              <path class="cls-7" d="M356.16,52.17c.03-.12.03-.25.09-.35.12-.21.41-.22.65-.27.57-.12.99-.62,1.19-1.16s.22-1.14.23-1.71c.01-.56-.01-1.19-.44-1.55-.49-.41-1.24-.23-1.78.1-.19.11-.38.25-.59.28-.43.06-.79-.29-1.1-.6-.88-.88-1.91-1.66-3.1-2.04-.69-.22-1.6-.22-1.98.41-.36.6,0,1.35.1,2.04.09.59-.01,1.19.05,1.78.08.74.41,1.43.73,2.1.29.6.65,1.26,1.29,1.43.79.22,1.66-.07,2.49.11.69.15,1.94.42,2.17-.56Z"/>
              <path class="cls-13" d="M342.69,53.57c-.04-.74-.25-1.52,0-2.21.17-.46.52-.82.88-1.15,1.6-1.48,3.46-2.68,5.46-3.53-1.13-.24-2.31-.21-3.43.08-.37.1-.75.23-1.01.51-.26.28-.37.67-.47,1.04-.88,3.3-1.68,6.62-2.39,9.96.61-1.84.81-3.81.6-5.73-.09-.78-.24-1.56-.37-2.33-.41-2.57-.5-5.18-.58-7.79-.42,2.6-.81,5.23-.62,7.85-.14-.48-.29-.96-.43-1.44-.37-1.23-.89-2.63-2.11-3.04.02,1.81,1.26,3.36,1.73,5.11.4,1.51.22,3.14.72,4.61-.03-1.6-.85-3.16-2.15-4.1-.39-.28-.82-.51-1.17-.83-.63-.59-.94-1.44-1.26-2.24-.66-1.65-1.51-3.27-2.86-4.42.33,2.4,1.43,4.68,3.08,6.45.64.68,1.35,1.28,1.92,2.01.53.68.92,1.46,1.31,2.23.45.9.89,1.81,1.15,2.78.15.56-.02,1.9.82,1.5.75-.35.6-1.53.72-2.18.19-1.04.49-2.07.44-3.14Z"/>
              <path class="cls-4" d="M346.91,56.17c-.01-.72-.25-1.42-.57-2.07-.08-.17-.18-.36-.35-.44-.45-.23-.95.32-1.45.24-.41-.06-.63-.52-.77-.91-.52.61-.83,1.37-1.14,2.12-.52,1.27-1.46,3.65.66,3.85,1.8.17,3.66-.79,3.62-2.78Z"/>
              <path class="cls-23" d="M338.52,53.58c-.29.74-.75,1.41-1.32,1.97-.38.37-.86.76-.85,1.29,0,.14.04.28,0,.41-.08.34-.53.45-.85.33s-.56-.39-.84-.59c-.96-.7-2.41-.64-3.17-1.55-.49-.58-.6-1.45-1.21-1.9-.68-.49-1.69-.23-2.39-.68-.43-.28-.67-.78-.75-1.29s0-1.02.07-1.53c.04-.27.09-.58.32-.74.39-.28.91.08,1.3.36,1.13.83,2.64,1.12,3.99.76.13-.03.26-.07.36-.16.18-.14.26-.38.38-.58.26-.44.77-.72,1.28-.7s1,.34,1.22.8c.01-.39.03-.78.04-1.18,0-.13,0-.26.06-.37.12-.27.45-.38.74-.39,1.19-.05,2.26,1.17,2.06,2.35-.08.44-.29.84-.38,1.27-.2,1.01.33,2.05.2,3.08-.2-.06-.3-.31-.34-.51s-.08-.34.08-.46Z"/>
              <path class="cls-24" d="M334.96,43.47l-1.59,2.34c-.18.26-.36.53-.62.71-.57.39-1.5.36-1.76,1.01-.22-.12-.44-.25-.66-.37.11.43.22.86.33,1.29.02.07.03.15,0,.21-.03.06-.1.08-.16.1-.66.19-1.4.06-1.95-.36-.47-.36-.97-.94-1.51-.7-.19.08-.36.27-.56.22-.11-.03-.19-.13-.26-.22-.72-1.03-1.1-2.48-.42-3.54.15-.23.34-.44.39-.7.1-.56-.47-.97-.79-1.44-.6-.87-.36-2.06,0-3.05.08-.22.19-.46.41-.55.16-.07.34-.03.5-.07.63-.15.62-1.04.94-1.59.37-.64,1.2-.8,1.94-.86.71-.06,1.43-.06,2.15-.03.13,0,.28.02.38.11.1.09.14.22.17.35.27,1.09.54,2.18.81,3.26.03.14.07.29.18.38.32.27.75-.17,1.16-.24.19-.03.39.02.57.09.4.14.79.33,1.08.64s.45.76.34,1.16c-.23.84-1.46,1.15-1.57,2.01-.04.34.11.68.05,1.02s-.55.6-.72.31"/>
              <path class="cls-24" d="M345.55,44.72l.53-1.65c.16-.5.33-1.03.24-1.55s-.51-1.03-1.04-1.01c-.1-.2.24-.33.46-.31,1.8.17,3.55.73,5.12,1.62.14.08.3.17.47.13.13-.03.23-.14.31-.25.5-.72.43-1.77-.15-2.42-.41-.46-1.01-.7-1.58-.92s-1.18-.45-1.6-.9-.61-1.19-.24-1.69c1.09.45,2.33.3,3.5.13.15-.02.31-.05.43-.14.08-.07.13-.16.18-.25.54-1.05.78-2.25.68-3.43-.04-.5-.22-1.09-.7-1.24-.33-.1-.69.06-1.04.02-.54-.05-.93-.55-1.15-1.05s-.35-1.05-.7-1.46-1.03-.63-1.43-.26c-.13.12-.22.3-.38.37-.27.12-.57-.11-.79-.31-.64-.59-1.37-1.13-2.21-1.38s-1.81-.17-2.5.37c-.27.21-.49.49-.79.65-.83.46-1.83-.08-2.73-.4-1.04-.37-2.3-.39-3.14.32-.54.46-.83,1.15-1.32,1.68-.58.63-1.4.98-2.2,1.28s-1.63.57-2.31,1.09-1.19,1.36-1.05,2.21c.04.25.14.49.33.65.4.33.99.16,1.51.17.85.01,1.66.62,1.91,1.44.13.42.12.87.27,1.28s.56.78.98.67c-.22.25-.44.5-.55.81s-.08.69.16.92c.1.09.22.15.34.19.78.26,1.74-.07,2.39.43.89.69.41,2.29,1.25,3.03.59.52,1.69.46,1.96,1.21.13.37-.02.8.11,1.17.3.85,1.64.63,2.32,1.24.45.4.55,1.15,1.09,1.41.5.25,1.11-.07,1.5-.47s.7-.9,1.2-1.17c.05.08.34-.22.38-.3.16-.32.32-.65.37-1s-.01-.75-.26-1c.47.13.97.18,1.44.03s.88-.51.99-.98-.16-1.03-.63-1.16c-.5-.14-1,.2-1.4.52"/>
            </g>
            <g>
              <path class="cls-25" d="M335.57,37.25l-1.21-2.26c-.37-.69-.76-1.41-1.41-1.85s-1.62-.51-2.15.07c-.32-.1-.11-.59.14-.81,2.03-1.74,4.43-3.04,7-3.78.24-.07.5-.15.62-.36.1-.17.09-.39.05-.59-.25-1.27-1.44-2.28-2.73-2.33-.91-.04-1.78.35-2.61.74s-1.69.79-2.6.78-1.89-.58-2.05-1.48c1.6-.7,2.71-2.17,3.74-3.59.13-.18.27-.38.29-.6.01-.15-.04-.31-.08-.45-.56-1.66-1.6-3.15-2.95-4.26-.58-.47-1.39-.89-2.04-.52-.45.25-.65.79-1.04,1.13-.61.52-1.54.42-2.3.14s-1.48-.71-2.28-.76-1.73.46-1.75,1.26c0,.26.09.54,0,.79-.15.42-.7.49-1.14.52-1.29.07-2.61.29-3.74.93s-2.04,1.75-2.18,3.04c-.05.5.01,1.02-.12,1.51-.37,1.36-1.97,1.86-3.24,2.49-1.46.73-2.79,2.05-2.89,3.68-.07,1.05.37,2.07.43,3.13.08,1.26-.39,2.49-.9,3.65s-1.08,2.32-1.22,3.58.23,2.66,1.27,3.39c.3.21.67.36,1.03.32.76-.09,1.19-.89,1.73-1.43.89-.89,2.37-1.13,3.49-.56.58.29,1.05.77,1.64,1.02s1.41.21,1.73-.35c.04.48.08.98.3,1.42s.66.79,1.14.77c.2-.01.38-.08.56-.17,1.08-.56,1.71-1.92,2.92-2.1,1.64-.24,2.86,1.92,4.52,1.79,1.17-.09,2.24-1.33,3.3-.85.53.24.83.84,1.36,1.08,1.22.56,2.36-1.1,3.7-1.19.89-.06,1.79.59,2.63.29.78-.28,1.07-1.25,1.05-2.08s-.24-1.68-.01-2.48c.13.03.12-.59.07-.71-.18-.5-.36-1.01-.69-1.43s-.81-.75-1.34-.75c.62-.37,1.19-.86,1.51-1.5s.37-1.46-.03-2.06-1.26-.89-1.88-.53c-.66.39-.81,1.27-.89,2.03"/>
              <path class="cls-9" d="M324.64,59.39c-.07-1.55-.15-3.1-.22-4.65-.07-1.48-.11-3.07.71-4.3.53-.8,1.37-1.34,2.03-2.04,1.07-1.14,1.64-2.65,2.07-4.15.1-.34.2-.7.42-.98.27-.34.69-.53,1.07-.73,1.28-.67,2.38-1.68,3.16-2.9-1.07.94-2.32,1.67-3.66,2.15.33-.73.67-1.47.72-2.27s-.25-1.67-.94-2.08c.05,1.79-.67,3.5-1.49,5.09-.51,1-1.08,1.97-1.73,2.88-.52.72-1.22,1.47-2.12,1.46-.28-1.05-.55-2.1-.83-3.14-.53-2-1.08-4.04-2.21-5.77-.15,1.03-.3,2.05-.46,3.08-.98-1.87-3.07-3.12-5.19-3.09,1.42,1.05,2.93,2.01,4.16,3.27,1.07,1.1,1.96,2.5,2.16,4.05.05.39-.02.79.04,1.17.03.21.22.48.2.68-.1.91-1.08.79-1.72.57-.62-.21-1.24-.45-1.78-.82-.89-.62-1.49-1.58-2.09-2.48-1.95-2.9-4.3-5.53-6.97-7.8.9,2.83,2.51,5.37,4.11,7.87.64,1.01,1.29,2.02,2.06,2.94.59.71,1.27,1.36,2.1,1.78.89.45,1.92.62,2.76,1.16,1.55,1.02,1.55,2.7,1.59,4.36.05,2.02-.29,4.02-.69,5.99-.14.68-.3,1.39-.74,1.93s-1.25.85-1.85.51c.08.7.82,1.09,1.45,1.4.99.48,1.95,1.02,2.87,1.63.6.39,2.22,1.97,1.95.38-.4-2.41-.82-4.68-.94-7.14Z"/>
            </g>
            <g class="cls-19">
              <path class="cls-6" d="M281.61,64.87c-.28.24-.67.32-1.04.38-.8.14-1.66.27-2.39-.09-.46-.23-.9-.65-1.41-.55-.35.07-.71.38-1.02.2-.14-.08-.21-.23-.27-.38-.57-1.5-.13-3.17.32-4.71.03-.11.07-.22.15-.29.09-.07.22-.08.33-.09,1.07-.04,2.14.08,3.17.35-.14-.31-.2-.67-.16-1.01.68-.33,1.54-.25,2.16.19.03-.64.6-1.11,1.12-1.48-1.17.56-2.39,1.12-3.68,1.1-.15,0-.31-.02-.43-.1-.21-.15-.24-.44-.33-.68-.16-.44-.55-.75-.79-1.15-.25-.42-.33-.92-.46-1.39-.28-.97-.83-1.85-1.14-2.81s-.31-2.13.38-2.87c.3-.31.69-.52,1.09-.68.64-.25,1.51-.35,1.91.21.69-.38.53-1.39.74-2.15.2-.69.78-1.24,1.46-1.47s1.44-.17,2.11.07c.45.16.89.42,1.15.81s.33.95.07,1.35c-.17.25-.46.44-.5.74-.07.54.68.78.93,1.27.09.17.11.37.2.53.27.51,1,.53,1.54.31s1.01-.6,1.57-.68c.56-.08,1.15.16,1.49.61s.41,1.09.18,1.6c.9-.47,1.94-.66,2.94-.54.71.09,1.42.34,1.95.81s.88,1.19.8,1.9c-.12,1.04-1.05,1.78-1.95,2.3-.19.11-.38.22-.52.39-.11.14-.17.32-.21.5-.24.99-.09,2.06.4,2.95.11.2.24.39.29.61.18.74-.56,1.37-1.24,1.72-.58.3-1.18.55-1.8.76-.2.06-.4.13-.56.26-.23.19-.32.5-.5.75-.53.74-1.52.55-2.06-.03s-.8-1.04-1.69-.95c-.82.08-1.65.64-2.49.47-.54-.11-.63-.49-1.1-.09-.32.27-.41.75-.73,1.03Z"/>
              <path class="cls-6" d="M286.35,48.35c.89.33,1.86.57,2.79.38s1.8-.93,1.88-1.88l.41.39c.95-.62,1.33-1.97.85-3-.29-.62-.84-1.12-.95-1.8-.1-.66.26-1.31.27-1.98,0-.92-.7-1.75-1.57-2.04s-1.86-.07-2.63.41c-.21-.37-.67-.54-1.09-.53s-.83.18-1.22.34c-.25.1-.53.23-.65.47-.06.12-.07.26-.13.39-.22.48-.89.45-1.4.59-.39.1-.75.35-.99.68-.32.45-.41,1.07-.2,1.59s.73.9,1.29.92c-.13.54-.26,1.08-.38,1.62-.02.1-.05.2-.02.3.06.23.35.3.58.33.79.1,1.59.21,2.38.31.12.02.26.04.35.12.09.09.12.22.13.35.04.75-.56,1.58-.11,2.19.21.29.59.4.94.44.73.09,1.6-.13,1.89-.8"/>
              <path class="cls-6" d="M299.79,61.66c-.37-.6-.53-1.39-.21-2.02.1-.2.24-.37.32-.57.23-.58-.08-1.28.16-1.86.25-.59.97-.82,1.36-1.33.37-.48.43-1.18.88-1.58.46-.41,1.28-.33,1.64.18s.19,1.31-.35,1.62c.96.38,1.62,1.41,1.57,2.44-.01.21-.04.45.11.6.16.16.45.1.61-.06s.22-.39.28-.61c.53.63.54,1.54.39,2.35-.24,1.3-1.18,3.96-2.78,4.1-.86.07-1.52-.67-2.07-1.22-.65-.65-1.43-1.24-1.91-2.03Z"/>
              <path class="cls-6" d="M273.43,60.52c-.31.24-.56.57-.61.96-.06.45.13.95-.1,1.34-.21.35-.67.44-1.08.47-.52.04-1.04.02-1.56-.03-.17-.02-.34-.05-.47-.16-.13-.11-.18-.28-.22-.45-.32-1.25-.43-2.55-.33-3.84,0-.08.01-.15.06-.21.09-.13.29-.1.44-.07.99.24,1.96.54,2.91.9.47.17,1.02.49.99.99"/>
            </g>
            <g>
              <path class="cls-18" d="M281.72,65.59c-.28.24-.67.32-1.04.38-.8.14-1.66.27-2.39-.09-.46-.23-.9-.65-1.41-.55-.35.07-.71.38-1.02.2-.14-.08-.21-.23-.27-.38-.57-1.5-.13-3.17.32-4.71.03-.11.07-.22.15-.29.09-.07.22-.08.33-.09,1.07-.04,2.14.08,3.17.35-.14-.31-.2-.67-.16-1.01.68-.33,1.54-.25,2.16.19.03-.64.6-1.11,1.12-1.48-1.17.56-2.39,1.12-3.68,1.1-.15,0-.31-.02-.43-.1-.21-.15-.24-.44-.33-.68-.16-.44-.55-.75-.79-1.15-.25-.42-.33-.92-.46-1.39-.28-.97-.83-1.85-1.14-2.81s-.31-2.13.38-2.87c.3-.31.69-.52,1.09-.68.64-.25,1.51-.35,1.91.21.69-.38.53-1.39.74-2.15.2-.69.78-1.24,1.46-1.47s1.44-.17,2.11.07c.45.16.89.42,1.15.81s.33.95.07,1.35c-.17.25-.46.44-.5.74-.07.54.68.78.93,1.27.09.17.11.37.2.53.27.51,1,.53,1.54.31s1.01-.6,1.57-.68c.56-.08,1.15.16,1.49.61s.41,1.09.18,1.6c.9-.47,1.94-.66,2.94-.54.71.09,1.42.34,1.95.81s.88,1.19.8,1.9c-.12,1.04-1.05,1.78-1.95,2.3-.19.11-.38.22-.52.39-.11.14-.17.32-.21.5-.24.99-.09,2.06.4,2.95.11.2.24.39.29.61.18.74-.56,1.37-1.24,1.72-.58.3-1.18.55-1.8.76-.2.06-.4.13-.56.26-.23.19-.32.5-.5.75-.53.74-1.52.55-2.06-.03s-.8-1.04-1.69-.95c-.82.08-1.65.64-2.49.47-.54-.11-.63-.49-1.1-.09-.32.27-.41.75-.73,1.03Z"/>
              <path class="cls-18" d="M286.46,49.08c.89.33,1.86.57,2.79.38s1.8-.93,1.88-1.88l.41.39c.95-.62,1.33-1.97.85-3-.29-.62-.84-1.12-.95-1.8-.1-.66.26-1.31.27-1.98,0-.92-.7-1.75-1.57-2.04s-1.86-.07-2.63.41c-.21-.37-.67-.54-1.09-.53s-.83.18-1.22.34c-.25.1-.53.23-.65.47-.06.12-.07.26-.13.39-.22.48-.89.45-1.4.59-.39.1-.75.35-.99.68-.32.45-.41,1.07-.2,1.59s.73.9,1.29.92c-.13.54-.26,1.08-.38,1.62-.02.1-.05.2-.02.3.06.23.35.3.58.33.79.1,1.59.21,2.38.31.12.02.26.04.35.12.09.09.12.22.13.35.04.75-.56,1.58-.11,2.19.21.29.59.4.94.44.73.09,1.6-.13,1.89-.8"/>
              <path class="cls-18" d="M299.91,62.39c-.37-.6-.53-1.39-.21-2.02.1-.2.24-.37.32-.57.23-.58-.08-1.28.16-1.86.25-.59.97-.82,1.36-1.33.37-.48.43-1.18.88-1.58.46-.41,1.28-.33,1.64.18s.19,1.31-.35,1.62c.96.38,1.62,1.41,1.57,2.44-.01.21-.04.45.11.6.16.16.45.1.61-.06s.22-.39.28-.61c.53.63.54,1.54.39,2.35-.24,1.3-1.18,3.96-2.78,4.1-.86.07-1.52-.67-2.07-1.22-.65-.65-1.43-1.24-1.91-2.03Z"/>
              <path class="cls-18" d="M273.54,61.25c-.31.24-.56.57-.61.96-.06.45.13.95-.1,1.34-.21.35-.67.44-1.08.47-.52.04-1.04.02-1.56-.03-.17-.02-.34-.05-.47-.16-.13-.11-.18-.28-.22-.45-.32-1.25-.43-2.55-.33-3.84,0-.08.01-.15.06-.21.09-.13.29-.1.44-.07.99.24,1.96.54,2.91.9.47.17,1.02.49.99.99"/>
            </g>
            <g>
              <path class="cls-22" d="M300.02,61.48c-.12.07-.24.16-.26.3-.02.17.12.31.19.46.14.29,0,.64-.24.85s-.56.29-.88.33c-2.15.3-4.18-.96-5.99-2.17-.26-.18-.55-.39-.58-.71-.02-.24.12-.45.23-.66.24-.45.37-.98.28-1.48s-.44-.97-.92-1.14c-.4-.14-.88-.09-1.18-.38-.15-.15-.22-.35-.28-.55-.26-.79-.49-1.71-.05-2.42.74.18,1.33.71,1.95,1.16s1.37.83,2.11.67c.7-.15,1.23-.76,1.93-.93.88-.22,1.79.32,2.4.99s1.04,1.5,1.67,2.15c.63.64.63,1.19.76,2.02s-.5,1.09-1.16,1.5Z"/>
              <path class="cls-22" d="M291.44,53.61c-.26,0-.54-.02-.75-.17-.19-.13-.31-.34-.41-.55-.33-.66-.6-1.44-.29-2.11.1-.22.26-.41.32-.64.15-.6-.41-1.15-.97-1.4s-1.22-.38-1.64-.83c-.46-.5-.51-1.25-.43-1.93.06-.57.21-1.16.59-1.59.63-.69,1.74-.8,2.31-1.54.45-.59.45-1.44.93-2.01.63-.74,1.79-.66,2.75-.47.56.11,1.19.29,1.46.8.2.38.14.85.18,1.28.04.47.2.93.36,1.38.45,1.24.94,2.55,1.97,3.37.36.28.8.54.9.98.08.34-.06.69-.23.99-.34.61-.78,1.16-1.09,1.79-.5,1-.87,1.71-1.95,2.1-1.33.48-2.6.59-4.01.54Z"/>
              <path class="cls-22" d="M308.44,46.92c.67.11,1.38-.11,1.88-.57.12-.11.24-.24.4-.26.17-.02.31.09.44.2.43.35.91.83.79,1.38-.05.21-.19.42-.15.63.05.23.29.37.52.43.89.23,1.87-.27,2.35-1.05s.5-1.79.22-2.67c-.1-.32-.24-.63-.49-.85-.44-.39-1.09-.41-1.68-.33-.11.01-.23.03-.33-.03-.15-.09-.16-.31-.12-.48.15-.6.72-1.02,1.31-1.22s1.22-.22,1.84-.34c.22-.04.45-.1.62-.25.24-.22.29-.57.32-.89.09-.95.12-1.95-.26-2.83s-1.27-1.6-2.22-1.5c-.52.06-1.15.31-1.48-.09-.12-.14-.16-.33-.21-.5-.27-.89-.98-1.59-1.78-2.05s-1.71-.72-2.6-.96c-.93-.26-2.03-.49-2.79.11-.36.28-.61.74-1.06.84-.24.05-.49,0-.72-.08-.72-.22-1.4-.53-2.13-.7s-1.53-.18-2.19.18c-.91.5-1.33,1.57-2.13,2.23-.79.65-1.86.83-2.77,1.3-1.05.53-1.89,1.46-2.31,2.56-.08.2-.14.42-.12.64.08.61.82.89,1.44.88s1.28-.16,1.83.12c.73.37.93,1.3.97,2.12s0,1.71.51,2.34c.27.34.67.56,1.01.83s.66.64.66,1.08c0,.25-.11.5-.08.76.05.44.52.74.97.76s.87-.17,1.28-.35c1.49-.66,3-1.25,4.53-1.78.48-.16,1.7-.82,2.18-.65.2.07.42.49.61.63.28.21.6.35.95.41Z"/>
              <path class="cls-22" d="M303.07,53.88c-.54-.59-1.33-.87-1.99-1.31-1.09-.72-1.86-1.92-2.06-3.21-.08-.53-.07-1.09.19-1.56.33-.59,1-.9,1.65-1.05,2.32-.53,4.79.6,7.11.05.74-.17,1.55-.5,2.2-.12.61.36.76,1.17.69,1.87s-.3,1.4-.2,2.09c.04.26.12.51.12.77,0,.38-.17.75-.4,1.05-.34.45-.79.8-1.18,1.21s-.73.92-.74,1.48c0,.35.11.74-.11,1.02-.08.1-.2.17-.32.23-2.22,1.04-3.69-1.14-4.96-2.52Z"/>
              <path class="cls-22" d="M308.33,64.04c.21.02.43.04.63-.04.46-.19.52-.79.66-1.26.29-.99,1.17-1.91.86-2.89-.21-.66-1.02-1.05-1.67-.81-.5.19-.92.7-1.45.64-.32-.03-.58-.27-.84-.47-1.32-1.03-3.04-1.35-4.69-1.64-.25-.04-.51-.08-.74.02-.26.12-.4.39-.52.65-.3.69-.49,1.57.02,2.13.21.24.52.37.82.47,1.12.35,2.41.31,3.32,1.04.29.24.54.55.72.88.11.2.14.72.27.87.4.43,2.03.33,2.62.39Z"/>
              <path class="cls-9" d="M297.59,53.24c-.91-.99-1.88-1.96-2.44-3.18,1.2,1.36,2.4,2.72,3.6,4.08.52.59,1.05,1.19,1.62,1.73.53.5,1.1.97,1.53,1.56.41.57.68,1.24.9,1.91.69,2.02,1.09,4.16.98,6.29.21-2.02-.55-4-.83-6.01-.18-1.32-.15-2.67-.37-3.99-.6-3.57-2.96-6.56-4.31-9.92,1.16,1.8,2.32,3.59,3.48,5.39.26-1.1.12-2.29-.37-3.3-.39-.8-1-1.52-1.09-2.41.6.67,1.19,1.34,1.79,2-.03-1.63-.04-3.26-.03-4.89,0-.36.04-.8.36-.97.7,1.12.46,2.56.33,3.88-.24,2.45,0,4.91.26,7.35.1-3.36,1.57-6.66,4-8.98-.37,2.15-.98,4.26-1.81,6.28-.51,1.26-1.12,2.48-1.46,3.79-.24.92-.36,1.86-.41,2.81-.09,1.79.05,3.61.6,5.31.44-1.71.49-3.49.74-5.24.14-1,.4-2.06,1.16-2.72.55-.48,1.27-.67,1.97-.85,2.05-.51,4.11-.95,6.19-1.31-1.14,1.04-2.77,1.3-4.26,1.71-.51.14-1.03.31-1.41.68-.35.34-.53.8-.7,1.25-.91,2.36-1.82,4.73-2.25,7.22-.08.46-.4,3.26-1.19,2.66-.26-.2-.28-1-.36-1.29-.15-.56-.32-1.12-.51-1.67-.78-2.2-1.92-4.27-3.28-6.16-.75-1.05-1.57-2.05-2.44-3Z"/>
            </g>
          </g>
          <g>
            <path class="cls-10" d="M378.85,80.36c.35.3.83.39,1.28.47.99.17,2.05.33,2.96-.11.57-.28,1.11-.8,1.74-.68.44.08.88.47,1.26.25.17-.1.26-.29.33-.47.71-1.85.16-3.91-.39-5.82-.04-.13-.08-.27-.19-.35-.11-.09-.27-.1-.41-.11-1.32-.05-2.64.1-3.92.43.18-.39.24-.82.19-1.25-.84-.4-1.9-.31-2.67.23-.04-.79-.74-1.37-1.39-1.83,1.44.69,2.95,1.39,4.55,1.36.18,0,.38-.02.53-.12.26-.18.3-.55.41-.84.2-.54.68-.92.97-1.42.31-.52.4-1.13.57-1.72.35-1.2,1.03-2.28,1.41-3.47s.39-2.63-.47-3.54c-.37-.39-.85-.64-1.35-.84-.79-.32-1.86-.43-2.36.26-.85-.47-.65-1.72-.91-2.66-.24-.85-.97-1.53-1.81-1.81s-1.78-.21-2.61.09c-.56.2-1.09.52-1.42,1s-.41,1.18-.08,1.67c.21.31.57.55.62.92.08.67-.84.97-1.15,1.56-.11.21-.14.45-.25.66-.33.62-1.24.65-1.9.39s-1.24-.74-1.94-.84c-.69-.1-1.42.2-1.84.76s-.5,1.34-.22,1.98c-1.11-.58-2.4-.82-3.64-.67-.88.11-1.75.42-2.41,1s-1.08,1.47-.98,2.35c.15,1.28,1.29,2.2,2.41,2.85.23.13.47.27.64.48.14.18.21.4.26.62.3,1.22.12,2.55-.5,3.65-.14.24-.29.48-.36.75-.22.92.7,1.69,1.54,2.12.71.37,1.46.68,2.22.93.24.08.5.16.69.32.28.24.4.62.62.92.66.91,1.88.67,2.55-.03s.99-1.28,2.09-1.17c1.01.1,2.04.79,3.07.58.67-.13.78-.61,1.36-.11.39.34.5.93.91,1.27Z"/>
            <path class="cls-10" d="M373,59.96c-1.1.4-2.29.7-3.44.47s-2.23-1.15-2.32-2.32l-.5.49c-1.17-.77-1.64-2.44-1.05-3.7.36-.76,1.04-1.39,1.17-2.22.13-.82-.32-1.62-.33-2.45-.01-1.13.86-2.17,1.94-2.52s2.29-.09,3.25.51c.26-.45.82-.66,1.35-.65s1.02.22,1.51.42c.31.13.65.28.8.58.07.15.09.32.16.48.27.59,1.1.56,1.73.73.49.13.93.43,1.22.84.4.56.51,1.33.25,1.97s-.9,1.11-1.59,1.14c.16.67.32,1.33.47,2,.03.12.06.25.03.37-.08.28-.43.37-.72.41-.98.13-1.96.26-2.94.38-.15.02-.32.05-.43.15-.11.11-.15.27-.16.43-.04.93.69,1.95.14,2.71-.26.36-.73.5-1.17.55-.9.11-1.98-.16-2.33-.99"/>
            <path class="cls-18" d="M366.02,76.4c.46-.75.66-1.72.26-2.5-.12-.24-.3-.46-.39-.71-.28-.72.1-1.58-.2-2.3-.31-.73-1.19-1.02-1.68-1.64-.46-.59-.53-1.45-1.08-1.95-.57-.51-1.58-.4-2.03.22s-.24,1.62.43,2c-1.19.47-2.01,1.74-1.94,3.02.01.26.05.56-.14.74-.2.2-.56.13-.75-.07s-.28-.48-.35-.76c-.65.78-.67,1.91-.48,2.9.3,1.61,1.46,4.9,3.43,5.06,1.07.09,1.88-.83,2.56-1.51.8-.8,1.76-1.53,2.36-2.51Z"/>
            <path class="cls-17" d="M388.96,74.99c.38.29.69.71.75,1.18.08.55-.16,1.17.12,1.65.26.43.83.55,1.34.58.64.04,1.29.03,1.93-.04.21-.02.42-.06.58-.19.16-.14.22-.35.27-.55.39-1.55.53-3.16.41-4.75,0-.09-.02-.19-.07-.27-.12-.16-.36-.13-.55-.08-1.22.3-2.42.67-3.6,1.11-.58.22-1.26.6-1.22,1.22"/>
          </g>
          <g class="cls-20">
            <path class="cls-10" d="M378.07,80.41c.35.3.83.39,1.28.47.99.17,2.05.33,2.96-.11.57-.28,1.11-.8,1.74-.68.44.08.88.47,1.26.25.17-.1.26-.29.33-.47.71-1.85.16-3.91-.39-5.82-.04-.13-.08-.27-.19-.35-.11-.09-.27-.1-.41-.11-1.32-.05-2.64.1-3.92.43.18-.39.24-.82.19-1.25-.84-.4-1.9-.31-2.67.23-.04-.79-.74-1.37-1.39-1.83,1.44.69,2.95,1.39,4.55,1.36.18,0,.38-.02.53-.12.26-.18.3-.55.41-.84.2-.54.68-.92.97-1.42.31-.52.4-1.13.57-1.72.35-1.2,1.03-2.28,1.41-3.47s.39-2.63-.47-3.54c-.37-.39-.85-.64-1.35-.84-.79-.32-1.86-.43-2.36.26-.85-.47-.65-1.72-.91-2.66-.24-.85-.97-1.53-1.81-1.81s-1.78-.21-2.61.09c-.56.2-1.09.52-1.42,1s-.41,1.18-.08,1.67c.21.31.57.55.62.92.08.67-.84.97-1.15,1.56-.11.21-.14.45-.25.66-.33.62-1.24.65-1.9.39s-1.24-.74-1.94-.84c-.69-.1-1.42.2-1.84.76s-.5,1.34-.22,1.98c-1.11-.58-2.4-.82-3.64-.67-.88.11-1.75.42-2.41,1s-1.08,1.47-.98,2.35c.15,1.28,1.29,2.2,2.41,2.85.23.13.47.27.64.48.14.18.21.4.26.62.3,1.22.12,2.55-.5,3.65-.14.24-.29.48-.36.75-.22.92.7,1.69,1.54,2.12.71.37,1.46.68,2.22.93.24.08.5.16.69.32.28.24.4.62.62.92.66.91,1.88.67,2.55-.03s.99-1.28,2.09-1.17c1.01.1,2.04.79,3.07.58.67-.13.78-.61,1.36-.11.39.34.5.93.91,1.27Z"/>
            <path class="cls-10" d="M372.22,60.01c-1.1.4-2.29.7-3.44.47s-2.23-1.15-2.32-2.32l-.5.49c-1.17-.77-1.64-2.44-1.05-3.7.36-.76,1.04-1.39,1.17-2.22.13-.82-.32-1.62-.33-2.45-.01-1.13.86-2.17,1.94-2.52s2.29-.09,3.25.51c.26-.45.82-.66,1.35-.65s1.02.22,1.51.42c.31.13.65.28.8.58.07.15.09.32.16.48.27.59,1.1.56,1.73.73.49.13.93.43,1.22.84.4.56.51,1.33.25,1.97s-.9,1.11-1.59,1.14c.16.67.32,1.33.47,2,.03.12.06.25.03.37-.08.28-.43.37-.72.41-.98.13-1.96.26-2.94.38-.15.02-.32.05-.43.15-.11.11-.15.27-.16.43-.04.93.69,1.95.14,2.71-.26.36-.73.5-1.17.55-.9.11-1.98-.16-2.33-.99"/>
            <path class="cls-18" d="M365.24,76.46c.46-.75.66-1.72.26-2.5-.12-.24-.3-.46-.39-.71-.28-.72.1-1.58-.2-2.3-.31-.73-1.19-1.02-1.68-1.64-.46-.59-.53-1.45-1.08-1.95-.57-.51-1.58-.4-2.03.22s-.24,1.62.43,2c-1.19.47-2.01,1.74-1.94,3.02.01.26.05.56-.14.74-.2.2-.56.13-.75-.07s-.28-.48-.35-.76c-.65.78-.67,1.91-.48,2.9.3,1.61,1.46,4.9,3.43,5.06,1.07.09,1.88-.83,2.56-1.51.8-.8,1.76-1.53,2.36-2.51Z"/>
            <path class="cls-17" d="M388.18,75.05c.38.29.69.71.75,1.18.08.55-.16,1.17.12,1.65.26.43.83.55,1.34.58.64.04,1.29.03,1.93-.04.21-.02.42-.06.58-.19.16-.14.22-.35.27-.55.39-1.55.53-3.16.41-4.75,0-.09-.02-.19-.07-.27-.12-.16-.36-.13-.55-.08-1.22.3-2.42.67-3.6,1.11-.58.22-1.26.6-1.22,1.22"/>
          </g>
          <g>
            <path class="cls-22" d="M350.68,71.69c.14.09.3.2.32.37.03.21-.15.38-.24.57-.17.35,0,.8.29,1.05s.69.36,1.08.41c2.66.37,5.16-1.19,7.39-2.68.33-.22.68-.49.71-.88.02-.29-.15-.55-.29-.81-.3-.56-.46-1.21-.34-1.83s.54-1.2,1.14-1.41c.49-.17,1.09-.11,1.45-.47.18-.18.27-.43.35-.67.32-.98.61-2.12.06-2.99-.91.23-1.65.88-2.41,1.43s-1.69,1.03-2.61.83c-.87-.19-1.53-.94-2.39-1.15-1.09-.27-2.21.39-2.96,1.23s-1.28,1.86-2.07,2.66c-.78.79-.77,1.47-.94,2.5s.62,1.34,1.44,1.85Z"/>
            <path class="cls-22" d="M361.28,61.97c.32-.01.66-.03.93-.21.24-.16.38-.42.51-.68.41-.81.74-1.78.36-2.6-.12-.27-.32-.5-.39-.79-.19-.74.5-1.42,1.2-1.73s1.51-.46,2.03-1.03c.57-.61.63-1.54.53-2.38-.08-.71-.26-1.44-.73-1.96-.77-.86-2.15-.98-2.86-1.9-.56-.73-.56-1.78-1.15-2.48-.78-.92-2.21-.82-3.4-.58-.69.14-1.47.36-1.8.98-.25.47-.18,1.04-.22,1.58-.05.59-.25,1.15-.45,1.7-.55,1.53-1.16,3.15-2.44,4.16-.44.35-.98.67-1.12,1.21-.1.42.08.85.28,1.23.41.76.96,1.44,1.34,2.21.61,1.23,1.08,2.11,2.41,2.59,1.65.6,3.21.73,4.96.67Z"/>
            <path class="cls-22" d="M340.28,53.7c-.83.14-1.71-.13-2.32-.71-.15-.14-.29-.3-.49-.32-.2-.02-.39.12-.55.25-.54.44-1.13,1.03-.97,1.7.06.26.24.51.19.78-.06.29-.36.45-.64.53-1.1.29-2.31-.33-2.9-1.3s-.61-2.21-.27-3.3c.12-.39.3-.78.61-1.05.54-.48,1.35-.5,2.07-.41.14.02.29.04.4-.03.19-.11.2-.38.14-.59-.19-.75-.89-1.26-1.62-1.51s-1.51-.28-2.27-.41c-.27-.05-.56-.12-.76-.31-.3-.27-.36-.7-.4-1.1-.11-1.18-.15-2.41.32-3.5s1.57-1.98,2.75-1.85c.64.07,1.42.38,1.83-.11.15-.17.19-.4.26-.62.33-1.09,1.21-1.96,2.2-2.53s2.11-.88,3.21-1.19c1.15-.32,2.51-.6,3.44.14.44.35.76.92,1.31,1.04.3.07.6-.01.89-.1.88-.27,1.73-.65,2.63-.86s1.89-.22,2.7.23c1.12.62,1.65,1.94,2.63,2.75.98.8,2.29,1.03,3.42,1.61,1.29.66,2.33,1.81,2.86,3.16.1.25.18.52.15.78-.09.76-1.02,1.1-1.78,1.09s-1.58-.2-2.26.15c-.9.45-1.15,1.61-1.19,2.62s0,2.11-.63,2.9c-.34.42-.82.69-1.25,1.02s-.81.8-.81,1.34c0,.31.14.62.1.94-.06.55-.64.92-1.19.94s-1.08-.21-1.58-.43c-1.84-.81-3.7-1.55-5.6-2.2-.59-.2-2.1-1.01-2.69-.8-.25.09-.52.6-.76.78-.34.25-.75.43-1.17.5Z"/>
            <path class="cls-22" d="M346.92,62.31c.67-.73,1.64-1.08,2.46-1.62,1.35-.9,2.29-2.37,2.55-3.96.1-.65.09-1.35-.23-1.93-.41-.72-1.23-1.12-2.04-1.3-2.87-.65-5.92.74-8.79.07-.91-.21-1.92-.62-2.72-.15-.75.44-.94,1.45-.85,2.31s.37,1.73.24,2.59c-.05.32-.15.63-.15.95,0,.47.21.92.49,1.3.42.56.98.99,1.46,1.5s.9,1.13.91,1.83c0,.43-.13.92.14,1.26.1.13.25.21.4.28,2.75,1.29,4.56-1.41,6.13-3.11Z"/>
            <path class="cls-22" d="M340.42,74.86c-.26.03-.53.05-.78-.05-.56-.24-.64-.98-.81-1.56-.36-1.22-1.45-2.36-1.06-3.57.26-.81,1.27-1.3,2.06-.99.62.23,1.13.86,1.79.79.4-.04.72-.33,1.03-.58,1.63-1.27,3.76-1.67,5.8-2.03.31-.05.63-.1.92.03.32.15.5.49.64.81.37.85.6,1.94-.02,2.64-.26.29-.64.46-1.01.57-1.38.44-2.97.38-4.1,1.29-.36.29-.67.68-.89,1.09-.13.25-.17.9-.34,1.07-.5.53-2.51.41-3.24.48Z"/>
            <path class="cls-9" d="M353.69,61.51c1.12-1.23,2.33-2.42,3.01-3.93-1.48,1.68-2.96,3.36-4.45,5.04-.65.73-1.29,1.47-2,2.14-.65.62-1.36,1.2-1.88,1.93-.51.71-.83,1.53-1.11,2.36-.85,2.5-1.35,5.14-1.21,7.78-.26-2.49.69-4.94,1.03-7.42.22-1.64.18-3.3.46-4.93.74-4.41,3.65-8.11,5.32-12.26-1.43,2.22-2.86,4.44-4.29,6.65-.32-1.36-.15-2.83.46-4.08.48-.98,1.24-1.88,1.34-2.97-.74.82-1.47,1.65-2.21,2.47.03-2.01.04-4.03.03-6.04,0-.45-.05-.99-.45-1.2-.87,1.39-.57,3.17-.41,4.8.29,3.02-.01,6.07-.32,9.09-.12-4.15-1.94-8.23-4.95-11.09.46,2.66,1.21,5.26,2.24,7.76.64,1.55,1.38,3.07,1.81,4.69.3,1.13.44,2.3.51,3.47.12,2.21-.06,4.46-.75,6.56-.54-2.11-.6-4.32-.91-6.48-.18-1.23-.49-2.55-1.43-3.36-.67-.59-1.57-.83-2.44-1.05-2.53-.63-5.08-1.17-7.65-1.62,1.41,1.28,3.42,1.61,5.26,2.11.63.17,1.27.38,1.74.84.43.42.65.99.87,1.55,1.12,2.91,2.25,5.84,2.78,8.92.1.56.5,4.02,1.47,3.29.32-.24.34-1.24.44-1.6.18-.69.39-1.38.63-2.06.96-2.72,2.37-5.27,4.05-7.62.93-1.3,1.94-2.53,3.01-3.71Z"/>
          </g>
          <path class="cls-4" d="M322.51,67.61c-.66.04-1.29-.25-1.83-.62-.36-.24-.7-.53-1.11-.67-.76-.25-1.59.06-2.38-.07-1.11-.18-1.9-1.17-2.41-2.17-.19-.37-.36-.76-.68-1.02-.22-.19-.49-.3-.77-.38-.77-.24-1.59-.28-2.38-.46s-1.59-.56-1.99-1.27c-.66-1.15,0-2.57.15-3.89.27-2.47-1.33-4.71-2.85-6.67-.46-.59-.91-1.18-1.37-1.77,2.6-1.04,5.32-1.79,8.1-2.05.94-.09,1.89-.12,2.8-.38.94-.27,1.8-.78,2.75-1,1.88-.45,3.83.26,5.77.24,1.83-.01,3.59-.67,5.4-.91,1.57-.21,3.16-.09,4.73.14.47.07,1.01.2,1.24.62.28.53-.08,1.19.06,1.77.19.78,1.17,1.11,1.49,1.85.21.48.1,1.05.32,1.52.28.6,1.03.88,1.29,1.49.19.44.06.96-.15,1.39-.54,1.05-1.6,1.77-2.12,2.82-.46.93-.46,2.03-.82,3.01-.47,1.26-1.57,2.26-2.86,2.6-.89.24-1.87.19-2.68.62-1.24.66-1.76,2.26-3.01,2.89-.84.43-1.99.24-2.78.76s-.75,1.52-1.9,1.59Z"/>
          <path class="cls-25" d="M328.43,78.43c-1.25-1-1.33-2.82-1.65-4.39-.26-1.29-.75-2.52-1.06-3.8-.52-2.11-.55-4.34-.1-6.47.07-.35.16-.7.34-1,.15-.26.37-.49.59-.7,1.22-1.14,2.7-1.97,4.17-2.78,1.44-.8,2.88-1.59,4.32-2.39-3.41.6-6.35,2.7-9.22,4.63-.12.08-.27.16-.38.08-.04-.02-.07-.06-.09-.1-.52-.76-.08-1.86.64-2.44s1.64-.83,2.47-1.22c2.23-1.07,3.73-3.18,5.13-5.21-2.57,2.41-6.47,3.18-8.72,5.9-.16-.41.04-.89.31-1.23s.63-.63.87-1c.26-.41.37-.9.47-1.38.36-1.59.82-3.16,1.39-4.7-.68,2.2-2.22,4.02-3.29,6.06-.49.94-.88,1.93-1.1,2.96-.52-.07-.84-.6-1.22-.96-.59-.57-1.42-.79-2.18-1.08-1.13-.43-2.2-1.04-3.14-1.8.89,1.28,2.21,2.17,3.44,3.12s2.44,2.07,2.92,3.55c-1.98-1-4.26-1.23-6.47-1.44l5.13,2.05c-1.72.43-3.28,1.47-4.34,2.88l2.64-1.94c.21-.15.42-.31.67-.38.27-.08.56-.05.84-.03.48.05.96.09,1.44.14.1,0,.2.02.28.07.1.07.15.18.2.29.36.94.31,1.98.25,2.99-.07,1.13-.15,2.25-.25,3.37-.22,2.59-.58,5.32-2.2,7.35,1.91.42,3.88.6,5.83.51.23,0,.47-.03.68-.13"/>
          <g>
            <path class="cls-10" d="M309.3,80.1c.12.07.24.16.26.3.02.17-.12.31-.19.46-.13.29,0,.64.24.85s.56.29.87.33c2.15.3,4.17-.96,5.97-2.16.26-.18.55-.39.58-.71.02-.23-.12-.45-.23-.66-.24-.45-.37-.98-.28-1.48s.44-.97.92-1.14c.39-.14.88-.09,1.17-.38.15-.15.22-.35.28-.54.26-.79.49-1.71.05-2.41-.74.18-1.33.71-1.95,1.15s-1.36.83-2.11.67c-.7-.15-1.23-.76-1.93-.93-.88-.22-1.78.32-2.39.99s-1.03,1.5-1.67,2.15c-.63.64-.62,1.18-.76,2.02s.5,1.09,1.16,1.49Z"/>
            <path class="cls-10" d="M317.86,72.24c.26,0,.54-.02.75-.17.19-.13.31-.34.41-.55.33-.65.6-1.44.29-2.1-.1-.22-.26-.41-.32-.64-.15-.6.41-1.14.97-1.39s1.22-.38,1.64-.83c.46-.5.51-1.25.43-1.92-.06-.57-.21-1.16-.59-1.59-.63-.69-1.74-.79-2.31-1.53-.45-.59-.45-1.44-.93-2-.63-.74-1.79-.66-2.74-.47-.56.11-1.19.29-1.46.79-.2.38-.14.84-.18,1.28-.04.47-.2.93-.36,1.37-.45,1.24-.94,2.54-1.97,3.36-.35.28-.79.54-.9.98-.08.34.06.69.23.99.33.61.77,1.16,1.09,1.78.5.99.87,1.7,1.94,2.09,1.33.48,2.59.59,4,.54Z"/>
            <path class="cls-10" d="M300.9,65.57c-.67.11-1.38-.11-1.87-.57-.12-.11-.24-.24-.4-.26-.16-.02-.31.09-.44.2-.43.35-.91.83-.79,1.37.05.21.19.41.15.63-.05.23-.29.37-.51.43-.89.23-1.87-.27-2.34-1.05s-.49-1.79-.22-2.66c.1-.32.24-.63.49-.85.44-.39,1.09-.41,1.67-.33.11.01.23.03.33-.03.15-.09.16-.31.12-.48-.15-.6-.72-1.02-1.31-1.22s-1.22-.22-1.83-.33c-.22-.04-.45-.1-.62-.25-.24-.22-.29-.57-.32-.89-.09-.95-.12-1.95.26-2.82s1.27-1.6,2.22-1.49c.52.06,1.15.31,1.48-.09.12-.14.16-.33.21-.5.27-.88.97-1.58,1.77-2.05s1.7-.71,2.59-.96c.93-.26,2.03-.49,2.78.11.36.28.61.74,1.05.84.24.05.49,0,.72-.08.71-.22,1.4-.53,2.13-.69s1.53-.18,2.18.18c.9.5,1.33,1.57,2.13,2.22.79.65,1.85.83,2.76,1.3,1.04.53,1.88,1.46,2.31,2.55.08.2.14.42.12.63-.08.61-.82.89-1.44.88s-1.27-.16-1.83.12c-.73.37-.93,1.3-.96,2.11s0,1.7-.51,2.34c-.27.34-.67.56-1.01.83s-.66.64-.66,1.08c0,.25.11.5.08.76-.05.44-.52.74-.96.76s-.87-.17-1.28-.35c-1.48-.66-2.99-1.25-4.52-1.78-.48-.16-1.7-.82-2.17-.64-.2.07-.42.49-.61.63-.28.21-.6.35-.94.4Z"/>
            <path class="cls-10" d="M306.26,72.52c.54-.59,1.32-.87,1.99-1.31,1.09-.72,1.85-1.91,2.06-3.2.08-.53.07-1.09-.19-1.56-.33-.58-.99-.9-1.65-1.05-2.32-.53-4.78.6-7.1.05-.73-.17-1.55-.5-2.2-.12-.61.35-.76,1.17-.69,1.87s.3,1.39.2,2.09c-.04.26-.12.51-.12.76,0,.38.17.74.4,1.05.34.45.79.8,1.18,1.21s.73.91.74,1.48c0,.35-.11.74.11,1.01.08.1.2.17.32.23,2.22,1.04,3.68-1.14,4.95-2.52Z"/>
            <path class="cls-10" d="M301.01,82.66c-.21.02-.43.04-.63-.04-.45-.19-.52-.79-.66-1.26-.29-.98-1.17-1.9-.86-2.88.21-.66,1.02-1.05,1.67-.8.5.19.91.69,1.45.64.32-.03.58-.27.84-.47,1.32-1.03,3.03-1.35,4.68-1.64.25-.04.51-.08.74.02.26.12.4.39.52.65.3.69.48,1.57-.02,2.13-.21.24-.51.37-.82.46-1.11.35-2.4.31-3.31,1.04-.29.24-.54.55-.72.88-.11.2-.14.72-.27.87-.4.43-2.02.33-2.61.39Z"/>
            <path class="cls-3" d="M311.73,71.88c.9-.99,1.88-1.96,2.43-3.18-1.2,1.36-2.39,2.71-3.59,4.07-.52.59-1.04,1.18-1.62,1.73-.53.5-1.1.97-1.52,1.56-.41.57-.67,1.24-.9,1.9-.68,2.02-1.09,4.15-.97,6.28-.21-2.01.55-3.99.83-5.99.18-1.32.15-2.67.37-3.98.59-3.56,2.95-6.55,4.3-9.9-1.16,1.79-2.31,3.58-3.47,5.37-.25-1.1-.12-2.28.37-3.3.39-.8,1-1.52,1.08-2.4-.59.67-1.19,1.33-1.78,2,.03-1.63.04-3.25.03-4.88,0-.36-.04-.8-.36-.97-.7,1.12-.46,2.56-.33,3.87.24,2.44,0,4.9-.26,7.34-.1-3.35-1.56-6.65-3.99-8.96.37,2.14.98,4.25,1.81,6.26.51,1.25,1.11,2.48,1.46,3.78.24.91.36,1.86.41,2.8.09,1.79-.05,3.6-.6,5.3-.44-1.71-.49-3.49-.74-5.23-.14-1-.4-2.06-1.15-2.72-.54-.47-1.27-.67-1.97-.85-2.04-.51-4.1-.95-6.18-1.31,1.14,1.04,2.76,1.3,4.25,1.7.51.14,1.03.31,1.4.68.34.34.53.8.7,1.25.91,2.35,1.82,4.72,2.25,7.2.08.46.4,3.25,1.18,2.66.26-.19.28-1,.35-1.29.15-.56.32-1.12.51-1.66.78-2.2,1.92-4.26,3.27-6.15.75-1.05,1.56-2.04,2.43-2.99Z"/>
          </g>
          <g id="Mini_trees" data-name="Mini trees">
            <path class="cls-9" d="M423.31,64.59c.11-.54.13-1.1.14-1.65.19.87.24,1.77.16,2.65-.02.26-.06.51-.06.77,0,.14.13.56.07.67-.11.19-.25,0-.36-.15-.54-.7-.11-1.54.05-2.3Z"/>
            <path class="cls-7" d="M422.12,63.81c-.01-.06-.01-.12-.04-.17-.06-.1-.21-.11-.33-.13-.28-.06-.5-.31-.6-.57-.13-.33-.22-.95-.23-1.31,0-.26.11-.53.34-.64.22-.11.49-.04.73,0,.33.06.67.07.98-.03.75-.25,1.66-1.2,2.33-.18.46.69.11,1.89-.22,2.56-.14.3-.32.62-.64.71-.39.11-.83-.04-1.24.05-.34.08-.97.21-1.08-.28Z"/>
            <path class="cls-9" d="M408.78,66.64c.11-.54.13-1.1.14-1.65.19.87.24,1.77.16,2.65-.02.26-.06.51-.06.77,0,.14.13.56.07.67-.11.19-.25,0-.36-.15-.54-.7-.11-1.54.05-2.3Z"/>
            <path class="cls-7" d="M407.57,66.07c-.01-.06-.01-.12-.04-.17-.06-.1-.21-.11-.33-.13-.28-.06-.5-.31-.6-.57-.22-.76.05-1.51.07-2.29,0-.19.01-.39.12-.54.12-.17.34-.24.54-.24s.41.07.6.13c.51.17,1.03.34,1.54.51.32.11.66.22.89.46.3.3.38.76.37,1.18-.02.5.03.7-.21,1.18-.14.3-.32.62-.64.71-.39.11-.83-.04-1.24.05-.34.08-.97.21-1.08-.28Z"/>
            <path class="cls-9" d="M404.93,62.73c-.22-1.06-.25-2.15-.28-3.23-.37,1.7-.48,3.46-.32,5.19.05.5.12,1.01.12,1.51,0,.28-.26,1.1-.14,1.32.21.38.48,0,.71-.29,1.06-1.36.21-3.01-.09-4.5Z"/>
            <path class="cls-7" d="M407.23,61.27c.03-.12.03-.24.09-.34.12-.2.4-.21.64-.26.55-.12.97-.6,1.17-1.13.27-.72.19-1.4.12-2.12s.3-1.44.2-2.17c-.09-.58-.48-1.06-.86-1.5-.7-.82-1.57-1.69-2.66-1.67-1.12.02-1.97.98-3.03,1.35-.59.2-1.23.21-1.83.39-.23.07-.47.17-.61.37-.19.26-.15.62-.11.93.25,1.78.26,3.58,1.05,5.2.28.58.64,1.22,1.26,1.39.77.21,1.63-.07,2.43.11.68.15,1.9.41,2.12-.55Z"/>
          </g>
          <g>
            <path class="cls-12" d="M341.57,74.42c-.55.36-1.02.86-1.33,1.46.16-1.54.32-3.08.48-4.62.08-.79.13-1.69-.4-2.26-.66-.71-1.78-.48-2.67-.15s-1.95.67-2.72.09c-.51-.38-.74-1.09-1.28-1.43-.32-.2-.71-.24-1.08-.28-1.02-.1-2.05-.21-3.07-.31-.09,0-.18-.02-.26.02-.12.06-.18.21-.22.35-.25,1.06.33,2.24-.07,3.25-.2.51-.62.88-.96,1.31s-.6,1-.42,1.52c.1.28.32.51.36.81.1.7-.76,1.06-1.22,1.58-1.12,1.29.25,3.77-.98,4.94,1.39.98,3.26.29,4.77-.48.86-.44,1.74-.91,2.7-.95s2.01.47,2.29,1.43c.13.45.09.96.35,1.34.12.17.28.3.47.38,1.44.64,3.71-1.77,4.53-2.85.41-.54.6-1.18.76-1.84.06-.27.15-3.39-.04-3.27Z"/>
            <path class="cls-12" d="M350.7,79.74c-2.26-.09-4.52-.47-6.7-1.12.5-1.36,2.14-1.8,3.54-1.79s2.9.23,4.11-.5c.46-.28.85-.68,1.34-.87.83-.32,1.77.03,2.49.57s1.31,1.25,2.02,1.8c.22.17.46.32.74.34.39.03.74-.24,1.12-.37,1.04-.38,2.15.25,3.01.97s1.71,1.57,2.8,1.73c.6.09,1.22-.05,1.81.05,1.37.24,2.27,1.87,2.01,3.29s-1.5,2.52-2.86,2.81c.27.95.86,1.79,1.63,2.36-2.44.03-4.89-.48-7.14-1.48-.55-.24-1.1-.53-1.52-.97-1.16-1.22-1.07-3.32-2.21-4.56-1.37-1.49-3.69-1-5.66-1.08-1.91-.07-3.8-.8-5.3-2.04"/>
            <path class="cls-12" d="M343.84,66.76c-.56-.38-.98-1.09-.82-1.77.12-.52.55-.92,1.01-1.15.91-.47,2.3-.21,2.54.82.2-.57.41-1.15.78-1.61s.95-.79,1.52-.69c.43.07.79.37,1.21.46s.98-.2.91-.64c-.08-.45-.7-.55-.92-.95-.19-.36.02-.81-.04-1.22-.11-.76-1.01-1.03-1.51-1.6-.4-.45-.54-1.15-.33-1.73s.74-1.02,1.33-1.09c.84-.1,1.64.49,2.49.47.45-.01.93-.19,1.33.01.51.25.63,1.01.4,1.56s-.69.93-1.11,1.34c-.3.28-.59.59-.73.98s-.12.88.17,1.17c.36.37.96.29,1.4.04s.79-.65,1.22-.92c.68-.42,1.5-.49,2.28-.55,1.05-.08,2.1-.15,3.15-.23.61-.04,1.22-.09,1.81.06,1.16.29,2.05,1.26,2.71,2.29.37.58.66,1.45.16,1.91-.18.17-.43.23-.68.27-1.18.21-2.41.15-3.56-.19-.02.78.33,1.56.91,2.06.32.27.7.46,1,.76s.49.77.32,1.16c-.2.45-.76.54-1.24.58-.92.07-1.84.14-2.76.21-.6-.75-.81-1.81-.53-2.75.07-.24.17-.49.13-.73-.06-.34-.39-.56-.68-.73-.45-.27-.91-.53-1.36-.8-.39-.23-.85-.46-1.26-.29-.7.29-.61,1.39-1.08,2-.38.49-1.07.57-1.67.52s-1.21-.2-1.8-.05c-.45.12-.83.41-1.23.65-1.42.83-3.99,1.37-5.45.38Z"/>
            <path class="cls-12" d="M351.05,58.56c.38-.04.76-.06,1.1-.24,1.15-.61.94-2.43,1.69-3.53.09-.13.2-.26.34-.32.39-.16.78.24,1.19.29.66.09,1.12-.63,1.41-1.25.33-.7.66-1.43.61-2.2s-.63-1.57-1.37-1.53c0-1.22,1-2.28.93-3.49-.04-.76-.5-1.44-1.09-1.89s-1.29-.7-1.98-.91c-.23-1.28.51-2.78-.26-3.8-.24-.31-.58-.52-.91-.7-2.67-1.49-5.52-2.63-8.46-3.37-.19-.05-.41-.09-.58,0-.17.09-.25.29-.33.47-.27.67-.54,1.34-.66,2.05-.14.79-.12,1.68-.62,2.29-.49.6-1.4.83-1.61,1.58-.26.95.85,1.91.5,2.83-.19.51-.74.73-1.22.97s-.98.65-.92,1.19c.03.28.2.51.36.73,1.02,1.52,1.18,3.82-.1,5.11-.25.25-.56.49-.61.84-.03.22.04.44.14.63.49,1.03,1.56,1.83,1.6,2.98.02.51-.18,1.02-.14,1.53.07.86.82,1.53,1.62,1.76s1.65.09,2.47-.04c2.4-.39,4.46-1.66,6.9-1.97Z"/>
            <path class="cls-12" d="M336.8,54.07c.81-1.45.89-3.79.32-5.52s-1.71-2.85-2.9-3.13c-2-.47-3.97,1.22-5.99,1.12-2.25-.11-4.42-2.43-6.61-1.61-.19.07-.38.17-.51.41-.18.33-.19.84-.13,1.28.3,2.38,1.96,4.07,1.85,6.49-.04.81-.27,1.66-.05,2.38.22.71.77.91,1.25,1,2.46.47,4.98.32,7.4-.54,1.74-.62,4.02.53,5.37-1.89Z"/>
            <path class="cls-16" d="M344.31,86c-.15-1.38-.46-2.74-.69-4.11-.37-2.23-.52-4.51-.28-6.76.3-2.92,1.25-5.77,1.17-8.7-.03-1.01-.18-2.02-.21-3.03-.05-1.59.19-3.17.2-4.75s-.25-3.25-1.17-4.51c-.55,2.31-.7,4.69-.84,7.07-.19,3.11-.37,6.22-.43,9.34-.07,3.81.06,7.62.18,11.43.07,2.11.13,4.22.12,6.33,0,1.12-.04,2.25-.1,3.37-.05.83-.37,1.97-.13,2.78.21.71.67,1.02,1.24.55s.61-1.86.7-2.54c.3-2.14.47-4.31.24-6.47Z"/>
            <path class="cls-16" d="M342.67,89.19c-1.26-.42-1.82-1.92-2.22-3.23-.59-1.94-1.18-3.88-1.77-5.82-.51-1.69-1.03-3.39-1.54-5.08.63.82,1.26,1.64,1.65,2.61.3.76.44,1.57.67,2.35.32,1.06.81,2.05,1.3,3.03.77,1.54,1.53,3.08,2.3,4.61-.08.56.07.98-.12,1.5-.09.23-.28.51-.51.43,0-.11.25-.29.24-.41Z"/>
            <path class="cls-16" d="M344.13,79.41c.26-.13.56-.14.85-.16,1.44-.07,2.88-.14,4.32-.22.73-.04,1.46-.07,2.19.05,1.36.22,2.63,1.01,3.48,2.16-.39-.53-.65-1.16-.74-1.83,1.16,1.16,2.9,1.32,4.49,1.42-.72-.64-1.86-.65-2.46-1.42-.4-.5-.53-1.3-1.11-1.53-.38-.15-.79.01-1.18.14-3.29,1.08-6.94-.48-10.25.52-.24.07-.48.17-.64.37-.34.44-.12,1.18-.49,1.59-.09.1-.22.18-.29.3-.22.38.28.93.51,1.17.74-.58.29-2.06,1.32-2.56Z"/>
            <path class="cls-16" d="M335.2,80.34c-1.18-.15-2.52-.06-3.35.84-.42.46-.65,1.07-.96,1.62-.51.9-1.27,1.65-1.64,2.63-.26.69-.36,1.53-.96,1.91,1.14-.25,1.85-1.44,2.32-2.56s.93-2.36,1.92-2.99c1.12-.71,2.56-.43,3.84-.12,1.33.32,3.02,1.05,4.36,1-1.04-1.52-3.89-2.13-5.54-2.35Z"/>
            <path class="cls-16" d="M346.29,65.98c.59-.49,1.07-1.17,1.2-1.94-.53.27-.8.9-1.24,1.31-.71.66-1.78.65-2.48,1.29.54,1.09,1.94-.16,2.52-.66Z"/>
            <path class="cls-16" d="M346.23,53.5c.42-1.36.25-2.84.23-4.27s.17-3,1.14-4.02c.52-.54,1.21-.89,1.66-1.49.28-.38.44-.84.6-1.3.12-.34.24-.7.21-1.07s-.24-.74-.58-.83c.4,1.3-.07,2.84-1.11,3.66-.73-.86-1.22-1.94-1.39-3.07-.36,1.02.49,2.13.31,3.2-.1.6-.51,1.08-.89,1.53-.9-1.91-2.08-3.68-3.49-5.22.27,1.11,1.05,1.99,1.72,2.89s1.28,2,1.11,3.13l-2.01-2.95c.08,1.7,1.36,3.05,1.89,4.66.45,1.38.34,2.89.22,4.34-.04.53-.1,1.09-.36,1.55-.4.69-1.32,1.06-1.49,1.87,1.05-.02,1.96-1.69,2.24-2.61Z"/>
            <path class="cls-16" d="M339.56,57.74c-1.46-1.18-2.95-2.48-3.67-4.25-.23-.56-.37-1.15-.63-1.69-.57-1.17-1.66-2-2.2-3.18.29,1.38.85,2.7,1.66,3.83-1-1-2.36-1.46-3.58-2.14s-2.42-1.74-2.56-3.17c.71,3.07,3.33,5.55,6.32,5.99-.85.17-1.76-.03-2.47-.54,1.08.52,2.2,1.07,3.01,1.98.49.55.86,1.2,1.31,1.78.51.65,1.12,1.19,1.73,1.74,1.13,1.01,2.27,2.02,3.56,2.79.24.15.58.27.78.06.94-1-2.77-2.78-3.27-3.18Z"/>
          </g>
        </g>
      </g>
    </g>
  </g>
</svg>