<?xml version="1.0" encoding="UTF-8"?>
<svg id="Layer_2" data-name="Layer 2" xmlns="http://www.w3.org/2000/svg" xmlns:xlink="http://www.w3.org/1999/xlink" viewBox="0 0 964.65 111.11">
  <defs>
    <style>
      .cls-1 {
        fill: none;
      }

      .cls-2 {
        fill: #3e4b20;
      }

      .cls-3 {
        fill: #475531;
      }

      .cls-4 {
        fill: url(#linear-gradient);
      }

      .cls-5 {
        fill: #494951;
      }

      .cls-6 {
        fill: #3c4d43;
      }

      .cls-7 {
        fill: #5b6040;
      }

      .cls-8 {
        fill: #3d3f4b;
      }

      .cls-9 {
        fill: #313d31;
      }

      .cls-10 {
        fill: #2f341e;
      }

      .cls-11 {
        fill: #c4c2b7;
      }

      .cls-12 {
        fill: #182422;
      }

      .cls-13 {
        fill: #27302b;
      }

      .cls-14 {
        fill: #5a491b;
      }

      .cls-15 {
        fill: #17262d;
      }

      .cls-16 {
        fill: #455145;
      }

      .cls-17 {
        fill: #3a442b;
      }

      .cls-18 {
        fill: #837c52;
      }

      .cls-19 {
        fill: #30311f;
      }

      .cls-20 {
        clip-path: url(#clippath);
      }
    </style>
    <clipPath id="clippath">
      <rect class="cls-1" width="960" height="108"/>
    </clipPath>
    <linearGradient id="linear-gradient" x1="523.24" y1="71.18" x2="964.65" y2="71.18" gradientUnits="userSpaceOnUse">
      <stop offset="0" stop-color="#8c8f60"/>
      <stop offset=".46" stop-color="#737552"/>
      <stop offset="1" stop-color="#515240"/>
    </linearGradient>
  </defs>
  <g id="Layer_1-2" data-name="Layer 1">
    <g id="right_hill_front" data-name="right hill front">
      <g class="cls-20">
        <path class="cls-14" d="M935.8,44.34c-18.07,2.17-45.49,26.33-81.3,30.65-26.24,3.16-51.07,5.52-74.05-3.33-4.13-1.59-29.34-10.84-34.07-11.43-25.49-3.17-45.57,3.84-57.64,4.36-6.55.29-13.37-.46-19.45,2.01-5.73,2.33-10.07,7.24-15.64,9.91-3.57,1.71-7.54,2.44-11.12,4.14-2.82,1.33-118.39,27.53-120.7,29.64l113.09-1.6h327.78l.53-78.26s0,10.6-27.44,13.9Z"/>
        <path class="cls-4" d="M937.21,45.16c-18.07,2.17-45.49,26.33-81.3,30.65-26.24,3.16-51.07,5.52-74.05-3.33-4.13-1.59-29.34-10.84-34.07-11.43-25.49-3.17-45.57,3.84-57.64,4.36-6.55.29-13.37-.46-19.45,2.01-5.73,2.33-10.07,7.24-15.64,9.91-3.57,1.71-7.54,2.44-11.12,4.14-2.82,1.33-118.39,27.53-120.7,29.64l113.09-1.6h327.78l.53-78.26s0,10.6-27.44,13.9Z"/>
        <g id="trees_background_stream" data-name="trees background stream">
          <g id="Mini_trees" data-name="Mini trees">
            <path class="cls-5" d="M721.23,69.95c.13-.65.15-1.33.17-1.99.23,1.05.29,2.14.19,3.21-.03.31-.07.62-.07.93,0,.17.16.68.09.81-.13.23-.3,0-.43-.18-.65-.84-.13-1.86.05-2.78Z"/>
            <path class="cls-3" d="M719.8,69.01c-.02-.07-.02-.15-.05-.21-.07-.12-.25-.13-.39-.16-.34-.07-.59-.37-.71-.7s-.13-.68-.14-1.02c0-.33,0-.71.26-.93.29-.25.74-.14,1.06.06.11.07.22.15.35.17.26.03.47-.17.66-.36.53-.53,1.14-.99,1.85-1.22.42-.13.96-.13,1.18.24.22.36,0,.81-.06,1.22-.05.35,0,.71-.03,1.06-.05.44-.24.86-.44,1.26-.17.36-.39.75-.77.86-.47.13-.99-.04-1.49.07-.41.09-1.16.25-1.3-.34Z"/>
            <path class="cls-5" d="M703.85,72.44c.13-.65.15-1.33.17-1.99.23,1.05.29,2.14.19,3.21-.03.31-.07.62-.07.93,0,.17.16.68.09.81-.13.23-.3,0-.43-.18-.65-.84-.13-1.86.05-2.78Z"/>
            <path class="cls-3" d="M702.4,71.75c-.02-.07-.02-.15-.05-.21-.07-.12-.25-.13-.39-.16-.34-.07-.59-.37-.71-.7s-.13-.68-.14-1.02c0-.33,0-.71.26-.93.29-.25.74-.14,1.06.06.11.07.22.15.35.17.26.03.47-.17.66-.36.53-.53,1.14-.99,1.85-1.22.42-.13.96-.13,1.18.24.22.36,0,.81-.06,1.22-.05.35,0,.71-.03,1.06-.05.44-.24.86-.44,1.26-.17.36-.39.75-.77.86-.47.13-.99-.04-1.49.07-.41.09-1.16.25-1.3-.34Z"/>
            <path class="cls-5" d="M699.24,67.7c-.26-1.28-.29-2.6-.33-3.91-.44,2.06-.57,4.18-.38,6.28.06.61.14,1.22.14,1.83,0,.34-.31,1.33-.17,1.6.25.46.58-.01.84-.36,1.27-1.65.26-3.65-.11-5.45Z"/>
            <path class="cls-3" d="M701.99,65.94c.03-.14.03-.29.1-.41.15-.24.48-.25.76-.32.66-.15,1.16-.73,1.4-1.36s.25-1.33.27-2.01c.01-.65-.01-1.4-.51-1.82-.57-.48-1.45-.27-2.08.12-.22.13-.44.29-.69.33-.5.07-.93-.34-1.28-.7-1.03-1.04-2.23-1.95-3.63-2.39-.81-.26-1.88-.25-2.32.48-.42.7,0,1.58.12,2.39.1.69-.02,1.39.05,2.08.09.87.48,1.68.86,2.46.34.7.76,1.47,1.51,1.68.92.25,1.95-.09,2.91.13.81.18,2.28.5,2.54-.66Z"/>
          </g>
          <g>
            <path class="cls-16" d="M720.47,44.7c.31-.23.74-.43,1.09-.25.24.12.35.38.56.54.33.25.82.2,1.22.07s.79-.34,1.22-.37.92.22.93.61c0,.13-.05.26,0,.38.08.2.37.24.61.25.69.04,1.39.14,1.99.45s1.09.85,1.16,1.47c.03.24,0,.49.06.73.2.66,1.05.9,1.73,1.2.78.35,1.49.99,1.54,1.77.04.51-.2,1-.23,1.51-.04.61.21,1.2.48,1.76s.58,1.12.65,1.73-.12,1.28-.68,1.63c-.16.1-.36.17-.55.15-.41-.04-.63-.43-.92-.69-.47-.43-1.26-.54-1.86-.27-.31.14-.56.37-.88.49s-.75.1-.92-.17c-.02.23-.05.47-.16.68s-.35.38-.61.37c-.1,0-.2-.04-.3-.08-.57-.27-.91-.93-1.56-1.01-.88-.12-1.53.93-2.41.86-.62-.04-1.19-.64-1.76-.41-.28.11-.44.41-.73.52-.65.27-1.26-.53-1.98-.58-.48-.03-.95.29-1.4.14-.42-.14-.57-.6-.56-1,0-.28.07-.55.06-.83,0-.24-.13-.33-.15-.5-.06-.39-.06-.99.12-1.36.12-.25.31-.47.39-.73.11-.37,0-.77-.19-1.11s-.44-.63-.63-.97c-.26-.46-.4-.99-.39-1.52,0-.29.05-.59.19-.84.33-.62,1.06-.88,1.66-1.25.65-.41,1.32-1.03,1.76-1.66s.79-1.23,1.44-1.72Z"/>
            <path class="cls-11" d="M725.74,66.32c-.04-.75-.08-1.49-.12-2.24-.04-.71-.06-1.48.38-2.07.28-.38.73-.64,1.08-.98.57-.55.87-1.28,1.1-2,.05-.17.1-.34.22-.47.14-.17.37-.25.57-.35.68-.32,1.27-.81,1.69-1.4-.57.45-1.24.81-1.95,1.04.18-.35.36-.71.39-1.1s-.13-.81-.5-1c.03.86-.36,1.69-.8,2.45-.27.48-.57.95-.92,1.39-.28.35-.65.71-1.13.7-.15-.51-.3-1.01-.44-1.52-.28-.96-.57-1.95-1.18-2.78-.08.5-.16.99-.24,1.49-.52-.9-1.64-1.5-2.77-1.49.76.51,1.56.97,2.22,1.58.57.53,1.05,1.21,1.15,1.95.03.19-.01.38.02.56.02.1.12.23.11.33-.05.44-.58.38-.92.27-.33-.1-.66-.22-.95-.4-.48-.3-.79-.76-1.12-1.2-1.04-1.4-2.3-2.67-3.72-3.76.48,1.36,1.34,2.59,2.19,3.79.34.49.69.97,1.1,1.42.32.34.68.66,1.12.86.48.22,1.03.3,1.47.56.83.49.83,1.3.85,2.1.03.97-.15,1.94-.37,2.89-.07.33-.16.67-.39.93s-.55.77-.22.92c.53.23,1.04.49,1.53.78.32.19,1.18.95,1.04.18-.22-1.16-.44-2.26-.5-3.44Z"/>
            <path class="cls-2" d="M716.17,53.09c-.3-.02-.58.14-.83.35-.16.14-.32.3-.5.38-.34.14-.72-.03-1.07.04-.5.1-.86.67-1.09,1.24-.09.21-.16.43-.31.59-.1.11-.22.17-.35.22-.35.14-.72.16-1.08.26s-.72.32-.9.73c-.3.66,0,1.47.07,2.23.12,1.41-.6,2.69-1.29,3.82-.21.34-.41.67-.62,1.01,1.17.59,2.41,1.02,3.66,1.17.42.05.86.07,1.26.22.42.15.81.45,1.24.58.85.26,1.73-.15,2.61-.14.83,0,1.62.38,2.44.52.71.12,1.43.05,2.14-.08.21-.04.46-.11.56-.36.13-.3-.04-.68.03-1.01.08-.45.53-.64.67-1.06.09-.27.04-.6.14-.87.13-.34.47-.51.58-.86.08-.25.03-.55-.07-.8-.24-.6-.72-1.01-.96-1.62-.21-.53-.21-1.16-.37-1.72-.21-.72-.71-1.29-1.3-1.49-.4-.14-.84-.11-1.21-.35-.56-.38-.8-1.29-1.36-1.66-.38-.25-.9-.14-1.26-.44s-.34-.87-.86-.91Z"/>
            <path class="cls-19" d="M717.66,70.16c-.56-.41-.6-1.15-.75-1.8-.12-.53-.34-1.03-.48-1.55-.23-.86-.25-1.78-.05-2.64.03-.14.07-.28.15-.41.07-.11.17-.2.27-.28.55-.47,1.22-.8,1.89-1.13.65-.33,1.3-.65,1.96-.98-1.54.25-2.87,1.1-4.17,1.89-.05.03-.12.06-.17.03-.02,0-.03-.03-.04-.04-.23-.31-.04-.76.29-1s.74-.34,1.12-.5c1.01-.44,1.69-1.3,2.32-2.13-1.16.99-2.93,1.3-3.94,2.41-.07-.17.02-.36.14-.5s.29-.26.4-.41c.12-.17.17-.37.21-.56.16-.65.37-1.29.63-1.92-.31.9-1.01,1.64-1.49,2.48-.22.38-.4.79-.5,1.21-.24-.03-.38-.24-.55-.39-.27-.23-.64-.32-.99-.44-.51-.17-.99-.42-1.42-.74.4.52,1,.89,1.56,1.28s1.1.85,1.32,1.45c-.9-.41-1.93-.5-2.93-.59l2.32.84c-.78.18-1.48.6-1.97,1.18l1.19-.79c.09-.06.19-.13.3-.16.12-.03.25-.02.38-.01.22.02.43.04.65.06.04,0,.09,0,.13.03.05.03.07.07.09.12.16.38.14.81.11,1.22-.03.46-.07.92-.11,1.38-.1,1.06-.26,2.17-.99,3,.86.17,1.75.24,2.64.21.11,0,.21-.01.31-.05"/>
          </g>
          <g>
            <path class="cls-7" d="M763.18,64.17c-.49.32-.9.76-1.18,1.29.14-1.36.28-2.72.43-4.08.07-.7.11-1.49-.35-2-.58-.63-1.57-.42-2.36-.14s-1.72.59-2.4.08c-.45-.34-.65-.97-1.13-1.27-.28-.18-.62-.22-.95-.25-.9-.09-1.81-.18-2.71-.28-.08,0-.16-.02-.23.02-.11.05-.16.18-.19.31-.22.94.29,1.98-.06,2.87-.18.45-.55.78-.85,1.16s-.53.88-.37,1.34c.09.25.28.45.32.71.09.62-.67.93-1.08,1.4-.99,1.14.22,3.33-.86,4.37,1.23.87,2.88.25,4.21-.43.76-.39,1.54-.8,2.39-.84s1.78.42,2.02,1.26c.12.39.08.85.31,1.18.1.15.25.26.41.33,1.28.56,3.28-1.56,4-2.52.36-.48.53-1.04.67-1.63.06-.24.13-3-.03-2.89Z"/>
            <path class="cls-7" d="M771.24,68.88c-2-.08-3.99-.41-5.92-.99.45-1.2,1.89-1.59,3.13-1.58s2.56.2,3.63-.44c.4-.24.75-.6,1.19-.77.73-.28,1.57.03,2.2.5s1.16,1.11,1.79,1.59c.19.15.41.29.65.3.35.02.66-.21.99-.33.92-.34,1.9.22,2.66.86s1.51,1.39,2.47,1.53c.53.08,1.07-.05,1.6.05,1.21.22,2.01,1.65,1.77,2.91s-1.32,2.22-2.52,2.48c.24.84.76,1.58,1.44,2.09-2.16.03-4.32-.42-6.31-1.31-.48-.22-.97-.46-1.34-.85-1.03-1.08-.94-2.93-1.95-4.03-1.21-1.31-3.26-.89-5-.95-1.69-.06-3.36-.71-4.68-1.81"/>
            <path class="cls-7" d="M765.19,57.41c-.5-.34-.86-.96-.72-1.57.11-.46.48-.81.89-1.02.81-.41,2.04-.19,2.24.73.18-.5.36-1.01.69-1.42s.84-.7,1.34-.61c.38.07.7.33,1.07.41s.87-.17.8-.56c-.07-.4-.62-.49-.81-.84-.17-.32.01-.72-.04-1.08-.1-.67-.89-.91-1.33-1.41-.36-.4-.48-1.02-.29-1.53s.65-.9,1.18-.97c.75-.09,1.45.44,2.2.42.4,0,.82-.17,1.18.01.45.22.55.89.35,1.37s-.61.83-.98,1.18c-.26.25-.52.52-.65.87s-.1.78.15,1.04c.32.32.85.26,1.24.04s.7-.58,1.08-.81c.6-.37,1.32-.43,2.01-.48.93-.07,1.85-.14,2.78-.2.54-.04,1.08-.08,1.6.05,1.02.25,1.81,1.11,2.39,2.03.33.51.59,1.28.14,1.68-.16.15-.38.2-.6.24-1.04.19-2.13.13-3.15-.17-.01.69.29,1.38.8,1.82.28.24.62.4.88.67s.44.68.28,1.02c-.18.4-.67.48-1.09.51-.81.06-1.63.12-2.44.18-.53-.66-.71-1.6-.47-2.43.06-.21.15-.43.11-.65-.06-.3-.34-.49-.6-.64-.4-.23-.8-.47-1.2-.7-.34-.2-.75-.41-1.11-.25-.62.26-.53,1.23-.96,1.77-.34.43-.94.5-1.47.46s-1.07-.18-1.59-.04c-.39.11-.73.36-1.09.57-1.25.74-3.53,1.21-4.82.34Z"/>
            <path class="cls-7" d="M771.56,50.16c.33-.03.67-.06.97-.21,1.02-.54.83-2.15,1.49-3.12.08-.12.18-.23.3-.28.35-.14.69.21,1.06.26.58.08.99-.56,1.24-1.11.29-.61.58-1.26.54-1.95s-.55-1.39-1.21-1.35c0-1.08.88-2.01.83-3.09-.04-.67-.44-1.27-.96-1.67s-1.14-.62-1.75-.8c-.2-1.13.45-2.46-.23-3.36-.21-.28-.51-.46-.81-.62-2.36-1.32-4.88-2.32-7.48-2.98-.17-.04-.36-.08-.51,0-.15.08-.22.26-.29.42-.24.59-.47,1.18-.58,1.81-.12.7-.11,1.48-.55,2.02-.43.53-1.24.73-1.42,1.4-.23.84.75,1.69.44,2.5-.17.45-.66.65-1.07.85s-.87.57-.81,1.05c.03.24.18.45.31.65.9,1.34,1.05,3.38-.09,4.51-.22.22-.49.43-.54.74-.03.19.04.38.12.56.44.91,1.38,1.61,1.41,2.64.02.45-.16.9-.13,1.35.06.76.72,1.36,1.43,1.55s1.46.08,2.18-.04c2.12-.34,3.94-1.46,6.09-1.74Z"/>
            <path class="cls-7" d="M758.97,46.2c.72-1.28.79-3.35.28-4.88s-1.51-2.52-2.56-2.76c-1.77-.41-3.51,1.08-5.29.99-1.98-.1-3.91-2.15-5.84-1.42-.17.06-.34.15-.45.36-.16.29-.17.74-.12,1.13.26,2.11,1.73,3.59,1.64,5.74-.03.71-.24,1.47-.04,2.1.19.63.68.8,1.11.88,2.18.42,4.4.28,6.54-.48,1.54-.55,3.55.47,4.74-1.67Z"/>
            <path class="cls-11" d="M765.61,74.4c-.13-1.22-.41-2.42-.61-3.63-.33-1.97-.46-3.99-.25-5.97.27-2.58,1.1-5.09,1.03-7.69-.02-.89-.16-1.78-.18-2.67-.04-1.4.17-2.8.18-4.2s-.22-2.87-1.03-3.99c-.49,2.04-.61,4.15-.74,6.24-.16,2.75-.33,5.5-.38,8.25-.06,3.37.05,6.73.16,10.1.06,1.86.12,3.73.1,5.59,0,.99-.03,1.99-.09,2.98-.04.73-.32,1.74-.12,2.45.18.62.59.9,1.09.49s.54-1.65.62-2.24c.26-1.89.42-3.81.21-5.71Z"/>
            <path class="cls-11" d="M764.16,77.22c-1.11-.37-1.61-1.69-1.96-2.86-.52-1.71-1.04-3.42-1.56-5.14-.45-1.5-.91-2.99-1.36-4.49.55.72,1.12,1.45,1.46,2.31.27.67.39,1.39.59,2.08.28.93.71,1.81,1.15,2.68.68,1.36,1.35,2.72,2.03,4.07-.07.49.07.86-.11,1.32-.08.21-.24.45-.45.38,0-.1.22-.26.22-.36Z"/>
            <path class="cls-11" d="M766.92,69.91c.29-.14.61-.16.92-.17,1.57-.08,3.13-.15,4.7-.23.79-.04,1.59-.08,2.38.05,1.48.24,2.87,1.09,3.79,2.32-.43-.57-.71-1.25-.81-1.96,1.26,1.25,3.15,1.42,4.89,1.53-.78-.69-2.02-.7-2.68-1.52-.43-.54-.57-1.4-1.2-1.65-.41-.16-.86.01-1.28.15-3.57,1.16-7.55-.52-11.15.56-.26.08-.52.18-.7.39-.37.47-.13,1.27-.54,1.71-.1.11-.24.19-.31.32-.24.41.3,1,.55,1.26.8-.62.32-2.22,1.44-2.76Z"/>
            <path class="cls-11" d="M756.8,70.45c-1.05-.13-2.23-.05-2.96.75-.37.41-.57.95-.85,1.43-.45.8-1.12,1.46-1.44,2.32-.23.61-.32,1.35-.85,1.69,1.01-.22,1.63-1.27,2.05-2.26s.82-2.08,1.7-2.64c.99-.63,2.26-.38,3.39-.1,1.18.29,2.66.93,3.86.89-.92-1.34-3.44-1.88-4.89-2.07Z"/>
            <path class="cls-11" d="M758.26,66.26c.26-.06.51-.11.77-.17-.99,1.47-2.74,2.36-4.46,2.25-.65-.04-1.3-.21-1.95-.13-.97.12-1.8.77-2.72,1.13-.98.38-2.07.41-3,.92,1.24-.41,2.38-1.12,3.33-2.05.63-.62,1.28-1.39,2.15-1.39.44,0,.85.21,1.29.27.5.08,1.01-.04,1.51-.15,1.03-.23,2.83-1.08,3.79-.3.87.71,1.93,2.66,2.3,3.73.21.63.31,1.38.84,1.75-.03-.18-.05-.35-.1-.53-.47-.27-.8-1.73-1.03-2.31-.33-.85-.67-1.69-1-2.54-.3-.76-.6-1.54-.57-2.36.07-1.6,1.39-2.9,1.5-4.49.11-1.58-.99-2.95-2.02-4.12.43,1.02.86,2.03,1.29,3.05.17.39.33.79.33,1.22,0,.83-.62,1.5-1.03,2.2-.67,1.13-.86,2.55-.53,3.83"/>
            <path class="cls-11" d="M762.86,55.22c-.41-.73-1.25-1.08-2.06-1.18s-1.63,0-2.43-.07c-2.17-.22-4.13-1.93-4.74-4.12-.07-.26-.14-.55-.35-.71-.19-.15-.46-.14-.7-.14-1.99-.02-4.08-1.4-4.34-3.46.39.88,1.02,1.65,1.79,2.19-.1-.93-.21-1.85-.31-2.78.32.52.37,1.17.5,1.77s.42,1.24.97,1.46c.34.14.71.09,1.07.12,1.22.12,2.27,1.3,2.27,2.59-.55-1.01-.24-2.32-.67-3.39-.19-.47-.52-.86-.85-1.24-.71-.81-1.48-1.59-2.05-2.52s-.96-2.03-.82-3.13c.78,1.54,1.71,2.99,2.77,4.33-.22-1.3-.44-2.6-.66-3.91,1.03,2.86,1.86,5.8,2.49,8.79.08-1.45.29-3.14,1.51-3.84-.31,1.39-1.19,2.66-1.13,4.08.05,1.24.81,2.31,1.54,3.29.28-1.01.83-1.92,1.59-2.61-.36.79-.67,1.6-.93,2.43l3.59.1c.36,0,.73.02,1.04.21.42.24.64.73.83,1.19.47,1.12,1.2,2.73.67,3.94-.49-1.03-.02-2.36-.59-3.39Z"/>
            <path class="cls-11" d="M767.35,56.72c.52-.44.94-1.03,1.06-1.71-.47.24-.71.79-1.1,1.15-.63.58-1.57.58-2.19,1.14.48.96,1.71-.14,2.23-.58Z"/>
            <path class="cls-11" d="M769.06,51.66c.84-.08,1.71-.2,2.46-.62s1.37-1.18,1.41-2.07c.03-.59-.19-1.25.12-1.75.49-.79,1.68-.4,2.51-.78.6-.28.95-1.04.8-1.7-.86.71-1.91,1.17-2.99,1.33.13-.7.03-1.44-.27-2.07.09,1.09-.14,2.21-.65,3.17-.31-.51-.71-.96-1.18-1.33-.12,1.03.03,2.09.43,3.04.11.26.24.53.19.81-.04.23-.19.41-.36.56-1.19,1.07-3.01.69-4.5,1.21,1.03-.32,1.87-1.23,2.14-2.32-1.17,1.11-2.52,2.17-3.55,3.4,1.14-.13,2.24-.76,3.45-.87Z"/>
            <path class="cls-11" d="M770.4,45.63c.39-.52.29-1.26.16-1.9,1.85-.3,3.63-1.11,5.09-2.34.46-.38.91-.87.96-1.48-1.05.62-2.16,1.13-3.31,1.51-.06-1.12,1.82-1.29,2.05-2.38-.98.36-1.95.72-2.93,1.1-.27-.15-.59-.23-.9-.21l.19,1.09c-.67,0-1.34,0-2.02,0,.74.79,1.8,1.24,2.86,1.19.04.65-.5,1.2-1.1,1.38s-1.23.06-1.84-.05c.24,2.37-.67,2.91-2.46,3.98.84.13,2.74-1.21,3.24-1.89Z"/>
            <path class="cls-11" d="M767.3,45.69c.37-1.21.22-2.51.2-3.78s.15-2.65,1-3.55c.46-.48,1.07-.78,1.47-1.32.25-.34.39-.75.53-1.15.11-.3.21-.62.19-.94s-.21-.66-.52-.73c.35,1.15-.06,2.51-.98,3.23-.65-.76-1.08-1.71-1.23-2.71-.32.9.43,1.88.27,2.83-.09.53-.45.95-.79,1.35-.8-1.69-1.84-3.25-3.08-4.61.24.98.93,1.76,1.52,2.55s1.13,1.76.98,2.76l-1.77-2.61c.07,1.5,1.2,2.7,1.67,4.12.4,1.22.3,2.55.19,3.84-.04.47-.08.96-.32,1.37-.36.61-1.16.94-1.32,1.66.93-.02,1.73-1.49,1.98-2.3Z"/>
            <path class="cls-11" d="M767.5,43.3c-.89.52-2.03.55-2.94.07-.14-.48.13-.97.32-1.42s.27-1.09-.13-1.37c-.24.61-.51,1.22-.8,1.81-.48-.41-.7-1.11-.54-1.74.04-.18.12-.35.13-.53.02-.3-.14-.6-.39-.74.02.56-.11,1.12-.35,1.62-.56-.79-1.11-1.58-1.67-2.38.19.7.52,1.36.96,1.92-.62-.37-1.28-.76-2-.74-.08.16.06.34.2.46.87.78,1.78,1.52,2.54,2.42.66.78,1.18,1.7,1.38,2.73.11.6-.07,1.67.62,1.02.54-.51.22-1.57.77-1.95.4-.28,1.07.04,1.51-.24.28-.18.41-.95.41-.95Z"/>
            <path class="cls-11" d="M762.33,45.44c-.09-.34.18-.66.43-.88s.54-.51.5-.86c-.3.2-.61.41-.91.61l-.84-1.56.11,1.1c-.34-.61-.87-1.1-1.49-1.37.38.83,1.28,1.45,1.29,2.37-.33-.22-.69-.39-1.06-.51.23.65.87,1.04,1.25,1.61.27.41.39.89.59,1.34.28.63,2.45,3.15,2.21,1.11-.15-1.24-1.79-1.82-2.09-2.95Z"/>
            <path class="cls-11" d="M761.41,49.44c-1.29-1.04-2.6-2.19-3.24-3.76-.2-.49-.33-1.02-.56-1.5-.5-1.03-1.47-1.77-1.94-2.81.25,1.22.75,2.38,1.47,3.38-.88-.88-2.08-1.29-3.16-1.89s-2.13-1.54-2.26-2.8c.63,2.71,2.94,4.9,5.58,5.29-.75.15-1.55-.03-2.18-.48.96.46,1.94.94,2.66,1.75.43.48.76,1.06,1.16,1.57.45.57.99,1.05,1.53,1.53,1,.89,2.01,1.78,3.15,2.46.22.13.51.24.69.05.83-.88-2.45-2.45-2.89-2.81Z"/>
          </g>
        </g>
        <g id="midground_trees" data-name="midground trees">
          <path class="cls-18" d="M798.45,61.36l.02-.51c0-.11.01-.22.06-.32.03-.07.09-.13.12-.2.17-.32-.04-.7-.19-1.03s-.18-.82.16-.95c.13-.05.28-.02.43,0,.69.06,1.36-.32,2.04-.26.27.02.53.11.8.1s.57-.12.66-.37c.05-.14.03-.29,0-.43-.13-.78-.49-1.51-1.02-2.1-.49-.54-1.14-1-1.33-1.7-.16-.58.01-1.27-.35-1.75-.23-.3-.67-.52-.65-.9.01-.17.12-.31.23-.45.21-.27.44-.53.56-.85s.14-.7-.05-.98c-.31-.47-.99-.47-1.54-.37-.7.12-1.41.31-1.97.75-.18.15-.38.33-.61.3-.12-.01-.23-.08-.34-.15-.39-.27-.91-.58-1.3-.31-.53.36-.16,1.34-.65,1.75-.16.14-.39.17-.56.3-.39.3-.3.91-.17,1.39-.37-.28-.96-.4-1.24-.03-.4.53.36,1.32.08,1.92-.25.54-1.1.47-1.5.92-.14.16-.21.37-.27.58l-.53,1.75c-.03.09-.06.19-.14.25-.09.06-.2.06-.31.06-.51-.02-1.09.06-1.37.48-.25.38-.14.93.19,1.24s.83.4,1.27.29c.25.24.61.5.92.33.11-.06.18-.16.27-.24.29-.26.74-.32,1.09-.13.13.07.24.17.35.27.54.49,1.08.98,1.62,1.47.2.18.41.37.68.41.26.04.52-.07.79-.11s.59.02.69.27c.03.08.04.17.05.26.24,1.3,1.88.42,2.54.02.26-.15.5-.3.61-.6s0-.6.16-.9c.43-.81,1.54-.57,2.08-1.24.09-.11.15-.24.26-.34.29-.26.76-.13,1.06.12s.51.59.82.82c.49.36,1.13.4,1.74.44.15.01.31.03.43.11.24.16.27.49.35.77.13.45.43.84.84,1.06.07.04.16.08.18.16.02.05,0,.1,0,.15-.09.46-.19.91-.28,1.37-.07.35-.15.7-.35.99-.11.15-.25.29-.28.48-.03.19.07.37.08.56.02.33-.25.62-.56.74s-.65.1-.98.09c-.53-.03-1.08-.06-1.52-.36-.34-.23-.57-.59-.89-.83-.62-.46-1.53-.41-2.14.06s-.9,1.29-.79,2.04c.02.13.04.28-.04.38-.06.08-.17.1-.27.11-.56.03-1.1-.31-1.66-.3-.45.01-.89.28-1.1.68-.51-.4-.85-.97-1.3-1.43s-1.11-.83-1.73-.65c-.61.18-1.08.84-1.71.75.2.24.03.6-.18.82s-.48.44-.5.75c-.01.21.1.42.09.63-.02.26-.25.48-.51.55s-.53.03-.79-.03c-.69-.16-1.37-.47-1.82-1.02s-.59-1.38-.22-1.98c.09-.14.21-.27.37-.32.37-.12.88.17,1.09-.15-.33-.29-.78-.38-1.16-.59s-.73-.65-.57-1.05c.14-.37.61-.48,1.01-.45s.79.15,1.18.06c.77-.19,1.14-1.17,1.91-1.35.89-.21,1.8.75,2.64.4.36-.15.61-.51.97-.66.75-.31,1.54.4,2.35.39.71-.02,1.28-.58,1.76-1.11.18-.19.36-.41.38-.67.02-.21-.08-.41-.11-.62s.04-.47.24-.52c-.2.13-.22.18-.29.41-.02.08-.04.17-.08.24-.07.11-.29-.05-.26.07Z"/>
          <path class="cls-9" d="M795.79,68.58c-.41.18-1.04.16-1.26-.15-.14-.2-.05-.45-.09-.67-.06-.26-.31-.48-.64-.58s-.73-.04-1,.13c-.22.14-.48.36-.73.25-.13-.06-.16-.18-.18-.3-.05-.38-.04-.77.01-1.14.05.36.16.72.34,1.06.31-.16.57-.37.89-.51s.77-.19,1.07-.03c.55.3.25,1.01.74,1.35.3.21.79.2,1.16.05.37-.15.6-.4.87-.62.16.09.34.2.48.3-.77.14-1,.57-1.67.86Z"/>
          <path class="cls-9" d="M797.15,74.5c0-.11-.61-22.29-.61-22.29l.32-.57,1.47,22.71-1.18.15Z"/>
          <path class="cls-9" d="M801.45,66.34c.44-.52.92-1.13,1.6-1.19.33-.03.68.07.97-.08.31-.16.43-.54.51-.88-.12.18-.24.37-.41.5-.23.18-.53.23-.81.29-.35.06-.69.13-1.04.19.2-.17.39-.34.59-.52-.27.26-.62.45-.98.53-.06-.23-.12-.46-.18-.69-.07-.28-.12-.64.13-.8-.29.1-.45.48-.32.76.12.26.45.44.41.72-.02.12-.1.21-.18.3-.17.19-.34.38-.51.57-.36.4-.82.88-1.41.73-.18-.05-2.57-.59-2.43.05.08.34,2.49.47,2.78.42.53-.09.96-.52,1.29-.91Z"/>
          <path class="cls-9" d="M795.75,70.92c.12.33-.02.74-.32.93-.53.33-1.31-.05-1.81.32-.08.06-.15.13-.23.18-.12.06-.27.06-.41.05-.62-.03-1.25-.07-1.82-.3-.28-.11-.54-.27-.84-.34-.41-.09-.86,0-1.27-.11.35-.02.71-.04,1.06-.06-.32-.08-.62-.26-.84-.5,1.37.06,2.62,1.14,3.97.89-.49.15-.97-.21-1.36-.55-.51-.45-1.03-.89-1.54-1.34.64.11,1.07.68,1.59,1.07.78.59,1.85.79,2.79.5.21-.06.43-.16.52-.36.19-.4.07-.75.64-.72.24.01.93.2.93.52,0,.37-.42.38-.62.23,0,0-.48-.49-.45-.41Z"/>
          <path class="cls-9" d="M795.13,65.85l-1.63-.56c-.23-.08-.49-.15-.69-.01-.11.08-.17.21-.27.31-.27.28-.73.23-1.12.15-.32-.06-.64-.13-.93-.27-.35-.18-.63-.47-.96-.69-1.08-.76-2.65-.84-3.42-1.92,1.11.49,2.2,1.01,3.26,1.58.19-.14.17-.45.03-.64s-.37-.29-.58-.39c.27.13.54.26.81.39.16-.17-.04-.44-.07-.67-.06-.35.4-.67.71-.48-.21.51-.33,1.09-.17,1.61s.69.97,1.24.88c.02,0,.04,0,.05-.02.11-.06-.02-.22-.13-.28-.29-.17-.51-.44-.62-.75.52.08.88.66,1.41.71.23.02.45-.06.67-.1,1.23-.22,2.35.7,3.56.97"/>
          <path class="cls-9" d="M790.73,61.59c-.26-.44-.69-.76-1.07-1.11s-.74-.78-.78-1.29c.02.2.65.67.81.81.29.27.59.52.9.76.6.46,1.3,1.03,2.01,1.29.09-.15.13-.35.11-.53-.18.2-.27.55-.51.71-.49.33-1.23-.21-1.48-.63Z"/>
          <path class="cls-15" d="M809.63,65.31c-.43-.57-.88-1.16-1.14-1.82s-.34-1.45-.04-2.1c.06-.12.13-.25.11-.38-.03-.27-.35-.38-.61-.48-.83-.33-1.37-1.27-1.25-2.16.03-.22.1-.44.24-.62.34-.45,1.1-.49,1.49-.08.5-1.32,1.06-2.63,1.92-3.75s2.04-2.04,3.42-2.33c.52-.11,1.06-.13,1.59-.22,1.58-.27,1.74,1.71,1.82,2.51.08.79.87,1.3,1.23,2.01.52,1.03.09,2.39.74,3.33.49.71,1.43.95,2,1.59.44.48.67,1.19,1.25,1.46.41.19.89.12,1.32.26.29.1.54.29.78.48.43.34.85.68,1.28,1.02.19.15.39.31.52.52.42.7-.11,1.58-.07,2.4.04.77.57,1.4.92,2.08.52,1.05.61,2.25.68,3.42.04.6,0,1.34-.54,1.6-.2.1-.44.1-.66.1-5.47,0-10.94.01-16.41.02-.43-.33-1-.22-1.45-.52-.43-.29-.55-.85-.64-1.36-.14-.79-.27-1.64.06-2.38.17-.38.47-.74.45-1.15-.01-.27-.16-.51-.27-.75-.19-.43-.29-.93-.1-1.36.26-.6.98-.86,1.39-1.37Z"/>
          <path class="cls-16" d="M801.42,73.5c-.99-.29-2.09-.67-2.5-1.61-.17-.37-.2-.78-.23-1.19-.06-.73-.04-1.6.58-1.99.46-.29,1.17-.24,1.39-.73.09-.19.07-.41.06-.62-.02-.47.03-.95.16-1.4.04-.15.09-.3.19-.42.13-.14.32-.21.48-.3.55-.31.87-.9,1.17-1.46.1-.2.21-.41.4-.53.15-.1.33-.12.51-.16.83-.18,1.66-.76,1.75-1.6.03-.29-.03-.57-.02-.86s.09-.6.33-.76c.13-.09.3-.14.35-.29.05-.16-.1-.31-.17-.46-.13-.24-.07-.55.08-.78s.39-.39.63-.51c.28-.14.69-.2.83.08.15.3-.19.59-.33.88-.14.3-.08.66.06.96s.36.55.55.82c.42.61.68,1.33.75,2.07.06.57.01,1.18.3,1.68.17.29.45.59.32.9-.08.19-.29.28-.47.38s-.36.28-.31.48c.03.11.12.2.21.28.81.83.5,2.42,1.44,3.1.14.1.31.19.35.36.03.11-.02.22-.05.33-.18.49-.32,1.04-.15,1.54.31.94,1.54,1.31,1.88,2.24-3.82-.16-7.65-.2-11.48-.12"/>
          <path class="cls-6" d="M817.46,75.86c.17.15.4.19.62.23.48.08.99.16,1.43-.05.28-.13.54-.39.84-.33.21.04.42.23.61.12.08-.05.13-.14.16-.23.34-.89.08-1.89-.19-2.81-.02-.06-.04-.13-.09-.17-.05-.04-.13-.05-.2-.05-.64-.02-1.28.05-1.9.21.09-.19.12-.4.09-.6-.41-.19-.92-.15-1.29.11-.02-.38-.36-.66-.67-.89.7.33,1.43.67,2.2.66.09,0,.18,0,.26-.06.13-.09.15-.26.2-.41.1-.26.33-.45.47-.69.15-.25.19-.55.28-.83.17-.58.5-1.1.68-1.68s.19-1.27-.23-1.71c-.18-.19-.41-.31-.65-.4-.38-.15-.9-.21-1.14.13-.41-.23-.31-.83-.44-1.29-.12-.41-.47-.74-.87-.88s-.86-.1-1.26.04c-.27.1-.53.25-.69.49s-.2.57-.04.81c.1.15.28.26.3.44.04.32-.41.47-.56.76-.05.1-.07.22-.12.32-.16.3-.6.32-.92.19s-.6-.36-.94-.41c-.33-.05-.69.1-.89.37s-.24.65-.1.96c-.54-.28-1.16-.4-1.76-.32-.42.05-.85.2-1.17.48s-.52.71-.48,1.14c.07.62.63,1.07,1.17,1.38.11.06.23.13.31.23.07.09.1.19.13.3.14.59.06,1.23-.24,1.76-.07.12-.14.23-.17.36-.1.44.34.82.74,1.03.35.18.71.33,1.08.45.12.04.24.08.33.16.14.12.19.3.3.45.32.44.91.33,1.23-.02s.48-.62,1.01-.57c.49.05.99.38,1.49.28.32-.07.38-.29.66-.05.19.16.24.45.44.62Z"/>
          <path class="cls-6" d="M815.08,63.61c-.53.19-1.11.34-1.67.23s-1.08-.56-1.12-1.12l-.24.24c-.57-.37-.79-1.18-.51-1.79.17-.37.5-.67.57-1.07.06-.4-.16-.79-.16-1.19,0-.55.42-1.05.94-1.22s1.11-.04,1.57.25c.13-.22.4-.32.65-.31s.49.11.73.2c.15.06.32.14.39.28.04.07.04.16.08.23.13.29.53.27.84.35.24.06.45.21.59.41.19.27.25.64.12.95s-.44.54-.77.55c.08.32.15.64.23.97.01.06.03.12.01.18-.04.14-.21.18-.35.2-.47.06-.95.12-1.42.19-.07,0-.15.02-.21.07-.05.05-.07.13-.08.21-.02.45.33.95.07,1.31-.13.17-.35.24-.56.27-.44.05-.96-.08-1.13-.48"/>
          <path class="cls-13" d="M806.46,73.55c.22-.36.32-.83.13-1.21-.06-.12-.14-.22-.19-.34-.14-.35.05-.77-.1-1.11-.15-.35-.58-.49-.81-.79-.22-.29-.25-.7-.52-.94-.28-.25-.77-.2-.98.11s-.11.78.21.97c-.57.23-.97.84-.94,1.46,0,.13.02.27-.07.36-.1.1-.27.06-.37-.03s-.13-.23-.17-.37c-.31.38-.32.92-.23,1.4.14.78.7,2.37,1.66,2.45.52.04.91-.4,1.24-.73.39-.39.85-.74,1.14-1.21Z"/>
          <path class="cls-12" d="M822.8,70.88c.22.08-.18-.14,0,0s.33.34.36.57c.04.27-.08.57.06.8.13.21.4.26.65.28.31.02.62.01.93-.02.1-.01.21-.03.28-.09.08-.07.11-.17.13-.27.19-.75.26-1.53.2-2.3,0-.04,0-.09-.04-.13-.06-.08-.17-.06-.26-.04-.59.14-1.17.32-1.74.54-.28.1-.61.29-.59.59"/>
          <path class="cls-3" d="M827.03,70.29c-.02-.07-.02-.15-.05-.21-.07-.12-.25-.13-.39-.16-.34-.07-.59-.37-.71-.7s-.13-.68-.14-1.02c0-.33,0-.71.26-.93.29-.25.74-.14,1.06.06.11.07.22.15.35.17.26.03.47-.17.66-.36.53-.53,1.14-.99,1.85-1.22.42-.13.96-.13,1.18.24.22.36,0,.81-.06,1.22-.05.35,0,.71-.03,1.06-.05.44-.24.86-.44,1.26-.17.36-.39.75-.77.86-.47.13-.99-.04-1.49.07-.41.09-1.16.25-1.3-.34Z"/>
          <path class="cls-8" d="M834.13,72.87c.02-.44,0-1.64-.16-2.06-.1-.27-.47-1.17-.69-1.37-.95-.89-1.4-1.39-2.6-1.89.67-.14,1.38-.13,2.05.05.22.06.45.14.6.31.16.17.22.4.28.62.53,1.97,1,3.96,1.43,5.95-.36-1.1-.49-2.28-.36-3.43.05-.47.15-.93.22-1.4.25-1.54.3-3.1.35-4.66.25,1.55.49,3.12.37,4.69.09-.29.17-.57.26-.86.22-.74.53-1.57,1.26-1.82-.01,1.08-.75,2.01-1.03,3.05-.24.9-.13,1.88-.43,2.76.02-.96.51-1.89,1.29-2.45.23-.17.49-.3.7-.5.38-.35.56-.86.75-1.34.39-.98.9-1.96,1.71-2.64-.2,1.43-.85,2.8-1.84,3.86-.38.41-.81.77-1.15,1.2-.32.41-.55.87-.78,1.33-.27.54-.53,1.08-.69,1.66-.09.33.01,1.13-.49.9-.45-.21-.36-.91-.43-1.31-.11-.62-.64-.03-.61-.67Z"/>
          <path class="cls-2" d="M832.42,71.11c0-.43.15-.85.34-1.24.05-.1.11-.21.21-.27.27-.14.57.19.86.15.25-.04.67,3.26.75,3.02.31.37.21-2.74.39-2.3.31.76.87,2.18-.39,2.3-1.08.1-2.19-.47-2.17-1.66Z"/>
          <path class="cls-19" d="M832.85,66.36l-.32-.98c-.1-.3-.19-.62-.14-.93s.31-.61.62-.61c.06-.12-.14-.2-.28-.19-1.07.1-2.13.44-3.06.97-.09.05-.18.1-.28.08-.08-.02-.14-.08-.19-.15-.3-.43-.26-1.06.09-1.45.25-.28.6-.42.95-.55s.7-.27.96-.54.36-.71.15-1.01c-.65.27-1.39.18-2.09.08-.09-.01-.18-.03-.25-.08-.05-.04-.08-.1-.11-.15-.32-.63-.47-1.35-.41-2.05.02-.3.13-.65.42-.74.2-.06.41.03.62.01.32-.03.55-.33.68-.63s.21-.63.42-.88.62-.38.86-.15c.08.07.13.18.23.22.16.07.34-.06.47-.19.38-.36.82-.68,1.32-.82s1.08-.1,1.49.22c.16.13.29.29.47.39.5.27,1.09-.05,1.63-.24.62-.22,1.38-.23,1.88.19.33.27.5.69.79,1,.35.38.83.59,1.31.76s.98.34,1.38.65.71.81.63,1.32c-.02.15-.08.29-.2.39-.24.2-.59.1-.9.1-.51,0-.99.37-1.14.86-.08.25-.07.52-.16.76s-.34.47-.59.4c.13.15.26.3.33.49s.05.41-.1.55c-.06.05-.13.09-.21.11-.47.15-1.04-.04-1.43.26-.53.41-.24,1.37-.75,1.81-.35.31-1.01.28-1.17.72-.08.22.01.48-.07.7-.18.51-.98.38-1.39.74-.27.24-.33.69-.65.85-.3.15-.66-.04-.9-.28s-.42-.54-.72-.7c-.03.05-.2-.13-.23-.18-.09-.19-.19-.39-.22-.6s0-.45.16-.6c-.28.08-.58.1-.86.02s-.53-.3-.59-.59.09-.62.37-.7c.3-.08.6.12.84.31"/>
          <g>
            <path class="cls-14" d="M856.59,68.05c-.07.04-.14.1-.15.18-.01.1.07.18.11.27.08.17,0,.38-.14.5s-.33.17-.52.2c-1.27.18-2.46-.57-3.52-1.28-.15-.1-.33-.23-.34-.42-.01-.14.07-.26.14-.39.14-.27.22-.58.16-.87s-.26-.57-.54-.67c-.23-.08-.52-.05-.69-.22-.09-.09-.13-.21-.16-.32-.15-.47-.29-1.01-.03-1.42.43.11.78.42,1.15.68s.81.49,1.24.4c.41-.09.73-.45,1.14-.55.52-.13,1.05.19,1.41.58s.61.88.98,1.27c.37.38.37.7.45,1.19s-.3.64-.68.88Z"/>
            <path class="cls-14" d="M851.54,63.41c-.15,0-.32-.01-.44-.1-.11-.08-.18-.2-.24-.32-.19-.39-.35-.85-.17-1.24.06-.13.15-.24.19-.38.09-.35-.24-.68-.57-.82s-.72-.22-.97-.49c-.27-.29-.3-.74-.25-1.13.04-.34.12-.68.35-.94.37-.41,1.03-.47,1.36-.9.27-.35.26-.85.55-1.18.37-.44,1.05-.39,1.62-.28.33.07.7.17.86.47.12.23.08.5.11.75.02.28.12.55.21.81.26.73.55,1.5,1.16,1.98.21.17.47.32.53.58.05.2-.04.4-.13.58-.2.36-.46.68-.64,1.05-.29.59-.51,1.01-1.15,1.23-.79.28-1.53.35-2.36.32Z"/>
            <path class="cls-14" d="M861.54,59.48c.39.07.81-.06,1.1-.34.07-.07.14-.14.23-.15.1-.01.18.06.26.12.26.21.54.49.46.81-.03.13-.11.24-.09.37.03.14.17.22.3.25.52.14,1.1-.16,1.38-.62s.29-1.05.13-1.57c-.06-.19-.14-.37-.29-.5-.26-.23-.64-.24-.99-.2-.07,0-.14.02-.19-.02-.09-.05-.09-.18-.07-.28.09-.36.42-.6.77-.72s.72-.13,1.08-.2c.13-.02.27-.06.36-.15.14-.13.17-.33.19-.52.05-.56.07-1.15-.15-1.67s-.75-.94-1.31-.88c-.3.03-.68.18-.87-.05-.07-.08-.09-.19-.12-.3-.16-.52-.57-.93-1.05-1.21s-1-.42-1.53-.57c-.55-.15-1.19-.29-1.64.07-.21.17-.36.44-.62.5-.14.03-.29,0-.43-.05-.42-.13-.83-.31-1.26-.41s-.9-.1-1.29.11c-.53.29-.79.92-1.25,1.31-.46.38-1.09.49-1.63.76-.62.31-1.11.86-1.36,1.51-.05.12-.09.25-.07.37.05.36.48.52.85.52s.75-.09,1.08.07c.43.22.55.77.57,1.25s0,1.01.3,1.38c.16.2.39.33.59.49s.39.38.39.64c0,.15-.06.3-.05.45.03.26.31.44.57.45s.51-.1.75-.21c.87-.39,1.76-.74,2.67-1.05.28-.1,1-.48,1.28-.38.12.04.25.29.36.37.16.12.36.2.56.24Z"/>
            <path class="cls-14" d="M858.38,63.58c-.32-.35-.78-.51-1.17-.77-.64-.43-1.09-1.13-1.21-1.89-.05-.31-.04-.64.11-.92.19-.35.59-.53.97-.62,1.37-.31,2.82.35,4.19.03.43-.1.91-.3,1.3-.07.36.21.45.69.41,1.1s-.18.82-.12,1.23c.02.15.07.3.07.45,0,.22-.1.44-.23.62-.2.27-.47.47-.7.71s-.43.54-.43.87c0,.21.06.44-.07.6-.05.06-.12.1-.19.13-1.31.61-2.17-.67-2.92-1.48Z"/>
            <path class="cls-14" d="M861.48,69.56c.12.01.25.03.37-.02.27-.11.31-.46.39-.74.17-.58.69-1.12.5-1.7-.13-.39-.6-.62-.98-.47-.3.11-.54.41-.85.38-.19-.02-.34-.16-.49-.28-.78-.61-1.79-.8-2.76-.96-.15-.03-.3-.05-.44.01-.15.07-.24.23-.3.39-.18.41-.29.93.01,1.26.13.14.3.22.48.27.66.21,1.42.18,1.95.61.17.14.32.32.42.52.06.12.08.43.16.51.24.25,1.19.19,1.54.23Z"/>
            <path class="cls-5" d="M855.16,63.2c-.53-.58-1.11-1.15-1.43-1.87.71.8,1.41,1.6,2.12,2.4.31.35.62.7.95,1.02.31.3.65.57.9.92.24.34.4.73.53,1.12.4,1.19.64,2.45.58,3.7.13-1.19-.33-2.35-.49-3.54-.11-.78-.09-1.57-.22-2.35-.35-2.1-1.74-3.86-2.54-5.84.68,1.06,1.36,2.11,2.05,3.17.15-.65.07-1.35-.22-1.94-.23-.47-.59-.9-.64-1.42.35.39.7.79,1.05,1.18-.02-.96-.02-1.92-.02-2.88,0-.21.03-.47.21-.57.41.66.27,1.51.2,2.29-.14,1.44,0,2.89.15,4.33.06-1.98.92-3.92,2.36-5.28-.22,1.27-.58,2.51-1.07,3.7-.3.74-.66,1.46-.86,2.23-.14.54-.21,1.1-.24,1.65-.06,1.05.03,2.12.36,3.13.26-1.01.29-2.06.44-3.09.08-.59.23-1.21.68-1.6.32-.28.75-.4,1.16-.5,1.2-.3,2.42-.56,3.64-.77-.67.61-1.63.77-2.51,1-.3.08-.61.18-.83.4-.2.2-.31.47-.41.74-.54,1.39-1.07,2.78-1.33,4.25-.05.27-.24,1.92-.7,1.57-.15-.11-.16-.59-.21-.76-.09-.33-.19-.66-.3-.98-.46-1.3-1.13-2.51-1.93-3.63-.44-.62-.92-1.21-1.43-1.77Z"/>
          </g>
          <g>
            <path class="cls-18" d="M848.68,60.03c0-.17.01-.34.02-.51,0-.11.01-.22.06-.32.03-.07.09-.13.12-.2.17-.32-.04-.7-.19-1.03s-.18-.82.16-.95c.13-.05.28-.02.43,0,.69.06,1.36-.32,2.04-.26.27.02.53.11.8.1s.57-.12.66-.37c.05-.14.03-.29,0-.43-.13-.78-.49-1.51-1.02-2.1-.49-.54-1.14-1-1.33-1.7-.16-.58.01-1.27-.35-1.75-.23-.3-.67-.52-.65-.9.01-.17.12-.31.23-.45.21-.27.44-.53.56-.85s.14-.7-.05-.98c-.31-.47-.99-.47-1.54-.37-.7.12-1.41.31-1.97.75-.18.15-.38.33-.61.3-.12-.01-.23-.08-.34-.15-.39-.27-.91-.58-1.3-.31-.53.36-.16,1.34-.65,1.75-.16.14-.39.17-.56.3-.39.3-.3.91-.17,1.39-.37-.28-.96-.4-1.24-.03-.4.53.36,1.32.08,1.92-.25.54-1.1.47-1.5.92-.14.16-.21.37-.27.58l-.53,1.75c-.03.09-.06.19-.14.25-.09.06-.2.06-.31.06-.51-.02-1.09.06-1.37.48-.25.38-.14.93.19,1.24s.83.4,1.27.29c.25.24.61.5.92.33.11-.06.18-.16.27-.24.29-.26.74-.32,1.09-.13.13.07.24.17.35.27.54.49,1.08.98,1.62,1.47.2.18.41.37.68.41.26.04.52-.07.79-.11s.59.02.69.27c.03.08.04.17.05.26.24,1.3,1.88.42,2.54.02.26-.15.5-.3.61-.6s0-.6.16-.9c.43-.81,1.54-.57,2.08-1.24.09-.11.15-.24.26-.34.29-.26.76-.13,1.06.12s.51.59.82.82c.49.36,1.13.4,1.74.44.15.01.31.03.43.11.24.16.27.49.35.77.13.45.43.84.84,1.06.07.04.16.08.18.16.02.05,0,.1,0,.15-.09.46-.19.91-.28,1.37-.07.35-.15.7-.35.99-.11.15-.25.29-.28.48-.03.19.07.37.08.56.02.33-.25.62-.56.74s-.65.1-.98.09c-.53-.03-1.08-.06-1.52-.36-.34-.23-.57-.59-.89-.83-.62-.46-1.53-.41-2.14.06s-.9,1.29-.79,2.04c.02.13.04.28-.04.38-.06.08-.17.1-.27.11-.56.03-1.1-.31-1.66-.3-.45.01-.89.28-1.1.68-.51-.4-.85-.97-1.3-1.43s-1.11-.83-1.73-.65c-.61.18-1.08.84-1.71.75.2.24.03.6-.18.82s-.48.44-.5.75c-.01.21.1.42.09.63-.02.26-.25.48-.51.55s-.53.03-.79-.03c-.69-.16-1.37-.47-1.82-1.02s-.59-1.38-.22-1.98c.09-.14.21-.27.37-.32.37-.12.88.17,1.09-.15-.33-.29-.78-.38-1.16-.59s-.73-.65-.57-1.05c.14-.37.61-.48,1.01-.45s.79.15,1.18.06c.77-.19,1.14-1.17,1.91-1.35.89-.21,1.8.75,2.64.4.36-.15.61-.51.97-.66.75-.31,1.54.4,2.35.39.71-.02,1.28-.58,1.76-1.11.18-.19.36-.41.38-.67.02-.21-.08-.41-.11-.62s.04-.47.24-.52c-.2.13-.22.18-.29.41-.02.08-.04.17-.08.24-.07.11-.29-.05-.26.07Z"/>
            <path class="cls-9" d="M846.13,69.03c-.3.18-.76.16-.92-.15-.1-.2-.03-.45-.07-.67-.04-.26-.23-.48-.47-.58s-.53-.04-.73.13c-.16.14-.35.36-.53.25-.09-.06-.12-.18-.13-.3-.04-.38-.03-.77.01-1.14.03.36.12.72.25,1.06.22-.16.41-.37.65-.51s.56-.19.78-.03c.4.3.18,1.01.54,1.35.22.21.58.2.85.05.27-.15.44-.4.64-.62.12.09.25.2.35.3-.56.14-.73.57-1.22.86Z"/>
            <path class="cls-9" d="M847.72,57.55c.48-.18.9-.53,1.15-.98,0,.28-.07.55-.18.81-.02.05-.05.11-.09.15-.05.04-.12.06-.19.07-.25.06-.48.19-.66.37"/>
            <path class="cls-9" d="M847.38,73.17c0-.11-.61-22.29-.61-22.29l.32-.57,1.47,22.71-1.18.15Z"/>
            <path class="cls-9" d="M851.98,67.26c.44-.52.92-1.13,1.6-1.19.33-.03.68.07.97-.08.31-.16.43-.54.51-.88-.12.18-.24.37-.41.5-.23.18-.53.23-.81.29-.35.06-.69.13-1.04.19.2-.17.39-.34.59-.52-.27.26-.62.45-.98.53-.06-.23-.12-.46-.18-.69-.07-.28-.12-.64.13-.8-.29.1-.45.48-.32.76.12.26.45.44.41.72-.02.12-.1.21-.18.3-.17.19-.34.38-.51.57-.36.4-.82.88-1.41.73-.18-.05-2.57-.59-2.43.05.08.34,2.49.47,2.78.42.53-.09.96-.52,1.29-.91Z"/>
            <path class="cls-9" d="M846.84,69.12c.12.33-.02.74-.32.93-.53.33-1.31-.05-1.81.32-.08.06-.15.13-.23.18-.12.06-.27.06-.41.05-.62-.03-1.25-.07-1.82-.3-.28-.11-.54-.27-.84-.34-.41-.09-.86,0-1.27-.11.35-.02.71-.04,1.06-.06-.32-.08-.62-.26-.84-.5,1.37.06,2.62,1.14,3.97.89-.49.15-.97-.21-1.36-.55-.51-.45-1.03-.89-1.54-1.34.64.11,1.07.68,1.59,1.07.78.59,1.85.79,2.79.5.21-.06.43-.16.52-.36.19-.4.07-.75.64-.72.24.01.93.2.93.52,0,.37-.42.38-.62.23,0,0-.48-.49-.45-.41Z"/>
            <path class="cls-9" d="M846.74,65.73l-1.63-.56c-.23-.08-.49-.15-.69-.01-.11.08-.17.21-.27.31-.27.28-.73.23-1.12.15-.32-.06-.64-.13-.93-.27-.35-.18-.63-.47-.96-.69-1.08-.76-2.65-.84-3.42-1.92,1.11.49,2.2,1.01,3.26,1.58.19-.14.17-.45.03-.64s-.37-.29-.58-.39c.27.13.54.26.81.39.16-.17-.04-.44-.07-.67-.06-.35.4-.67.71-.48-.21.51-.33,1.09-.17,1.61s.69.97,1.24.88c.02,0,.04,0,.05-.02.11-.06-.02-.22-.13-.28-.29-.17-.51-.44-.62-.75.52.08.88.66,1.41.71.23.02.45-.06.67-.1,1.23-.22,2.35.7,3.56.97"/>
          </g>
          <path class="cls-3" d="M850.32,73.51c-.23-.18-.08-.39-.1-.59-.02-.18-.19-.39-.43-.53s-.53-.23-.8-.27c-.18-.02-.37-.02-.5.03s-.2.17-.14.3c.04.08.14.16.13.24-.02.13-.32.09-.45.16-.05.03-.07.07-.12.1-.14.08-.42-.01-.6-.14s-.33-.27-.54-.37c-.2-.09-.45-.12-.61-.06s-.24.19-.2.34c-.3-.23-.67-.41-1.06-.52-.27-.08-.56-.11-.8-.08s-.43.16-.45.33c-.04.25.25.55.55.79.06.05.13.1.16.16.03.05.04.1.04.14.01.26-.13.48-.39.62-.06.03-.12.06-.16.1-.13.15.1.39.33.56.19.15.4.29.61.41.07.04.14.08.19.14.07.08.08.16.13.24.14.24.53.33.78.27s.39-.13.71.01c.3.13.57.37.9.44.21.05.28-.03.42.13.1.1.09.23.19.33.09.09.23.16.36.23.29.14.6.28.91.3.19.01.39-.03.57.06.13.06.24.18.37.18.06,0,.1-.02.13-.05.43-.34.18-.99.56-1.36.19-.19.54-.16.77-.29.21-.12.3-.35.36-.57.15-.57.17-1.08-.25-1.6-.03-.03-.06-.07-.1-.09-.04-.02-.09-.01-.14-.01-.22.02-.51.08-.73.04-.03,0-.6-.16-.58-.14Z"/>
          <path class="cls-6" d="M841.76,71.41c-.09-.11-.25-.19-.4-.27-.32-.16-.68-.33-1.02-.34-.22,0-.45.05-.65-.05-.14-.07-.26-.22-.41-.21-.07,0-.11.03-.15.07-.4.35-.38.89-.35,1.41,0,.04,0,.07.03.11.03.04.08.06.13.08.45.17.91.3,1.38.38-.09.07-.15.16-.17.27.26.2.63.31.93.27-.05.19.14.41.32.6-.44-.34-.9-.69-1.45-.87-.06-.02-.13-.04-.19-.04-.11.01-.15.09-.21.15-.11.1-.31.13-.45.21-.15.08-.23.22-.34.33-.22.24-.54.41-.77.64s-.35.57-.13.89c.09.14.24.25.39.36.25.17.6.33.83.23.25.21.08.48.09.73.01.23.2.48.47.65s.59.27.9.3c.21.02.42.01.57-.06s.24-.22.17-.38c-.05-.1-.15-.2-.13-.29.03-.17.37-.12.53-.22.05-.04.08-.09.14-.12.17-.11.48,0,.68.14s.36.32.6.43c.23.11.5.13.69.05s.28-.25.24-.43c.33.27.75.48,1.19.6.31.08.63.12.91.06s.49-.21.53-.43c.06-.32-.26-.67-.59-.96-.07-.06-.14-.12-.18-.19-.03-.06-.04-.12-.04-.18,0-.32.17-.61.48-.79.07-.04.14-.08.19-.13.15-.19-.1-.48-.35-.68-.21-.17-.44-.34-.68-.49-.08-.05-.16-.1-.21-.16-.08-.09-.08-.19-.13-.29-.15-.29-.59-.39-.88-.3s-.45.18-.81.02c-.34-.15-.63-.43-1-.51-.24-.05-.32.05-.48-.14-.11-.13-.09-.28-.2-.41Z"/>
          <path class="cls-10" d="M839.57,63.52l.95,1.4c.11.16.22.32.37.42.34.24.9.22,1.05.6.13-.07.26-.15.39-.22-.07.26-.13.52-.2.77-.01.04-.02.09,0,.13.02.03.06.05.1.06.39.12.84.03,1.17-.22.28-.21.58-.56.9-.42.11.05.21.16.33.13.07-.02.11-.08.15-.13.43-.62.66-1.48.25-2.12-.09-.14-.2-.26-.23-.42-.06-.33.28-.58.47-.86.36-.52.22-1.23,0-1.82-.05-.13-.11-.28-.24-.33-.09-.04-.2-.02-.3-.04-.37-.09-.37-.62-.56-.95-.22-.38-.72-.48-1.16-.52-.43-.03-.86-.04-1.28-.02-.08,0-.17.01-.23.06-.06.05-.08.13-.1.21-.16.65-.32,1.3-.49,1.95-.02.08-.04.17-.11.23-.19.16-.45-.1-.69-.14-.11-.02-.23.01-.34.05-.24.08-.47.2-.64.38s-.27.45-.2.7c.14.5.87.69.94,1.2.02.2-.07.41-.03.61s.33.36.43.18"/>
          <path class="cls-5" d="M828.73,72.63c.13-.65.15-1.33.17-1.99.23,1.05.29,2.14.19,3.21-.03.31-.07.62-.07.93,0,.17.16.68.09.81-.13.23-.3,0-.43-.18-.65-.84-.13-1.86.05-2.78Z"/>
          <path class="cls-17" d="M837.44,69.55c.18.44.45.85.79,1.18.23.22.51.46.51.77,0,.08-.02.17,0,.25.05.2.32.27.51.2s.34-.23.5-.35c.57-.42,1.44-.38,1.9-.92.29-.35.36-.87.72-1.13.41-.29,1.01-.14,1.43-.41.26-.17.4-.47.45-.77s0-.61-.04-.92c-.02-.16-.06-.35-.19-.44-.23-.17-.54.05-.78.22-.67.5-1.58.67-2.39.45-.08-.02-.15-.04-.22-.09-.11-.08-.16-.23-.23-.35-.15-.26-.46-.43-.76-.42s-.6.2-.73.48c0-.23-.02-.47-.02-.7,0-.08,0-.15-.04-.22-.07-.16-.27-.23-.44-.23-.71-.03-1.35.7-1.23,1.4.05.26.18.5.23.76.12.61-.2,1.23-.12,1.84.12-.03.18-.19.2-.31s.05-.2-.05-.27Z"/>
          <path class="cls-18" d="M848.89,66.49c-.08-.37-.05-.77.11-1.11.16.27.31.56.29.86,0,.17-.07.33-.09.5s.02.36.15.46c.19-.08.31-.26.45-.41s.35-.28.54-.21c-.22.31-.54.56-.9.68-.09.03-.2.07-.23.15-.1.25-.08.51-.44.52-.03-.21.18-.35.24-.55.09-.31-.04-.59-.11-.89Z"/>
          <path class="cls-18" d="M850.41,67.34c.17.03.33-.12.42-.27s.17-.33.32-.42.41,0,.39.18c.26-.22.32-.63.15-.92s-.58-.42-.89-.29c.08-.24.29-.4.47-.57s.33-.43.25-.66c-.08-.25-.37-.35-.63-.38s-.53,0-.77-.11c-.37-.19-.59-.73-1.01-.69-.2.02-.35.17-.5.29-.31.26-.68.44-1.08.52-.36.08-.79.12-.95.45-.14.28,0,.66-.15.94-.21.38-.78.32-1.15.54-.08.05-.15.12-.13.21.02.1.14.13.24.14.3.04.61.09.91.06s.55-.25.83-.28c.48-.05.82.39,1.1.71.25.29.43.51.85.46.25-.03.47-.27.71-.27.29,0,.36.31.63.36Z"/>
          <path class="cls-9" d="M841.2,63.3c-.26-.44-.69-.76-1.07-1.11s-.74-.78-.78-1.29c.02.2.65.67.81.81.29.27.59.52.9.76.6.46,1.3,1.03,2.01,1.29.09-.15.13-.35.11-.53-.18.2-.27.55-.51.71-.49.33-1.23-.21-1.48-.63Z"/>
          <path class="cls-18" d="M849.4,57.47c.32,0,.32-.5,0-.5s-.32.5,0,.5h0Z"/>
          <path class="cls-18" d="M798.42,64.78c-.08-.37-.05-.77.11-1.11.16.27.31.56.29.86,0,.17-.07.33-.09.5s.02.36.15.46c.19-.08.31-.26.45-.41s.35-.28.54-.21c-.22.31-.54.56-.9.68-.09.03-.2.07-.23.15-.1.25-.08.51-.44.52-.03-.21.18-.35.24-.55.09-.31-.04-.59-.11-.89Z"/>
          <path class="cls-9" d="M797.19,56.63c.48-.18.9-.53,1.15-.98,0,.28-.07.55-.18.81-.02.05-.05.11-.09.15-.05.04-.12.06-.19.07-.25.06-.48.19-.66.37"/>
          <path class="cls-18" d="M799.95,65.63c.17.03.33-.12.42-.27s.17-.33.32-.42.41,0,.39.18c.26-.22.32-.63.15-.92s-.58-.42-.89-.29c.08-.24.29-.4.47-.57s.33-.43.25-.66c-.08-.25-.37-.35-.63-.38s-.53,0-.77-.11c-.37-.19-.59-.73-1.01-.69-.2.02-.35.17-.5.29-.31.26-.68.44-1.08.52-.36.08-.79.12-.95.45-.14.28,0,.66-.15.94-.21.38-.78.32-1.15.54-.08.05-.15.12-.13.21.02.1.14.13.24.14.3.04.61.09.91.06s.55-.25.83-.28c.48-.05.82.39,1.1.71.25.29.43.51.85.46.25-.03.47-.27.71-.27.29,0,.36.31.63.36Z"/>
          <path class="cls-18" d="M798.93,55.76c.32,0,.32-.5,0-.5s-.32.5,0,.5h0Z"/>
        </g>
      </g>
    </g>
  </g>
</svg>