<?xml version="1.0" encoding="UTF-8"?>
<svg id="Layer_2" data-name="Layer 2" xmlns="http://www.w3.org/2000/svg" xmlns:xlink="http://www.w3.org/1999/xlink" viewBox="0 0 960 108">
  <defs>
    <style>
      .cls-1 {
        fill: none;
      }

      .cls-2 {
        fill: #3e4b20;
      }

      .cls-3 {
        fill: #51504e;
      }

      .cls-4 {
        fill: #606060;
      }

      .cls-5 {
        fill: #82807f;
      }

      .cls-6 {
        clip-path: url(#clippath);
      }
    </style>
    <clipPath id="clippath">
      <rect class="cls-1" width="960" height="108"/>
    </clipPath>
  </defs>
  <g id="Layer_1-2" data-name="Layer 1">
    <g id="rocks_stream" data-name="rocks stream">
      <g class="cls-6">
        <g>
          <path class="cls-2" d="M862.07,99.79c-.2-.08-.4-.15-.61-.21.2.07.4.15.59.23,1.51.66,1.8,1.55,1.7,2.66,0,0,.27,0,.27,0,0-1.13-.36-2.05-1.96-2.68Z"/>
          <path class="cls-2" d="M864.61,101.33c.04-.94.27-1.94,1.28-2.68-.98.67-1.32,1.55-1.45,2.45-.13-.88-.47-1.79-1.45-2.45,1.34,1,1.31,2.39,1.27,3.63,0,0,.05,0,.1,0,0,0,0,0,0,0,0,0,.05,0,.09,0,.04,0,.09,0,.09,0,0,0,0,0,0,0,.05,0,.1,0,.1,0-.01-.32-.02-.64-.01-.95Z"/>
          <path class="cls-2" d="M865.09,101.52c.04-.94.27-1.94,1.28-2.68-1.42.97-1.5,2.38-1.54,3.63h.27c-.01-.32-.02-.64-.01-.95Z"/>
          <path class="cls-2" d="M866.9,99.46c-1.35.71-1.52,1.9-1.54,2.94,0,0,.27,0,.27,0-.07-1.03,0-2.19,1.27-2.94Z"/>
        </g>
        <g>
          <path class="cls-2" d="M863.33,100.99c-.2-.05-.4-.1-.61-.14.2.05.4.1.59.16,1.51.45,1.8,1.06,1.7,1.81,0,0,.27,0,.27,0,0-.77-.36-1.4-1.96-1.83Z"/>
          <path class="cls-2" d="M865.88,102.04c.04-.64.27-1.33,1.28-1.83-.98.46-1.32,1.06-1.45,1.67-.13-.6-.47-1.22-1.45-1.67,1.34.68,1.31,1.63,1.27,2.48,0,0,.05,0,.1,0,0,0,0,0,0,0,0,0,.05,0,.09,0,.04,0,.09,0,.09,0,0,0,0,0,0,0,.05,0,.1,0,.1,0-.01-.22-.02-.43-.01-.65Z"/>
          <path class="cls-2" d="M866.36,102.16c.04-.64.27-1.33,1.28-1.83-1.42.66-1.5,1.63-1.54,2.48h.27c-.01-.22-.02-.43-.01-.65Z"/>
          <path class="cls-2" d="M868.17,100.76c-1.35.48-1.52,1.3-1.54,2.01,0,0,.27,0,.27,0-.07-.7,0-1.5,1.27-2.01Z"/>
        </g>
        <g>
          <path class="cls-4" d="M842.69,100.39c.33-.46-.31-.89-1.22-.99s-1.98.06-2.91.31c-.74.2-1.44.46-1.9.79-1,.71-.85,1.66,1.15,1.43,1.68-.19,4.22-.62,4.88-1.53Z"/>
          <path class="cls-3" d="M842.81,101.92c.33-.46-.31-.89-1.22-.99s-1.98.06-2.91.31c-.74.2-1.44.46-1.9.79-1,.71-.85,1.66,1.15,1.43,1.68-.19,4.22-.62,4.88-1.53Z"/>
          <path class="cls-4" d="M843.01,101.99c.33-.46-.31-.89-1.22-.99s-1.98.06-2.91.31c-.74.2-1.44.46-1.9.79-1,.71-.85,1.66,1.15,1.43,1.68-.19,4.22-.62,4.88-1.53Z"/>
          <path class="cls-3" d="M838.69,99.56c-.28.76.76,1.68,2.05,2.06s2.7.32,3.89.07c.94-.2,1.8-.52,2.32-1.03.62-.6.79-1.66-.44-2.06s-2.74-.59-4.19-.52c-1.57.07-3.3.6-3.63,1.49Z"/>
          <path class="cls-5" d="M839.07,99.65c-.28.76.76,1.68,2.05,2.06s2.7.32,3.89.07c.94-.2,1.8-.52,2.32-1.03.62-.6.79-1.66-.44-2.06s-2.74-.59-4.19-.52c-1.57.07-3.3.6-3.63,1.49Z"/>
        </g>
        <g>
          <path class="cls-4" d="M852.18,101.68c-1.2-.66-.71-1.65.71-2.17s3.48-.66,5.43-.59c1.54.06,3.11.23,4.37.63,2.71.84,3.77,2.52,0,2.9-3.16.32-8.11.56-10.52-.76Z"/>
          <path class="cls-3" d="M854.09,104.35c-1.2-.66-.71-1.65.71-2.17s3.48-.66,5.43-.59c1.54.06,3.11.23,4.37.63,2.71.84,3.77,2.52,0,2.9-3.16.32-8.11.56-10.52-.76Z"/>
          <path class="cls-4" d="M853.85,104.55c-1.2-.66-.71-1.65.71-2.17s3.48-.66,5.43-.59c1.54.06,3.11.23,4.37.63,2.71.84,3.77,2.52,0,2.9-3.16.32-8.11.56-10.52-.76Z"/>
          <path class="cls-3" d="M857.9,98.71c1.54,1.2,1.03,3.18-.65,4.33s-4.2,1.58-6.59,1.6c-1.89.02-3.83-.21-5.42-.87-1.91-.8-3.67-2.55-2.12-3.72s3.88-2.06,6.48-2.51c2.81-.48,6.51-.24,8.3,1.16Z"/>
          <path class="cls-4" d="M857.36,99.02c1.54,1.2,1.03,3.18-.65,4.33s-4.2,1.58-6.59,1.6c-1.89.02-3.83-.21-5.42-.87-1.91-.8-3.67-2.55-2.12-3.72s3.88-2.06,6.48-2.51c2.81-.48,6.51-.24,8.3,1.16Z"/>
        </g>
        <g>
          <path class="cls-2" d="M839.2,101.73c-.2-.05-.4-.1-.61-.14.2.05.4.1.59.16,1.51.45,1.8,1.06,1.7,1.81,0,0,.27,0,.27,0,0-.77-.36-1.4-1.96-1.83Z"/>
          <path class="cls-2" d="M841.74,102.78c.04-.64.27-1.33,1.28-1.83-.98.46-1.32,1.06-1.45,1.67-.13-.6-.47-1.22-1.45-1.67,1.34.68,1.31,1.63,1.27,2.48,0,0,.05,0,.1,0,0,0,0,0,0,0,0,0,.05,0,.09,0,.04,0,.09,0,.09,0,0,0,0,0,0,0,.05,0,.1,0,.1,0-.01-.22-.02-.43-.01-.65Z"/>
          <path class="cls-2" d="M842.22,102.91c.04-.64.27-1.33,1.28-1.83-1.42.66-1.5,1.63-1.54,2.48h.27c-.01-.22-.02-.43-.01-.65Z"/>
          <path class="cls-2" d="M844.03,101.51c-1.35.48-1.52,1.3-1.54,2.01,0,0,.27,0,.27,0-.07-.7,0-1.5,1.27-2.01Z"/>
        </g>
        <g>
          <path class="cls-2" d="M837.3,102.51c-.2-.07-.4-.13-.61-.19.2.06.4.13.59.2,1.51.59,1.8,1.38,1.7,2.36,0,0,.27,0,.27,0,0-1-.36-1.82-1.96-2.37Z"/>
          <path class="cls-2" d="M839.85,103.88c.04-.83.27-1.72,1.28-2.37-.98.59-1.32,1.38-1.45,2.17-.13-.78-.47-1.59-1.45-2.17,1.34.88,1.31,2.12,1.27,3.22,0,0,.05,0,.1,0,0,0,0,0,0,0,0,0,.05,0,.09,0,.04,0,.09,0,.09,0,0,0,0,0,0,0,.05,0,.1,0,.1,0-.01-.28-.02-.56-.01-.85Z"/>
          <path class="cls-2" d="M840.38,103.75c.04-.83.27-1.72,1.28-2.37-1.42.86-1.5,2.11-1.54,3.22h.27c-.01-.28-.02-.57-.01-.85Z"/>
          <path class="cls-2" d="M842.14,102.22c-1.35.63-1.52,1.69-1.54,2.61,0,0,.27,0,.27,0-.07-.91,0-1.94,1.27-2.61Z"/>
        </g>
        <g>
          <path class="cls-2" d="M839.98,101.67c-.16-.07-.32-.14-.49-.2.16.07.32.14.48.22,1.23.63,1.46,1.48,1.39,2.54,0,0,.22,0,.22,0,0-1.08-.3-1.96-1.6-2.56Z"/>
          <path class="cls-2" d="M842.05,103.14c.03-.9.22-1.86,1.04-2.56-.8.64-1.08,1.48-1.18,2.34-.11-.84-.38-1.71-1.18-2.34,1.09.95,1.07,2.28,1.03,3.47,0,0,.04,0,.08,0,0,0,0,0,0,0,0,0,.04,0,.07,0,.03,0,.07,0,.07,0,0,0,0,0,0,0,.04,0,.08,0,.08,0-.01-.3-.02-.61,0-.91Z"/>
          <path class="cls-2" d="M842.44,103.32c.03-.9.22-1.86,1.04-2.56-1.16.92-1.22,2.27-1.25,3.47h.22c-.01-.31-.02-.61,0-.91Z"/>
          <path class="cls-2" d="M843.91,101.36c-1.1.68-1.24,1.81-1.25,2.81,0,0,.22,0,.22,0-.06-.98,0-2.09,1.03-2.81Z"/>
        </g>
      </g>
    </g>
  </g>
</svg>