<?xml version="1.0" encoding="UTF-8"?>
<svg id="Layer_2" data-name="Layer 2" xmlns="http://www.w3.org/2000/svg" xmlns:xlink="http://www.w3.org/1999/xlink" viewBox="0 0 973.28 108">
  <defs>
    <style>
      .cls-1 {
        fill: none;
      }

      .cls-2 {
        fill: #f7d779;
      }

      .cls-3 {
        fill: url(#linear-gradient);
        opacity: .81;
      }

      .cls-4 {
        fill: #8dd5e1;
      }

      .cls-5 {
        fill: #30311f;
      }

      .cls-6 {
        clip-path: url(#clippath);
      }
    </style>
    <clipPath id="clippath">
      <rect class="cls-1" x="10.71" width="960" height="108"/>
    </clipPath>
    <linearGradient id="linear-gradient" x1="489.5" y1="-1319.01" x2="489.5" y2="-1299.36" gradientTransform="translate(0 -1277.13) scale(1 -1)" gradientUnits="userSpaceOnUse">
      <stop offset="0" stop-color="#f9ed32" stop-opacity=".2"/>
      <stop offset="0" stop-color="#f8ec32" stop-opacity=".2"/>
      <stop offset=".5" stop-color="#97bc86" stop-opacity=".63"/>
      <stop offset=".84" stop-color="#5a9dba" stop-opacity=".9"/>
      <stop offset="1" stop-color="#4392cf"/>
    </linearGradient>
  </defs>
  <g id="Layer_1-2" data-name="Layer 1">
    <g id="sea_and_trees" data-name="sea and trees">
      <g class="cls-6">
        <g id="Sea">
          <rect id="Sky" class="cls-4" y="22.2" width="485.1" height="19.94"/>
          <rect id="Sky-2" data-name="Sky" class="cls-3" x="5.73" y="22.23" width="967.55" height="19.65"/>
          <path class="cls-2" d="M328.39,20.2c-37.06.33-43.24,2.22-75.71,4.49-18.68,1.31-76.49,7.48-96.9,8.27-30.72,1.2-59-3.63-89.08-2.2-15.52.74-25.22-.55-39.2.57-6.98.56-14.26,1.03-21.77,1.43v9.38c7.51-.55,14.79-1.21,21.77-2,13.98-1.57,26.49-3.63,42.02-4.66,30.09-2,58.96,7.7,89.68,6.03,20.41-1.11,52.55-7.21,71.23-9.04,32.47-3.18,60.87-8.01,97.97-7.9,87.33.25,379.13-7.73,0-4.38Z"/>
        </g>
        <g id="Pandanus">
          <path class="cls-5" d="M217.27,39.36c-.78-1-1.84-3.45-.34-4.32.32-.3-.37-.21-.66-.18-.36.03-.73.49-1.17.45-.11-.07.05-.27.22-.46.1-.15.22-.33.32-.46.17-.28.83-.44,1.09-.82-.27-.23-.96-.02-1.25.22-.29.14-.65.72-.93.69-.15-.3.06-1.17.23-1.51.53-1.19,2.24-.97,3.18-.42.19.07.39.18.6.11.11-.14-.16-.53-.37-.73-.66-.73-1.78-.73-2.67-1.05.15-.39,1.43-.55,1.91-.42.57.03,1.37.7,1.76.87.1-.04-.03-.51-.01-.8.23-3.25.54-3.27.84-.05.02.03.06.08.08.11.15-.15.84-1.28,1-1.49.07-.11.92-.71,1-.71-.08.42-.71,1.71-.8,2.06-.13.2,1.56.5,1.57.55.13-1.32.07-12.31.12-13.71-.21-1.04-2.33-1.4-3.25-1.35-.17.02-.31.05-.41.1-.62.37-1.3,3.09-1.67,4.16-.26.77-.34.22-.32-.42,0-.71-.08-1.37.08-2.08.07-.29.21-.74.07-.8-.94.42-1.69,1.7-2.16,2.65-.26.48-.56,1.33-.83,1.65,0-1.3.53-2.93,1.33-3.99.78-1.11,1.97-1.9,3.23-2.33.25-.33-.47-.16-.69-.07-1.43.47-2.52,1.62-3.44,2.57-.03,0-.09.02-.12.03-.03-1.05.7-2.26,1.53-2.93,1.1-1.02,2.66-1.15,4.06-1.07.34-.04-.16-.15-.41-.33-2.77-1.89-2.78-.37-4.63,1.44-.12.07-.12-.15-.06-.42.1-.86.9-1.58,1.13-2.21-.1-.15-.67-.11-1.02-.13-1.07-.08-2.27.25-3.21.6-.22-.21.1-.37.34-.53,2.26-1.37,4.92-.88,7.42-.92.57-.12-.08-.57-.37-.89-1.9-1.67-4.39-2.06-5.82.4-.16.2-.37.49-.41.41.5-3.8,5.17-4.18,7.4-1.32.46.57.93,1.6,1.34,2.2.08.06-.03-.49-.13-.81-.78-2.56-2.69-5.32-5.68-4.62.7-1.14,2.64-1.08,3.72-.4.86.49,1.25,1.29,1.88,1.97.13.17.21.25.25.19.25-1.69.18-3.64.93-5.26.18-.55,1.78-2.93,1.12-.91-.59,1.78-.92,3.84-.68,5.69.04.17.46-1.42.62-1.87.44-1.26,1.42-2.96,2.59-3.73.44-.33-1.04,2.28-1.08,2.6-.13.67-.65,2.55-.57,2.63.04.02.15-.03.31-.17.5-.43.85-1.08,1.41-1.43.78-.54,2.17-1.36,2.92-1.23.52.06,1.54-.14,1.95.1.06.07.05.17-.09.21-.64.09-1.4.26-2.02.58-.63.37-1.55.79-1.77,1.42.1.21.94.49,1.27.64,1.21.38,3.12-.41,4.07.61-.18.07-.44-.14-.73-.08-.59.03-1.78-.06-2.35.04-.46.19.49,1.19.5,1.47-.02.02-.13-.07-.31-.2l-.82-.61c-.8-.74-1.62.21-2.36.8-.87.8-1.71,1.99-1.7,2.6.02.07.12.01.26-.13.66-.69,1.34-1.23,2.17-1.64,1.93-.93,5.17-1.04,6.32,1.07.38.74.86,2.03.38,2.77-.08.06-.15-.03-.21-.2-.49-1.72-2.75-3.11-4.23-2.93-1.2.22-2.31,1.05-3.19,1.85-.85.76-.38.76.25.13,3.22-1.14,6.52-.59,6.41,3.58.04,2.19-.3.55-1.03-.12-1.06-.74-3.12-1.46-4.3-.85-.06.11.17.19.44.24,1.5.4,2.62,2.1,2.79,3.54-.9-.68-1.72-2.2-2.9-2.67-1.65-.71-3.77-.32-4.26,1.46-.56,3.62-.01,7.71-.23,11.37,0,.22.11.49.24.76.34.77.42-1.37.64-1.55.69-1.26.13,2.1.38,2.25.11.1.4-.04.64-.09.68-.18,1.62-.19,2.09.37.14.19-.26.15-.58.15-.71,0-1.88.28-2.08,1,.97-.15,2.54-.8,3.09.56.14.35.27.97.18,1.26-.06.19-.26.08-.43-.15-.32-.5-1.08-.97-1.63-.7-.08.09.17.23.36.35.33.2.72.77.73,1.09-.01.11-.24-.04-.45-.22-.18-.14-.38-.25-.6-.24-.2.09-.01.41.04.68.12.75-.5,1.72-.87,2.26-.58-.64.75-3.5-1.13-2.96-.44.22-.31.28-.4.5-.32,2.12-.39,4.42-.24,6.53.04.37.03.79.16,1.1.1.13,1.01.04,1.41.35.2.15.15.35-.07.41-1.3.11-2.79.04-4.13.19-.21-.05-.31.12-.46-.35-.01-.2.04-.37.16-.46.29-.19.79.06.8-.21.04-.24-.06-1.05-.13-1.49-.05-.49-.3-.77-.73-1.12-.66-.48-1.14-1.11-1.12-1.96-.06-.75.03-1.63-.32-2.08-.35-.34-.84-.64-1.35-.61-1.29.83-.75,3.1-.89,4.33l-.04-.02ZM232.35,15.51c.2-.2-1.45-2.03-1.79-2.14-1.04-.34-2.03.37-3.01.56-.04.27.35.16.53.16.67,0,1.32-.17,2,.1l2.28,1.31ZM221.52,35.61c-.06-.1-.57-.2-.73-.18-.1.1-.02,1.72.04,1.94.16.65,1.6,1.89,1.75.96.03-.17-.25-.38-.28-.62-.08-.6.12-1.94-.75-1.5-.02-.18.06-.47-.02-.61Z"/>
        </g>
        <g id="Pandanus-2" data-name="Pandanus">
          <path class="cls-5" d="M82.52,49.19c-.6-1-1.41-3.45-.26-4.32.24-.3-.28-.21-.51-.18-.28.03-.56.49-.9.45-.08-.07.04-.27.17-.46.08-.15.17-.33.24-.46.13-.28.63-.44.84-.82-.21-.23-.73-.02-.96.22-.22.14-.5.72-.71.69-.11-.3.05-1.17.17-1.51.4-1.19,1.72-.97,2.44-.42.14.07.3.18.46.11.08-.14-.13-.53-.29-.73-.51-.73-1.36-.73-2.05-1.05.11-.39,1.1-.55,1.47-.42.44.03,1.05.7,1.35.87.07-.04-.03-.51,0-.8.17-3.25.42-3.27.65-.05.02.03.05.08.06.11.12-.15.65-1.28.77-1.49.06-.11.7-.71.76-.71-.06.42-.54,1.71-.61,2.06-.1.2,1.2.5,1.2.55.1-1.32.05-12.31.09-13.71-.16-1.04-1.78-1.4-2.49-1.35-.13.02-.24.05-.32.1-.48.37-1,3.09-1.28,4.16-.2.77-.26.22-.24-.42,0-.71-.06-1.37.06-2.08.05-.29.16-.74.05-.8-.72.42-1.29,1.7-1.66,2.65-.2.48-.43,1.33-.64,1.65,0-1.3.41-2.93,1.02-3.99.6-1.11,1.51-1.9,2.48-2.33.19-.33-.36-.16-.53-.07-1.1.47-1.93,1.62-2.64,2.57-.02,0-.07.02-.09.03-.02-1.05.53-2.26,1.18-2.93.84-1.02,2.04-1.15,3.11-1.07.26-.04-.13-.15-.32-.33-2.12-1.89-2.13-.37-3.55,1.44-.09.07-.09-.15-.05-.42.08-.86.69-1.58.86-2.21-.08-.15-.51-.11-.78-.13-.82-.08-1.74.25-2.46.6-.17-.21.08-.37.26-.53,1.73-1.37,3.77-.88,5.69-.92.44-.12-.06-.57-.29-.89-1.46-1.67-3.37-2.06-4.46.4-.12.2-.28.49-.31.41.38-3.8,3.96-4.18,5.67-1.32.35.57.71,1.6,1.03,2.2.06.06-.03-.49-.1-.81-.6-2.56-2.06-5.32-4.35-4.62.54-1.14,2.03-1.08,2.85-.4.66.49.96,1.29,1.44,1.97.1.17.16.25.19.19.19-1.69.14-3.64.71-5.26.14-.55,1.36-2.93.86-.91-.45,1.78-.71,3.84-.52,5.69.03.17.35-1.42.47-1.87.34-1.26,1.09-2.96,1.99-3.73.34-.33-.8,2.28-.83,2.6-.1.67-.5,2.55-.44,2.63.03.02.12-.03.24-.17.38-.43.65-1.08,1.08-1.43.6-.54,1.67-1.36,2.23-1.23.4.06,1.18-.14,1.5.1.04.07.04.17-.07.21-.49.09-1.07.26-1.55.58-.48.37-1.19.79-1.36,1.42.08.21.72.49.98.64.92.38,2.4-.41,3.12.61-.14.07-.34-.14-.56-.08-.45.03-1.37-.06-1.8.04-.35.19.38,1.19.38,1.47-.01.02-.1-.07-.24-.2l-.63-.61c-.61-.74-1.24.21-1.81.8-.67.8-1.31,1.99-1.3,2.6.02.07.09.01.2-.13.51-.69,1.03-1.23,1.66-1.64,1.48-.93,3.96-1.04,4.84,1.07.29.74.66,2.03.29,2.77-.06.06-.12-.03-.16-.2-.38-1.72-2.11-3.11-3.25-2.93-.92.22-1.77,1.05-2.45,1.85-.65.76-.29.76.19.13,2.47-1.14,5-.59,4.91,3.58.03,2.19-.23.55-.79-.12-.81-.74-2.39-1.46-3.29-.85-.05.11.13.19.34.24,1.15.4,2.01,2.1,2.14,3.54-.69-.68-1.32-2.2-2.22-2.67-1.26-.71-2.89-.32-3.27,1.46-.43,3.62,0,7.71-.17,11.37,0,.22.08.49.18.76.26.77.32-1.37.49-1.55.53-1.26.1,2.1.29,2.25.08.1.3-.04.49-.09.52-.18,1.24-.19,1.6.37.11.19-.2.15-.45.15-.55,0-1.44.28-1.6,1,.74-.15,1.95-.8,2.37.56.11.35.2.97.14,1.26-.05.19-.2.08-.33-.15-.25-.5-.83-.97-1.25-.7-.06.09.13.23.28.35.26.2.55.77.56,1.09-.01.11-.18-.04-.34-.22-.14-.14-.29-.25-.46-.24-.16.09-.01.41.03.68.09.75-.39,1.72-.67,2.26-.45-.64.58-3.5-.87-2.96-.34.22-.24.28-.31.5-.25,2.12-.3,4.42-.18,6.53.03.37.03.79.12,1.1.08.13.78.04,1.08.35.16.15.12.35-.05.41-.99.11-2.14.04-3.16.19-.16-.05-.24.12-.35-.35,0-.2.03-.37.12-.46.22-.19.6.06.61-.21.03-.24-.05-1.05-.1-1.49-.04-.49-.23-.77-.56-1.12-.5-.48-.88-1.11-.85-1.96-.05-.75.02-1.63-.24-2.08-.27-.34-.64-.64-1.03-.61-.99.83-.57,3.1-.68,4.33l-.03-.02ZM94.09,25.33c.15-.2-1.11-2.03-1.37-2.14-.8-.34-1.55.37-2.31.56-.03.27.27.16.4.16.52,0,1.01-.17,1.53.1l1.75,1.31ZM85.79,45.44c-.04-.1-.43-.2-.56-.18-.08.1-.01,1.72.03,1.94.12.65,1.23,1.89,1.34.96.02-.17-.19-.38-.22-.62-.07-.6.09-1.94-.58-1.5-.02-.18.05-.47-.02-.61Z"/>
        </g>
        <g id="Pandanus-3" data-name="Pandanus">
          <path class="cls-5" d="M243.46,49.67c.78-1,1.84-3.45.34-4.32-.32-.3.37-.21.66-.18.36.03.73.49,1.17.45.11-.07-.05-.27-.22-.46-.1-.15-.22-.33-.32-.46-.17-.28-.83-.44-1.09-.82.27-.23.96-.02,1.25.22.29.14.65.72.93.69.15-.3-.06-1.17-.23-1.51-.53-1.19-2.24-.97-3.18-.42-.19.07-.39.18-.6.11-.11-.14.16-.53.37-.73.66-.73,1.78-.73,2.67-1.05-.15-.39-1.43-.55-1.91-.42-.57.03-1.37.7-1.76.87-.1-.04.03-.51.01-.8-.23-3.25-.54-3.27-.84-.05-.02.03-.06.08-.08.11-.15-.15-.84-1.28-1-1.49-.07-.11-.92-.71-1-.71.08.42.71,1.71.8,2.06.13.2-1.56.5-1.57.55-.13-1.32-.07-12.31-.12-13.71.21-1.04,2.33-1.4,3.25-1.35.17.02.31.05.41.1.62.37,1.3,3.09,1.67,4.16.26.77.34.22.32-.42,0-.71.08-1.37-.08-2.08-.07-.29-.21-.74-.07-.8.94.42,1.69,1.7,2.16,2.65.26.48.56,1.33.83,1.65,0-1.3-.53-2.93-1.33-3.99-.78-1.11-1.97-1.9-3.23-2.33-.25-.33.47-.16.69-.07,1.43.47,2.52,1.62,3.44,2.57.03,0,.09.02.12.03.03-1.05-.7-2.26-1.53-2.93-1.1-1.02-2.66-1.15-4.06-1.07-.34-.04.16-.15.41-.33,2.77-1.89,2.78-.37,4.63,1.44.12.07.12-.15.06-.42-.1-.86-.9-1.58-1.13-2.21.1-.15.67-.11,1.02-.13,1.07-.08,2.27.25,3.21.6.22-.21-.1-.37-.34-.53-2.26-1.37-4.92-.88-7.42-.92-.57-.12.08-.57.37-.89,1.9-1.67,4.39-2.06,5.82.4.16.2.37.49.41.41-.5-3.8-5.17-4.18-7.4-1.32-.46.57-.93,1.6-1.34,2.2-.08.06.03-.49.13-.81.78-2.56,2.69-5.32,5.68-4.62-.7-1.14-2.64-1.08-3.72-.4-.86.49-1.25,1.29-1.88,1.97-.13.17-.21.25-.25.19-.25-1.69-.18-3.64-.93-5.26-.18-.55-1.78-2.93-1.12-.91.59,1.78.92,3.84.68,5.69-.04.17-.46-1.42-.62-1.87-.44-1.26-1.42-2.96-2.59-3.73-.44-.33,1.04,2.28,1.08,2.6.13.67.65,2.55.57,2.63-.04.02-.15-.03-.31-.17-.5-.43-.85-1.08-1.41-1.43-.78-.54-2.17-1.36-2.92-1.23-.52.06-1.54-.14-1.95.1-.06.07-.05.17.09.21.64.09,1.4.26,2.02.58.63.37,1.55.79,1.77,1.42-.1.21-.94.49-1.27.64-1.21.38-3.12-.41-4.07.61.18.07.44-.14.73-.08.59.03,1.78-.06,2.35.04.46.19-.49,1.19-.5,1.47.02.02.13-.07.31-.2l.82-.61c.8-.74,1.62.21,2.36.8.87.8,1.71,1.99,1.7,2.6-.02.07-.12.01-.26-.13-.66-.69-1.34-1.23-2.17-1.64-1.93-.93-5.17-1.04-6.32,1.07-.38.74-.86,2.03-.38,2.77.08.06.15-.03.21-.2.49-1.72,2.75-3.11,4.23-2.93,1.2.22,2.31,1.05,3.19,1.85.85.76.38.76-.25.13-3.22-1.14-6.52-.59-6.41,3.58-.04,2.19.3.55,1.03-.12,1.06-.74,3.12-1.46,4.3-.85.06.11-.17.19-.44.24-1.5.4-2.62,2.1-2.79,3.54.9-.68,1.72-2.2,2.9-2.67,1.65-.71,3.77-.32,4.26,1.46.56,3.62.01,7.71.23,11.37,0,.22-.11.49-.24.76-.34.77-.42-1.37-.64-1.55-.69-1.26-.13,2.1-.38,2.25-.11.1-.4-.04-.64-.09-.68-.18-1.62-.19-2.09.37-.14.19.26.15.58.15.71,0,1.88.28,2.08,1-.97-.15-2.54-.8-3.09.56-.14.35-.27.97-.18,1.26.06.19.26.08.43-.15.32-.5,1.08-.97,1.63-.7.08.09-.17.23-.36.35-.33.2-.72.77-.73,1.09.01.11.24-.04.45-.22.18-.14.38-.25.6-.24.2.09.01.41-.04.68-.12.75.5,1.72.87,2.26.58-.64-.75-3.5,1.13-2.96.44.22.31.28.4.5.32,2.12.39,4.42.24,6.53-.04.37-.03.79-.16,1.1-.1.13-1.01.04-1.41.35-.2.15-.15.35.07.41,1.3.11,2.79.04,4.13.19.21-.05.31.12.46-.35.01-.2-.04-.37-.16-.46-.29-.19-.79.06-.8-.21-.04-.24.06-1.05.13-1.49.05-.49.3-.77.73-1.12.66-.48,1.14-1.11,1.12-1.96.06-.75-.03-1.63.32-2.08.35-.34.84-.64,1.35-.61,1.29.83.75,3.1.89,4.33l.04-.02ZM228.37,25.81c-.2-.2,1.45-2.03,1.79-2.14,1.04-.34,2.03.37,3.01.56.04.27-.35.16-.53.16-.67,0-1.32-.17-2,.1l-2.28,1.31ZM239.2,45.92c.06-.1.57-.2.73-.18.1.1.02,1.72-.04,1.94-.16.65-1.6,1.89-1.75.96-.03-.17.25-.38.28-.62.08-.6-.12-1.94.75-1.5.02-.18-.06-.47.02-.61Z"/>
        </g>
      </g>
    </g>
  </g>
</svg>