<?xml version="1.0" encoding="UTF-8"?>
<svg id="Layer_2" data-name="Layer 2" xmlns="http://www.w3.org/2000/svg" xmlns:xlink="http://www.w3.org/1999/xlink" viewBox="0 0 960 114">
  <defs>
    <style>
      .cls-1 {
        fill: none;
      }

      .cls-2 {
        fill: #665446;
        opacity: .48;
      }

      .cls-3 {
        opacity: .46;
      }

      .cls-3, .cls-4, .cls-5 {
        fill: #313d31;
      }

      .cls-4 {
        opacity: .79;
      }

      .cls-6, .cls-7 {
        fill: #332b24;
      }

      .cls-8 {
        fill: #475531;
      }

      .cls-9 {
        fill: #494951;
      }

      .cls-10 {
        fill: #3c4d43;
      }

      .cls-11 {
        fill: #182422;
      }

      .cls-12 {
        fill: #27302b;
      }

      .cls-13 {
        opacity: .29;
      }

      .cls-13, .cls-14 {
        fill: #5a491b;
      }

      .cls-7 {
        opacity: .36;
      }

      .cls-15 {
        fill: #837c52;
      }

      .cls-16 {
        fill: #30311f;
      }

      .cls-17 {
        clip-path: url(#clippath);
      }
    </style>
    <clipPath id="clippath">
      <rect class="cls-1" y="6" width="960" height="108"/>
    </clipPath>
  </defs>
  <g id="Layer_1-2" data-name="Layer 1">
    <g id="trees_foreground" data-name="trees foreground">
      <g class="cls-17">
        <g>
          <path class="cls-16" d="M674.51,103.62c.56.42,1.32.54,2.05.65,1.58.24,3.28.46,4.73-.15.91-.39,1.78-1.11,2.78-.94.7.11,1.4.65,2.02.35.27-.13.42-.4.53-.65,1.13-2.56.25-5.42-.63-8.06-.06-.18-.13-.37-.3-.49-.18-.13-.43-.14-.66-.15-2.11-.07-4.23.13-6.27.59.28-.54.39-1.14.31-1.73-1.35-.56-3.04-.43-4.26.32-.06-1.1-1.19-1.89-2.22-2.54,2.3.95,4.72,1.92,7.27,1.88.29,0,.6-.03.84-.17.42-.25.48-.76.66-1.17.32-.75,1.08-1.28,1.56-1.96.5-.72.64-1.57.91-2.38.56-1.66,1.65-3.16,2.25-4.81s.62-3.65-.75-4.91c-.59-.54-1.37-.89-2.16-1.16-1.27-.44-2.98-.6-3.77.36-1.36-.65-1.04-2.39-1.46-3.68-.39-1.18-1.55-2.12-2.89-2.51s-2.84-.3-4.17.12c-.89.28-1.75.71-2.28,1.39s-.66,1.63-.13,2.31c.33.43.91.76.99,1.27.13.92-1.35,1.34-1.84,2.17-.17.29-.22.63-.39.91-.53.87-1.98.9-3.03.53s-1.98-1.02-3.1-1.16c-1.1-.14-2.27.28-2.94,1.05s-.81,1.86-.35,2.74c-1.77-.81-3.83-1.13-5.81-.92-1.4.15-2.79.58-3.85,1.39s-1.73,2.04-1.57,3.26c.23,1.78,2.07,3.05,3.85,3.94.37.19.76.37,1.02.67.22.25.33.55.42.85.48,1.69.19,3.53-.8,5.05-.22.34-.47.66-.57,1.04-.35,1.27,1.11,2.34,2.45,2.94,1.14.51,2.33.95,3.55,1.29.39.11.79.22,1.1.45.45.33.63.86.98,1.28,1.05,1.26,3,.93,4.07-.05s1.58-1.77,3.34-1.62c1.62.14,3.25,1.09,4.91.8,1.07-.19,1.24-.84,2.18-.15.63.47.8,1.28,1.45,1.76Z"/>
          <path class="cls-16" d="M665.16,75.36c-1.76.56-3.67.98-5.5.65s-3.56-1.59-3.7-3.22l-.8.67c-1.87-1.07-2.62-3.38-1.67-5.13.57-1.06,1.67-1.92,1.88-3.07.2-1.13-.51-2.25-.53-3.4-.02-1.57,1.38-3,3.1-3.48s3.66-.12,5.2.71c.42-.63,1.32-.92,2.15-.9s1.63.3,2.41.58c.5.18,1.04.39,1.28.81.12.21.15.45.26.66.44.82,1.76.78,2.77,1.01.78.18,1.48.6,1.95,1.17.64.78.82,1.84.4,2.72s-1.44,1.54-2.54,1.58c.25.92.51,1.84.76,2.77.05.17.09.34.04.51-.12.39-.69.52-1.15.57-1.57.18-3.14.36-4.7.53-.25.03-.51.06-.69.21-.18.15-.24.38-.25.59-.07,1.29,1.1,2.71.23,3.75-.41.5-1.16.69-1.86.76-1.44.15-3.16-.22-3.72-1.38"/>
          <path class="cls-16" d="M638.61,98.14c.73-1.03,1.05-2.38.42-3.46-.19-.34-.47-.63-.63-.98-.45-1,.17-2.19-.32-3.18-.49-1.01-1.91-1.41-2.68-2.27-.73-.82-.84-2.01-1.73-2.71-.91-.71-2.53-.56-3.25.3s-.38,2.24.69,2.77c-1.9.65-3.21,2.41-3.1,4.18.02.36.08.77-.22,1.03-.32.27-.89.18-1.21-.1s-.44-.67-.56-1.05c-1.04,1.08-1.07,2.64-.77,4.02.47,2.23,2.33,6.78,5.48,7.01,1.7.13,3.01-1.15,4.09-2.09,1.28-1.11,2.82-2.12,3.77-3.48Z"/>
          <path class="cls-16" d="M672.99,91.13c.72.23,1.44.49,2.04.89s1.1.98,1.2,1.64c.12.77-.26,1.62.2,2.29.41.6,1.33.76,2.14.8,1.03.06,2.06.04,3.08-.05.33-.03.68-.08.93-.27.25-.19.35-.48.43-.76.63-2.14.85-4.37.65-6.57-.01-.13-.03-.26-.12-.37-.19-.22-.57-.18-.87-.11-1.95.41-3.87.93-5.75,1.53-.93.3-2.01.83-1.95,1.69"/>
        </g>
        <g>
          <path class="cls-5" d="M590.19,105c-3.49-.88-7.4-2.06-8.88-4.94-.59-1.14-.71-2.41-.82-3.65-.2-2.23-.15-4.93,2.04-6.12,1.62-.88,4.13-.73,4.93-2.23.31-.59.24-1.27.21-1.91-.07-1.45.12-2.91.56-4.31.14-.46.32-.93.69-1.29.45-.44,1.12-.64,1.72-.93,1.97-.94,3.1-2.77,4.14-4.5.37-.61.76-1.25,1.43-1.62.54-.29,1.19-.38,1.81-.49,2.93-.55,5.89-2.34,6.22-4.92.11-.88-.09-1.76-.07-2.65s.32-1.84,1.15-2.35c.45-.27,1.08-.43,1.24-.89.17-.5-.34-.96-.62-1.43-.44-.75-.25-1.7.29-2.41s1.38-1.2,2.25-1.58c.98-.43,2.45-.61,2.94.24.52.91-.67,1.8-1.17,2.71-.5.92-.29,2.02.22,2.94s1.28,1.7,1.94,2.54c1.49,1.89,2.42,4.1,2.68,6.38.2,1.76.05,3.64,1.08,5.16.6.88,1.6,1.82,1.14,2.75-.29.58-1.03.85-1.67,1.16s-1.27.87-1.1,1.48c.1.35.44.6.73.86,2.87,2.56,1.77,7.43,5.1,9.53.49.31,1.1.59,1.24,1.1.09.34-.06.68-.19,1.01-.64,1.51-1.13,3.19-.55,4.72,1.1,2.88,5.46,4.04,6.65,6.9-13.56-.5-27.14-.62-40.71-.37"/>
          <path class="cls-10" d="M642.19,101.64c.6.36,1.42.47,2.2.56,1.7.2,3.53.4,5.07-.13.98-.33,1.91-.96,2.98-.82.75.1,1.5.57,2.16.3.29-.12.45-.34.57-.57,1.21-2.22.27-4.7-.67-6.99-.06-.16-.14-.32-.32-.43-.19-.11-.46-.12-.71-.13-2.26-.06-4.54.12-6.73.51.3-.47.42-.99.33-1.5-1.45-.48-3.27-.37-4.58.28-.07-.95-1.28-1.64-2.38-2.2,2.48.82,5.06,1.67,7.8,1.63.32,0,.65-.02.91-.15.45-.22.52-.66.71-1.02.34-.65,1.16-1.11,1.67-1.7.53-.62.69-1.36.98-2.06.6-1.44,1.77-2.74,2.41-4.18s.66-3.17-.81-4.26c-.63-.47-1.47-.77-2.32-1.01-1.36-.38-3.2-.52-4.05.31-1.46-.57-1.11-2.07-1.57-3.19-.41-1.03-1.66-1.84-3.1-2.18s-3.05-.26-4.48.1c-.95.24-1.88.62-2.45,1.21s-.71,1.42-.14,2.01c.36.37.98.66,1.06,1.1.14.8-1.45,1.16-1.98,1.88-.19.25-.23.54-.42.79-.57.75-2.13.78-3.26.46s-2.13-.88-3.33-1.01c-1.18-.12-2.44.24-3.15.91s-.87,1.61-.37,2.37c-1.9-.7-4.11-.98-6.24-.8-1.5.13-3,.5-4.13,1.2s-1.86,1.77-1.69,2.83c.25,1.54,2.22,2.65,4.14,3.42.4.16.81.32,1.09.58.23.21.36.48.45.74.51,1.47.2,3.07-.86,4.38-.23.29-.51.58-.62.9-.37,1.1,1.2,2.03,2.63,2.55,1.23.44,2.5.82,3.82,1.12.42.1.85.19,1.19.39.49.29.68.75,1.06,1.11,1.13,1.09,3.22.81,4.37-.04s1.7-1.54,3.58-1.41c1.74.12,3.49.95,5.27.69,1.15-.16,1.34-.73,2.34-.13.67.4.86,1.11,1.55,1.53Z"/>
          <path class="cls-12" d="M610.12,99.03c.78-1.11,1.13-2.55.45-3.71-.21-.36-.51-.68-.68-1.06-.49-1.07.18-2.36-.34-3.42-.53-1.08-2.05-1.51-2.88-2.44-.79-.88-.9-2.16-1.86-2.91-.98-.76-2.72-.6-3.49.33s-.41,2.4.74,2.97c-2.04.69-3.44,2.59-3.33,4.49.02.39.08.83-.24,1.1-.34.29-.96.19-1.29-.11s-.48-.72-.6-1.12c-1.12,1.16-1.14,2.83-.83,4.32.51,2.39,2.5,7.28,5.89,7.53,1.83.13,3.23-1.23,4.4-2.24,1.38-1.19,3.02-2.28,4.05-3.73Z"/>
        </g>
        <g>
          <path class="cls-16" d="M665.29,52.24l-3.37-5.46c-1.03-1.67-2.12-3.4-3.92-4.47s-4.52-1.23-5.99.16c-.9-.25-.32-1.44.4-1.97,5.66-4.2,12.37-7.34,19.52-9.15.66-.17,1.38-.36,1.73-.87.29-.42.25-.95.14-1.43-.7-3.06-4.01-5.52-7.61-5.64-2.54-.09-4.97.86-7.27,1.8-2.31.94-4.71,1.91-7.25,1.88s-5.27-1.4-5.71-3.57c4.47-1.69,7.55-5.26,10.43-8.67.37-.44.75-.91.8-1.45.03-.37-.1-.74-.24-1.09-1.58-4-4.46-7.61-8.24-10.29-1.61-1.14-3.86-2.15-5.68-1.27-1.25.61-1.81,1.92-2.91,2.72-1.71,1.26-4.3,1.01-6.4.34-2.1-.67-4.11-1.71-6.35-1.84s-4.83,1.1-4.88,3.04c-.01.64.25,1.3-.01,1.9-.43,1-1.94,1.19-3.18,1.25-3.61.18-7.28.71-10.43,2.26s-5.7,4.24-6.08,7.35c-.15,1.22.03,2.48-.34,3.66-1.03,3.29-5.5,4.51-9.02,6.02-4.08,1.76-7.77,4.95-8.07,8.89-.2,2.55,1.03,5.01,1.2,7.56.21,3.06-1.1,6.03-2.52,8.83s-3.01,5.61-3.41,8.66.64,6.44,3.53,8.19c.84.51,1.86.87,2.88.77,2.13-.21,3.31-2.15,4.82-3.46,2.48-2.16,6.61-2.73,9.75-1.35,1.6.71,2.92,1.85,4.57,2.48,1.65.62,3.94.5,4.82-.86.11,1.17.24,2.37.85,3.42s1.84,1.92,3.19,1.86c.54-.02,1.07-.19,1.55-.41,3-1.36,4.78-4.65,8.13-5.07,4.58-.58,7.98,4.65,12.6,4.33,3.25-.22,6.24-3.21,9.22-2.06,1.49.57,2.31,2.04,3.79,2.62,3.41,1.34,6.59-2.66,10.33-2.88,2.49-.15,4.99,1.44,7.33.7,2.18-.68,2.99-3.02,2.93-5.02s-.66-4.06-.04-5.99c.37.07.33-1.42.2-1.73-.5-1.21-1.02-2.44-1.92-3.46s-2.26-1.82-3.74-1.82c1.72-.89,3.32-2.07,4.22-3.63s1.02-3.53-.07-4.99-3.52-2.16-5.25-1.29c-1.85.94-2.26,3.06-2.47,4.91"/>
          <path class="cls-9" d="M634.01,87.83c-.21-3.22-.42-6.44-.63-9.65-.2-3.07-.31-6.38,1.98-8.93,1.49-1.66,3.82-2.78,5.65-4.23,2.99-2.36,4.57-5.5,5.77-8.62.27-.71.54-1.45,1.16-2.03.75-.71,1.92-1.1,3-1.52,3.57-1.4,6.64-3.49,8.82-6.02-2.99,1.95-6.47,3.47-10.2,4.47.93-1.51,1.88-3.06,2.02-4.72s-.7-3.47-2.62-4.31c.13,3.71-1.87,7.27-4.16,10.56-1.44,2.07-3,4.08-4.83,5.97-1.45,1.5-3.41,3.05-5.9,3.02-.77-2.17-1.55-4.35-2.32-6.52-1.48-4.15-3-8.39-6.15-11.98-.42,2.13-.85,4.26-1.27,6.39-2.74-3.89-8.56-6.47-14.46-6.41,3.97,2.18,8.17,4.16,11.61,6.79,3,2.29,5.47,5.19,6.01,8.42.14.81-.05,1.64.11,2.43.09.43.62.99.56,1.41-.27,1.88-3.02,1.63-4.81,1.18-1.73-.44-3.47-.93-4.97-1.7-2.49-1.29-4.14-3.27-5.84-5.15-5.44-6.02-12-11.49-19.43-16.19,2.5,5.87,7.01,11.14,11.46,16.33,1.8,2.1,3.6,4.2,5.76,6.1,1.66,1.46,3.55,2.82,5.85,3.69,2.48.94,5.36,1.28,7.69,2.42,4.33,2.12,4.32,5.61,4.43,9.05.13,4.18-.8,8.34-1.92,12.43-.39,1.42-.84,2.88-2.06,4s-8.08,8.93-6.32,9.56c2.77.99,13.91-.08,16.47,1.18,1.66.82,2.91.68,2.17-2.61-1.13-5-2.28-9.72-2.61-14.82Z"/>
        </g>
        <g>
          <path class="cls-15" d="M573.3,73.42c-2.52-2.4-5.25-4.74-6.8-7.7,3.35,3.29,6.69,6.57,10.04,9.86,1.46,1.43,2.92,2.87,4.52,4.19,1.47,1.22,3.06,2.34,4.25,3.77,1.15,1.38,1.88,3,2.52,4.61,1.91,4.89,1.18,5.55.41.69-.51-3.2-.42-6.47-1.03-9.65-1.66-8.63-8.24-15.87-12.01-23.99,3.23,4.34,6.46,8.68,9.69,13.02.71-2.66.34-5.53-1.04-7.99-1.08-1.93-2.79-3.68-3.03-5.82,1.66,1.61,3.33,3.23,4.99,4.84-.07-3.94-.1-7.88-.08-11.82,0-.88.12-1.93,1.01-2.36,1.96,2.72,1.28,6.2.93,9.39-.66,5.91.03,11.87.71,17.78.27-8.12,4.37-16.1,11.16-21.71-1.04,5.2-2.74,10.3-5.05,15.18-1.43,3.03-3.11,6-4.08,9.17-.68,2.22-1,4.51-1.14,6.8-.26,4.33.13,8.73,1.69,12.84,1.23-4.14,1.36-8.45,2.06-12.68.4-2.41,1.1-4.98,3.22-6.58,1.52-1.15,3.55-1.63,5.51-2.05,5.71-1.23,11.47-2.29,17.26-3.17-3.19,2.51-7.72,3.14-11.88,4.12-1.42.33-2.87.75-3.92,1.64-.96.82-1.48,1.94-1.96,3.03-2.54,5.7-5.09,11.44-6.28,17.45-.22,1.1-1.12,7.87-3.31,6.43-.72-.47-1.88-5.83-2.42-7.16-2.18-5.32-5.36-10.31-9.14-14.9-2.09-2.53-4.37-4.95-6.79-7.25Z"/>
          <path class="cls-15" d="M580.25,92.65c-.33.18-.67.4-.73.73-.07.4.33.74.53,1.11.38.69,0,1.56-.66,2.06s-1.57.7-2.44.81c-6,.72-11.65-2.33-16.69-5.24-.73-.42-1.54-.95-1.61-1.72-.05-.57.34-1.09.65-1.59.67-1.09,1.03-2.37.77-3.58s-1.22-2.35-2.57-2.76c-1.1-.33-2.46-.21-3.28-.92-.41-.35-.6-.84-.78-1.32-.72-1.92-1.38-4.14-.13-5.84,2.06.45,3.72,1.72,5.44,2.8,1.72,1.07,3.82,2.01,5.89,1.62,1.96-.37,3.44-1.84,5.39-2.26,2.46-.53,4.99.77,6.68,2.4s2.89,3.63,4.66,5.2c1.76,1.55,1.74,2.87,2.12,4.89s-1.41,2.63-3.24,3.62Z"/>
          <path class="cls-15" d="M556.31,73.61c-.73-.02-1.5-.06-2.1-.41-.54-.31-.86-.82-1.16-1.32-.92-1.59-1.67-3.48-.81-5.09.28-.52.72-.99.89-1.55.43-1.45-1.13-2.77-2.71-3.38-1.58-.6-3.4-.91-4.58-2.01-1.29-1.2-1.41-3.02-1.2-4.65.18-1.38.58-2.81,1.65-3.84,1.75-1.67,4.86-1.93,6.46-3.71,1.27-1.42,1.25-3.49,2.6-4.86,1.77-1.8,4.99-1.61,7.67-1.14,1.57.27,3.31.7,4.07,1.92.57.93.4,2.04.5,3.09.11,1.15.56,2.24,1.01,3.33,1.24,3,2.62,6.17,5.5,8.15.99.68,2.22,1.3,2.52,2.37.23.82-.17,1.66-.64,2.4-.94,1.48-2.17,2.81-3.04,4.32-1.39,2.41-2.44,4.13-5.43,5.07-3.72,1.17-7.25,1.43-11.19,1.31Z"/>
          <path class="cls-15" d="M603.72,57.44c1.87.27,3.86-.26,5.24-1.39.33-.27.66-.59,1.11-.63.46-.04.87.23,1.23.48,1.21.85,2.55,2.01,2.2,3.33-.14.51-.54,1-.42,1.52.13.56.8.89,1.44,1.03,2.48.57,5.22-.65,6.55-2.55,1.33-1.9,1.38-4.33.61-6.45-.28-.76-.68-1.53-1.37-2.06-1.22-.95-3.05-.98-4.67-.8-.31.03-.64.07-.91-.07-.42-.22-.45-.74-.33-1.16.43-1.46,2.01-2.47,3.65-2.95s3.41-.54,5.12-.81c.62-.1,1.26-.23,1.73-.6.67-.52.82-1.37.9-2.15.26-2.3.34-4.71-.71-6.84-1.06-2.13-3.55-3.88-6.2-3.62-1.44.14-3.2.75-4.14-.21-.33-.34-.44-.79-.59-1.21-.75-2.14-2.72-3.84-4.96-4.96-2.24-1.12-4.76-1.73-7.25-2.33-2.6-.63-5.66-1.18-7.77.28-1,.69-1.71,1.79-2.95,2.04-.67.13-1.36-.02-2.02-.19-1.99-.53-3.91-1.28-5.95-1.68-2.03-.4-4.27-.43-6.1.45-2.53,1.2-3.72,3.8-5.95,5.39-2.2,1.57-5.18,2.02-7.72,3.14-2.92,1.29-5.26,3.54-6.45,6.19-.22.49-.4,1.01-.33,1.54.21,1.48,2.3,2.15,4.02,2.14s3.56-.38,5.1.29c2.03.89,2.6,3.15,2.69,5.12s.01,4.13,1.43,5.67c.76.82,1.86,1.35,2.82,2s1.83,1.56,1.83,2.61c0,.62-.31,1.22-.23,1.83.14,1.08,1.45,1.8,2.7,1.84s2.44-.41,3.58-.85c4.14-1.59,8.36-3.03,12.64-4.31,1.33-.4,4.74-1.98,6.07-1.56.56.18,1.17,1.18,1.71,1.52.77.5,1.69.84,2.64.98Z"/>
          <path class="cls-15" d="M588.74,74.28c-1.51-1.42-3.7-2.1-5.56-3.17-3.04-1.75-5.18-4.63-5.75-7.76-.23-1.27-.2-2.65.53-3.77.92-1.42,2.78-2.18,4.61-2.55,6.48-1.28,13.37,1.46,19.84.13,2.05-.42,4.32-1.22,6.15-.29,1.69.86,2.12,2.84,1.92,4.53s-.83,3.38-.55,5.06c.1.62.33,1.22.33,1.85,0,.92-.47,1.8-1.11,2.54-.94,1.1-2.21,1.94-3.3,2.93s-2.04,2.22-2.06,3.58c-.01.84.3,1.8-.31,2.46-.23.25-.56.41-.9.55-6.2,2.51-10.3-2.76-13.85-6.09Z"/>
          <path class="cls-13" d="M580.25,93.95c-.33.18-.67.4-.73.73-.07.4.33.74.53,1.11.38.69,0,1.56-.66,2.06s-1.57.7-2.44.81c-6,.72-11.65-2.33-16.69-5.24-.73-.42-1.54-.95-1.61-1.72-.05-.57.34-1.09.65-1.59.67-1.09,1.03-2.37.77-3.58s-1.22-2.35-2.57-2.76c-1.1-.33-2.46-.21-3.28-.92-.41-.35-.6-.84-.78-1.32-.72-1.92-1.38-4.14-.13-5.84,2.06.45,3.72,1.72,5.44,2.8,1.72,1.07,3.82,2.01,5.89,1.62,1.96-.37,3.44-1.84,5.39-2.26,2.46-.53,4.99.77,6.68,2.4s2.89,3.63,4.66,5.2c1.76,1.55,1.74,2.87,2.12,4.89s-1.41,2.63-3.24,3.62Z"/>
          <path class="cls-13" d="M556.31,74.92c-.73-.02-1.5-.06-2.1-.41-.54-.31-.86-.82-1.16-1.32-.92-1.59-1.67-3.48-.81-5.09.28-.52.72-.99.89-1.55.43-1.45-1.13-2.77-2.71-3.38-1.58-.6-3.4-.91-4.58-2.01-1.29-1.2-1.41-3.02-1.2-4.65.18-1.38.58-2.81,1.65-3.84,1.75-1.67,4.86-1.93,6.46-3.71,1.27-1.42,1.25-3.49,2.6-4.86,1.77-1.8,4.99-1.61,7.67-1.14,1.57.27,3.31.7,4.07,1.92.57.93.4,2.04.5,3.09.11,1.15.56,2.24,1.01,3.33,1.24,3,2.62,6.17,5.5,8.15.99.68,2.22,1.3,2.52,2.37.23.82-.17,1.66-.64,2.4-.94,1.48-2.17,2.81-3.04,4.32-1.39,2.41-2.44,4.13-5.43,5.07-3.72,1.17-7.25,1.43-11.19,1.31Z"/>
          <path class="cls-13" d="M603.72,58.74c1.87.27,3.86-.26,5.24-1.39.33-.27.66-.59,1.11-.63.46-.04.87.23,1.23.48,1.21.85,2.55,2.01,2.2,3.33-.14.51-.54,1-.42,1.52.13.56.8.89,1.44,1.03,2.48.57,5.22-.65,6.55-2.55,1.33-1.9,1.38-4.33.61-6.45-.28-.76-.68-1.53-1.37-2.06-1.22-.95-3.05-.98-4.67-.8-.31.03-.64.07-.91-.07-.42-.22-.45-.74-.33-1.16.43-1.46,2.01-2.47,3.65-2.95s3.41-.54,5.12-.81c.62-.1,1.26-.23,1.73-.6.67-.52.82-1.37.9-2.15.26-2.3.34-4.71-.71-6.84-1.06-2.13-3.55-3.88-6.2-3.62-1.44.14-3.2.75-4.14-.21-.33-.34-.44-.79-.59-1.21-.75-2.14-2.72-3.84-4.96-4.96-2.24-1.12-4.76-1.73-7.25-2.33-2.6-.63-5.66-1.18-7.77.28-1,.69-1.71,1.79-2.95,2.04-.67.13-1.36-.02-2.02-.19-1.99-.53-3.91-1.28-5.95-1.68s-4.27-.43-6.1.45c-2.53,1.2-3.72,3.8-5.95,5.39-2.2,1.57-5.18,2.02-7.72,3.14-2.92,1.29-5.26,3.54-6.45,6.19-.22.49-.4,1.01-.33,1.54.21,1.48,2.3,2.15,4.02,2.14s3.56-.38,5.1.29c2.03.89,2.6,3.15,2.69,5.12s.01,4.13,1.43,5.67c.76.82,1.86,1.35,2.82,2s1.83,1.56,1.83,2.61c0,.62-.31,1.22-.23,1.83.14,1.08,1.45,1.8,2.7,1.84s2.44-.41,3.58-.85c4.14-1.59,8.36-3.03,12.64-4.31,1.33-.4,4.74-1.98,6.07-1.56.56.18,1.17,1.18,1.71,1.52.77.5,1.69.84,2.64.98Z"/>
          <path class="cls-13" d="M588.74,75.59c-1.51-1.42-3.7-2.1-5.56-3.17-3.04-1.75-5.18-4.63-5.75-7.76-.23-1.27-.2-2.65.53-3.77.92-1.42,2.78-2.18,4.61-2.55,6.48-1.28,13.37,1.46,19.84.13,2.05-.42,4.32-1.22,6.15-.29,1.69.86,2.12,2.84,1.92,4.53s-.83,3.38-.55,5.06c.1.62.33,1.22.33,1.85,0,.92-.47,1.8-1.11,2.54-.94,1.1-2.21,1.94-3.3,2.93s-2.04,2.22-2.06,3.58c-.01.84.3,1.8-.31,2.46-.23.25-.56.41-.9.55-6.2,2.51-10.3-2.76-13.85-6.09Z"/>
          <path class="cls-14" d="M573.45,72.72c-2.52-2.4-5.25-4.74-6.8-7.7,3.35,3.29,6.69,6.57,10.04,9.86,1.46,1.43,2.92,2.87,4.52,4.19,1.47,1.22,3.06,2.34,4.25,3.77,1.15,1.38,1.88,3,2.52,4.61,1.91,4.89,1.18,5.55.41.69-.51-3.2-.42-6.47-1.03-9.65-1.66-8.63-8.24-15.87-12.01-23.99,3.23,4.34,6.46,8.68,9.69,13.02.71-2.66.34-5.53-1.04-7.99-1.08-1.93-2.79-3.68-3.03-5.82,1.66,1.61,3.33,3.23,4.99,4.84-.07-3.94-.1-7.88-.08-11.82,0-.88.12-1.93,1.01-2.36,1.96,2.72,1.28,6.2.93,9.39-.66,5.91.03,11.87.71,17.78.27-8.12,4.37-16.1,11.16-21.71-1.04,5.2-2.74,10.3-5.05,15.18-1.43,3.03-3.11,6-4.08,9.17-.68,2.22-1,4.51-1.14,6.8-.26,4.33.13,8.73,1.69,12.84,1.23-4.14,1.36-8.45,2.06-12.68.4-2.41,1.1-4.98,3.22-6.58,1.52-1.15,3.55-1.63,5.51-2.05,5.71-1.23,11.47-2.29,17.26-3.17-3.19,2.51-7.72,3.14-11.88,4.12-1.42.33-2.87.75-3.92,1.64-.96.82-1.48,1.94-1.96,3.03-2.54,5.7-5.09,11.44-6.28,17.45-.22,1.1-1.12,7.87-3.31,6.43-.72-.47-.78-2.42-.99-3.13-.41-1.36-.89-2.7-1.43-4.03-2.18-5.32-5.36-10.31-9.14-14.9-2.09-2.53-4.37-4.95-6.79-7.25Z"/>
          <path class="cls-11" d="M611.28,102.79c.59.06,1.21.11,1.75-.09,1.27-.46,1.45-1.91,1.83-3.06.8-2.39,3.27-4.62,2.39-6.98-.59-1.59-2.86-2.53-4.66-1.95-1.4.46-2.55,1.68-4.04,1.55-.9-.08-1.62-.65-2.34-1.13-3.68-2.49-8.48-3.27-13.08-3.96-.69-.1-1.43-.2-2.07.05-.72.29-1.13.95-1.44,1.58-.84,1.67-1.35,3.81.05,5.16.59.57,1.44.89,2.28,1.12,3.11.85,6.71.74,9.26,2.51.82.57,1.51,1.33,2,2.13.3.5.39,1.75.76,2.1,1.12,1.05,5.66.79,7.31.95Z"/>
        </g>
        <g>
          <path class="cls-5" d="M639.11,67.45c.89,1.22,2.54,1.9,4.24,2.3,1.12.26,2.32.42,3.26.94,1.74.95,2.27,2.89,3.76,4.09,2.1,1.68,5.65,1.56,8.8.94,1.16-.23,2.35-.52,3.46-.37.78.1,1.46.41,2.08.76,1.74,1,3.07,2.39,4.7,3.49s3.75,1.94,6.02,1.57c3.74-.61,6.11-3.95,9.03-6.23,5.46-4.26,13.21-4.86,20.18-5.19,2.09-.1,4.19-.2,6.28-.29-1.46-6.18-3.8-12.14-7.39-17.46-1.21-1.79-2.57-3.53-3.32-5.53-.78-2.07-.87-4.37-1.78-6.4-1.79-4.01-6.42-6.38-9.32-9.82-2.74-3.25-3.84-7.37-6.02-10.94-1.89-3.09-4.57-5.73-7.5-8.13-.89-.73-2.01-1.48-3.36-1.24-1.68.31-2.7,1.97-4.3,2.61-2.14.87-4.42-.37-6.65.2-1.45.37-2.64,1.44-4.1,1.77-1.85.42-3.66-.47-5.5.02-1.34.35-2.38,1.36-3.07,2.4-1.69,2.56-1.78,5.53-3.5,8.07-1.52,2.25-4.14,3.93-5.91,6.07-2.28,2.75-2.99,6.23-1.85,9.05.78,1.93,2.38,3.58,2.58,5.68.31,3.2-2.71,6.57-2.33,9.75.26,2.15,2.44,3.89,2.39,6.07s-2.48,3.65-.91,5.81Z"/>
          <path class="cls-8" d="M639.79,68.42c.89,1.22,2.54,1.9,4.24,2.3,1.12.26,2.32.42,3.26.94,1.74.95,2.27,2.89,3.76,4.09,2.1,1.68,5.65,1.56,8.8.94,1.16-.23,2.35-.52,3.46-.37.78.1,1.46.41,2.08.76,1.74,1,3.07,2.39,4.7,3.49s3.75,1.94,6.02,1.57c3.74-.61,6.11-3.95,9.03-6.23,5.46-4.26,13.21-4.86,20.18-5.19,2.09-.1,4.19-.2,6.28-.29-1.46-6.18-3.8-12.14-7.39-17.46-1.21-1.79-2.57-3.53-3.32-5.53-.78-2.07-.87-4.37-1.78-6.4-1.79-4.01-6.42-6.38-9.32-9.82-2.74-3.25-3.84-7.37-6.02-10.94-1.89-3.09-4.57-5.73-7.5-8.13-.89-.73-2.01-1.48-3.36-1.24-1.68.31-2.7,1.97-4.3,2.61-2.14.87-4.42-.37-6.65.2-1.45.37-2.64,1.44-4.1,1.77-1.85.42-3.66-.47-5.5.02-1.34.35-2.38,1.36-3.07,2.4-1.69,2.56-1.78,5.53-3.5,8.07-1.52,2.25-4.14,3.93-5.91,6.07-2.28,2.75-2.99,6.23-1.85,9.05.78,1.93,2.38,3.58,2.58,5.68.31,3.2-2.71,6.57-2.33,9.75.26,2.15,2.44,3.89,2.39,6.07s-2.48,3.65-.91,5.81Z"/>
          <path class="cls-6" d="M679.94,94.65c-.67-2.84-1.91-5.55-2.7-8.37-1.31-4.65-1.4-9.56-.25-14.24.19-.76.41-1.53.87-2.2.39-.58.94-1.07,1.51-1.53,3.1-2.52,6.86-4.33,10.58-6.11,3.66-1.75,7.32-3.51,10.98-5.26-8.67,1.33-16.11,5.93-23.41,10.2-.29.17-.67.35-.97.19-.1-.05-.17-.14-.24-.22-1.31-1.68-.2-4.08,1.62-5.36s4.16-1.82,6.28-2.69c5.65-2.34,9.47-7.01,13.03-11.47-6.53,5.31-16.42,7-22.13,12.98-.41-.91.1-1.95.8-2.72s1.61-1.39,2.22-2.21c.67-.9.93-1.98,1.2-3.03.91-3.51,2.09-6.96,3.54-10.33-1.72,4.85-5.64,8.84-8.35,13.34-1.24,2.06-2.23,4.25-2.79,6.52-1.33-.15-2.12-1.31-3.09-2.12-1.49-1.25-3.6-1.74-5.54-2.37-2.88-.94-5.58-2.28-7.96-3.97,2.25,2.81,5.62,4.77,8.74,6.87,3.12,2.1,6.19,4.56,7.41,7.81-5.04-2.2-10.81-2.7-16.43-3.16,4.34,1.5,8.68,3,13.01,4.51-4.36.95-8.33,3.23-11.03,6.35,2.23-1.42,4.47-2.85,6.7-4.27.53-.34,1.07-.68,1.7-.84.68-.17,1.41-.11,2.12-.06,1.21.1,2.43.2,3.64.31.25.02.51.05.72.16.26.14.39.4.5.65.9,2.07.79,4.36.63,6.57-.18,2.48-.39,4.95-.64,7.43-.57,5.69-1.48,11.7-5.58,16.18,4.85.93,9.85,1.31,14.81,1.13.59-.02,1.2-.06,1.72-.29"/>
          <path class="cls-2" d="M679.43,95.21c-.67-2.84-1.91-5.55-2.7-8.37-1.31-4.65-1.4-9.56-.25-14.24.19-.76.41-1.53.87-2.2.39-.58.94-1.07,1.51-1.53,3.1-2.52,6.86-4.33,10.58-6.11,3.66-1.75,7.32-3.51,10.98-5.26-8.67,1.33-16.11,5.93-23.41,10.2-.29.17-.67.35-.97.19-.1-.05-.17-.14-.24-.22-1.31-1.68-.2-4.08,1.62-5.36s4.16-1.82,6.28-2.69c5.65-2.34,9.47-7.01,13.03-11.47-6.53,5.31-16.42,7-22.13,12.98-.41-.91.1-1.95.8-2.72s1.61-1.39,2.22-2.21c.67-.9.93-1.98,1.2-3.03.91-3.51,2.09-6.96,3.54-10.33-1.72,4.85-5.64,8.84-8.35,13.34-1.24,2.06-2.23,4.25-2.79,6.52-1.33-.15-2.12-1.31-3.09-2.12-1.49-1.25-3.6-1.74-5.54-2.37-2.88-.94-5.58-2.28-7.96-3.97,2.25,2.81,5.62,4.77,8.74,6.87,3.12,2.1,6.19,4.56,7.41,7.81-5.04-2.2-10.81-2.7-16.43-3.16,4.34,1.5,8.68,3,13.01,4.51-4.36.95-8.33,3.23-11.03,6.35,2.23-1.42,4.47-2.85,6.7-4.27.53-.34,1.07-.68,1.7-.84.68-.17,1.41-.11,2.12-.06,1.21.1,2.43.2,3.64.31.25.02.51.05.72.16.26.14.39.4.5.65.9,2.07.79,4.36.63,6.57-.18,2.48-.39,4.95-.64,7.43-.57,5.69-1.48,11.7-5.58,16.18,4.85.93,9.85,1.31,14.81,1.13.59-.02,1.2-.06,1.72-.29"/>
        </g>
        <g>
          <path class="cls-9" d="M708.09,66.21c-1.91-8.2-2.17-16.61-2.43-24.97-3.25,13.17-4.2,26.76-2.79,40.17.41,3.89,1.05,7.78,1.03,11.7,0,2.16-2.31,8.49-1.24,10.21,1.82,2.94,4.28-.07,6.23-2.27,9.37-10.56,1.89-23.32-.79-34.83Z"/>
          <path class="cls-7" d="M709.22,66.15c-1.91-8.2-2.17-16.61-2.43-24.97-3.25,13.17-4.2,26.76-2.79,40.17.41,3.89,1.05,7.78,1.03,11.7,0,2.16-2.31,8.49-1.24,10.21,1.82,2.94,4.28-.07,6.23-2.27,9.37-10.56,1.89-23.32-.79-34.83Z"/>
          <path class="cls-8" d="M727.91,47.1c.23-.89.23-1.86.77-2.65,1.07-1.56,3.57-1.63,5.62-2.02,4.89-.93,8.57-4.64,10.3-8.71,3.12-7.31,2.76-18.82-.45-26.12-1.54-3.5-4.78-6.66-9.02-7.41-4.19-.75-8.4.91-12.25,2.52-6.01,2.51-12.01,5.03-18.02,7.54-6.23,2.61-12.76,5.27-19.68,5.15-4.86-.08-10.54-1.33-13.98,1.65-6.36,5.51,2.35,17.37,5.33,22.71,2.5,4.47,5.62,9.41,11.15,10.73,6.81,1.63,14.37-.56,21.48.82,5.96,1.16,16.8,3.18,18.75-4.23Z"/>
          <path class="cls-3" d="M727.91,48.63c.23-.89.23-1.86.77-2.65,1.07-1.56,3.57-1.63,5.62-2.02,4.89-.93,8.57-4.64,10.3-8.71,3.12-7.31,2.76-18.82-.45-26.12-1.54-3.5-4.78-6.66-9.02-7.41-4.19-.75-8.4.91-12.25,2.52-6.01,2.51-12.01,5.03-18.02,7.54-6.23,2.61-12.76,5.27-19.68,5.15-4.86-.08-10.54-1.33-13.98,1.65-6.36,5.51,2.35,17.37,5.33,22.71,2.5,4.47,5.62,9.41,11.15,10.73,6.81,1.63,14.37-.56,21.48.82,5.96,1.16,16.8,3.18,18.75-4.23Z"/>
        </g>
        <g>
          <path class="cls-10" d="M703.21,87.39c-.45.06-.92-.06-1.25-.33-.08-.06-.16-.14-.27-.15-.11,0-.21.05-.3.12-.29.2-.61.48-.53.8.03.12.13.24.1.36-.03.13-.19.21-.34.25-.59.14-1.25-.15-1.57-.61s-.33-1.04-.14-1.54c.07-.18.16-.37.33-.49.29-.23.73-.24,1.12-.19.07,0,.15.02.22-.02.1-.05.11-.18.08-.28-.1-.35-.48-.59-.87-.71s-.82-.13-1.23-.19c-.15-.02-.3-.06-.41-.14-.16-.13-.2-.33-.22-.51-.06-.55-.08-1.13.17-1.64s.85-.93,1.49-.87c.35.03.77.18.99-.05.08-.08.11-.19.14-.29.18-.51.65-.92,1.19-1.19s1.14-.41,1.74-.56c.62-.15,1.36-.28,1.86.07.24.16.41.43.71.49.16.03.33,0,.48-.05.48-.13.94-.31,1.42-.4s1.02-.1,1.46.11c.61.29.89.91,1.42,1.29.53.38,1.24.48,1.85.75.7.31,1.26.85,1.54,1.48.05.12.1.24.08.37-.05.36-.55.52-.96.51s-.85-.09-1.22.07c-.49.21-.62.75-.64,1.23s0,.99-.34,1.36c-.18.2-.45.32-.67.48s-.44.37-.44.63c0,.15.07.29.05.44-.03.26-.35.43-.65.44s-.58-.1-.86-.2c-.99-.38-2-.72-3.03-1.03-.32-.1-1.14-.47-1.45-.37-.13.04-.28.28-.41.36-.19.12-.4.2-.63.23Z"/>
          <path class="cls-10" d="M691.25,90.29c-.45.06-.92-.06-1.25-.33-.08-.06-.16-.14-.27-.15-.11,0-.21.05-.3.12-.29.2-.61.48-.53.8.03.12.13.24.1.36-.03.13-.19.21-.34.25-.59.14-1.25-.15-1.57-.61s-.33-1.04-.14-1.54c.07-.18.16-.37.33-.49.29-.23.73-.24,1.12-.19.07,0,.15.02.22-.02.1-.05.11-.18.08-.28-.1-.35-.48-.59-.87-.71s-.82-.13-1.23-.19c-.15-.02-.3-.06-.41-.14-.16-.13-.2-.33-.22-.51-.06-.55-.08-1.13.17-1.64s.85-.93,1.49-.87c.35.03.77.18.99-.05.08-.08.11-.19.14-.29.18-.51.65-.92,1.19-1.19s1.14-.41,1.74-.56c.62-.15,1.36-.28,1.86.07.24.16.41.43.71.49.16.03.33,0,.48-.05.48-.13.94-.31,1.42-.4s1.02-.1,1.46.11c.61.29.89.91,1.42,1.29.53.38,1.24.48,1.85.75.7.31,1.26.85,1.54,1.48.05.12.1.24.08.37-.05.36-.55.52-.96.51s-.85-.09-1.22.07c-.49.21-.62.75-.64,1.23s0,.99-.34,1.36c-.18.2-.45.32-.67.48s-.44.37-.44.63c0,.15.07.29.05.44-.03.26-.35.43-.65.44s-.58-.1-.86-.2c-.99-.38-2-.72-3.03-1.03-.32-.1-1.14-.47-1.45-.37-.13.04-.28.28-.41.36-.19.12-.4.2-.63.23Z"/>
          <path class="cls-10" d="M703.77,92.74c-.45.06-.92-.06-1.25-.33-.08-.06-.16-.14-.27-.15-.11,0-.21.05-.3.12-.29.2-.61.48-.53.8.03.12.13.24.1.36-.03.13-.19.21-.34.25-.59.14-1.25-.15-1.57-.61s-.33-1.04-.14-1.54c.07-.18.16-.37.33-.49.29-.23.73-.24,1.12-.19.07,0,.15.02.22-.02.1-.05.11-.18.08-.28-.1-.35-.48-.59-.87-.71s-.82-.13-1.23-.19c-.15-.02-.3-.06-.41-.14-.16-.13-.2-.33-.22-.51-.06-.55-.08-1.13.17-1.64s.85-.93,1.49-.87c.35.03.77.18.99-.05.08-.08.11-.19.14-.29.18-.51.65-.92,1.19-1.19s1.14-.41,1.74-.56c.62-.15,1.36-.28,1.86.07.24.16.41.43.71.49.16.03.33,0,.48-.05.48-.13.94-.31,1.42-.4s1.02-.1,1.46.11c.61.29.89.91,1.42,1.29.53.38,1.24.48,1.85.75.7.31,1.26.85,1.54,1.48.05.12.1.24.08.37-.05.36-.55.52-.96.51s-.85-.09-1.22.07c-.49.21-.62.75-.64,1.23s0,.99-.34,1.36c-.18.2-.45.32-.67.48s-.44.37-.44.63c0,.15.07.29.05.44-.03.26-.35.43-.65.44s-.58-.1-.86-.2c-.99-.38-2-.72-3.03-1.03-.32-.1-1.14-.47-1.45-.37-.13.04-.28.28-.41.36-.19.12-.4.2-.63.23Z"/>
          <path class="cls-10" d="M710.33,90.29c-.45.06-.92-.06-1.25-.33-.08-.06-.16-.14-.27-.15-.11,0-.21.05-.3.12-.29.2-.61.48-.53.8.03.12.13.24.1.36-.03.13-.19.21-.34.25-.59.14-1.25-.15-1.57-.61s-.33-1.04-.14-1.54c.07-.18.16-.37.33-.49.29-.23.73-.24,1.12-.19.07,0,.15.02.22-.02.1-.05.11-.18.08-.28-.1-.35-.48-.59-.87-.71s-.82-.13-1.23-.19c-.15-.02-.3-.06-.41-.14-.16-.13-.2-.33-.22-.51-.06-.55-.08-1.13.17-1.64s.85-.93,1.49-.87c.35.03.77.18.99-.05.08-.08.11-.19.14-.29.18-.51.65-.92,1.19-1.19s1.14-.41,1.74-.56c.62-.15,1.36-.28,1.86.07.24.16.41.43.71.49.16.03.33,0,.48-.05.48-.13.94-.31,1.42-.4s1.02-.1,1.46.11c.61.29.89.91,1.42,1.29.53.38,1.24.48,1.85.75.7.31,1.26.85,1.54,1.48.05.12.1.24.08.37-.05.36-.55.52-.96.51s-.85-.09-1.22.07c-.49.21-.62.75-.64,1.23s0,.99-.34,1.36c-.18.2-.45.32-.67.48s-.44.37-.44.63c0,.15.07.29.05.44-.03.26-.35.43-.65.44s-.58-.1-.86-.2c-.99-.38-2-.72-3.03-1.03-.32-.1-1.14-.47-1.45-.37-.13.04-.28.28-.41.36-.19.12-.4.2-.63.23Z"/>
          <path class="cls-10" d="M692.37,93.19c-.77-.12-1.56-.24-2.2-.5-.92-.38-.42-1.24-1.39-1.53-.39-.11-.82-.13-1.23-.19-.15-.02-.3-.06-.41-.14-.16-.13-.2-.33-.22-.51-.06-.55-.08-1.13.17-1.64s.85-.93,1.49-.87c.35.03.77.18.99-.05.08-.08.11-.19.14-.29.18-.51.65-.92,1.19-1.19s1.14-.41,1.74-.56c.62-.15,1.36-.28,1.86.07.24.16.41.43.71.49.16.03.33,0,.48-.05.48-.13.94-.31,1.42-.4s1.02-.1,1.46.11c.61.29.89.91,1.42,1.29.53.38,1.24.48,1.85.75.7.31,1.26.85,1.54,1.48.05.12.1.24.08.37-.05.36-.55.52-.96.51s-.85-.09-1.22.07c-.49.21-.62.75-.64,1.23s0,.99-.34,1.36c-.18.2-.45.32-.67.48s-.44.37-.44.63c0,.15.07.29.05.44-.03.26-.35.43-.65.44s-.58-.1-.86-.2c-1.28-.49-2.59-.9-3.92-1.29-.45-.13-.94-.21-1.44-.29Z"/>
          <path class="cls-10" d="M711.36,93.97c-.89.14-1.71-.58-2.28-1.19-.37-.4-.39-.84-.68-1.21-.41-.53-1-.49-1.7-.6-.15-.02-.3-.06-.41-.14-.16-.13-.2-.33-.22-.51-.06-.55-.08-1.13.17-1.64s.85-.93,1.49-.87c.35.03.77.18.99-.05.08-.08.11-.19.14-.29.18-.51.65-.92,1.19-1.19s1.14-.41,1.74-.56c.62-.15,1.36-.28,1.86.07.24.16.41.43.71.49.16.03.33,0,.48-.05.48-.13.94-.31,1.42-.4s1.02-.1,1.46.11c.61.29.89.91,1.42,1.29.53.38,1.24.48,1.85.75.7.31,1.26.85,1.54,1.48.05.12.1.24.08.37-.05.36-.55.52-.96.51s-.85-.09-1.22.07c-.49.21-.62.75-.64,1.23s0,.99-.34,1.36c-.18.2-.45.32-.67.48s-.44.37-.44.63c0,.15.07.29.05.44-.03.26-.35.43-.65.44s-.58-.1-.86-.2c-.99-.38-2-.72-3.03-1.03-.32-.1-1.14-.47-1.45-.37-.13.04-.28.28-.41.36-.21.14-.42.21-.63.25Z"/>
          <path class="cls-4" d="M701.62,87.01c-.45.06-.92-.06-1.25-.33-.08-.06-.16-.14-.27-.15-.11,0-.21.05-.3.12-.29.2-.61.48-.53.8.03.12.13.24.1.36-.03.13-.19.21-.34.25-.59.14-1.25-.15-1.57-.61s-.33-1.04-.14-1.54c.07-.18.16-.37.33-.49.29-.23.73-.24,1.12-.19.07,0,.15.02.22-.02.1-.05.11-.18.08-.28-.1-.35-.48-.59-.87-.71s-.82-.13-1.23-.19c-.15-.02-.3-.06-.41-.14-.16-.13-.2-.33-.22-.51-.06-.55-.08-1.13.17-1.64s.85-.93,1.49-.87c.35.03.77.18.99-.05.08-.08.11-.19.14-.29.18-.51.65-.92,1.19-1.19s1.14-.41,1.74-.56c.62-.15,1.36-.28,1.86.07.24.16.41.43.71.49.16.03.33,0,.48-.05.48-.13.94-.31,1.42-.4s1.02-.1,1.46.11c.61.29.89.91,1.42,1.29.53.38,1.24.48,1.85.75.7.31,1.26.85,1.54,1.48.05.12.1.24.08.37-.05.36-.55.52-.96.51s-.85-.09-1.22.07c-.49.21-.62.75-.64,1.23s0,.99-.34,1.36c-.18.2-.45.32-.67.48s-.44.37-.44.63c0,.15.07.29.05.44-.03.26-.35.43-.65.44s-.58-.1-.86-.2c-.99-.38-2-.72-3.03-1.03-.32-.1-1.14-.47-1.45-.37-.13.04-.28.28-.41.36-.19.12-.4.2-.63.23Z"/>
          <path class="cls-4" d="M689.66,89.91c-.45.06-.92-.06-1.25-.33-.08-.06-.16-.14-.27-.15-.11,0-.21.05-.3.12-.29.2-.61.48-.53.8.03.12.13.24.1.36-.03.13-.19.21-.34.25-.59.14-1.25-.15-1.57-.61s-.33-1.04-.14-1.54c.07-.18.16-.37.33-.49.29-.23.73-.24,1.12-.19.07,0,.15.02.22-.02.1-.05.11-.18.08-.28-.1-.35-.48-.59-.87-.71s-.82-.13-1.23-.19c-.15-.02-.3-.06-.41-.14-.16-.13-.2-.33-.22-.51-.06-.55-.08-1.13.17-1.64s.85-.93,1.49-.87c.35.03.77.18.99-.05.08-.08.11-.19.14-.29.18-.51.65-.92,1.19-1.19s1.14-.41,1.74-.56c.62-.15,1.36-.28,1.86.07.24.16.41.43.71.49.16.03.33,0,.48-.05.48-.13.94-.31,1.42-.4s1.02-.1,1.46.11c.61.29.89.91,1.42,1.29.53.38,1.24.48,1.85.75.7.31,1.26.85,1.54,1.48.05.12.1.24.08.37-.05.36-.55.52-.96.51s-.85-.09-1.22.07c-.49.21-.62.75-.64,1.23s0,.99-.34,1.36c-.18.2-.45.32-.67.48s-.44.37-.44.63c0,.15.07.29.05.44-.03.26-.35.43-.65.44s-.58-.1-.86-.2c-.99-.38-2-.72-3.03-1.03-.32-.1-1.14-.47-1.45-.37-.13.04-.28.28-.41.36-.19.12-.4.2-.63.23Z"/>
          <path class="cls-4" d="M702.18,92.36c-.45.06-.92-.06-1.25-.33-.08-.06-.16-.14-.27-.15-.11,0-.21.05-.3.12-.29.2-.61.48-.53.8.03.12.13.24.1.36-.03.13-.19.21-.34.25-.59.14-1.25-.15-1.57-.61s-.33-1.04-.14-1.54c.07-.18.16-.37.33-.49.29-.23.73-.24,1.12-.19.07,0,.15.02.22-.02.1-.05.11-.18.08-.28-.1-.35-.48-.59-.87-.71s-.82-.13-1.23-.19c-.15-.02-.3-.06-.41-.14-.16-.13-.2-.33-.22-.51-.06-.55-.08-1.13.17-1.64s.85-.93,1.49-.87c.35.03.77.18.99-.05.08-.08.11-.19.14-.29.18-.51.65-.92,1.19-1.19s1.14-.41,1.74-.56c.62-.15,1.36-.28,1.86.07.24.16.41.43.71.49.16.03.33,0,.48-.05.48-.13.94-.31,1.42-.4s1.02-.1,1.46.11c.61.29.89.91,1.42,1.29.53.38,1.24.48,1.85.75.7.31,1.26.85,1.54,1.48.05.12.1.24.08.37-.05.36-.55.52-.96.51s-.85-.09-1.22.07c-.49.21-.62.75-.64,1.23s0,.99-.34,1.36c-.18.2-.45.32-.67.48s-.44.37-.44.63c0,.15.07.29.05.44-.03.26-.35.43-.65.44s-.58-.1-.86-.2c-.99-.38-2-.72-3.03-1.03-.32-.1-1.14-.47-1.45-.37-.13.04-.28.28-.41.36-.19.12-.4.2-.63.23Z"/>
          <path class="cls-4" d="M708.74,89.91c-.45.06-.92-.06-1.25-.33-.08-.06-.16-.14-.27-.15-.11,0-.21.05-.3.12-.29.2-.61.48-.53.8.03.12.13.24.1.36-.03.13-.19.21-.34.25-.59.14-1.25-.15-1.57-.61s-.33-1.04-.14-1.54c.07-.18.16-.37.33-.49.29-.23.73-.24,1.12-.19.07,0,.15.02.22-.02.1-.05.11-.18.08-.28-.1-.35-.48-.59-.87-.71s-.82-.13-1.23-.19c-.15-.02-.3-.06-.41-.14-.16-.13-.2-.33-.22-.51-.06-.55-.08-1.13.17-1.64s.85-.93,1.49-.87c.35.03.77.18.99-.05.08-.08.11-.19.14-.29.18-.51.65-.92,1.19-1.19s1.14-.41,1.74-.56c.62-.15,1.36-.28,1.86.07.24.16.41.43.71.49.16.03.33,0,.48-.05.48-.13.94-.31,1.42-.4s1.02-.1,1.46.11c.61.29.89.91,1.42,1.29.53.38,1.24.48,1.85.75.7.31,1.26.85,1.54,1.48.05.12.1.24.08.37-.05.36-.55.52-.96.51s-.85-.09-1.22.07c-.49.21-.62.75-.64,1.23s0,.99-.34,1.36c-.18.2-.45.32-.67.48s-.44.37-.44.63c0,.15.07.29.05.44-.03.26-.35.43-.65.44s-.58-.1-.86-.2c-.99-.38-2-.72-3.03-1.03-.32-.1-1.14-.47-1.45-.37-.13.04-.28.28-.41.36-.19.12-.4.2-.63.23Z"/>
          <path class="cls-4" d="M690.72,92.98c-.25-.03-.49-.07-.74-.13-.3-.07-.61-.15-.86-.32-.54-.37-.74-.99-1.22-1.38-.55-.44-1.24-.46-1.94-.57-.15-.02-.3-.06-.41-.14-.16-.13-.2-.33-.22-.51-.06-.55-.08-1.13.17-1.64s.85-.93,1.49-.87c.35.03.77.18.99-.05.08-.08.11-.19.14-.29.18-.51.65-.92,1.19-1.19s1.14-.41,1.74-.56c.62-.15,1.36-.28,1.86.07.24.16.41.43.71.49.16.03.33,0,.48-.05.48-.13.94-.31,1.42-.4s1.02-.1,1.46.11c.61.29.89.91,1.42,1.29.53.38,1.24.48,1.85.75.7.31,1.26.85,1.54,1.48.05.12.1.24.08.37-.05.36-.55.52-.96.51s-.85-.09-1.22.07c-.49.21-.62.75-.64,1.23s0,.99-.34,1.36c-.18.2-.45.32-.67.48s-.44.37-.44.63c0,.15.07.29.05.44-.03.26-.35.43-.65.44s-.58-.1-.86-.2c-1.07-.41-2.26-.94-3.4-1.17-.66-.13-1.34-.15-2.02-.24Z"/>
          <path class="cls-4" d="M709.82,93.2c-.82-.1-1.67-.41-2.2-.97-.47-.49-.51-1.23-1.29-1.46-.39-.11-.82-.13-1.23-.19-.15-.02-.3-.06-.41-.14-.16-.13-.2-.33-.22-.51-.06-.55-.08-1.13.17-1.64s.85-.93,1.49-.87c.35.03.77.18.99-.05.08-.08.11-.19.14-.29.18-.51.65-.92,1.19-1.19s1.14-.41,1.74-.56c.62-.15,1.36-.28,1.86.07.24.16.41.43.71.49.16.03.33,0,.48-.05.48-.13.94-.31,1.42-.4s1.02-.1,1.46.11c.61.29.89.91,1.42,1.29.53.38,1.24.48,1.85.75.7.31,1.26.85,1.54,1.48.05.12.1.24.08.37-.05.36-.55.52-.96.51s-.85-.09-1.22.07c-.49.21-.62.75-.64,1.23s0,.99-.34,1.36c-.18.2-.45.32-.67.48s-.44.37-.44.63c0,.15.07.29.05.44-.03.26-.35.43-.65.44s-.58-.1-.86-.2c-1.03-.39-2.13-.86-3.23-1.07-.71-.14-1.4-.02-2.12-.1-.04,0-.08,0-.11-.01Z"/>
        </g>
        <g>
          <path class="cls-10" d="M713.17,94.83c-.45.06-.92-.06-1.25-.33-.08-.06-.16-.14-.27-.15-.11,0-.21.05-.3.12-.29.2-.61.48-.53.8.03.12.13.24.1.36-.03.13-.19.21-.34.25-.59.14-1.25-.15-1.57-.61s-.33-1.04-.14-1.54c.07-.18.16-.37.33-.49.29-.23.73-.24,1.12-.19.07,0,.15.02.22-.02.1-.05.11-.18.08-.28-.1-.35-.48-.59-.87-.71s-.82-.13-1.23-.19c-.15-.02-.3-.06-.41-.14-.16-.13-.2-.33-.22-.51-.06-.55-.08-1.13.17-1.64s.85-.93,1.49-.87c.35.03.77.18.99-.05.08-.08.11-.19.14-.29.18-.51.65-.92,1.19-1.19s1.14-.41,1.74-.56c.62-.15,1.36-.28,1.86.07.24.16.41.43.71.49.16.03.33,0,.48-.05.48-.13.94-.31,1.42-.4s1.02-.1,1.46.11c.61.29.89.91,1.42,1.29.53.38,1.24.48,1.85.75.7.31,1.26.85,1.54,1.48.05.12.1.24.08.37-.05.36-.55.52-.96.51s-.85-.09-1.22.07c-.49.21-.62.75-.64,1.23s0,.99-.34,1.36c-.18.2-.45.32-.67.48s-.44.37-.44.63c0,.15.07.29.05.44-.03.26-.35.43-.65.44s-.58-.1-.86-.2c-.99-.38-2-.72-3.03-1.03-.32-.1-1.14-.47-1.45-.37-.13.04-.28.28-.41.36-.19.12-.4.2-.63.23Z"/>
          <path class="cls-10" d="M701.22,97.74c-.45.06-.92-.06-1.25-.33-.08-.06-.16-.14-.27-.15-.11,0-.21.05-.3.12-.29.2-.61.48-.53.8.03.12.13.24.1.36-.03.13-.19.21-.34.25-.59.14-1.25-.15-1.57-.61s-.33-1.04-.14-1.54c.07-.18.16-.37.33-.49.29-.23.73-.24,1.12-.19.07,0,.15.02.22-.02.1-.05.11-.18.08-.28-.1-.35-.48-.59-.87-.71s-.82-.13-1.23-.19c-.15-.02-.3-.06-.41-.14-.16-.13-.2-.33-.22-.51-.06-.55-.08-1.13.17-1.64s.85-.93,1.49-.87c.35.03.77.18.99-.05.08-.08.11-.19.14-.29.18-.51.65-.92,1.19-1.19s1.14-.41,1.74-.56c.62-.15,1.36-.28,1.86.07.24.16.41.43.71.49.16.03.33,0,.48-.05.48-.13.94-.31,1.42-.4s1.02-.1,1.46.11c.61.29.89.91,1.42,1.29.53.38,1.24.48,1.85.75.7.31,1.26.85,1.54,1.48.05.12.1.24.08.37-.05.36-.55.52-.96.51s-.85-.09-1.22.07c-.49.21-.62.75-.64,1.23s0,.99-.34,1.36c-.18.2-.45.32-.67.48s-.44.37-.44.63c0,.15.07.29.05.44-.03.26-.35.43-.65.44s-.58-.1-.86-.2c-.99-.38-2-.72-3.03-1.03-.32-.1-1.14-.47-1.45-.37-.13.04-.28.28-.41.36-.19.12-.4.2-.63.23Z"/>
          <path class="cls-10" d="M713.74,100.18c-.45.06-.92-.06-1.25-.33-.08-.06-.16-.14-.27-.15-.11,0-.21.05-.3.12-.29.2-.61.48-.53.8.03.12.13.24.1.36-.03.13-.19.21-.34.25-.59.14-1.25-.15-1.57-.61s-.33-1.04-.14-1.54c.07-.18.16-.37.33-.49.29-.23.73-.24,1.12-.19.07,0,.15.02.22-.02.1-.05.11-.18.08-.28-.1-.35-.48-.59-.87-.71s-.82-.13-1.23-.19c-.15-.02-.3-.06-.41-.14-.16-.13-.2-.33-.22-.51-.06-.55-.08-1.13.17-1.64s.85-.93,1.49-.87c.35.03.77.18.99-.05.08-.08.11-.19.14-.29.18-.51.65-.92,1.19-1.19s1.14-.41,1.74-.56c.62-.15,1.36-.28,1.86.07.24.16.41.43.71.49.16.03.33,0,.48-.05.48-.13.94-.31,1.42-.4s1.02-.1,1.46.11c.61.29.89.91,1.42,1.29.53.38,1.24.48,1.85.75.7.31,1.26.85,1.54,1.48.05.12.1.24.08.37-.05.36-.55.52-.96.51s-.85-.09-1.22.07c-.49.21-.62.75-.64,1.23s0,.99-.34,1.36c-.18.2-.45.32-.67.48s-.44.37-.44.63c0,.15.07.29.05.44-.03.26-.35.43-.65.44s-.58-.1-.86-.2c-.99-.38-2-.72-3.03-1.03-.32-.1-1.14-.47-1.45-.37-.13.04-.28.28-.41.36-.19.12-.4.2-.63.23Z"/>
          <path class="cls-10" d="M720.3,97.74c-.45.06-.92-.06-1.25-.33-.08-.06-.16-.14-.27-.15-.11,0-.21.05-.3.12-.29.2-.61.48-.53.8.03.12.13.24.1.36-.03.13-.19.21-.34.25-.59.14-1.25-.15-1.57-.61s-.33-1.04-.14-1.54c.07-.18.16-.37.33-.49.29-.23.73-.24,1.12-.19.07,0,.15.02.22-.02.1-.05.11-.18.08-.28-.1-.35-.48-.59-.87-.71s-.82-.13-1.23-.19c-.15-.02-.3-.06-.41-.14-.16-.13-.2-.33-.22-.51-.06-.55-.08-1.13.17-1.64s.85-.93,1.49-.87c.35.03.77.18.99-.05.08-.08.11-.19.14-.29.18-.51.65-.92,1.19-1.19s1.14-.41,1.74-.56c.62-.15,1.36-.28,1.86.07.24.16.41.43.71.49.16.03.33,0,.48-.05.48-.13.94-.31,1.42-.4s1.02-.1,1.46.11c.61.29.89.91,1.42,1.29.53.38,1.24.48,1.85.75.7.31,1.26.85,1.54,1.48.05.12.1.24.08.37-.05.36-.55.52-.96.51s-.85-.09-1.22.07c-.49.21-.62.75-.64,1.23s0,.99-.34,1.36c-.18.2-.45.32-.67.48s-.44.37-.44.63c0,.15.07.29.05.44-.03.26-.35.43-.65.44s-.58-.1-.86-.2c-.99-.38-2-.72-3.03-1.03-.32-.1-1.14-.47-1.45-.37-.13.04-.28.28-.41.36-.19.12-.4.2-.63.23Z"/>
          <path class="cls-10" d="M702.34,100.63c-.77-.12-1.56-.24-2.2-.5-.92-.38-.42-1.24-1.39-1.53-.39-.11-.82-.13-1.23-.19-.15-.02-.3-.06-.41-.14-.16-.13-.2-.33-.22-.51-.06-.55-.08-1.13.17-1.64s.85-.93,1.49-.87c.35.03.77.18.99-.05.08-.08.11-.19.14-.29.18-.51.65-.92,1.19-1.19s1.14-.41,1.74-.56c.62-.15,1.36-.28,1.86.07.24.16.41.43.71.49.16.03.33,0,.48-.05.48-.13.94-.31,1.42-.4s1.02-.1,1.46.11c.61.29.89.91,1.42,1.29.53.38,1.24.48,1.85.75.7.31,1.26.85,1.54,1.48.05.12.1.24.08.37-.05.36-.55.52-.96.51s-.85-.09-1.22.07c-.49.21-.62.75-.64,1.23s0,.99-.34,1.36c-.18.2-.45.32-.67.48s-.44.37-.44.63c0,.15.07.29.05.44-.03.26-.35.43-.65.44s-.58-.1-.86-.2c-1.28-.49-2.59-.9-3.92-1.29-.45-.13-.94-.21-1.44-.29Z"/>
          <path class="cls-10" d="M721.32,101.42c-.89.14-1.71-.58-2.28-1.19-.37-.4-.39-.84-.68-1.21-.41-.53-1-.49-1.7-.6-.15-.02-.3-.06-.41-.14-.16-.13-.2-.33-.22-.51-.06-.55-.08-1.13.17-1.64s.85-.93,1.49-.87c.35.03.77.18.99-.05.08-.08.11-.19.14-.29.18-.51.65-.92,1.19-1.19s1.14-.41,1.74-.56c.62-.15,1.36-.28,1.86.07.24.16.41.43.71.49.16.03.33,0,.48-.05.48-.13.94-.31,1.42-.4s1.02-.1,1.46.11c.61.29.89.91,1.42,1.29.53.38,1.24.48,1.85.75.7.31,1.26.85,1.54,1.48.05.12.1.24.08.37-.05.36-.55.52-.96.51s-.85-.09-1.22.07c-.49.21-.62.75-.64,1.23s0,.99-.34,1.36c-.18.2-.45.32-.67.48s-.44.37-.44.63c0,.15.07.29.05.44-.03.26-.35.43-.65.44s-.58-.1-.86-.2c-.99-.38-2-.72-3.03-1.03-.32-.1-1.14-.47-1.45-.37-.13.04-.28.28-.41.36-.21.14-.42.21-.63.25Z"/>
          <path class="cls-4" d="M711.58,94.45c-.45.06-.92-.06-1.25-.33-.08-.06-.16-.14-.27-.15-.11,0-.21.05-.3.12-.29.2-.61.48-.53.8.03.12.13.24.1.36-.03.13-.19.21-.34.25-.59.14-1.25-.15-1.57-.61s-.33-1.04-.14-1.54c.07-.18.16-.37.33-.49.29-.23.73-.24,1.12-.19.07,0,.15.02.22-.02.1-.05.11-.18.08-.28-.1-.35-.48-.59-.87-.71s-.82-.13-1.23-.19c-.15-.02-.3-.06-.41-.14-.16-.13-.2-.33-.22-.51-.06-.55-.08-1.13.17-1.64s.85-.93,1.49-.87c.35.03.77.18.99-.05.08-.08.11-.19.14-.29.18-.51.65-.92,1.19-1.19s1.14-.41,1.74-.56c.62-.15,1.36-.28,1.86.07.24.16.41.43.71.49.16.03.33,0,.48-.05.48-.13.94-.31,1.42-.4s1.02-.1,1.46.11c.61.29.89.91,1.42,1.29.53.38,1.24.48,1.85.75.7.31,1.26.85,1.54,1.48.05.12.1.24.08.37-.05.36-.55.52-.96.51s-.85-.09-1.22.07c-.49.21-.62.75-.64,1.23s0,.99-.34,1.36c-.18.2-.45.32-.67.48s-.44.37-.44.63c0,.15.07.29.05.44-.03.26-.35.43-.65.44s-.58-.1-.86-.2c-.99-.38-2-.72-3.03-1.03-.32-.1-1.14-.47-1.45-.37-.13.04-.28.28-.41.36-.19.12-.4.2-.63.23Z"/>
          <path class="cls-4" d="M699.63,97.36c-.45.06-.92-.06-1.25-.33-.08-.06-.16-.14-.27-.15-.11,0-.21.05-.3.12-.29.2-.61.48-.53.8.03.12.13.24.1.36-.03.13-.19.21-.34.25-.59.14-1.25-.15-1.57-.61s-.33-1.04-.14-1.54c.07-.18.16-.37.33-.49.29-.23.73-.24,1.12-.19.07,0,.15.02.22-.02.1-.05.11-.18.08-.28-.1-.35-.48-.59-.87-.71s-.82-.13-1.23-.19c-.15-.02-.3-.06-.41-.14-.16-.13-.2-.33-.22-.51-.06-.55-.08-1.13.17-1.64s.85-.93,1.49-.87c.35.03.77.18.99-.05.08-.08.11-.19.14-.29.18-.51.65-.92,1.19-1.19s1.14-.41,1.74-.56c.62-.15,1.36-.28,1.86.07.24.16.41.43.71.49.16.03.33,0,.48-.05.48-.13.94-.31,1.42-.4s1.02-.1,1.46.11c.61.29.89.91,1.42,1.29.53.38,1.24.48,1.85.75.7.31,1.26.85,1.54,1.48.05.12.1.24.08.37-.05.36-.55.52-.96.51s-.85-.09-1.22.07c-.49.21-.62.75-.64,1.23s0,.99-.34,1.36c-.18.2-.45.32-.67.48s-.44.37-.44.63c0,.15.07.29.05.44-.03.26-.35.43-.65.44s-.58-.1-.86-.2c-.99-.38-2-.72-3.03-1.03-.32-.1-1.14-.47-1.45-.37-.13.04-.28.28-.41.36-.19.12-.4.2-.63.23Z"/>
          <path class="cls-4" d="M712.15,99.8c-.45.06-.92-.06-1.25-.33-.08-.06-.16-.14-.27-.15-.11,0-.21.05-.3.12-.29.2-.61.48-.53.8.03.12.13.24.1.36-.03.13-.19.21-.34.25-.59.14-1.25-.15-1.57-.61s-.33-1.04-.14-1.54c.07-.18.16-.37.33-.49.29-.23.73-.24,1.12-.19.07,0,.15.02.22-.02.1-.05.11-.18.08-.28-.1-.35-.48-.59-.87-.71s-.82-.13-1.23-.19c-.15-.02-.3-.06-.41-.14-.16-.13-.2-.33-.22-.51-.06-.55-.08-1.13.17-1.64s.85-.93,1.49-.87c.35.03.77.18.99-.05.08-.08.11-.19.14-.29.18-.51.65-.92,1.19-1.19s1.14-.41,1.74-.56c.62-.15,1.36-.28,1.86.07.24.16.41.43.71.49.16.03.33,0,.48-.05.48-.13.94-.31,1.42-.4s1.02-.1,1.46.11c.61.29.89.91,1.42,1.29.53.38,1.24.48,1.85.75.7.31,1.26.85,1.54,1.48.05.12.1.24.08.37-.05.36-.55.52-.96.51s-.85-.09-1.22.07c-.49.21-.62.75-.64,1.23s0,.99-.34,1.36c-.18.2-.45.32-.67.48s-.44.37-.44.63c0,.15.07.29.05.44-.03.26-.35.43-.65.44s-.58-.1-.86-.2c-.99-.38-2-.72-3.03-1.03-.32-.1-1.14-.47-1.45-.37-.13.04-.28.28-.41.36-.19.12-.4.2-.63.23Z"/>
          <path class="cls-4" d="M718.71,97.36c-.45.06-.92-.06-1.25-.33-.08-.06-.16-.14-.27-.15-.11,0-.21.05-.3.12-.29.2-.61.48-.53.8.03.12.13.24.1.36-.03.13-.19.21-.34.25-.59.14-1.25-.15-1.57-.61s-.33-1.04-.14-1.54c.07-.18.16-.37.33-.49.29-.23.73-.24,1.12-.19.07,0,.15.02.22-.02.1-.05.11-.18.08-.28-.1-.35-.48-.59-.87-.71s-.82-.13-1.23-.19c-.15-.02-.3-.06-.41-.14-.16-.13-.2-.33-.22-.51-.06-.55-.08-1.13.17-1.64s.85-.93,1.49-.87c.35.03.77.18.99-.05.08-.08.11-.19.14-.29.18-.51.65-.92,1.19-1.19s1.14-.41,1.74-.56c.62-.15,1.36-.28,1.86.07.24.16.41.43.71.49.16.03.33,0,.48-.05.48-.13.94-.31,1.42-.4s1.02-.1,1.46.11c.61.29.89.91,1.42,1.29.53.38,1.24.48,1.85.75.7.31,1.26.85,1.54,1.48.05.12.1.24.08.37-.05.36-.55.52-.96.51s-.85-.09-1.22.07c-.49.21-.62.75-.64,1.23s0,.99-.34,1.36c-.18.2-.45.32-.67.48s-.44.37-.44.63c0,.15.07.29.05.44-.03.26-.35.43-.65.44s-.58-.1-.86-.2c-.99-.38-2-.72-3.03-1.03-.32-.1-1.14-.47-1.45-.37-.13.04-.28.28-.41.36-.19.12-.4.2-.63.23Z"/>
          <path class="cls-4" d="M700.69,100.42c-.25-.03-.49-.07-.74-.13-.3-.07-.61-.15-.86-.32-.54-.37-.74-.99-1.22-1.38-.55-.44-1.24-.46-1.94-.57-.15-.02-.3-.06-.41-.14-.16-.13-.2-.33-.22-.51-.06-.55-.08-1.13.17-1.64s.85-.93,1.49-.87c.35.03.77.18.99-.05.08-.08.11-.19.14-.29.18-.51.65-.92,1.19-1.19s1.14-.41,1.74-.56c.62-.15,1.36-.28,1.86.07.24.16.41.43.71.49.16.03.33,0,.48-.05.48-.13.94-.31,1.42-.4s1.02-.1,1.46.11c.61.29.89.91,1.42,1.29.53.38,1.24.48,1.85.75.7.31,1.26.85,1.54,1.48.05.12.1.24.08.37-.05.36-.55.52-.96.51s-.85-.09-1.22.07c-.49.21-.62.75-.64,1.23s0,.99-.34,1.36c-.18.2-.45.32-.67.48s-.44.37-.44.63c0,.15.07.29.05.44-.03.26-.35.43-.65.44s-.58-.1-.86-.2c-1.07-.41-2.26-.94-3.4-1.17-.66-.13-1.34-.15-2.02-.24Z"/>
          <path class="cls-4" d="M719.79,100.65c-.82-.1-1.67-.41-2.2-.97-.47-.49-.51-1.23-1.29-1.46-.39-.11-.82-.13-1.23-.19-.15-.02-.3-.06-.41-.14-.16-.13-.2-.33-.22-.51-.06-.55-.08-1.13.17-1.64s.85-.93,1.49-.87c.35.03.77.18.99-.05.08-.08.11-.19.14-.29.18-.51.65-.92,1.19-1.19s1.14-.41,1.74-.56c.62-.15,1.36-.28,1.86.07.24.16.41.43.71.49.16.03.33,0,.48-.05.48-.13.94-.31,1.42-.4s1.02-.1,1.46.11c.61.29.89.91,1.42,1.29.53.38,1.24.48,1.85.75.7.31,1.26.85,1.54,1.48.05.12.1.24.08.37-.05.36-.55.52-.96.51s-.85-.09-1.22.07c-.49.21-.62.75-.64,1.23s0,.99-.34,1.36c-.18.2-.45.32-.67.48s-.44.37-.44.63c0,.15.07.29.05.44-.03.26-.35.43-.65.44s-.58-.1-.86-.2c-1.03-.39-2.13-.86-3.23-1.07-.71-.14-1.4-.02-2.12-.1-.04,0-.08,0-.11-.01Z"/>
        </g>
        <g>
          <path class="cls-10" d="M703.68,94.93c.43.06.9-.06,1.22-.3.08-.06.15-.13.26-.14.11,0,.2.05.29.1.28.19.59.44.51.73-.03.11-.12.22-.1.33.03.12.19.19.34.23.58.12,1.22-.14,1.53-.56s.32-.95.14-1.41c-.07-.17-.16-.33-.32-.45-.28-.21-.71-.21-1.09-.18-.07,0-.15.02-.21-.01-.1-.05-.1-.16-.08-.25.1-.32.47-.54.85-.64s.79-.12,1.19-.18c.14-.02.29-.05.4-.13.16-.11.19-.3.21-.47.06-.5.08-1.03-.17-1.49s-.83-.85-1.44-.79c-.34.03-.75.16-.96-.05-.08-.07-.1-.17-.14-.26-.18-.47-.63-.84-1.16-1.08s-1.11-.38-1.69-.51c-.61-.14-1.32-.26-1.81.06-.23.15-.4.39-.69.44-.16.03-.32,0-.47-.04-.46-.12-.91-.28-1.39-.37s-.99-.09-1.42.1c-.59.26-.87.83-1.39,1.18-.51.34-1.21.44-1.8.69-.68.28-1.23.77-1.5,1.35-.05.11-.09.22-.08.34.05.32.54.47.94.47s.83-.08,1.19.06c.47.19.61.69.63,1.12s0,.9.33,1.24c.18.18.43.29.66.44s.43.34.43.57c0,.13-.07.27-.05.4.03.23.34.39.63.4s.57-.09.83-.19c.97-.35,1.95-.66,2.95-.94.31-.09,1.1-.43,1.41-.34.13.04.27.26.4.33.18.11.39.18.61.21Z"/>
          <path class="cls-10" d="M715.31,97.58c.43.06.9-.06,1.22-.3.08-.06.15-.13.26-.14.11,0,.2.05.29.1.28.19.59.44.51.73-.03.11-.12.22-.1.33.03.12.19.19.34.23.58.12,1.22-.14,1.53-.56s.32-.95.14-1.41c-.07-.17-.16-.33-.32-.45-.28-.21-.71-.21-1.09-.18-.07,0-.15.02-.21-.01-.1-.05-.1-.16-.08-.25.1-.32.47-.54.85-.64s.79-.12,1.19-.18c.14-.02.29-.05.4-.13.16-.11.19-.3.21-.47.06-.5.08-1.03-.17-1.49s-.83-.85-1.44-.79c-.34.03-.75.16-.96-.05-.08-.07-.1-.17-.14-.26-.18-.47-.63-.84-1.16-1.08s-1.11-.38-1.69-.51c-.61-.14-1.32-.26-1.81.06-.23.15-.4.39-.69.44-.16.03-.32,0-.47-.04-.46-.12-.91-.28-1.39-.37s-.99-.09-1.42.1c-.59.26-.87.83-1.39,1.18-.51.34-1.21.44-1.8.69-.68.28-1.23.77-1.5,1.35-.05.11-.09.22-.08.34.05.32.54.47.94.47s.83-.08,1.19.06c.47.19.61.69.63,1.12s0,.9.33,1.24c.18.18.43.29.66.44s.43.34.43.57c0,.13-.07.27-.05.4.03.23.34.39.63.4s.57-.09.83-.19c.97-.35,1.95-.66,2.95-.94.31-.09,1.1-.43,1.41-.34.13.04.27.26.4.33.18.11.39.18.61.21Z"/>
          <path class="cls-10" d="M703.12,99.81c.43.06.9-.06,1.22-.3.08-.06.15-.13.26-.14.11,0,.2.05.29.1.28.19.59.44.51.73-.03.11-.12.22-.1.33.03.12.19.19.34.23.58.12,1.22-.14,1.53-.56s.32-.95.14-1.41c-.07-.17-.16-.33-.32-.45-.28-.21-.71-.21-1.09-.18-.07,0-.15.02-.21-.01-.1-.05-.1-.16-.08-.25.1-.32.47-.54.85-.64s.79-.12,1.19-.18c.14-.02.29-.05.4-.13.16-.11.19-.3.21-.47.06-.5.08-1.03-.17-1.49s-.83-.85-1.44-.79c-.34.03-.75.16-.96-.05-.08-.07-.1-.17-.14-.26-.18-.47-.63-.84-1.16-1.08s-1.11-.38-1.69-.51c-.61-.14-1.32-.26-1.81.06-.23.15-.4.39-.69.44-.16.03-.32,0-.47-.04-.46-.12-.91-.28-1.39-.37s-.99-.09-1.42.1c-.59.26-.87.83-1.39,1.18-.51.34-1.21.44-1.8.69-.68.28-1.23.77-1.5,1.35-.05.11-.09.22-.08.34.05.32.54.47.94.47s.83-.08,1.19.06c.47.19.61.69.63,1.12s0,.9.33,1.24c.18.18.43.29.66.44s.43.34.43.57c0,.13-.07.27-.05.4.03.23.34.39.63.4s.57-.09.83-.19c.97-.35,1.95-.66,2.95-.94.31-.09,1.1-.43,1.41-.34.13.04.27.26.4.33.18.11.39.18.61.21Z"/>
          <path class="cls-10" d="M696.75,97.58c.43.06.9-.06,1.22-.3.08-.06.15-.13.26-.14.11,0,.2.05.29.1.28.19.59.44.51.73-.03.11-.12.22-.1.33.03.12.19.19.34.23.58.12,1.22-.14,1.53-.56s.32-.95.14-1.41c-.07-.17-.16-.33-.32-.45-.28-.21-.71-.21-1.09-.18-.07,0-.15.02-.21-.01-.1-.05-.1-.16-.08-.25.1-.32.47-.54.85-.64s.79-.12,1.19-.18c.14-.02.29-.05.4-.13.16-.11.19-.3.21-.47.06-.5.08-1.03-.17-1.49s-.83-.85-1.44-.79c-.34.03-.75.16-.96-.05-.08-.07-.1-.17-.14-.26-.18-.47-.63-.84-1.16-1.08s-1.11-.38-1.69-.51c-.61-.14-1.32-.26-1.81.06-.23.15-.4.39-.69.44-.16.03-.32,0-.47-.04-.46-.12-.91-.28-1.39-.37s-.99-.09-1.42.1c-.59.26-.87.83-1.39,1.18-.51.34-1.21.44-1.8.69-.68.28-1.23.77-1.5,1.35-.05.11-.09.22-.08.34.05.32.54.47.94.47s.83-.08,1.19.06c.47.19.61.69.63,1.12s0,.9.33,1.24c.18.18.43.29.66.44s.43.34.43.57c0,.13-.07.27-.05.4.03.23.34.39.63.4s.57-.09.83-.19c.97-.35,1.95-.66,2.95-.94.31-.09,1.1-.43,1.41-.34.13.04.27.26.4.33.18.11.39.18.61.21Z"/>
          <path class="cls-10" d="M714.22,100.22c.75-.11,1.52-.21,2.14-.46.9-.35.41-1.13,1.35-1.39.38-.1.79-.12,1.19-.18.14-.02.29-.05.4-.13.16-.11.19-.3.21-.47.06-.5.08-1.03-.17-1.49s-.83-.85-1.44-.79c-.34.03-.75.16-.96-.05-.08-.07-.1-.17-.14-.26-.18-.47-.63-.84-1.16-1.08s-1.11-.38-1.69-.51c-.61-.14-1.32-.26-1.81.06-.23.15-.4.39-.69.44-.16.03-.32,0-.47-.04-.46-.12-.91-.28-1.39-.37s-.99-.09-1.42.1c-.59.26-.87.83-1.39,1.18-.51.34-1.21.44-1.8.69-.68.28-1.23.77-1.5,1.35-.05.11-.09.22-.08.34.05.32.54.47.94.47s.83-.08,1.19.06c.47.19.61.69.63,1.12s0,.9.33,1.24c.18.18.43.29.66.44s.43.34.43.57c0,.13-.07.27-.05.4.03.23.34.39.63.4s.57-.09.83-.19c1.25-.45,2.52-.82,3.81-1.17.44-.12.92-.19,1.4-.27Z"/>
          <path class="cls-10" d="M695.75,100.94c.87.13,1.66-.53,2.22-1.09.36-.36.38-.77.66-1.11.4-.48.98-.45,1.65-.55.14-.02.29-.05.4-.13.16-.11.19-.3.21-.47.06-.5.08-1.03-.17-1.49s-.83-.85-1.44-.79c-.34.03-.75.16-.96-.05-.08-.07-.1-.17-.14-.26-.18-.47-.63-.84-1.16-1.08s-1.11-.38-1.69-.51c-.61-.14-1.32-.26-1.81.06-.23.15-.4.39-.69.44-.16.03-.32,0-.47-.04-.46-.12-.91-.28-1.39-.37s-.99-.09-1.42.1c-.59.26-.87.83-1.39,1.18-.51.34-1.21.44-1.8.69-.68.28-1.23.77-1.5,1.35-.05.11-.09.22-.08.34.05.32.54.47.94.47s.83-.08,1.19.06c.47.19.61.69.63,1.12s0,.9.33,1.24c.18.18.43.29.66.44s.43.34.43.57c0,.13-.07.27-.05.4.03.23.34.39.63.4s.57-.09.83-.19c.97-.35,1.95-.66,2.95-.94.31-.09,1.1-.43,1.41-.34.13.04.27.26.4.33.21.12.41.2.61.23Z"/>
          <path class="cls-4" d="M705.22,94.59c.43.06.9-.06,1.22-.3.08-.06.15-.13.26-.14.11,0,.2.05.29.1.28.19.59.44.51.73-.03.11-.12.22-.1.33.03.12.19.19.34.23.58.12,1.22-.14,1.53-.56s.32-.95.14-1.41c-.07-.17-.16-.33-.32-.45-.28-.21-.71-.21-1.09-.18-.07,0-.15.02-.21-.01-.1-.05-.1-.16-.08-.25.1-.32.47-.54.85-.64s.79-.12,1.19-.18c.14-.02.29-.05.4-.13.16-.11.19-.3.21-.47.06-.5.08-1.03-.17-1.49s-.83-.85-1.44-.79c-.34.03-.75.16-.96-.05-.08-.07-.1-.17-.14-.26-.18-.47-.63-.84-1.16-1.08s-1.11-.38-1.69-.51c-.61-.14-1.32-.26-1.81.06-.23.15-.4.39-.69.44-.16.03-.32,0-.47-.04-.46-.12-.91-.28-1.39-.37s-.99-.09-1.42.1c-.59.26-.87.83-1.39,1.18-.51.34-1.21.44-1.8.69-.68.28-1.23.77-1.5,1.35-.05.11-.09.22-.08.34.05.32.54.47.94.47s.83-.08,1.19.06c.47.19.61.69.63,1.12s0,.9.33,1.24c.18.18.43.29.66.44s.43.34.43.57c0,.13-.07.27-.05.4.03.23.34.39.63.4s.57-.09.83-.19c.97-.35,1.95-.66,2.95-.94.31-.09,1.1-.43,1.41-.34.13.04.27.26.4.33.18.11.39.18.61.21Z"/>
          <path class="cls-4" d="M716.85,97.23c.43.06.9-.06,1.22-.3.08-.06.15-.13.26-.14.11,0,.2.05.29.1.28.19.59.44.51.73-.03.11-.12.22-.1.33.03.12.19.19.34.23.58.12,1.22-.14,1.53-.56s.32-.95.14-1.41c-.07-.17-.16-.33-.32-.45-.28-.21-.71-.21-1.09-.18-.07,0-.15.02-.21-.01-.1-.05-.1-.16-.08-.25.1-.32.47-.54.85-.64s.79-.12,1.19-.18c.14-.02.29-.05.4-.13.16-.11.19-.3.21-.47.06-.5.08-1.03-.17-1.49s-.83-.85-1.44-.79c-.34.03-.75.16-.96-.05-.08-.07-.1-.17-.14-.26-.18-.47-.63-.84-1.16-1.08s-1.11-.38-1.69-.51c-.61-.14-1.32-.26-1.81.06-.23.15-.4.39-.69.44-.16.03-.32,0-.47-.04-.46-.12-.91-.28-1.39-.37s-.99-.09-1.42.1c-.59.26-.87.83-1.39,1.18-.51.34-1.21.44-1.8.69-.68.28-1.23.77-1.5,1.35-.05.11-.09.22-.08.34.05.32.54.47.94.47s.83-.08,1.19.06c.47.19.61.69.63,1.12s0,.9.33,1.24c.18.18.43.29.66.44s.43.34.43.57c0,.13-.07.27-.05.4.03.23.34.39.63.4s.57-.09.83-.19c.97-.35,1.95-.66,2.95-.94.31-.09,1.1-.43,1.41-.34.13.04.27.26.4.33.18.11.39.18.61.21Z"/>
          <path class="cls-4" d="M704.67,99.47c.43.06.9-.06,1.22-.3.08-.06.15-.13.26-.14.11,0,.2.05.29.1.28.19.59.44.51.73-.03.11-.12.22-.1.33.03.12.19.19.34.23.58.12,1.22-.14,1.53-.56s.32-.95.14-1.41c-.07-.17-.16-.33-.32-.45-.28-.21-.71-.21-1.09-.18-.07,0-.15.02-.21-.01-.1-.05-.1-.16-.08-.25.1-.32.47-.54.85-.64s.79-.12,1.19-.18c.14-.02.29-.05.4-.13.16-.11.19-.3.21-.47.06-.5.08-1.03-.17-1.49s-.83-.85-1.44-.79c-.34.03-.75.16-.96-.05-.08-.07-.1-.17-.14-.26-.18-.47-.63-.84-1.16-1.08s-1.11-.38-1.69-.51c-.61-.14-1.32-.26-1.81.06-.23.15-.4.39-.69.44-.16.03-.32,0-.47-.04-.46-.12-.91-.28-1.39-.37s-.99-.09-1.42.1c-.59.26-.87.83-1.39,1.18-.51.34-1.21.44-1.8.69-.68.28-1.23.77-1.5,1.35-.05.11-.09.22-.08.34.05.32.54.47.94.47s.83-.08,1.19.06c.47.19.61.69.63,1.12s0,.9.33,1.24c.18.18.43.29.66.44s.43.34.43.57c0,.13-.07.27-.05.4.03.23.34.39.63.4s.57-.09.83-.19c.97-.35,1.95-.66,2.95-.94.31-.09,1.1-.43,1.41-.34.13.04.27.26.4.33.18.11.39.18.61.21Z"/>
          <path class="cls-4" d="M698.29,97.23c.43.06.9-.06,1.22-.3.08-.06.15-.13.26-.14.11,0,.2.05.29.1.28.19.59.44.51.73-.03.11-.12.22-.1.33.03.12.19.19.34.23.58.12,1.22-.14,1.53-.56s.32-.95.14-1.41c-.07-.17-.16-.33-.32-.45-.28-.21-.71-.21-1.09-.18-.07,0-.15.02-.21-.01-.1-.05-.1-.16-.08-.25.1-.32.47-.54.85-.64s.79-.12,1.19-.18c.14-.02.29-.05.4-.13.16-.11.19-.3.21-.47.06-.5.08-1.03-.17-1.49s-.83-.85-1.44-.79c-.34.03-.75.16-.96-.05-.08-.07-.1-.17-.14-.26-.18-.47-.63-.84-1.16-1.08s-1.11-.38-1.69-.51c-.61-.14-1.32-.26-1.81.06-.23.15-.4.39-.69.44-.16.03-.32,0-.47-.04-.46-.12-.91-.28-1.39-.37s-.99-.09-1.42.1c-.59.26-.87.83-1.39,1.18-.51.34-1.21.44-1.8.69-.68.28-1.23.77-1.5,1.35-.05.11-.09.22-.08.34.05.32.54.47.94.47s.83-.08,1.19.06c.47.19.61.69.63,1.12s0,.9.33,1.24c.18.18.43.29.66.44s.43.34.43.57c0,.13-.07.27-.05.4.03.23.34.39.63.4s.57-.09.83-.19c.97-.35,1.95-.66,2.95-.94.31-.09,1.1-.43,1.41-.34.13.04.27.26.4.33.18.11.39.18.61.21Z"/>
          <path class="cls-4" d="M715.82,100.03c.24-.03.48-.06.72-.12.3-.06.6-.14.84-.29.52-.33.72-.9,1.19-1.26.53-.4,1.2-.42,1.89-.52.14-.02.29-.05.4-.13.16-.11.19-.3.21-.47.06-.5.08-1.03-.17-1.49s-.83-.85-1.44-.79c-.34.03-.75.16-.96-.05-.08-.07-.1-.17-.14-.26-.18-.47-.63-.84-1.16-1.08s-1.11-.38-1.69-.51c-.61-.14-1.32-.26-1.81.06-.23.15-.4.39-.69.44-.16.03-.32,0-.47-.04-.46-.12-.91-.28-1.39-.37s-.99-.09-1.42.1c-.59.26-.87.83-1.39,1.18-.51.34-1.21.44-1.8.69-.68.28-1.23.77-1.5,1.35-.05.11-.09.22-.08.34.05.32.54.47.94.47s.83-.08,1.19.06c.47.19.61.69.63,1.12s0,.9.33,1.24c.18.18.43.29.66.44s.43.34.43.57c0,.13-.07.27-.05.4.03.23.34.39.63.4s.57-.09.83-.19c1.04-.37,2.2-.86,3.31-1.06.64-.12,1.3-.14,1.96-.22Z"/>
          <path class="cls-4" d="M697.24,100.23c.8-.09,1.62-.37,2.14-.88.46-.45.5-1.12,1.25-1.33.38-.1.79-.12,1.19-.18.14-.02.29-.05.4-.13.16-.11.19-.3.21-.47.06-.5.08-1.03-.17-1.49s-.83-.85-1.44-.79c-.34.03-.75.16-.96-.05-.08-.07-.1-.17-.14-.26-.18-.47-.63-.84-1.16-1.08s-1.11-.38-1.69-.51c-.61-.14-1.32-.26-1.81.06-.23.15-.4.39-.69.44-.16.03-.32,0-.47-.04-.46-.12-.91-.28-1.39-.37s-.99-.09-1.42.1c-.59.26-.87.83-1.39,1.18-.51.34-1.21.44-1.8.69-.68.28-1.23.77-1.5,1.35-.05.11-.09.22-.08.34.05.32.54.47.94.47s.83-.08,1.19.06c.47.19.61.69.63,1.12s0,.9.33,1.24c.18.18.43.29.66.44s.43.34.43.57c0,.13-.07.27-.05.4.03.23.34.39.63.4s.57-.09.83-.19c1-.36,2.07-.78,3.14-.98.7-.13,1.36-.02,2.06-.09.04,0,.07,0,.11-.01Z"/>
        </g>
      </g>
    </g>
  </g>
</svg>