<?xml version="1.0" encoding="UTF-8"?>
<svg id="Layer_2" data-name="Layer 2" xmlns="http://www.w3.org/2000/svg" xmlns:xlink="http://www.w3.org/1999/xlink" viewBox="0 0 960 116.56">
  <defs>
    <style>
      .cls-1 {
        fill: none;
      }

      .cls-2 {
        fill: #44382c;
      }

      .cls-3 {
        fill: #4c3f34;
      }

      .cls-4 {
        opacity: .72;
      }

      .cls-5 {
        clip-path: url(#clippath);
      }
    </style>
    <clipPath id="clippath">
      <rect class="cls-1" y="4.48" width="960" height="108"/>
    </clipPath>
  </defs>
  <g id="Layer_1-2" data-name="Layer 1">
    <g id="Tree_left" data-name="Tree left">
      <g class="cls-5">
        <path class="cls-2" d="M206.22.82c-2.32,2.27-5.46,3.76-8.23,5.22-1.51.79-4.86,2.73-4.93.1-.03-1.41.78-2.81,1.12-4.19.1-.38.2-.76.33-1.13h-.42c-.19.51-.39,1.02-.56,1.52-.45,1.32-.81,2.52-1.01,3.89-.07.5-.14.98-.44,1.41,0,.01-.03.04-.04.05-1.04.87-2.42,1.03-3.7,1.37l-2.88.45c-.41.59-.51.71-1.29.99-1.14.41-2.5.99-3.71,1.62-2.6,1.36-5.19,3.4-7.33,5.21-.53.45-.59.42-.65-.15-.3-2.63.17-5.28.63-7.93.91-2.82,1.42-5.12,4.02-6.94.74-.52,1.52-1.01,2.31-1.48h-8.65c-.34.57-.87,1.09-1.66,1.57-.87.53-1.75.1-2.7-.4-.61-.33-1.4-.71-2.12-1.17h-.7c.83.42,1.65,1,2.16,1.3.69.4,1.03.51,1.48,1.01.02.02.03,0,.03.02-.16.57-.49.57-1.22.98-1.65.91-3.99,2.06-5.88,2.95-1.21.46-3.45,2.22-3.54-.18-.07-1.85,2.07-3.68,3.41-5.05.28-.28.47-.69.78-1.03h-8.7c.21,1.4.46,2.8-.04,4.15-1.31,1.36-2.96,2.13-4.77,2.61-.01,0-.04,0-.05,0-.19.05-.38-.07-.43-.23-.6-2.03-.82-4.48-.59-6.53h-5.82c1.59,4.85,3.29,8.75-1.07,13.63-1.46,1.58-2.65,3.34-4.4,4.64-.01,0-.04.02-.05.02-.05,0-.15.07-.18.03-.25-.44-5.79-2.63-8.75-3.78-7.86-3.09-20.61-2.12-26.91-6.56-3.18-2.24.5-5.39,1.92-7.99h-2.72c-1.66,2.78-3.44,5.37-5.76,7.74-.19.19-.45.33-.56.34-8.87.96-9.06-3.43-9.06-3.44l-2.73-4.63h-3.11c1.01,7.17,7.01,11.41,7.01,11.41,22.6,4.77,32.62,3.69,46.34,9.59.05.02,0,.07.04.12,8.56,11.7,10,17.78,10.9,27.53.21,2.26-.33,4.54-1.63,6.42-.7,1.01-1.48,1.79-2.4,1.57-1.96-.45-3.89-.98-5.76-1.71-9.42-3.64-16.2-11.79-22.05-19.93-3.45-4.8-6.81-12.68-12.12-15.46C60.25,1.01,62.39,1.7,60.41,2.17c1.12,3.4,37.72,22.34,39.7,25.33,2.34,3.52,4.68,7.03,7.04,10.55,1.67,2.49,3.34,4.99,5.3,7.27,3.47,4.04,6.21,7.65,11,9.93,3.67,1.74,7.32,3.51,10.94,5.36,2.96,1.51,6.85,2.71,8.69,5.33.1,1.07.2,2.17.32,3.3,1.29,16.39.21,31.4-2.23,46.6,1.29.08,2.58.15,3.88.23,3.25.19,6.51.37,9.76.49.06-2.32.12-4.67.17-7.09.34-16.64-.84-33.73-2.4-50.44-.16-3.05.99-5.63,2.34-8.26,0,0,.01-.01.02-.02,7.59-13.48,7.36-18.93,18.66-31.13.03-.03.05-.04.06-.06,6.37-8.26,21.63-10.08,30.91-15.31.01,0,.02-.01.03-.02,1.34-1.08,2.59-2.25,3.85-3.41h-2.23ZM153.18,8.6c-.43,5-2.12,9.42-3.53,14.42-1.79,6.34-2.34,10.11-1.6,16.79-.33,2.33-1.67-.05-1.91-.63-6.4-17.41-9.84-12.57,1.49-28.71,1.36-1.45,3.05-3.11,5.16-3.16.02,0,.04,0,.05.01.41.33.39.76.35,1.28ZM171.33,6.82c-.14.79-.38,1.63-.64,2.68-.63,2.55-.55,6.01-1.3,8.55-1.96,6.67-6.51,8.83-11.74,17.48-.76,1.25-3.67,3.44-3.82,2.46-1.86-11.38,2.43-12.83,2.73-23.12.06-2.22.07-3.95,2.21-5.1,3.07-1.46,5.88-3.14,8.77-4.93,1.29-.84,2.57-.85,3.57.39.45.55.36.81.22,1.6Z"/>
        <g class="cls-4">
          <path class="cls-3" d="M205.99,0c-2.32,2.27-5.46,3.76-8.23,5.22-1.51.79-4.86,2.73-4.93.1-.03-1.41.78-2.81,1.12-4.19.1-.38.2-.76.33-1.13h-.42c-.19.51-.39,1.02-.56,1.52-.45,1.32-.81,2.52-1.01,3.89-.07.5-.14.98-.44,1.41,0,.01-.03.04-.04.05-1.04.87-2.42,1.03-3.7,1.37l-2.88.45c-.41.59-.51.71-1.29.99-1.14.41-2.5.99-3.71,1.62-2.6,1.36-5.19,3.4-7.33,5.21-.53.45-.59.42-.65-.15-.3-2.63.17-5.28.63-7.93.91-2.82,1.42-5.12,4.02-6.94.74-.52,1.52-1,2.31-1.48h-8.65c-.34.57-.87,1.09-1.66,1.57-.87.53-1.75.1-2.7-.4-.61-.33-1.4-.71-2.12-1.17h-.7c.83.42,1.65,1,2.16,1.3.69.4,1.03.51,1.48,1.01.02.02.03,0,.03.02-.16.57-.49.57-1.22.98-1.65.91-3.99,2.06-5.88,2.95-1.21.46-3.45,2.22-3.54-.18-.07-1.85,2.07-3.68,3.41-5.05.28-.28.47-.69.78-1.03h-8.7c.21,1.4.46,2.8-.04,4.15-1.31,1.36-2.96,2.13-4.77,2.61-.01,0-.04,0-.05,0-.19.05-.38-.07-.43-.23-.6-2.03-.82-4.48-.59-6.53h-5.82c1.59,4.85,3.29,8.75-1.07,13.63-1.46,1.58-2.65,3.34-4.4,4.64-.01,0-.04.02-.05.02-.05,0-.15.07-.18.03-.25-.44-5.79-2.63-8.75-3.78-7.86-3.09-20.61-2.12-26.91-6.56-3.18-2.24.5-5.39,1.92-7.99h-2.72c-1.66,2.78-3.44,5.37-5.76,7.74-.19.19-.45.33-.56.34-8.87.96-9.06-3.43-9.06-3.44l-2.73-4.63h-3.11c1.01,7.17,7.01,11.41,7.01,11.41,22.6,4.77,32.62,3.69,46.34,9.59.05.02,0,.07.04.12,8.56,11.7,10,17.78,10.9,27.53.21,2.26-.33,4.54-1.63,6.42-.7,1.01-1.48,1.79-2.4,1.57-1.96-.45-3.89-.98-5.76-1.71-9.42-3.64-16.2-11.79-22.05-19.93-3.45-4.8-6.81-12.68-12.12-15.46C60.02.18,62.16.87,60.17,1.34c1.12,3.4,37.72,22.34,39.7,25.33,2.34,3.52,4.68,7.03,7.04,10.55,1.67,2.49,3.34,4.99,5.3,7.27,3.47,4.04,6.21,7.65,11,9.93,3.67,1.74,7.32,3.51,10.94,5.36,2.96,1.51,6.85,2.71,8.69,5.33.1,1.07.2,2.17.32,3.3,1.29,16.39.21,31.4-2.23,46.59h13.66c.05-2.09.11-4.2.15-6.36.34-16.64-.84-33.73-2.4-50.44-.16-3.05.99-5.63,2.34-8.26,0,0,.01-.01.02-.02,7.59-13.48,7.36-18.93,18.66-31.13.03-.03.05-.04.06-.06,6.37-8.26,21.63-10.08,30.91-15.31.01,0,.02-.01.03-.02,1.34-1.08,2.59-2.25,3.85-3.41h-2.23ZM152.94,7.77c-.43,5-2.12,9.42-3.53,14.42-1.79,6.34-2.34,10.11-1.6,16.79-.33,2.33-1.67-.05-1.92-.63-6.4-17.41-9.84-12.57,1.49-28.71,1.36-1.45,3.05-3.11,5.16-3.16.02,0,.04,0,.05.01.41.33.39.76.35,1.28ZM171.09,6c-.14.79-.38,1.63-.64,2.68-.63,2.55-.55,6.01-1.3,8.55-1.96,6.67-6.51,8.83-11.74,17.48-.76,1.25-3.67,3.44-3.82,2.46-1.86-11.38,2.43-12.83,2.73-23.12.06-2.22.07-3.95,2.21-5.1,3.07-1.46,5.88-3.14,8.77-4.93,1.29-.84,2.57-.85,3.57.39.45.55.36.81.22,1.6Z"/>
        </g>
      </g>
    </g>
  </g>
</svg>