<?xml version="1.0" encoding="UTF-8"?>
<svg id="Layer_2" data-name="Layer 2" xmlns="http://www.w3.org/2000/svg" xmlns:xlink="http://www.w3.org/1999/xlink" viewBox="0 0 974.7 147.65">
  <defs>
    <style>
      .cls-1 {
        fill: none;
      }

      .cls-2 {
        fill: #3e4b20;
      }

      .cls-3 {
        fill: url(#linear-gradient-2);
      }

      .cls-4 {
        fill: #313d31;
        opacity: .79;
      }

      .cls-5 {
        fill: #3a2f25;
      }

      .cls-6 {
        fill: #51504e;
      }

      .cls-7 {
        fill: url(#linear-gradient);
      }

      .cls-8 {
        opacity: .72;
      }

      .cls-8, .cls-9 {
        fill: #606060;
      }

      .cls-10 {
        fill: #3c4d43;
      }

      .cls-11 {
        fill: #494846;
      }

      .cls-12 {
        fill: #30311f;
        opacity: .89;
      }

      .cls-13 {
        fill: #665446;
      }

      .cls-14 {
        opacity: .52;
      }

      .cls-15 {
        clip-path: url(#clippath);
      }
    </style>
    <clipPath id="clippath">
      <rect class="cls-1" y="37.36" width="960" height="108"/>
    </clipPath>
    <linearGradient id="linear-gradient" x1="928.42" y1="89.97" x2="968.44" y2="89.97" gradientUnits="userSpaceOnUse">
      <stop offset="0" stop-color="#8c8f60"/>
      <stop offset="0" stop-color="#898c5e"/>
      <stop offset=".1" stop-color="#747753"/>
      <stop offset=".2" stop-color="#64664a"/>
      <stop offset=".33" stop-color="#595a44"/>
      <stop offset=".5" stop-color="#525340"/>
      <stop offset="1" stop-color="#515240"/>
    </linearGradient>
    <linearGradient id="linear-gradient-2" x1="775.89" y1="127.09" x2="958.02" y2="127.09" gradientUnits="userSpaceOnUse">
      <stop offset="0" stop-color="#8dd5e1"/>
      <stop offset=".23" stop-color="#86c0c3"/>
      <stop offset=".72" stop-color="#758c79"/>
      <stop offset="1" stop-color="#6b6d4e"/>
    </linearGradient>
  </defs>
  <g id="Layer_1-2" data-name="Layer 1">
    <g id="trees_and_rocks_right" data-name="trees and rocks right">
      <g class="cls-15">
        <g id="trees_back-foreground" data-name="trees back-foreground">
          <path class="cls-5" d="M948.96,100.37c1.19-3.14,1.34-6.56,1.49-9.92.43-10.17.86-20.34,1.3-30.51.04-1.04.09-2.09,0-3.13-.07-.95-.25-1.89-.37-2.83-.33-2.69-.21-7.69-.52-10.38-.57-5.01-2.75-7.58-2.31-12.61h4.02c.42,5.8,2.55,9.02,3.02,14.73.05.57.82.72,1.06.2,2.97-6.16,8.41-10.01,11.85-16.87,1.32,1.59-1.02,3.15,1,2.7-.04.88-.47,1.69-.89,2.46-3.25,5.86-7.25,11.33-9.86,17.5-2.32,5.48-2.12,9.75-2.5,19-.35,8.47,1.37,19.76,3.11,28.06.29,1.38.54,1.29,1.25,2.51.39.67-9.77-.39-10.9-.28-.22.02-.46.04-.66-.07s-.27-.43-.09-.56Z"/>
          <path class="cls-13" d="M931.39,103.62c-1.19-3.14-1.34-6.56-1.49-9.92-.43-10.17-.86-20.34-1.3-30.51-.04-1.04-.09-2.09,0-3.13.07-.95.25-1.89.37-2.83.33-2.69.21-7.69.52-10.38.57-5.01,2.75-7.58,2.31-12.61h-4.02c-.42,5.8-2.55,9.02-3.02,14.73-.05.57-.82.72-1.06.2-2.97-6.16-8.41-10.01-11.85-16.87-1.32,1.59,1.02,3.15-1,2.7.04.88.47,1.69.89,2.46,3.25,5.86,7.25,11.33,9.86,17.5,2.32,5.48,2.12,9.75,2.5,19,.35,8.47-1.37,19.76-3.11,28.06-.29,1.38-.54,1.29-1.25,2.51-.39.67,9.77-.39,10.9-.28.22.02.46.04.66-.07s.27-.43.09-.56Z"/>
          <path class="cls-5" d="M932.2,104.19c-1.19-3.14-1.34-6.56-1.49-9.92-.43-10.17-.86-20.34-1.3-30.51-.04-1.04-.09-2.09,0-3.13.07-.95.25-1.89.37-2.83.33-2.69.21-7.69.52-10.38.57-5.01,2.75-7.58,2.31-12.61h-4.02c-.42,5.8-2.55,9.02-3.02,14.73-.05.57-.82.72-1.06.2-2.97-6.16-8.41-10.01-11.85-16.87-1.32,1.59,1.02,3.15-1,2.7.04.88.47,1.69.89,2.46,3.25,5.86,7.25,11.33,9.86,17.5,2.32,5.48,2.12,9.75,2.5,19,.35,8.47-1.37,19.76-3.11,28.06-.29,1.38-.54,1.29-1.25,2.51-.39.67,9.77-.39,10.9-.28.22.02.46.04.66-.07s.27-.43.09-.56Z"/>
        </g>
        <g>
          <path class="cls-10" d="M936.79,104.21c.43.07.9-.07,1.22-.35.08-.07.15-.15.26-.16.11-.01.2.06.29.12.28.21.59.51.51.84-.03.13-.12.25-.1.38.03.14.19.22.34.26.58.14,1.22-.16,1.53-.64s.32-1.09.14-1.62c-.07-.19-.16-.38-.32-.52-.28-.24-.71-.25-1.09-.2-.07,0-.15.02-.21-.02-.1-.05-.1-.19-.08-.29.1-.37.47-.62.85-.74s.79-.14,1.19-.2c.14-.02.29-.06.4-.15.16-.13.19-.35.21-.54.06-.58.08-1.19-.17-1.72s-.83-.98-1.44-.91c-.34.04-.75.19-.96-.05-.08-.09-.1-.2-.14-.31-.18-.54-.63-.97-1.16-1.25s-1.11-.44-1.69-.59c-.61-.16-1.32-.3-1.81.07-.23.17-.4.45-.69.51-.16.03-.32,0-.47-.05-.46-.13-.91-.32-1.39-.42s-.99-.11-1.42.11c-.59.3-.87.96-1.39,1.36-.51.4-1.21.51-1.8.79-.68.33-1.23.89-1.5,1.56-.05.12-.09.26-.08.39.05.37.54.54.94.54s.83-.1,1.19.07c.47.22.61.79.63,1.29s0,1.04.33,1.43c.18.21.43.34.66.5s.43.39.43.66c0,.16-.07.31-.05.46.03.27.34.45.63.46s.57-.1.83-.21c.97-.4,1.95-.76,2.95-1.09.31-.1,1.1-.5,1.41-.39.13.04.27.3.4.38.18.13.39.21.61.25Z"/>
          <path class="cls-10" d="M948.42,107.27c.43.07.9-.07,1.22-.35.08-.07.15-.15.26-.16.11-.01.2.06.29.12.28.21.59.51.51.84-.03.13-.12.25-.1.38.03.14.19.22.34.26.58.14,1.22-.16,1.53-.64s.32-1.09.14-1.62c-.07-.19-.16-.38-.32-.52-.28-.24-.71-.25-1.09-.2-.07,0-.15.02-.21-.02-.1-.05-.1-.19-.08-.29.1-.37.47-.62.85-.74s.79-.14,1.19-.2c.14-.02.29-.06.4-.15.16-.13.19-.35.21-.54.06-.58.08-1.19-.17-1.72s-.83-.98-1.44-.91c-.34.04-.75.19-.96-.05-.08-.09-.1-.2-.14-.31-.18-.54-.63-.97-1.16-1.25s-1.11-.44-1.69-.59c-.61-.16-1.32-.3-1.81.07-.23.17-.4.45-.69.51-.16.03-.32,0-.47-.05-.46-.13-.91-.32-1.39-.42s-.99-.11-1.42.11c-.59.3-.87.96-1.39,1.36-.51.4-1.21.51-1.8.79-.68.33-1.23.89-1.5,1.56-.05.12-.09.26-.08.39.05.37.54.54.94.54s.83-.1,1.19.07c.47.22.61.79.63,1.29s0,1.04.33,1.43c.18.21.43.34.66.5s.43.39.43.66c0,.16-.07.31-.05.46.03.27.34.45.63.46s.57-.1.83-.21c.97-.4,1.95-.76,2.95-1.09.31-.1,1.1-.5,1.41-.39.13.04.27.3.4.38.18.13.39.21.61.25Z"/>
          <path class="cls-10" d="M936.24,109.84c.43.07.9-.07,1.22-.35.08-.07.15-.15.26-.16.11-.01.2.06.29.12.28.21.59.51.51.84-.03.13-.12.25-.1.38.03.14.19.22.34.26.58.14,1.22-.16,1.53-.64s.32-1.09.14-1.62c-.07-.19-.16-.38-.32-.52-.28-.24-.71-.25-1.09-.2-.07,0-.15.02-.21-.02-.1-.05-.1-.19-.08-.29.1-.37.47-.62.85-.74s.79-.14,1.19-.2c.14-.02.29-.06.4-.15.16-.13.19-.35.21-.54.06-.58.08-1.19-.17-1.72s-.83-.98-1.44-.91c-.34.04-.75.19-.96-.05-.08-.09-.1-.2-.14-.31-.18-.54-.63-.97-1.16-1.25s-1.11-.44-1.69-.59c-.61-.16-1.32-.3-1.81.07-.23.17-.4.45-.69.51-.16.03-.32,0-.47-.05-.46-.13-.91-.32-1.39-.42s-.99-.11-1.42.11c-.59.3-.87.96-1.39,1.36-.51.4-1.21.51-1.8.79-.68.33-1.23.89-1.5,1.56-.05.12-.09.26-.08.39.05.37.54.54.94.54s.83-.1,1.19.07c.47.22.61.79.63,1.29s0,1.04.33,1.43c.18.21.43.34.66.5s.43.39.43.66c0,.16-.07.31-.05.46.03.27.34.45.63.46s.57-.1.83-.21c.97-.4,1.95-.76,2.95-1.09.31-.1,1.1-.5,1.41-.39.13.04.27.3.4.38.18.13.39.21.61.25Z"/>
          <path class="cls-10" d="M929.86,107.27c.43.07.9-.07,1.22-.35.08-.07.15-.15.26-.16.11-.01.2.06.29.12.28.21.59.51.51.84-.03.13-.12.25-.1.38.03.14.19.22.34.26.58.14,1.22-.16,1.53-.64s.32-1.09.14-1.62c-.07-.19-.16-.38-.32-.52-.28-.24-.71-.25-1.09-.2-.07,0-.15.02-.21-.02-.1-.05-.1-.19-.08-.29.1-.37.47-.62.85-.74s.79-.14,1.19-.2c.14-.02.29-.06.4-.15.16-.13.19-.35.21-.54.06-.58.08-1.19-.17-1.72s-.83-.98-1.44-.91c-.34.04-.75.19-.96-.05-.08-.09-.1-.2-.14-.31-.18-.54-.63-.97-1.16-1.25s-1.11-.44-1.69-.59c-.61-.16-1.32-.3-1.81.07-.23.17-.4.45-.69.51-.16.03-.32,0-.47-.05-.46-.13-.91-.32-1.39-.42s-.99-.11-1.42.11c-.59.3-.87.96-1.39,1.36-.51.4-1.21.51-1.8.79-.68.33-1.23.89-1.5,1.56-.05.12-.09.26-.08.39.05.37.54.54.94.54s.83-.1,1.19.07c.47.22.61.79.63,1.29s0,1.04.33,1.43c.18.21.43.34.66.5s.43.39.43.66c0,.16-.07.31-.05.46.03.27.34.45.63.46s.57-.1.83-.21c.97-.4,1.95-.76,2.95-1.09.31-.1,1.1-.5,1.41-.39.13.04.27.3.4.38.18.13.39.21.61.25Z"/>
          <path class="cls-10" d="M947.33,110.31c.75-.13,1.52-.25,2.14-.53.9-.4.41-1.31,1.35-1.61.38-.12.79-.14,1.19-.2.14-.02.29-.06.4-.15.16-.13.19-.35.21-.54.06-.58.08-1.19-.17-1.72s-.83-.98-1.44-.91c-.34.04-.75.19-.96-.05-.08-.09-.1-.2-.14-.31-.18-.54-.63-.97-1.16-1.25s-1.11-.44-1.69-.59c-.61-.16-1.32-.3-1.81.07-.23.17-.4.45-.69.51-.16.03-.32,0-.47-.05-.46-.13-.91-.32-1.39-.42s-.99-.11-1.42.11c-.59.3-.87.96-1.39,1.36-.51.4-1.21.51-1.8.79-.68.33-1.23.89-1.5,1.56-.05.12-.09.26-.08.39.05.37.54.54.94.54s.83-.1,1.19.07c.47.22.61.79.63,1.29s0,1.04.33,1.43c.18.21.43.34.66.5s.43.39.43.66c0,.16-.07.31-.05.46.03.27.34.45.63.46s.57-.1.83-.21c1.25-.52,2.52-.95,3.81-1.36.44-.14.92-.22,1.4-.31Z"/>
          <path class="cls-10" d="M928.86,111.14c.87.15,1.66-.61,2.22-1.25.36-.42.38-.88.66-1.28.4-.56.98-.52,1.65-.63.14-.02.29-.06.4-.15.16-.13.19-.35.21-.54.06-.58.08-1.19-.17-1.72s-.83-.98-1.44-.91c-.34.04-.75.19-.96-.05-.08-.09-.1-.2-.14-.31-.18-.54-.63-.97-1.16-1.25s-1.11-.44-1.69-.59c-.61-.16-1.32-.3-1.81.07-.23.17-.4.45-.69.51-.16.03-.32,0-.47-.05-.46-.13-.91-.32-1.39-.42s-.99-.11-1.42.11c-.59.3-.87.96-1.39,1.36-.51.4-1.21.51-1.8.79-.68.33-1.23.89-1.5,1.56-.05.12-.09.26-.08.39.05.37.54.54.94.54s.83-.1,1.19.07c.47.22.61.79.63,1.29s0,1.04.33,1.43c.18.21.43.34.66.5s.43.39.43.66c0,.16-.07.31-.05.46.03.27.34.45.63.46s.57-.1.83-.21c.97-.4,1.95-.76,2.95-1.09.31-.1,1.1-.5,1.41-.39.13.04.27.3.4.38.21.14.41.23.61.26Z"/>
          <path class="cls-4" d="M938.34,103.81c.43.07.9-.07,1.22-.35.08-.07.15-.15.26-.16.11-.01.2.06.29.12.28.21.59.51.51.84-.03.13-.12.25-.1.38.03.14.19.22.34.26.58.14,1.22-.16,1.53-.64s.32-1.09.14-1.62c-.07-.19-.16-.38-.32-.52-.28-.24-.71-.25-1.09-.2-.07,0-.15.02-.21-.02-.1-.05-.1-.19-.08-.29.1-.37.47-.62.85-.74s.79-.14,1.19-.2c.14-.02.29-.06.4-.15.16-.13.19-.35.21-.54.06-.58.08-1.19-.17-1.72s-.83-.98-1.44-.91c-.34.04-.75.19-.96-.05-.08-.09-.1-.2-.14-.31-.18-.54-.63-.97-1.16-1.25s-1.11-.44-1.69-.59c-.61-.16-1.32-.3-1.81.07-.23.17-.4.45-.69.51-.16.03-.32,0-.47-.05-.46-.13-.91-.32-1.39-.42s-.99-.11-1.42.11c-.59.3-.87.96-1.39,1.36-.51.4-1.21.51-1.8.79-.68.33-1.23.89-1.5,1.56-.05.12-.09.26-.08.39.05.37.54.54.94.54s.83-.1,1.19.07c.47.22.61.79.63,1.29s0,1.04.33,1.43c.18.21.43.34.66.5s.43.39.43.66c0,.16-.07.31-.05.46.03.27.34.45.63.46s.57-.1.83-.21c.97-.4,1.95-.76,2.95-1.09.31-.1,1.1-.5,1.41-.39.13.04.27.3.4.38.18.13.39.21.61.25Z"/>
          <path class="cls-4" d="M949.97,106.87c.43.07.9-.07,1.22-.35.08-.07.15-.15.26-.16.11-.01.2.06.29.12.28.21.59.51.51.84-.03.13-.12.25-.1.38.03.14.19.22.34.26.58.14,1.22-.16,1.53-.64s.32-1.09.14-1.62c-.07-.19-.16-.38-.32-.52-.28-.24-.71-.25-1.09-.2-.07,0-.15.02-.21-.02-.1-.05-.1-.19-.08-.29.1-.37.47-.62.85-.74s.79-.14,1.19-.2c.14-.02.29-.06.4-.15.16-.13.19-.35.21-.54.06-.58.08-1.19-.17-1.72s-.83-.98-1.44-.91c-.34.04-.75.19-.96-.05-.08-.09-.1-.2-.14-.31-.18-.54-.63-.97-1.16-1.25s-1.11-.44-1.69-.59c-.61-.16-1.32-.3-1.81.07-.23.17-.4.45-.69.51-.16.03-.32,0-.47-.05-.46-.13-.91-.32-1.39-.42s-.99-.11-1.42.11c-.59.3-.87.96-1.39,1.36-.51.4-1.21.51-1.8.79-.68.33-1.23.89-1.5,1.56-.05.12-.09.26-.08.39.05.37.54.54.94.54s.83-.1,1.19.07c.47.22.61.79.63,1.29s0,1.04.33,1.43c.18.21.43.34.66.5s.43.39.43.66c0,.16-.07.31-.05.46.03.27.34.45.63.46s.57-.1.83-.21c.97-.4,1.95-.76,2.95-1.09.31-.1,1.1-.5,1.41-.39.13.04.27.3.4.38.18.13.39.21.61.25Z"/>
          <path class="cls-4" d="M937.79,109.44c.43.07.9-.07,1.22-.35.08-.07.15-.15.26-.16.11-.01.2.06.29.12.28.21.59.51.51.84-.03.13-.12.25-.1.38.03.14.19.22.34.26.58.14,1.22-.16,1.53-.64s.32-1.09.14-1.62c-.07-.19-.16-.38-.32-.52-.28-.24-.71-.25-1.09-.2-.07,0-.15.02-.21-.02-.1-.05-.1-.19-.08-.29.1-.37.47-.62.85-.74s.79-.14,1.19-.2c.14-.02.29-.06.4-.15.16-.13.19-.35.21-.54.06-.58.08-1.19-.17-1.72s-.83-.98-1.44-.91c-.34.04-.75.19-.96-.05-.08-.09-.1-.2-.14-.31-.18-.54-.63-.97-1.16-1.25s-1.11-.44-1.69-.59c-.61-.16-1.32-.3-1.81.07-.23.17-.4.45-.69.51-.16.03-.32,0-.47-.05-.46-.13-.91-.32-1.39-.42s-.99-.11-1.42.11c-.59.3-.87.96-1.39,1.36-.51.4-1.21.51-1.8.79-.68.33-1.23.89-1.5,1.56-.05.12-.09.26-.08.39.05.37.54.54.94.54s.83-.1,1.19.07c.47.22.61.79.63,1.29s0,1.04.33,1.43c.18.21.43.34.66.5s.43.39.43.66c0,.16-.07.31-.05.46.03.27.34.45.63.46s.57-.1.83-.21c.97-.4,1.95-.76,2.95-1.09.31-.1,1.1-.5,1.41-.39.13.04.27.3.4.38.18.13.39.21.61.25Z"/>
          <path class="cls-4" d="M931.41,106.87c.43.07.9-.07,1.22-.35.08-.07.15-.15.26-.16.11-.01.2.06.29.12.28.21.59.51.51.84-.03.13-.12.25-.1.38.03.14.19.22.34.26.58.14,1.22-.16,1.53-.64s.32-1.09.14-1.62c-.07-.19-.16-.38-.32-.52-.28-.24-.71-.25-1.09-.2-.07,0-.15.02-.21-.02-.1-.05-.1-.19-.08-.29.1-.37.47-.62.85-.74s.79-.14,1.19-.2c.14-.02.29-.06.4-.15.16-.13.19-.35.21-.54.06-.58.08-1.19-.17-1.72s-.83-.98-1.44-.91c-.34.04-.75.19-.96-.05-.08-.09-.1-.2-.14-.31-.18-.54-.63-.97-1.16-1.25s-1.11-.44-1.69-.59c-.61-.16-1.32-.3-1.81.07-.23.17-.4.45-.69.51-.16.03-.32,0-.47-.05-.46-.13-.91-.32-1.39-.42s-.99-.11-1.42.11c-.59.3-.87.96-1.39,1.36-.51.4-1.21.51-1.8.79-.68.33-1.23.89-1.5,1.56-.05.12-.09.26-.08.39.05.37.54.54.94.54s.83-.1,1.19.07c.47.22.61.79.63,1.29s0,1.04.33,1.43c.18.21.43.34.66.5s.43.39.43.66c0,.16-.07.31-.05.46.03.27.34.45.63.46s.57-.1.83-.21c.97-.4,1.95-.76,2.95-1.09.31-.1,1.1-.5,1.41-.39.13.04.27.3.4.38.18.13.39.21.61.25Z"/>
          <path class="cls-4" d="M948.94,110.1c.24-.03.48-.07.72-.13.3-.07.6-.16.84-.34.52-.39.72-1.04,1.19-1.45.53-.46,1.2-.48,1.89-.6.14-.02.29-.06.4-.15.16-.13.19-.35.21-.54.06-.58.08-1.19-.17-1.72s-.83-.98-1.44-.91c-.34.04-.75.19-.96-.05-.08-.09-.1-.2-.14-.31-.18-.54-.63-.97-1.16-1.25s-1.11-.44-1.69-.59c-.61-.16-1.32-.3-1.81.07-.23.17-.4.45-.69.51-.16.03-.32,0-.47-.05-.46-.13-.91-.32-1.39-.42s-.99-.11-1.42.11c-.59.3-.87.96-1.39,1.36-.51.4-1.21.51-1.8.79-.68.33-1.23.89-1.5,1.56-.05.12-.09.26-.08.39.05.37.54.54.94.54s.83-.1,1.19.07c.47.22.61.79.63,1.29s0,1.04.33,1.43c.18.21.43.34.66.5s.43.39.43.66c0,.16-.07.31-.05.46.03.27.34.45.63.46s.57-.1.83-.21c1.04-.43,2.2-.99,3.31-1.23.64-.14,1.3-.16,1.96-.25Z"/>
          <path class="cls-4" d="M930.35,110.33c.8-.11,1.62-.43,2.14-1.02.46-.52.5-1.29,1.25-1.53.38-.12.79-.14,1.19-.2.14-.02.29-.06.4-.15.16-.13.19-.35.21-.54.06-.58.08-1.19-.17-1.72s-.83-.98-1.44-.91c-.34.04-.75.19-.96-.05-.08-.09-.1-.2-.14-.31-.18-.54-.63-.97-1.16-1.25s-1.11-.44-1.69-.59c-.61-.16-1.32-.3-1.81.07-.23.17-.4.45-.69.51-.16.03-.32,0-.47-.05-.46-.13-.91-.32-1.39-.42s-.99-.11-1.42.11c-.59.3-.87.96-1.39,1.36-.51.4-1.21.51-1.8.79-.68.33-1.23.89-1.5,1.56-.05.12-.09.26-.08.39.05.37.54.54.94.54s.83-.1,1.19.07c.47.22.61.79.63,1.29s0,1.04.33,1.43c.18.21.43.34.66.5s.43.39.43.66c0,.16-.07.31-.05.46.03.27.34.45.63.46s.57-.1.83-.21c1-.42,2.07-.9,3.14-1.13.7-.15,1.36-.03,2.06-.1.04,0,.07,0,.11-.01Z"/>
        </g>
        <g>
          <path class="cls-10" d="M935.47,114.86c.43.07.9-.07,1.22-.35.08-.07.15-.15.26-.16.11-.01.2.06.29.12.28.21.59.51.51.84-.03.13-.12.25-.1.38.03.14.19.22.34.26.58.14,1.22-.16,1.53-.64s.32-1.09.14-1.62c-.07-.19-.16-.38-.32-.52-.28-.24-.71-.25-1.09-.2-.07,0-.15.02-.21-.02-.1-.05-.1-.19-.08-.29.1-.37.47-.62.85-.74s.79-.14,1.19-.2c.14-.02.29-.06.4-.15.16-.13.19-.35.21-.54.06-.58.08-1.19-.17-1.72s-.83-.98-1.44-.91c-.34.04-.75.19-.96-.05-.08-.09-.1-.2-.14-.31-.18-.54-.63-.97-1.16-1.25s-1.11-.44-1.69-.59c-.61-.16-1.32-.3-1.81.07-.23.17-.4.45-.69.51-.16.03-.32,0-.47-.05-.46-.13-.91-.32-1.39-.42s-.99-.11-1.42.11c-.59.3-.87.96-1.39,1.36-.51.4-1.21.51-1.8.79-.68.33-1.23.89-1.5,1.56-.05.12-.09.26-.08.39.05.37.54.54.94.54s.83-.1,1.19.07c.47.22.61.79.63,1.29s0,1.04.33,1.43c.18.21.43.34.66.5s.43.39.43.66c0,.16-.07.31-.05.46.03.27.34.45.63.46s.57-.1.83-.21c.97-.4,1.95-.76,2.95-1.09.31-.1,1.1-.5,1.41-.39.13.04.27.3.4.38.18.13.39.21.61.25Z"/>
          <path class="cls-10" d="M947.1,117.91c.43.07.9-.07,1.22-.35.08-.07.15-.15.26-.16.11-.01.2.06.29.12.28.21.59.51.51.84-.03.13-.12.25-.1.38.03.14.19.22.34.26.58.14,1.22-.16,1.53-.64s.32-1.09.14-1.62c-.07-.19-.16-.38-.32-.52-.28-.24-.71-.25-1.09-.2-.07,0-.15.02-.21-.02-.1-.05-.1-.19-.08-.29.1-.37.47-.62.85-.74s.79-.14,1.19-.2c.14-.02.29-.06.4-.15.16-.13.19-.35.21-.54.06-.58.08-1.19-.17-1.72s-.83-.98-1.44-.91c-.34.04-.75.19-.96-.05-.08-.09-.1-.2-.14-.31-.18-.54-.63-.97-1.16-1.25s-1.11-.44-1.69-.59c-.61-.16-1.32-.3-1.81.07-.23.17-.4.45-.69.51-.16.03-.32,0-.47-.05-.46-.13-.91-.32-1.39-.42s-.99-.11-1.42.11c-.59.3-.87.96-1.39,1.36-.51.4-1.21.51-1.8.79-.68.33-1.23.89-1.5,1.56-.05.12-.09.26-.08.39.05.37.54.54.94.54s.83-.1,1.19.07c.47.22.61.79.63,1.29s0,1.04.33,1.43c.18.21.43.34.66.5s.43.39.43.66c0,.16-.07.31-.05.46.03.27.34.45.63.46s.57-.1.83-.21c.97-.4,1.95-.76,2.95-1.09.31-.1,1.1-.5,1.41-.39.13.04.27.3.4.38.18.13.39.21.61.25Z"/>
          <path class="cls-10" d="M934.92,120.49c.43.07.9-.07,1.22-.35.08-.07.15-.15.26-.16.11-.01.2.06.29.12.28.21.59.51.51.84-.03.13-.12.25-.1.38.03.14.19.22.34.26.58.14,1.22-.16,1.53-.64s.32-1.09.14-1.62c-.07-.19-.16-.38-.32-.52-.28-.24-.71-.25-1.09-.2-.07,0-.15.02-.21-.02-.1-.05-.1-.19-.08-.29.1-.37.47-.62.85-.74s.79-.14,1.19-.2c.14-.02.29-.06.4-.15.16-.13.19-.35.21-.54.06-.58.08-1.19-.17-1.72s-.83-.98-1.44-.91c-.34.04-.75.19-.96-.05-.08-.09-.1-.2-.14-.31-.18-.54-.63-.97-1.16-1.25s-1.11-.44-1.69-.59c-.61-.16-1.32-.3-1.81.07-.23.17-.4.45-.69.51-.16.03-.32,0-.47-.05-.46-.13-.91-.32-1.39-.42s-.99-.11-1.42.11c-.59.3-.87.96-1.39,1.36-.51.4-1.21.51-1.8.79-.68.33-1.23.89-1.5,1.56-.05.12-.09.26-.08.39.05.37.54.54.94.54s.83-.1,1.19.07c.47.22.61.79.63,1.29s0,1.04.33,1.43c.18.21.43.34.66.5s.43.39.43.66c0,.16-.07.31-.05.46.03.27.34.45.63.46s.57-.1.83-.21c.97-.4,1.95-.76,2.95-1.09.31-.1,1.1-.5,1.41-.39.13.04.27.3.4.38.18.13.39.21.61.25Z"/>
          <path class="cls-10" d="M928.54,117.91c.43.07.9-.07,1.22-.35.08-.07.15-.15.26-.16.11-.01.2.06.29.12.28.21.59.51.51.84-.03.13-.12.25-.1.38.03.14.19.22.34.26.58.14,1.22-.16,1.53-.64s.32-1.09.14-1.62c-.07-.19-.16-.38-.32-.52-.28-.24-.71-.25-1.09-.2-.07,0-.15.02-.21-.02-.1-.05-.1-.19-.08-.29.1-.37.47-.62.85-.74s.79-.14,1.19-.2c.14-.02.29-.06.4-.15.16-.13.19-.35.21-.54.06-.58.08-1.19-.17-1.72s-.83-.98-1.44-.91c-.34.04-.75.19-.96-.05-.08-.09-.1-.2-.14-.31-.18-.54-.63-.97-1.16-1.25s-1.11-.44-1.69-.59c-.61-.16-1.32-.3-1.81.07-.23.17-.4.45-.69.51-.16.03-.32,0-.47-.05-.46-.13-.91-.32-1.39-.42s-.99-.11-1.42.11c-.59.3-.87.96-1.39,1.36-.51.4-1.21.51-1.8.79-.68.33-1.23.89-1.5,1.56-.05.12-.09.26-.08.39.05.37.54.54.94.54s.83-.1,1.19.07c.47.22.61.79.63,1.29s0,1.04.33,1.43c.18.21.43.34.66.5s.43.39.43.66c0,.16-.07.31-.05.46.03.27.34.45.63.46s.57-.1.83-.21c.97-.4,1.95-.76,2.95-1.09.31-.1,1.1-.5,1.41-.39.13.04.27.3.4.38.18.13.39.21.61.25Z"/>
          <path class="cls-10" d="M946.01,120.96c.75-.13,1.52-.25,2.14-.53.9-.4.41-1.31,1.35-1.61.38-.12.79-.14,1.19-.2.14-.02.29-.06.4-.15.16-.13.19-.35.21-.54.06-.58.08-1.19-.17-1.72s-.83-.98-1.44-.91c-.34.04-.75.19-.96-.05-.08-.09-.1-.2-.14-.31-.18-.54-.63-.97-1.16-1.25s-1.11-.44-1.69-.59c-.61-.16-1.32-.3-1.81.07-.23.17-.4.45-.69.51-.16.03-.32,0-.47-.05-.46-.13-.91-.32-1.39-.42s-.99-.11-1.42.11c-.59.3-.87.96-1.39,1.36-.51.4-1.21.51-1.8.79-.68.33-1.23.89-1.5,1.56-.05.12-.09.26-.08.39.05.37.54.54.94.54s.83-.1,1.19.07c.47.22.61.79.63,1.29s0,1.04.33,1.43c.18.21.43.34.66.5s.43.39.43.66c0,.16-.07.31-.05.46.03.27.34.45.63.46s.57-.1.83-.21c1.25-.52,2.52-.95,3.81-1.36.44-.14.92-.22,1.4-.31Z"/>
          <path class="cls-10" d="M927.54,121.78c.87.15,1.66-.61,2.22-1.25.36-.42.38-.88.66-1.28.4-.56.98-.52,1.65-.63.14-.02.29-.06.4-.15.16-.13.19-.35.21-.54.06-.58.08-1.19-.17-1.72s-.83-.98-1.44-.91c-.34.04-.75.19-.96-.05-.08-.09-.1-.2-.14-.31-.18-.54-.63-.97-1.16-1.25s-1.11-.44-1.69-.59c-.61-.16-1.32-.3-1.81.07-.23.17-.4.45-.69.51-.16.03-.32,0-.47-.05-.46-.13-.91-.32-1.39-.42s-.99-.11-1.42.11c-.59.3-.87.96-1.39,1.36-.51.4-1.21.51-1.8.79-.68.33-1.23.89-1.5,1.56-.05.12-.09.26-.08.39.05.37.54.54.94.54s.83-.1,1.19.07c.47.22.61.79.63,1.29s0,1.04.33,1.43c.18.21.43.34.66.5s.43.39.43.66c0,.16-.07.31-.05.46.03.27.34.45.63.46s.57-.1.83-.21c.97-.4,1.95-.76,2.95-1.09.31-.1,1.1-.5,1.41-.39.13.04.27.3.4.38.21.14.41.23.61.26Z"/>
          <path class="cls-4" d="M937.02,114.46c.43.07.9-.07,1.22-.35.08-.07.15-.15.26-.16.11-.01.2.06.29.12.28.21.59.51.51.84-.03.13-.12.25-.1.38.03.14.19.22.34.26.58.14,1.22-.16,1.53-.64s.32-1.09.14-1.62c-.07-.19-.16-.38-.32-.52-.28-.24-.71-.25-1.09-.2-.07,0-.15.02-.21-.02-.1-.05-.1-.19-.08-.29.1-.37.47-.62.85-.74s.79-.14,1.19-.2c.14-.02.29-.06.4-.15.16-.13.19-.35.21-.54.06-.58.08-1.19-.17-1.72s-.83-.98-1.44-.91c-.34.04-.75.19-.96-.05-.08-.09-.1-.2-.14-.31-.18-.54-.63-.97-1.16-1.25s-1.11-.44-1.69-.59c-.61-.16-1.32-.3-1.81.07-.23.17-.4.45-.69.51-.16.03-.32,0-.47-.05-.46-.13-.91-.32-1.39-.42s-.99-.11-1.42.11c-.59.3-.87.96-1.39,1.36-.51.4-1.21.51-1.8.79-.68.33-1.23.89-1.5,1.56-.05.12-.09.26-.08.39.05.37.54.54.94.54s.83-.1,1.19.07c.47.22.61.79.63,1.29s0,1.04.33,1.43c.18.21.43.34.66.5s.43.39.43.66c0,.16-.07.31-.05.46.03.27.34.45.63.46s.57-.1.83-.21c.97-.4,1.95-.76,2.95-1.09.31-.1,1.1-.5,1.41-.39.13.04.27.3.4.38.18.13.39.21.61.25Z"/>
          <path class="cls-4" d="M948.65,117.51c.43.07.9-.07,1.22-.35.08-.07.15-.15.26-.16.11-.01.2.06.29.12.28.21.59.51.51.84-.03.13-.12.25-.1.38.03.14.19.22.34.26.58.14,1.22-.16,1.53-.64s.32-1.09.14-1.62c-.07-.19-.16-.38-.32-.52-.28-.24-.71-.25-1.09-.2-.07,0-.15.02-.21-.02-.1-.05-.1-.19-.08-.29.1-.37.47-.62.85-.74s.79-.14,1.19-.2c.14-.02.29-.06.4-.15.16-.13.19-.35.21-.54.06-.58.08-1.19-.17-1.72s-.83-.98-1.44-.91c-.34.04-.75.19-.96-.05-.08-.09-.1-.2-.14-.31-.18-.54-.63-.97-1.16-1.25s-1.11-.44-1.69-.59c-.61-.16-1.32-.3-1.81.07-.23.17-.4.45-.69.51-.16.03-.32,0-.47-.05-.46-.13-.91-.32-1.39-.42s-.99-.11-1.42.11c-.59.3-.87.96-1.39,1.36-.51.4-1.21.51-1.8.79-.68.33-1.23.89-1.5,1.56-.05.12-.09.26-.08.39.05.37.54.54.94.54s.83-.1,1.19.07c.47.22.61.79.63,1.29s0,1.04.33,1.43c.18.21.43.34.66.5s.43.39.43.66c0,.16-.07.31-.05.46.03.27.34.45.63.46s.57-.1.83-.21c.97-.4,1.95-.76,2.95-1.09.31-.1,1.1-.5,1.41-.39.13.04.27.3.4.38.18.13.39.21.61.25Z"/>
          <path class="cls-4" d="M936.46,120.09c.43.07.9-.07,1.22-.35.08-.07.15-.15.26-.16.11-.01.2.06.29.12.28.21.59.51.51.84-.03.13-.12.25-.1.38.03.14.19.22.34.26.58.14,1.22-.16,1.53-.64s.32-1.09.14-1.62c-.07-.19-.16-.38-.32-.52-.28-.24-.71-.25-1.09-.2-.07,0-.15.02-.21-.02-.1-.05-.1-.19-.08-.29.1-.37.47-.62.85-.74s.79-.14,1.19-.2c.14-.02.29-.06.4-.15.16-.13.19-.35.21-.54.06-.58.08-1.19-.17-1.72s-.83-.98-1.44-.91c-.34.04-.75.19-.96-.05-.08-.09-.1-.2-.14-.31-.18-.54-.63-.97-1.16-1.25s-1.11-.44-1.69-.59c-.61-.16-1.32-.3-1.81.07-.23.17-.4.45-.69.51-.16.03-.32,0-.47-.05-.46-.13-.91-.32-1.39-.42s-.99-.11-1.42.11c-.59.3-.87.96-1.39,1.36-.51.4-1.21.51-1.8.79-.68.33-1.23.89-1.5,1.56-.05.12-.09.26-.08.39.05.37.54.54.94.54s.83-.1,1.19.07c.47.22.61.79.63,1.29s0,1.04.33,1.43c.18.21.43.34.66.5s.43.39.43.66c0,.16-.07.31-.05.46.03.27.34.45.63.46s.57-.1.83-.21c.97-.4,1.95-.76,2.95-1.09.31-.1,1.1-.5,1.41-.39.13.04.27.3.4.38.18.13.39.21.61.25Z"/>
          <path class="cls-4" d="M930.09,117.51c.43.07.9-.07,1.22-.35.08-.07.15-.15.26-.16.11-.01.2.06.29.12.28.21.59.51.51.84-.03.13-.12.25-.1.38.03.14.19.22.34.26.58.14,1.22-.16,1.53-.64s.32-1.09.14-1.62c-.07-.19-.16-.38-.32-.52-.28-.24-.71-.25-1.09-.2-.07,0-.15.02-.21-.02-.1-.05-.1-.19-.08-.29.1-.37.47-.62.85-.74s.79-.14,1.19-.2c.14-.02.29-.06.4-.15.16-.13.19-.35.21-.54.06-.58.08-1.19-.17-1.72s-.83-.98-1.44-.91c-.34.04-.75.19-.96-.05-.08-.09-.1-.2-.14-.31-.18-.54-.63-.97-1.16-1.25s-1.11-.44-1.69-.59c-.61-.16-1.32-.3-1.81.07-.23.17-.4.45-.69.51-.16.03-.32,0-.47-.05-.46-.13-.91-.32-1.39-.42s-.99-.11-1.42.11c-.59.3-.87.96-1.39,1.36-.51.4-1.21.51-1.8.79-.68.33-1.23.89-1.5,1.56-.05.12-.09.26-.08.39.05.37.54.54.94.54s.83-.1,1.19.07c.47.22.61.79.63,1.29s0,1.04.33,1.43c.18.21.43.34.66.5s.43.39.43.66c0,.16-.07.31-.05.46.03.27.34.45.63.46s.57-.1.83-.21c.97-.4,1.95-.76,2.95-1.09.31-.1,1.1-.5,1.41-.39.13.04.27.3.4.38.18.13.39.21.61.25Z"/>
          <path class="cls-4" d="M947.62,120.74c.24-.03.48-.07.72-.13.3-.07.6-.16.84-.34.52-.39.72-1.04,1.19-1.45.53-.46,1.2-.48,1.89-.6.14-.02.29-.06.4-.15.16-.13.19-.35.21-.54.06-.58.08-1.19-.17-1.72s-.83-.98-1.44-.91c-.34.04-.75.19-.96-.05-.08-.09-.1-.2-.14-.31-.18-.54-.63-.97-1.16-1.25s-1.11-.44-1.69-.59c-.61-.16-1.32-.3-1.81.07-.23.17-.4.45-.69.51-.16.03-.32,0-.47-.05-.46-.13-.91-.32-1.39-.42s-.99-.11-1.42.11c-.59.3-.87.96-1.39,1.36-.51.4-1.21.51-1.8.79-.68.33-1.23.89-1.5,1.56-.05.12-.09.26-.08.39.05.37.54.54.94.54s.83-.1,1.19.07c.47.22.61.79.63,1.29s0,1.04.33,1.43c.18.21.43.34.66.5s.43.39.43.66c0,.16-.07.31-.05.46.03.27.34.45.63.46s.57-.1.83-.21c1.04-.43,2.2-.99,3.31-1.23.64-.14,1.3-.16,1.96-.25Z"/>
          <path class="cls-4" d="M929.03,120.97c.8-.11,1.62-.43,2.14-1.02.46-.52.5-1.29,1.25-1.53.38-.12.79-.14,1.19-.2.14-.02.29-.06.4-.15.16-.13.19-.35.21-.54.06-.58.08-1.19-.17-1.72s-.83-.98-1.44-.91c-.34.04-.75.19-.96-.05-.08-.09-.1-.2-.14-.31-.18-.54-.63-.97-1.16-1.25s-1.11-.44-1.69-.59c-.61-.16-1.32-.3-1.81.07-.23.17-.4.45-.69.51-.16.03-.32,0-.47-.05-.46-.13-.91-.32-1.39-.42s-.99-.11-1.42.11c-.59.3-.87.96-1.39,1.36-.51.4-1.21.51-1.8.79-.68.33-1.23.89-1.5,1.56-.05.12-.09.26-.08.39.05.37.54.54.94.54s.83-.1,1.19.07c.47.22.61.79.63,1.29s0,1.04.33,1.43c.18.21.43.34.66.5s.43.39.43.66c0,.16-.07.31-.05.46.03.27.34.45.63.46s.57-.1.83-.21c1-.42,2.07-.9,3.14-1.13.7-.15,1.36-.03,2.06-.1.04,0,.07,0,.11-.01Z"/>
        </g>
        <path class="cls-12" d="M967.25,74.89c-.38.06-.74-.03-1.13-.02-.72,0-1.46.25-2.06.59-.43.23-.87.59-1.41.49-.34-.05-.7-.28-1.14-.34-.13-.02-.26-.03-.4-.04-2.05-.04-4.12,1.35-4.81,2.84-.15.31-.18.64-.37.93-.11.17-.3.31-.52.41-.29.14-.7.3-1,.39-.66.24-.99-.33-1.46-.54-.57-.28-1.4-.23-2.05.06-.44.19-.82.49-1.28.64-.43.14-.91.11-1.36.16-.76.09-1.54.53-1.91,1.09-.23.28-.34.82-.88.7-.27-.04-.66-.17-1.07-.15-.37,0-.75.1-1.09.25-.53.22-1.02.69-1.64.52-.24-.06-.49-.17-.72-.27-1.28-.53-2.96-.37-4.15.37-.76.49-1.06.96-2.1.94-.26,0-.54.02-.8.06-.4.06-.81.15-1.17.01-.42-.17-.79-.6-1.31-.71-1.49-.38-3.25.53-3.92,1.6-.6.92.03,1.35.07,2.18s-.29,1.71-.14,2.61c.05.29.1.58.14.87.11.64.21,1.28.49,1.89.25.56.65,1.07,1.17,1.5-.61.6-.74,1.45-.32,2.09.13.2.31.38.43.59.14.25.18.52.21.8.09.87.01,1.76-.22,2.63-.13.48-.3,1.02.01,1.42.41.54,1.5.66,1.71,1.27.09.27-.03.57-.15.84-.49,1.12-.99,2.24-1.46,3.37-.53,1.3-.76,1.49.55,1.85,2.2.62,4.85,0,7.14.48,1.21.25,2.39.67,3.62.8,3.07.32,6.25-1.38,7.69-4.11.56-1.06.88-2.26,1.64-3.2,1.67-2.07,4.87-2.21,6.79-4.05,1.14-1.09,1.69-2.65,2.17-4.16.49-1.53.96-3.09,1.27-4.67.25-1.31-.07-3.45.59-4.58.61-1.06,2.44-1.94,3.4-2.68,1.48-1.14,2.96-2.27,4.44-3.41"/>
        <path class="cls-7" d="M931.97,87.21c-.76-.03-1.84-1.11-2.18-1.68-.53-.98.34-.85.93-.28.17.15.32.32.45.45.15.16.25.25.29.23.05-.02.03-.18,0-.42-.03-.44-.12-1,.24-1.37.1-.09.24-.1.35-.03.39.26.42,1.04.47,1.47.03.67.1,1.55-.53,1.62h-.01ZM934.66,88.2c-.32-.38-.7-.88-.66-1.31.03-.28.39-.31.67-.18.74.3,1.26,1.06,1.67,1.51.09.08.09,0,.08-.08-.06-.41-.13-.9-.1-1.32.02-.33.04-.66.23-.94.48-.57.93.17.98.56.55,2.92.2,4.9-2.86,1.78h-.01ZM939.04,89.59c.15-.14.46.11.59.25.41.41-.1.98-.76.68-.24-.1-.67-.43-.61-.65.07-.06.35.09.5.06.18-.04.19-.24.28-.34h0ZM943.14,93.83c-.85-.02-2.13-1.27-2.59-1.86-.25-.31-.56-.89-.42-1.14.12-.27.53-.17.78-.04.47.24.95.75,1.25,1.13.2.23.31.41.35.34.02-.06-.02-.28-.06-.56-.04-.32-.05-.63-.04-.93.03-.33.05-.72.33-.97.18-.15.42-.12.6.07.28.33.31.75.37,1.13.1.95.39,2.72-.57,2.83h-.01ZM946.56,93.25c-.53-.02-1.13-.63-1.35-1.03-.12-.24-.06-.38.14-.33.22.07.43.26.6.37.23.16.29.12.29-.12,0-.16.01-.43.1-.58.47-.67.93,1.69.23,1.68h-.01ZM937.25,99.82c.37.25.51,1.44.17,1.73-.53.34-1.65-.85-1.6-1.2.1-.37.79.35,1,.38.1,0,.09-.12.1-.18,0-.15,0-.83.33-.73h0ZM941.66,87.03c-.82.15-1.92-.64-2.44-1.14-.32-.3-.66-.91-.02-.83.46.07.93.44,1.26.67.19.13.29.2.32.16.02-.21-.2-.65-.24-.96-.06-.31-.1-.85.3-.89.35.04.52.45.66.66.07.12.12.19.17.19.06,0,.1-.07.16-.19.12-.22.27-.7.66-.66.35.08.48.43.56.68.14.56,0,1.11-.38,1.59-.24.3-.55.62-1.01.71h-.02ZM946.02,89.51c-.72-.03-1.68-.96-2.09-1.48-.22-.26-.51-.85-.29-1,.16-.12.39-.03.56.05.35.17.74.58.98.84.16.18.27.29.31.27.05.01,0-.34-.01-.52-.02-.4-.13-1.25.39-1.46.64-.07.67,1.17.72,1.56.04.71.12,1.66-.54,1.74h-.01ZM952.33,87.88c.29.37.03.94-.08,1.35-.42,1.34-1.31,3.65-2.57,1.89-.51-.73-1.26-2.2-.74-2.94.53-.45,1.11.52,1.29,1.05.08.23.16.51.22.72.04.11.06.17.09.16.11-.13.14-.4.21-.57.12-.39.84-2.21,1.57-1.67h0ZM950.47,83c.43.27.45.87.52,1.29.19,1.37.38,3.72-1.58,2.4-.72-.5-1.37-1.09-1.8-1.76-.26-.41-.5-1.13.25-1,.36.07.96.53,1.32.97.14.16.3.36.41.49.09.1.14.15.16.14.02,0,.02-.05.01-.13-.02-.14-.05-.31-.07-.46-.06-.4-.19-2.27.74-1.94h0ZM932.19,100.2c-.13-.05-.31-.11-.36-.22,0-.1.4-.07.49-.17.07-.07.02-.2,0-.29-.01-.07-.03-.13.04-.17.11-.08.52,0,.71.09.27.1.44.4.28.62-.22.28-.75.26-1.14.13h-.02ZM958.64,83.66c.45.73.28,1.92-.69,2.39-.78.34-1.6-.04-2.34-.37-.56-.27-1.1-.57-1.54-.95-.37-.32-.86-.92-.18-1.01.54-.04,1.38.41,1.92.78.53.34.74.55.37-.1-.22-.41-1.02-2.02-.17-2.15.77.04.94,1.17,1.4,1.41.4.13.74-.62,1.22-.01h0ZM938.4,96.49c.43.06.85.44,1.21.77,1.63,1.51-.59,1.1-1.69.67-.31-.12-.92-.45-.45-.53.35-.04.88.13,1.23.2.37.09.2-.07.07-.2-.14-.14-.36-.35-.46-.52-.07-.12-.18-.37.08-.38h0ZM934.21,96.53c.05.2-.07.43-.35.51-.45.11-.88-.2-1.08-.47-.07-.1-.17-.26,0-.25.16,0,.37.15.51.04.1-.07.15-.28.24-.33.27-.08.63.31.68.49h0ZM938.06,93.12c.47.05.87.5,1.16.78.79.8,2.19,2.34.14,2.09-.74-.1-1.49-.3-2.13-.6-.45-.2-1.13-.7-.38-.81.36-.04.92.11,1.3.23.23.07.41.14.61.2.05.01.09.03.12,0,.01-.01,0-.03-.01-.05-.06-.09-.29-.31-.51-.56-.1-.12-.2-.24-.29-.36-.21-.27-.55-.9-.03-.94h.01ZM962.47,78.32c.4.94-.39,2.3-1.74,2.51-.75.05-1.27-.42-1.79-.84-.55-.47-1.56-1.49-1.29-2.11.38-.43,1.24.28,1.62.7.22.21.45.58.67.75.03,0,.04-.02.04-.09,0-.04,0-.1-.02-.18-.08-.64-.15-1.3.09-1.91.21-.47.69-.46.92,0,.15.27.18.68.25.9.03.07.05.15.13.19.16.05.31-.09.46-.14.28-.13.53-.06.66.21h0ZM930.45,92.26c1.24.29,3.01-.33,3.26-1.36.06-.57-.57-.96-1.13-1.36-.63-.41-1.97-1.17-2.78-.95-.55.29.39.94.94,1.23.28.16.77.33.99.5.01.02-.03.03-.12.03-.06,0-.14,0-.23-.01-.84-.05-1.71-.1-2.51.09-.62.17-.6.53,0,.7.35.11.9.12,1.19.18.09.02.2.04.25.1.06.12-.11.24-.17.35-.17.21-.07.4.29.5h.01ZM935.1,102.63c.05.2-.07.43-.35.51-.45.11-.88-.2-1.08-.47-.07-.1-.17-.26,0-.25.16,0,.37.15.51.04.1-.07.15-.28.24-.33.27-.08.63.31.68.49h0ZM967.75,78.33c.26.04.56-.06.67-.27.13-.34-.27-.67-.64-.82-.13-.05-.34-.12-.33,0,.01.12.2.28.06.39-.1.08-.37.12-.43.19-.1.21.42.47.65.51h.01ZM935.11,91.78c.32.22.46,1.42-.03,1.57-.53.1-1.27-.71-1.27-1.05.06-.29.57.16.79.23.18.05.17-.14.19-.24.03-.13.06-.59.31-.51h0Z"/>
        <g>
          <path class="cls-10" d="M944.48,107.74c.43.13.9-.12,1.22-.65.08-.13.15-.27.26-.29.11-.02.2.11.29.22.28.4.59.94.51,1.55-.03.24-.12.47-.1.71.03.26.19.41.34.48.58.26,1.22-.3,1.53-1.19s.32-2.02.14-3.01c-.07-.36-.16-.71-.32-.96-.28-.44-.71-.46-1.09-.38-.07.02-.15.03-.21-.03-.1-.1-.1-.35-.08-.54.1-.68.47-1.15.85-1.38s.79-.25,1.19-.38c.14-.05.29-.11.4-.28.16-.24.19-.64.21-1,.06-1.08.08-2.2-.17-3.19s-.83-1.81-1.44-1.69c-.34.07-.75.35-.96-.1-.08-.16-.1-.37-.14-.57-.18-1-.63-1.79-1.16-2.31s-1.11-.81-1.69-1.09c-.61-.29-1.32-.55-1.81.13-.23.32-.4.84-.69.95-.16.06-.32,0-.47-.09-.46-.25-.91-.6-1.39-.79s-.99-.2-1.42.21c-.59.56-.87,1.77-1.39,2.52-.51.73-1.21.94-1.8,1.47-.68.6-1.23,1.65-1.5,2.89-.05.23-.09.47-.08.72.05.69.54,1.01.94,1s.83-.18,1.19.14c.47.42.61,1.47.63,2.39s0,1.93.33,2.64c.18.38.43.63.66.94s.43.73.43,1.22c0,.29-.07.57-.05.86.03.5.34.84.63.86s.57-.19.83-.4c.97-.74,1.95-1.41,2.95-2.01.31-.19,1.1-.92,1.41-.73.13.08.27.55.4.71.18.23.39.39.61.46Z"/>
          <path class="cls-10" d="M956.11,113.4c.43.13.9-.12,1.22-.65.08-.13.15-.27.26-.29.11-.02.2.11.29.22.28.4.59.94.51,1.55-.03.24-.12.47-.1.71.03.26.19.41.34.48.58.26,1.22-.3,1.53-1.19s.32-2.02.14-3.01c-.07-.36-.16-.71-.32-.96-.28-.44-.71-.46-1.09-.38-.07.02-.15.03-.21-.03-.1-.1-.1-.35-.08-.54.1-.68.47-1.15.85-1.38s.79-.25,1.19-.38c.14-.05.29-.11.4-.28.16-.24.19-.64.21-1,.06-1.08.08-2.2-.17-3.19s-.83-1.81-1.44-1.69c-.34.07-.75.35-.96-.1-.08-.16-.1-.37-.14-.57-.18-1-.63-1.79-1.16-2.31s-1.11-.81-1.69-1.09c-.61-.29-1.32-.55-1.81.13-.23.32-.4.84-.69.95-.16.06-.32,0-.47-.09-.46-.25-.91-.6-1.39-.79s-.99-.2-1.42.21c-.59.56-.87,1.77-1.39,2.52-.51.73-1.21.94-1.8,1.47-.68.6-1.23,1.65-1.5,2.89-.05.23-.09.47-.08.72.05.69.54,1.01.94,1s.83-.18,1.19.14c.47.42.61,1.47.63,2.39s0,1.93.33,2.64c.18.38.43.63.66.94s.43.73.43,1.22c0,.29-.07.57-.05.86.03.5.34.84.63.86s.57-.19.83-.4c.97-.74,1.95-1.41,2.95-2.01.31-.19,1.1-.92,1.41-.73.13.08.27.55.4.71.18.23.39.39.61.46Z"/>
          <path class="cls-10" d="M943.92,118.17c.43.13.9-.12,1.22-.65.08-.13.15-.27.26-.29.11-.02.2.11.29.22.28.4.59.94.51,1.55-.03.24-.12.47-.1.71.03.26.19.41.34.48.58.26,1.22-.3,1.53-1.19s.32-2.02.14-3.01c-.07-.36-.16-.71-.32-.96-.28-.44-.71-.46-1.09-.38-.07.02-.15.03-.21-.03-.1-.1-.1-.35-.08-.54.1-.68.47-1.15.85-1.38s.79-.25,1.19-.38c.14-.05.29-.11.4-.28.16-.24.19-.64.21-1,.06-1.08.08-2.2-.17-3.19s-.83-1.81-1.44-1.69c-.34.07-.75.35-.96-.1-.08-.16-.1-.37-.14-.57-.18-1-.63-1.79-1.16-2.31s-1.11-.81-1.69-1.09c-.61-.29-1.32-.55-1.81.13-.23.32-.4.84-.69.95-.16.06-.32,0-.47-.09-.46-.25-.91-.6-1.39-.79s-.99-.2-1.42.21c-.59.56-.87,1.77-1.39,2.52-.51.73-1.21.94-1.8,1.47-.68.6-1.23,1.65-1.5,2.89-.05.23-.09.47-.08.72.05.69.54,1.01.94,1s.83-.18,1.19.14c.47.42.61,1.47.63,2.39s0,1.93.33,2.64c.18.38.43.63.66.94s.43.73.43,1.22c0,.29-.07.57-.05.86.03.5.34.84.63.86s.57-.19.83-.4c.97-.74,1.95-1.41,2.95-2.01.31-.19,1.1-.92,1.41-.73.13.08.27.55.4.71.18.23.39.39.61.46Z"/>
          <path class="cls-10" d="M937.55,113.4c.43.13.9-.12,1.22-.65.08-.13.15-.27.26-.29.11-.02.2.11.29.22.28.4.59.94.51,1.55-.03.24-.12.47-.1.71.03.26.19.41.34.48.58.26,1.22-.3,1.53-1.19s.32-2.02.14-3.01c-.07-.36-.16-.71-.32-.96-.28-.44-.71-.46-1.09-.38-.07.02-.15.03-.21-.03-.1-.1-.1-.35-.08-.54.1-.68.47-1.15.85-1.38s.79-.25,1.19-.38c.14-.05.29-.11.4-.28.16-.24.19-.64.21-1,.06-1.08.08-2.2-.17-3.19s-.83-1.81-1.44-1.69c-.34.07-.75.35-.96-.1-.08-.16-.1-.37-.14-.57-.18-1-.63-1.79-1.16-2.31s-1.11-.81-1.69-1.09c-.61-.29-1.32-.55-1.81.13-.23.32-.4.84-.69.95-.16.06-.32,0-.47-.09-.46-.25-.91-.6-1.39-.79s-.99-.2-1.42.21c-.59.56-.87,1.77-1.39,2.52-.51.73-1.21.94-1.8,1.47-.68.6-1.23,1.65-1.5,2.89-.05.23-.09.47-.08.72.05.69.54,1.01.94,1s.83-.18,1.19.14c.47.42.61,1.47.63,2.39s0,1.93.33,2.64c.18.38.43.63.66.94s.43.73.43,1.22c0,.29-.07.57-.05.86.03.5.34.84.63.86s.57-.19.83-.4c.97-.74,1.95-1.41,2.95-2.01.31-.19,1.1-.92,1.41-.73.13.08.27.55.4.71.18.23.39.39.61.46Z"/>
          <path class="cls-10" d="M955.02,119.04c.75-.24,1.52-.46,2.14-.97.9-.74.41-2.42,1.35-2.98.38-.22.79-.25,1.19-.38.14-.05.29-.11.4-.28.16-.24.19-.64.21-1,.06-1.08.08-2.2-.17-3.19s-.83-1.81-1.44-1.69c-.34.07-.75.35-.96-.1-.08-.16-.1-.37-.14-.57-.18-1-.63-1.79-1.16-2.31s-1.11-.81-1.69-1.09c-.61-.29-1.32-.55-1.81.13-.23.32-.4.84-.69.95-.16.06-.32,0-.47-.09-.46-.25-.91-.6-1.39-.79s-.99-.2-1.42.21c-.59.56-.87,1.77-1.39,2.52-.51.73-1.21.94-1.8,1.47-.68.6-1.23,1.65-1.5,2.89-.05.23-.09.47-.08.72.05.69.54,1.01.94,1s.83-.18,1.19.14c.47.42.61,1.47.63,2.39s0,1.93.33,2.64c.18.38.43.63.66.94s.43.73.43,1.22c0,.29-.07.57-.05.86.03.5.34.84.63.86s.57-.19.83-.4c1.25-.96,2.52-1.76,3.81-2.51.44-.25.92-.42,1.4-.57Z"/>
          <path class="cls-10" d="M936.55,120.57c.87.27,1.66-1.13,2.22-2.32.36-.77.38-1.64.66-2.37.4-1.03.98-.96,1.65-1.17.14-.05.29-.11.4-.28.16-.24.19-.64.21-1,.06-1.08.08-2.2-.17-3.19s-.83-1.81-1.44-1.69c-.34.07-.75.35-.96-.1-.08-.16-.1-.37-.14-.57-.18-1-.63-1.79-1.16-2.31s-1.11-.81-1.69-1.09c-.61-.29-1.32-.55-1.81.13-.23.32-.4.84-.69.95-.16.06-.32,0-.47-.09-.46-.25-.91-.6-1.39-.79s-.99-.2-1.42.21c-.59.56-.87,1.77-1.39,2.52-.51.73-1.21.94-1.8,1.47-.68.6-1.23,1.65-1.5,2.89-.05.23-.09.47-.08.72.05.69.54,1.01.94,1s.83-.18,1.19.14c.47.42.61,1.47.63,2.39s0,1.93.33,2.64c.18.38.43.63.66.94s.43.73.43,1.22c0,.29-.07.57-.05.86.03.5.34.84.63.86s.57-.19.83-.4c.97-.74,1.95-1.41,2.95-2.01.31-.19,1.1-.92,1.41-.73.13.08.27.55.4.71.21.27.41.42.61.48Z"/>
          <path class="cls-4" d="M946.02,106.99c.43.13.9-.12,1.22-.65.08-.13.15-.27.26-.29.11-.02.2.11.29.22.28.4.59.94.51,1.55-.03.24-.12.47-.1.71.03.26.19.41.34.48.58.26,1.22-.3,1.53-1.19s.32-2.02.14-3.01c-.07-.36-.16-.71-.32-.96-.28-.44-.71-.46-1.09-.38-.07.02-.15.03-.21-.03-.1-.1-.1-.35-.08-.54.1-.68.47-1.15.85-1.38s.79-.25,1.19-.38c.14-.05.29-.11.4-.28.16-.24.19-.64.21-1,.06-1.08.08-2.2-.17-3.19s-.83-1.81-1.44-1.69c-.34.07-.75.35-.96-.1-.08-.16-.1-.37-.14-.57-.18-1-.63-1.79-1.16-2.31s-1.11-.81-1.69-1.09c-.61-.29-1.32-.55-1.81.13-.23.32-.4.84-.69.95-.16.06-.32,0-.47-.09-.46-.25-.91-.6-1.39-.79s-.99-.2-1.42.21c-.59.56-.87,1.77-1.39,2.52-.51.73-1.21.94-1.8,1.47-.68.6-1.23,1.65-1.5,2.89-.05.23-.09.47-.08.72.05.69.54,1.01.94,1s.83-.18,1.19.14c.47.42.61,1.47.63,2.39s0,1.93.33,2.64c.18.38.43.63.66.94s.43.73.43,1.22c0,.29-.07.57-.05.86.03.5.34.84.63.86s.57-.19.83-.4c.97-.74,1.95-1.41,2.95-2.01.31-.19,1.1-.92,1.41-.73.13.08.27.55.4.71.18.23.39.39.61.46Z"/>
          <path class="cls-4" d="M957.65,112.66c.43.13.9-.12,1.22-.65.08-.13.15-.27.26-.29.11-.02.2.11.29.22.28.4.59.94.51,1.55-.03.24-.12.47-.1.71.03.26.19.41.34.48.58.26,1.22-.3,1.53-1.19s.32-2.02.14-3.01c-.07-.36-.16-.71-.32-.96-.28-.44-.71-.46-1.09-.38-.07.02-.15.03-.21-.03-.1-.1-.1-.35-.08-.54.1-.68.47-1.15.85-1.38s.79-.25,1.19-.38c.14-.05.29-.11.4-.28.16-.24.19-.64.21-1,.06-1.08.08-2.2-.17-3.19s-.83-1.81-1.44-1.69c-.34.07-.75.35-.96-.1-.08-.16-.1-.37-.14-.57-.18-1-.63-1.79-1.16-2.31s-1.11-.81-1.69-1.09c-.61-.29-1.32-.55-1.81.13-.23.32-.4.84-.69.95-.16.06-.32,0-.47-.09-.46-.25-.91-.6-1.39-.79s-.99-.2-1.42.21c-.59.56-.87,1.77-1.39,2.52-.51.73-1.21.94-1.8,1.47-.68.6-1.23,1.65-1.5,2.89-.05.23-.09.47-.08.72.05.69.54,1.01.94,1s.83-.18,1.19.14c.47.42.61,1.47.63,2.39s0,1.93.33,2.64c.18.38.43.63.66.94s.43.73.43,1.22c0,.29-.07.57-.05.86.03.5.34.84.63.86s.57-.19.83-.4c.97-.74,1.95-1.41,2.95-2.01.31-.19,1.1-.92,1.41-.73.13.08.27.55.4.71.18.23.39.39.61.46Z"/>
          <path class="cls-4" d="M945.47,117.43c.43.13.9-.12,1.22-.65.08-.13.15-.27.26-.29.11-.02.2.11.29.22.28.4.59.94.51,1.55-.03.24-.12.47-.1.71.03.26.19.41.34.48.58.26,1.22-.3,1.53-1.19s.32-2.02.14-3.01c-.07-.36-.16-.71-.32-.96-.28-.44-.71-.46-1.09-.38-.07.02-.15.03-.21-.03-.1-.1-.1-.35-.08-.54.1-.68.47-1.15.85-1.38s.79-.25,1.19-.38c.14-.05.29-.11.4-.28.16-.24.19-.64.21-1,.06-1.08.08-2.2-.17-3.19s-.83-1.81-1.44-1.69c-.34.07-.75.35-.96-.1-.08-.16-.1-.37-.14-.57-.18-1-.63-1.79-1.16-2.31s-1.11-.81-1.69-1.09c-.61-.29-1.32-.55-1.81.13-.23.32-.4.84-.69.95-.16.06-.32,0-.47-.09-.46-.25-.91-.6-1.39-.79s-.99-.2-1.42.21c-.59.56-.87,1.77-1.39,2.52-.51.73-1.21.94-1.8,1.47-.68.6-1.23,1.65-1.5,2.89-.05.23-.09.47-.08.72.05.69.54,1.01.94,1s.83-.18,1.19.14c.47.42.61,1.47.63,2.39s0,1.93.33,2.64c.18.38.43.63.66.94s.43.73.43,1.22c0,.29-.07.57-.05.86.03.5.34.84.63.86s.57-.19.83-.4c.97-.74,1.95-1.41,2.95-2.01.31-.19,1.1-.92,1.41-.73.13.08.27.55.4.71.18.23.39.39.61.46Z"/>
          <path class="cls-4" d="M939.09,112.66c.43.13.9-.12,1.22-.65.08-.13.15-.27.26-.29.11-.02.2.11.29.22.28.4.59.94.51,1.55-.03.24-.12.47-.1.71.03.26.19.41.34.48.58.26,1.22-.3,1.53-1.19s.32-2.02.14-3.01c-.07-.36-.16-.71-.32-.96-.28-.44-.71-.46-1.09-.38-.07.02-.15.03-.21-.03-.1-.1-.1-.35-.08-.54.1-.68.47-1.15.85-1.38s.79-.25,1.19-.38c.14-.05.29-.11.4-.28.16-.24.19-.64.21-1,.06-1.08.08-2.2-.17-3.19s-.83-1.81-1.44-1.69c-.34.07-.75.35-.96-.1-.08-.16-.1-.37-.14-.57-.18-1-.63-1.79-1.16-2.31s-1.11-.81-1.69-1.09c-.61-.29-1.32-.55-1.81.13-.23.32-.4.84-.69.95-.16.06-.32,0-.47-.09-.46-.25-.91-.6-1.39-.79s-.99-.2-1.42.21c-.59.56-.87,1.77-1.39,2.52-.51.73-1.21.94-1.8,1.47-.68.6-1.23,1.65-1.5,2.89-.05.23-.09.47-.08.72.05.69.54,1.01.94,1s.83-.18,1.19.14c.47.42.61,1.47.63,2.39s0,1.93.33,2.64c.18.38.43.63.66.94s.43.73.43,1.22c0,.29-.07.57-.05.86.03.5.34.84.63.86s.57-.19.83-.4c.97-.74,1.95-1.41,2.95-2.01.31-.19,1.1-.92,1.41-.73.13.08.27.55.4.71.18.23.39.39.61.46Z"/>
          <path class="cls-4" d="M956.62,118.64c.24-.06.48-.14.72-.25.3-.13.6-.29.84-.62.52-.72.72-1.93,1.19-2.69.53-.86,1.2-.89,1.89-1.11.14-.05.29-.11.4-.28.16-.24.19-.64.21-1,.06-1.08.08-2.2-.17-3.19s-.83-1.81-1.44-1.69c-.34.07-.75.35-.96-.1-.08-.16-.1-.37-.14-.57-.18-1-.63-1.79-1.16-2.31s-1.11-.81-1.69-1.09c-.61-.29-1.32-.55-1.81.13-.23.32-.4.84-.69.95-.16.06-.32,0-.47-.09-.46-.25-.91-.6-1.39-.79s-.99-.2-1.42.21c-.59.56-.87,1.77-1.39,2.52-.51.73-1.21.94-1.8,1.47-.68.6-1.23,1.65-1.5,2.89-.05.23-.09.47-.08.72.05.69.54,1.01.94,1s.83-.18,1.19.14c.47.42.61,1.47.63,2.39s0,1.93.33,2.64c.18.38.43.63.66.94s.43.73.43,1.22c0,.29-.07.57-.05.86.03.5.34.84.63.86s.57-.19.83-.4c1.04-.8,2.2-1.84,3.31-2.27.64-.25,1.3-.3,1.96-.47Z"/>
          <path class="cls-4" d="M938.04,119.07c.8-.2,1.62-.8,2.14-1.89.46-.96.5-2.4,1.25-2.84.38-.22.79-.25,1.19-.38.14-.05.29-.11.4-.28.16-.24.19-.64.21-1,.06-1.08.08-2.2-.17-3.19s-.83-1.81-1.44-1.69c-.34.07-.75.35-.96-.1-.08-.16-.1-.37-.14-.57-.18-1-.63-1.79-1.16-2.31s-1.11-.81-1.69-1.09c-.61-.29-1.32-.55-1.81.13-.23.32-.4.84-.69.95-.16.06-.32,0-.47-.09-.46-.25-.91-.6-1.39-.79s-.99-.2-1.42.21c-.59.56-.87,1.77-1.39,2.52-.51.73-1.21.94-1.8,1.47-.68.6-1.23,1.65-1.5,2.89-.05.23-.09.47-.08.72.05.69.54,1.01.94,1s.83-.18,1.19.14c.47.42.61,1.47.63,2.39s0,1.93.33,2.64c.18.38.43.63.66.94s.43.73.43,1.22c0,.29-.07.57-.05.86.03.5.34.84.63.86s.57-.19.83-.4c1-.77,2.07-1.67,3.14-2.09.7-.27,1.36-.05,2.06-.19.04,0,.07-.02.11-.03Z"/>
        </g>
        <g>
          <path class="cls-10" d="M955.82,102.5c-.43.12-.9-.11-1.22-.6-.08-.12-.15-.25-.26-.27-.11-.02-.2.1-.29.21-.28.37-.59.87-.51,1.43.03.22.12.43.1.66-.03.24-.19.38-.34.45-.58.24-1.22-.28-1.53-1.1s-.32-1.87-.14-2.78c.07-.33.16-.66.32-.89.28-.41.71-.42,1.09-.35.07.01.15.03.21-.03.1-.09.1-.32.08-.5-.1-.63-.47-1.07-.85-1.27s-.79-.23-1.19-.35c-.14-.04-.29-.1-.4-.26-.16-.22-.19-.59-.21-.93-.06-.99-.08-2.03.17-2.95s.83-1.67,1.44-1.56c.34.06.75.32.96-.09.08-.15.1-.34.14-.52.18-.92.63-1.65,1.16-2.13s1.11-.74,1.69-1c.61-.27,1.32-.51,1.81.12.23.3.4.77.69.88.16.06.32,0,.47-.08.46-.23.91-.55,1.39-.73s.99-.18,1.42.19c.59.52.87,1.64,1.39,2.32.51.68,1.21.87,1.8,1.35.68.56,1.23,1.52,1.5,2.67.05.21.09.44.08.66-.05.64-.54.93-.94.92s-.83-.16-1.19.13c-.47.38-.61,1.36-.63,2.21s0,1.78-.33,2.44c-.18.36-.43.58-.66.86s-.43.67-.43,1.13c0,.27.07.53.05.79-.03.46-.34.78-.63.79s-.57-.18-.83-.37c-.97-.68-1.95-1.3-2.95-1.86-.31-.17-1.1-.85-1.41-.67-.13.08-.27.51-.4.66-.18.21-.39.36-.61.42Z"/>
          <path class="cls-10" d="M944.19,107.73c-.43.12-.9-.11-1.22-.6-.08-.12-.15-.25-.26-.27-.11-.02-.2.1-.29.21-.28.37-.59.87-.51,1.43.03.22.12.43.1.66-.03.24-.19.38-.34.45-.58.24-1.22-.28-1.53-1.1s-.32-1.87-.14-2.78c.07-.33.16-.66.32-.89.28-.41.71-.42,1.09-.35.07.01.15.03.21-.03.1-.09.1-.32.08-.5-.1-.63-.47-1.07-.85-1.27s-.79-.23-1.19-.35c-.14-.04-.29-.1-.4-.26-.16-.22-.19-.59-.21-.93-.06-.99-.08-2.03.17-2.95s.83-1.67,1.44-1.56c.34.06.75.32.96-.09.08-.15.1-.34.14-.52.18-.92.63-1.65,1.16-2.13s1.11-.74,1.69-1c.61-.27,1.32-.51,1.81.12.23.3.4.77.69.88.16.06.32,0,.47-.08.46-.23.91-.55,1.39-.73s.99-.18,1.42.19c.59.52.87,1.64,1.39,2.32.51.68,1.21.87,1.8,1.35.68.56,1.23,1.52,1.5,2.67.05.21.09.44.08.66-.05.64-.54.93-.94.92s-.83-.16-1.19.13c-.47.38-.61,1.36-.63,2.21s0,1.78-.33,2.44c-.18.36-.43.58-.66.86s-.43.67-.43,1.13c0,.27.07.53.05.79-.03.46-.34.78-.63.79s-.57-.18-.83-.37c-.97-.68-1.95-1.3-2.95-1.86-.31-.17-1.1-.85-1.41-.67-.13.08-.27.51-.4.66-.18.21-.39.36-.61.42Z"/>
          <path class="cls-10" d="M956.38,112.13c-.43.12-.9-.11-1.22-.6-.08-.12-.15-.25-.26-.27-.11-.02-.2.1-.29.21-.28.37-.59.87-.51,1.43.03.22.12.43.1.66-.03.24-.19.38-.34.45-.58.24-1.22-.28-1.53-1.1s-.32-1.87-.14-2.78c.07-.33.16-.66.32-.89.28-.41.71-.42,1.09-.35.07.01.15.03.21-.03.1-.09.1-.32.08-.5-.1-.63-.47-1.07-.85-1.27s-.79-.23-1.19-.35c-.14-.04-.29-.1-.4-.26-.16-.22-.19-.59-.21-.93-.06-.99-.08-2.03.17-2.95s.83-1.67,1.44-1.56c.34.06.75.32.96-.09.08-.15.1-.34.14-.52.18-.92.63-1.65,1.16-2.13s1.11-.74,1.69-1c.61-.27,1.32-.51,1.81.12.23.3.4.77.69.88.16.06.32,0,.47-.08.46-.23.91-.55,1.39-.73s.99-.18,1.42.19c.59.52.87,1.64,1.39,2.32.51.68,1.21.87,1.8,1.35.68.56,1.23,1.52,1.5,2.67.05.21.09.44.08.66-.05.64-.54.93-.94.92s-.83-.16-1.19.13c-.47.38-.61,1.36-.63,2.21s0,1.78-.33,2.44c-.18.36-.43.58-.66.86s-.43.67-.43,1.13c0,.27.07.53.05.79-.03.46-.34.78-.63.79s-.57-.18-.83-.37c-.97-.68-1.95-1.3-2.95-1.86-.31-.17-1.1-.85-1.41-.67-.13.08-.27.51-.4.66-.18.21-.39.36-.61.42Z"/>
          <path class="cls-10" d="M962.75,107.73c-.43.12-.9-.11-1.22-.6-.08-.12-.15-.25-.26-.27-.11-.02-.2.1-.29.21-.28.37-.59.87-.51,1.43.03.22.12.43.1.66-.03.24-.19.38-.34.45-.58.24-1.22-.28-1.53-1.1s-.32-1.87-.14-2.78c.07-.33.16-.66.32-.89.28-.41.71-.42,1.09-.35.07.01.15.03.21-.03.1-.09.1-.32.08-.5-.1-.63-.47-1.07-.85-1.27s-.79-.23-1.19-.35c-.14-.04-.29-.1-.4-.26-.16-.22-.19-.59-.21-.93-.06-.99-.08-2.03.17-2.95s.83-1.67,1.44-1.56c.34.06.75.32.96-.09.08-.15.1-.34.14-.52.18-.92.63-1.65,1.16-2.13s1.11-.74,1.69-1c.61-.27,1.32-.51,1.81.12.23.3.4.77.69.88.16.06.32,0,.47-.08.46-.23.91-.55,1.39-.73s.99-.18,1.42.19c.59.52.87,1.64,1.39,2.32.51.68,1.21.87,1.8,1.35.68.56,1.23,1.52,1.5,2.67.05.21.09.44.08.66-.05.64-.54.93-.94.92s-.83-.16-1.19.13c-.47.38-.61,1.36-.63,2.21s0,1.78-.33,2.44c-.18.36-.43.58-.66.86s-.43.67-.43,1.13c0,.27.07.53.05.79-.03.46-.34.78-.63.79s-.57-.18-.83-.37c-.97-.68-1.95-1.3-2.95-1.86-.31-.17-1.1-.85-1.41-.67-.13.08-.27.51-.4.66-.18.21-.39.36-.61.42Z"/>
          <path class="cls-10" d="M945.28,112.93c-.75-.22-1.52-.42-2.14-.9-.9-.68-.41-2.24-1.35-2.75-.38-.21-.79-.23-1.19-.35-.14-.04-.29-.1-.4-.26-.16-.22-.19-.59-.21-.93-.06-.99-.08-2.03.17-2.95s.83-1.67,1.44-1.56c.34.06.75.32.96-.09.08-.15.1-.34.14-.52.18-.92.63-1.65,1.16-2.13s1.11-.74,1.69-1c.61-.27,1.32-.51,1.81.12.23.3.4.77.69.88.16.06.32,0,.47-.08.46-.23.91-.55,1.39-.73s.99-.18,1.42.19c.59.52.87,1.64,1.39,2.32.51.68,1.21.87,1.8,1.35.68.56,1.23,1.52,1.5,2.67.05.21.09.44.08.66-.05.64-.54.93-.94.92s-.83-.16-1.19.13c-.47.38-.61,1.36-.63,2.21s0,1.78-.33,2.44c-.18.36-.43.58-.66.86s-.43.67-.43,1.13c0,.27.07.53.05.79-.03.46-.34.78-.63.79s-.57-.18-.83-.37c-1.25-.88-2.52-1.63-3.81-2.32-.44-.23-.92-.38-1.4-.52Z"/>
          <path class="cls-10" d="M963.75,114.35c-.87.25-1.66-1.04-2.22-2.14-.36-.71-.38-1.51-.66-2.18-.4-.95-.98-.88-1.65-1.08-.14-.04-.29-.1-.4-.26-.16-.22-.19-.59-.21-.93-.06-.99-.08-2.03.17-2.95s.83-1.67,1.44-1.56c.34.06.75.32.96-.09.08-.15.1-.34.14-.52.18-.92.63-1.65,1.16-2.13s1.11-.74,1.69-1c.61-.27,1.32-.51,1.81.12.23.3.4.77.69.88.16.06.32,0,.47-.08.46-.23.91-.55,1.39-.73s.99-.18,1.42.19c.59.52.87,1.64,1.39,2.32.51.68,1.21.87,1.8,1.35.68.56,1.23,1.52,1.5,2.67.05.21.09.44.08.66-.05.64-.54.93-.94.92s-.83-.16-1.19.13c-.47.38-.61,1.36-.63,2.21s0,1.78-.33,2.44c-.18.36-.43.58-.66.86s-.43.67-.43,1.13c0,.27.07.53.05.79-.03.46-.34.78-.63.79s-.57-.18-.83-.37c-.97-.68-1.95-1.3-2.95-1.86-.31-.17-1.1-.85-1.41-.67-.13.08-.27.51-.4.66-.21.25-.41.39-.61.44Z"/>
          <path class="cls-4" d="M954.28,101.81c-.43.12-.9-.11-1.22-.6-.08-.12-.15-.25-.26-.27-.11-.02-.2.1-.29.21-.28.37-.59.87-.51,1.43.03.22.12.43.1.66-.03.24-.19.38-.34.45-.58.24-1.22-.28-1.53-1.1s-.32-1.87-.14-2.78c.07-.33.16-.66.32-.89.28-.41.71-.42,1.09-.35.07.01.15.03.21-.03.1-.09.1-.32.08-.5-.1-.63-.47-1.07-.85-1.27s-.79-.23-1.19-.35c-.14-.04-.29-.1-.4-.26-.16-.22-.19-.59-.21-.93-.06-.99-.08-2.03.17-2.95s.83-1.67,1.44-1.56c.34.06.75.32.96-.09.08-.15.1-.34.14-.52.18-.92.63-1.65,1.16-2.13s1.11-.74,1.69-1c.61-.27,1.32-.51,1.81.12.23.3.4.77.69.88.16.06.32,0,.47-.08.46-.23.91-.55,1.39-.73s.99-.18,1.42.19c.59.52.87,1.64,1.39,2.32.51.68,1.21.87,1.8,1.35.68.56,1.23,1.52,1.5,2.67.05.21.09.44.08.66-.05.64-.54.93-.94.92s-.83-.16-1.19.13c-.47.38-.61,1.36-.63,2.21s0,1.78-.33,2.44c-.18.36-.43.58-.66.86s-.43.67-.43,1.13c0,.27.07.53.05.79-.03.46-.34.78-.63.79s-.57-.18-.83-.37c-.97-.68-1.95-1.3-2.95-1.86-.31-.17-1.1-.85-1.41-.67-.13.08-.27.51-.4.66-.18.21-.39.36-.61.42Z"/>
          <path class="cls-4" d="M942.65,107.04c-.43.12-.9-.11-1.22-.6-.08-.12-.15-.25-.26-.27-.11-.02-.2.1-.29.21-.28.37-.59.87-.51,1.43.03.22.12.43.1.66-.03.24-.19.38-.34.45-.58.24-1.22-.28-1.53-1.1s-.32-1.87-.14-2.78c.07-.33.16-.66.32-.89.28-.41.71-.42,1.09-.35.07.01.15.03.21-.03.1-.09.1-.32.08-.5-.1-.63-.47-1.07-.85-1.27s-.79-.23-1.19-.35c-.14-.04-.29-.1-.4-.26-.16-.22-.19-.59-.21-.93-.06-.99-.08-2.03.17-2.95s.83-1.67,1.44-1.56c.34.06.75.32.96-.09.08-.15.1-.34.14-.52.18-.92.63-1.65,1.16-2.13s1.11-.74,1.69-1c.61-.27,1.32-.51,1.81.12.23.3.4.77.69.88.16.06.32,0,.47-.08.46-.23.91-.55,1.39-.73s.99-.18,1.42.19c.59.52.87,1.64,1.39,2.32.51.68,1.21.87,1.8,1.35.68.56,1.23,1.52,1.5,2.67.05.21.09.44.08.66-.05.64-.54.93-.94.92s-.83-.16-1.19.13c-.47.38-.61,1.36-.63,2.21s0,1.78-.33,2.44c-.18.36-.43.58-.66.86s-.43.67-.43,1.13c0,.27.07.53.05.79-.03.46-.34.78-.63.79s-.57-.18-.83-.37c-.97-.68-1.95-1.3-2.95-1.86-.31-.17-1.1-.85-1.41-.67-.13.08-.27.51-.4.66-.18.21-.39.36-.61.42Z"/>
          <path class="cls-4" d="M954.83,111.45c-.43.12-.9-.11-1.22-.6-.08-.12-.15-.25-.26-.27-.11-.02-.2.1-.29.21-.28.37-.59.87-.51,1.43.03.22.12.43.1.66-.03.24-.19.38-.34.45-.58.24-1.22-.28-1.53-1.1s-.32-1.87-.14-2.78c.07-.33.16-.66.32-.89.28-.41.71-.42,1.09-.35.07.01.15.03.21-.03.1-.09.1-.32.08-.5-.1-.63-.47-1.07-.85-1.27s-.79-.23-1.19-.35c-.14-.04-.29-.1-.4-.26-.16-.22-.19-.59-.21-.93-.06-.99-.08-2.03.17-2.95s.83-1.67,1.44-1.56c.34.06.75.32.96-.09.08-.15.1-.34.14-.52.18-.92.63-1.65,1.16-2.13s1.11-.74,1.69-1c.61-.27,1.32-.51,1.81.12.23.3.4.77.69.88.16.06.32,0,.47-.08.46-.23.91-.55,1.39-.73s.99-.18,1.42.19c.59.52.87,1.64,1.39,2.32.51.68,1.21.87,1.8,1.35.68.56,1.23,1.52,1.5,2.67.05.21.09.44.08.66-.05.64-.54.93-.94.92s-.83-.16-1.19.13c-.47.38-.61,1.36-.63,2.21s0,1.78-.33,2.44c-.18.36-.43.58-.66.86s-.43.67-.43,1.13c0,.27.07.53.05.79-.03.46-.34.78-.63.79s-.57-.18-.83-.37c-.97-.68-1.95-1.3-2.95-1.86-.31-.17-1.1-.85-1.41-.67-.13.08-.27.51-.4.66-.18.21-.39.36-.61.42Z"/>
          <path class="cls-4" d="M961.21,107.04c-.43.12-.9-.11-1.22-.6-.08-.12-.15-.25-.26-.27-.11-.02-.2.1-.29.21-.28.37-.59.87-.51,1.43.03.22.12.43.1.66-.03.24-.19.38-.34.45-.58.24-1.22-.28-1.53-1.1s-.32-1.87-.14-2.78c.07-.33.16-.66.32-.89.28-.41.71-.42,1.09-.35.07.01.15.03.21-.03.1-.09.1-.32.08-.5-.1-.63-.47-1.07-.85-1.27s-.79-.23-1.19-.35c-.14-.04-.29-.1-.4-.26-.16-.22-.19-.59-.21-.93-.06-.99-.08-2.03.17-2.95s.83-1.67,1.44-1.56c.34.06.75.32.96-.09.08-.15.1-.34.14-.52.18-.92.63-1.65,1.16-2.13s1.11-.74,1.69-1c.61-.27,1.32-.51,1.81.12.23.3.4.77.69.88.16.06.32,0,.47-.08.46-.23.91-.55,1.39-.73s.99-.18,1.42.19c.59.52.87,1.64,1.39,2.32.51.68,1.21.87,1.8,1.35.68.56,1.23,1.52,1.5,2.67.05.21.09.44.08.66-.05.64-.54.93-.94.92s-.83-.16-1.19.13c-.47.38-.61,1.36-.63,2.21s0,1.78-.33,2.44c-.18.36-.43.58-.66.86s-.43.67-.43,1.13c0,.27.07.53.05.79-.03.46-.34.78-.63.79s-.57-.18-.83-.37c-.97-.68-1.95-1.3-2.95-1.86-.31-.17-1.1-.85-1.41-.67-.13.08-.27.51-.4.66-.18.21-.39.36-.61.42Z"/>
          <path class="cls-4" d="M943.68,112.56c-.24-.06-.48-.13-.72-.23-.3-.12-.6-.27-.84-.57-.52-.66-.72-1.79-1.19-2.48-.53-.8-1.2-.83-1.89-1.02-.14-.04-.29-.1-.4-.26-.16-.22-.19-.59-.21-.93-.06-.99-.08-2.03.17-2.95s.83-1.67,1.44-1.56c.34.06.75.32.96-.09.08-.15.1-.34.14-.52.18-.92.63-1.65,1.16-2.13s1.11-.74,1.69-1c.61-.27,1.32-.51,1.81.12.23.3.4.77.69.88.16.06.32,0,.47-.08.46-.23.91-.55,1.39-.73s.99-.18,1.42.19c.59.52.87,1.64,1.39,2.32.51.68,1.21.87,1.8,1.35.68.56,1.23,1.52,1.5,2.67.05.21.09.44.08.66-.05.64-.54.93-.94.92s-.83-.16-1.19.13c-.47.38-.61,1.36-.63,2.21s0,1.78-.33,2.44c-.18.36-.43.58-.66.86s-.43.67-.43,1.13c0,.27.07.53.05.79-.03.46-.34.78-.63.79s-.57-.18-.83-.37c-1.04-.74-2.2-1.69-3.31-2.1-.64-.23-1.3-.28-1.96-.43Z"/>
          <path class="cls-4" d="M962.26,112.96c-.8-.18-1.62-.74-2.14-1.74-.46-.88-.5-2.21-1.25-2.62-.38-.21-.79-.23-1.19-.35-.14-.04-.29-.1-.4-.26-.16-.22-.19-.59-.21-.93-.06-.99-.08-2.03.17-2.95s.83-1.67,1.44-1.56c.34.06.75.32.96-.09.08-.15.1-.34.14-.52.18-.92.63-1.65,1.16-2.13s1.11-.74,1.69-1c.61-.27,1.32-.51,1.81.12.23.3.4.77.69.88.16.06.32,0,.47-.08.46-.23.91-.55,1.39-.73s.99-.18,1.42.19c.59.52.87,1.64,1.39,2.32.51.68,1.21.87,1.8,1.35.68.56,1.23,1.52,1.5,2.67.05.21.09.44.08.66-.05.64-.54.93-.94.92s-.83-.16-1.19.13c-.47.38-.61,1.36-.63,2.21s0,1.78-.33,2.44c-.18.36-.43.58-.66.86s-.43.67-.43,1.13c0,.27.07.53.05.79-.03.46-.34.78-.63.79s-.57-.18-.83-.37c-1-.71-2.07-1.54-3.14-1.93-.7-.25-1.36-.04-2.06-.18-.04,0-.07-.01-.11-.02Z"/>
        </g>
        <g>
          <path class="cls-10" d="M953.96,121.96c-.43.12-.9-.11-1.22-.6-.08-.12-.15-.25-.26-.27-.11-.02-.2.1-.29.21-.28.37-.59.87-.51,1.43.03.22.12.43.1.66-.03.24-.19.38-.34.45-.58.24-1.22-.28-1.53-1.1s-.32-1.87-.14-2.78c.07-.33.16-.66.32-.89.28-.41.71-.42,1.09-.35.07.01.15.03.21-.03.1-.09.1-.32.08-.5-.1-.63-.47-1.07-.85-1.27s-.79-.23-1.19-.35c-.14-.04-.29-.1-.4-.26-.16-.22-.19-.59-.21-.93-.06-.99-.08-2.03.17-2.95s.83-1.67,1.44-1.56c.34.06.75.32.96-.09.08-.15.1-.34.14-.52.18-.92.63-1.65,1.16-2.13s1.11-.74,1.69-1c.61-.27,1.32-.51,1.81.12.23.3.4.77.69.88.16.06.32,0,.47-.08.46-.23.91-.55,1.39-.73s.99-.18,1.42.19c.59.52.87,1.64,1.39,2.32.51.68,1.21.87,1.8,1.35.68.56,1.23,1.52,1.5,2.67.05.21.09.44.08.66-.05.64-.54.93-.94.92s-.83-.16-1.19.13c-.47.38-.61,1.36-.63,2.21s0,1.78-.33,2.44c-.18.36-.43.58-.66.86s-.43.67-.43,1.13c0,.27.07.53.05.79-.03.46-.34.78-.63.79s-.57-.18-.83-.37c-.97-.68-1.95-1.3-2.95-1.86-.31-.17-1.1-.85-1.41-.67-.13.08-.27.51-.4.66-.18.21-.39.36-.61.42Z"/>
          <path class="cls-10" d="M942.33,127.19c-.43.12-.9-.11-1.22-.6-.08-.12-.15-.25-.26-.27-.11-.02-.2.1-.29.21-.28.37-.59.87-.51,1.43.03.22.12.43.1.66-.03.24-.19.38-.34.45-.58.24-1.22-.28-1.53-1.1s-.32-1.87-.14-2.78c.07-.33.16-.66.32-.89.28-.41.71-.42,1.09-.35.07.01.15.03.21-.03.1-.09.1-.32.08-.5-.1-.63-.47-1.07-.85-1.27s-.79-.23-1.19-.35c-.14-.04-.29-.1-.4-.26-.16-.22-.19-.59-.21-.93-.06-.99-.08-2.03.17-2.95s.83-1.67,1.44-1.56c.34.06.75.32.96-.09.08-.15.1-.34.14-.52.18-.92.63-1.65,1.16-2.13s1.11-.74,1.69-1c.61-.27,1.32-.51,1.81.12.23.3.4.77.69.88.16.06.32,0,.47-.08.46-.23.91-.55,1.39-.73s.99-.18,1.42.19c.59.52.87,1.64,1.39,2.32.51.68,1.21.87,1.8,1.35.68.56,1.23,1.52,1.5,2.67.05.21.09.44.08.66-.05.64-.54.93-.94.92s-.83-.16-1.19.13c-.47.38-.61,1.36-.63,2.21s0,1.78-.33,2.44c-.18.36-.43.58-.66.86s-.43.67-.43,1.13c0,.27.07.53.05.79-.03.46-.34.78-.63.79s-.57-.18-.83-.37c-.97-.68-1.95-1.3-2.95-1.86-.31-.17-1.1-.85-1.41-.67-.13.08-.27.51-.4.66-.18.21-.39.36-.61.42Z"/>
          <path class="cls-10" d="M954.51,131.59c-.43.12-.9-.11-1.22-.6-.08-.12-.15-.25-.26-.27-.11-.02-.2.1-.29.21-.28.37-.59.87-.51,1.43.03.22.12.43.1.66-.03.24-.19.38-.34.45-.58.24-1.22-.28-1.53-1.1s-.32-1.87-.14-2.78c.07-.33.16-.66.32-.89.28-.41.71-.42,1.09-.35.07.01.15.03.21-.03.1-.09.1-.32.08-.5-.1-.63-.47-1.07-.85-1.27s-.79-.23-1.19-.35c-.14-.04-.29-.1-.4-.26-.16-.22-.19-.59-.21-.93-.06-.99-.08-2.03.17-2.95s.83-1.67,1.44-1.56c.34.06.75.32.96-.09.08-.15.1-.34.14-.52.18-.92.63-1.65,1.16-2.13s1.11-.74,1.69-1c.61-.27,1.32-.51,1.81.12.23.3.4.77.69.88.16.06.32,0,.47-.08.46-.23.91-.55,1.39-.73s.99-.18,1.42.19c.59.52.87,1.64,1.39,2.32.51.68,1.21.87,1.8,1.35.68.56,1.23,1.52,1.5,2.67.05.21.09.44.08.66-.05.64-.54.93-.94.92s-.83-.16-1.19.13c-.47.38-.61,1.36-.63,2.21s0,1.78-.33,2.44c-.18.36-.43.58-.66.86s-.43.67-.43,1.13c0,.27.07.53.05.79-.03.46-.34.78-.63.79s-.57-.18-.83-.37c-.97-.68-1.95-1.3-2.95-1.86-.31-.17-1.1-.85-1.41-.67-.13.08-.27.51-.4.66-.18.21-.39.36-.61.42Z"/>
          <path class="cls-10" d="M960.89,127.19c-.43.12-.9-.11-1.22-.6-.08-.12-.15-.25-.26-.27-.11-.02-.2.1-.29.21-.28.37-.59.87-.51,1.43.03.22.12.43.1.66-.03.24-.19.38-.34.45-.58.24-1.22-.28-1.53-1.1s-.32-1.87-.14-2.78c.07-.33.16-.66.32-.89.28-.41.71-.42,1.09-.35.07.01.15.03.21-.03.1-.09.1-.32.08-.5-.1-.63-.47-1.07-.85-1.27s-.79-.23-1.19-.35c-.14-.04-.29-.1-.4-.26-.16-.22-.19-.59-.21-.93-.06-.99-.08-2.03.17-2.95s.83-1.67,1.44-1.56c.34.06.75.32.96-.09.08-.15.1-.34.14-.52.18-.92.63-1.65,1.16-2.13s1.11-.74,1.69-1c.61-.27,1.32-.51,1.81.12.23.3.4.77.69.88.16.06.32,0,.47-.08.46-.23.91-.55,1.39-.73s.99-.18,1.42.19c.59.52.87,1.64,1.39,2.32.51.68,1.21.87,1.8,1.35.68.56,1.23,1.52,1.5,2.67.05.21.09.44.08.66-.05.64-.54.93-.94.92s-.83-.16-1.19.13c-.47.38-.61,1.36-.63,2.21s0,1.78-.33,2.44c-.18.36-.43.58-.66.86s-.43.67-.43,1.13c0,.27.07.53.05.79-.03.46-.34.78-.63.79s-.57-.18-.83-.37c-.97-.68-1.95-1.3-2.95-1.86-.31-.17-1.1-.85-1.41-.67-.13.08-.27.51-.4.66-.18.21-.39.36-.61.42Z"/>
          <path class="cls-10" d="M943.42,132.39c-.75-.22-1.52-.42-2.14-.9-.9-.68-.41-2.24-1.35-2.75-.38-.21-.79-.23-1.19-.35-.14-.04-.29-.1-.4-.26-.16-.22-.19-.59-.21-.93-.06-.99-.08-2.03.17-2.95s.83-1.67,1.44-1.56c.34.06.75.32.96-.09.08-.15.1-.34.14-.52.18-.92.63-1.65,1.16-2.13s1.11-.74,1.69-1c.61-.27,1.32-.51,1.81.12.23.3.4.77.69.88.16.06.32,0,.47-.08.46-.23.91-.55,1.39-.73s.99-.18,1.42.19c.59.52.87,1.64,1.39,2.32.51.68,1.21.87,1.8,1.35.68.56,1.23,1.52,1.5,2.67.05.21.09.44.08.66-.05.64-.54.93-.94.92s-.83-.16-1.19.13c-.47.38-.61,1.36-.63,2.21s0,1.78-.33,2.44c-.18.36-.43.58-.66.86s-.43.67-.43,1.13c0,.27.07.53.05.79-.03.46-.34.78-.63.79s-.57-.18-.83-.37c-1.25-.88-2.52-1.63-3.81-2.32-.44-.23-.92-.38-1.4-.52Z"/>
          <path class="cls-10" d="M961.89,133.81c-.87.25-1.66-1.04-2.22-2.14-.36-.71-.38-1.51-.66-2.18-.4-.95-.98-.88-1.65-1.08-.14-.04-.29-.1-.4-.26-.16-.22-.19-.59-.21-.93-.06-.99-.08-2.03.17-2.95s.83-1.67,1.44-1.56c.34.06.75.32.96-.09.08-.15.1-.34.14-.52.18-.92.63-1.65,1.16-2.13s1.11-.74,1.69-1c.61-.27,1.32-.51,1.81.12.23.3.4.77.69.88.16.06.32,0,.47-.08.46-.23.91-.55,1.39-.73s.99-.18,1.42.19c.59.52.87,1.64,1.39,2.32.51.68,1.21.87,1.8,1.35.68.56,1.23,1.52,1.5,2.67.05.21.09.44.08.66-.05.64-.54.93-.94.92s-.83-.16-1.19.13c-.47.38-.61,1.36-.63,2.21s0,1.78-.33,2.44c-.18.36-.43.58-.66.86s-.43.67-.43,1.13c0,.27.07.53.05.79-.03.46-.34.78-.63.79s-.57-.18-.83-.37c-.97-.68-1.95-1.3-2.95-1.86-.31-.17-1.1-.85-1.41-.67-.13.08-.27.51-.4.66-.21.25-.41.39-.61.44Z"/>
          <path class="cls-4" d="M952.41,121.28c-.43.12-.9-.11-1.22-.6-.08-.12-.15-.25-.26-.27-.11-.02-.2.1-.29.21-.28.37-.59.87-.51,1.43.03.22.12.43.1.66-.03.24-.19.38-.34.45-.58.24-1.22-.28-1.53-1.1s-.32-1.87-.14-2.78c.07-.33.16-.66.32-.89.28-.41.71-.42,1.09-.35.07.01.15.03.21-.03.1-.09.1-.32.08-.5-.1-.63-.47-1.07-.85-1.27s-.79-.23-1.19-.35c-.14-.04-.29-.1-.4-.26-.16-.22-.19-.59-.21-.93-.06-.99-.08-2.03.17-2.95s.83-1.67,1.44-1.56c.34.06.75.32.96-.09.08-.15.1-.34.14-.52.18-.92.63-1.65,1.16-2.13s1.11-.74,1.69-1c.61-.27,1.32-.51,1.81.12.23.3.4.77.69.88.16.06.32,0,.47-.08.46-.23.91-.55,1.39-.73s.99-.18,1.42.19c.59.52.87,1.64,1.39,2.32.51.68,1.21.87,1.8,1.35.68.56,1.23,1.52,1.5,2.67.05.21.09.44.08.66-.05.64-.54.93-.94.92s-.83-.16-1.19.13c-.47.38-.61,1.36-.63,2.21s0,1.78-.33,2.44c-.18.36-.43.58-.66.86s-.43.67-.43,1.13c0,.27.07.53.05.79-.03.46-.34.78-.63.79s-.57-.18-.83-.37c-.97-.68-1.95-1.3-2.95-1.86-.31-.17-1.1-.85-1.41-.67-.13.08-.27.51-.4.66-.18.21-.39.36-.61.42Z"/>
          <path class="cls-4" d="M940.78,126.5c-.43.12-.9-.11-1.22-.6-.08-.12-.15-.25-.26-.27-.11-.02-.2.1-.29.21-.28.37-.59.87-.51,1.43.03.22.12.43.1.66-.03.24-.19.38-.34.45-.58.24-1.22-.28-1.53-1.1s-.32-1.87-.14-2.78c.07-.33.16-.66.32-.89.28-.41.71-.42,1.09-.35.07.01.15.03.21-.03.1-.09.1-.32.08-.5-.1-.63-.47-1.07-.85-1.27s-.79-.23-1.19-.35c-.14-.04-.29-.1-.4-.26-.16-.22-.19-.59-.21-.93-.06-.99-.08-2.03.17-2.95s.83-1.67,1.44-1.56c.34.06.75.32.96-.09.08-.15.1-.34.14-.52.18-.92.63-1.65,1.16-2.13s1.11-.74,1.69-1c.61-.27,1.32-.51,1.81.12.23.3.4.77.69.88.16.06.32,0,.47-.08.46-.23.91-.55,1.39-.73s.99-.18,1.42.19c.59.52.87,1.64,1.39,2.32.51.68,1.21.87,1.8,1.35.68.56,1.23,1.52,1.5,2.67.05.21.09.44.08.66-.05.64-.54.93-.94.92s-.83-.16-1.19.13c-.47.38-.61,1.36-.63,2.21s0,1.78-.33,2.44c-.18.36-.43.58-.66.86s-.43.67-.43,1.13c0,.27.07.53.05.79-.03.46-.34.78-.63.79s-.57-.18-.83-.37c-.97-.68-1.95-1.3-2.95-1.86-.31-.17-1.1-.85-1.41-.67-.13.08-.27.51-.4.66-.18.21-.39.36-.61.42Z"/>
          <path class="cls-4" d="M952.96,130.91c-.43.12-.9-.11-1.22-.6-.08-.12-.15-.25-.26-.27-.11-.02-.2.1-.29.21-.28.37-.59.87-.51,1.43.03.22.12.43.1.66-.03.24-.19.38-.34.45-.58.24-1.22-.28-1.53-1.1s-.32-1.87-.14-2.78c.07-.33.16-.66.32-.89.28-.41.71-.42,1.09-.35.07.01.15.03.21-.03.1-.09.1-.32.08-.5-.1-.63-.47-1.07-.85-1.27s-.79-.23-1.19-.35c-.14-.04-.29-.1-.4-.26-.16-.22-.19-.59-.21-.93-.06-.99-.08-2.03.17-2.95s.83-1.67,1.44-1.56c.34.06.75.32.96-.09.08-.15.1-.34.14-.52.18-.92.63-1.65,1.16-2.13s1.11-.74,1.69-1c.61-.27,1.32-.51,1.81.12.23.3.4.77.69.88.16.06.32,0,.47-.08.46-.23.91-.55,1.39-.73s.99-.18,1.42.19c.59.52.87,1.64,1.39,2.32.51.68,1.21.87,1.8,1.35.68.56,1.23,1.52,1.5,2.67.05.21.09.44.08.66-.05.64-.54.93-.94.92s-.83-.16-1.19.13c-.47.38-.61,1.36-.63,2.21s0,1.78-.33,2.44c-.18.36-.43.58-.66.86s-.43.67-.43,1.13c0,.27.07.53.05.79-.03.46-.34.78-.63.79s-.57-.18-.83-.37c-.97-.68-1.95-1.3-2.95-1.86-.31-.17-1.1-.85-1.41-.67-.13.08-.27.51-.4.66-.18.21-.39.36-.61.42Z"/>
          <path class="cls-4" d="M959.34,126.5c-.43.12-.9-.11-1.22-.6-.08-.12-.15-.25-.26-.27-.11-.02-.2.1-.29.21-.28.37-.59.87-.51,1.43.03.22.12.43.1.66-.03.24-.19.38-.34.45-.58.24-1.22-.28-1.53-1.1s-.32-1.87-.14-2.78c.07-.33.16-.66.32-.89.28-.41.71-.42,1.09-.35.07.01.15.03.21-.03.1-.09.1-.32.08-.5-.1-.63-.47-1.07-.85-1.27s-.79-.23-1.19-.35c-.14-.04-.29-.1-.4-.26-.16-.22-.19-.59-.21-.93-.06-.99-.08-2.03.17-2.95s.83-1.67,1.44-1.56c.34.06.75.32.96-.09.08-.15.1-.34.14-.52.18-.92.63-1.65,1.16-2.13s1.11-.74,1.69-1c.61-.27,1.32-.51,1.81.12.23.3.4.77.69.88.16.06.32,0,.47-.08.46-.23.91-.55,1.39-.73s.99-.18,1.42.19c.59.52.87,1.64,1.39,2.32.51.68,1.21.87,1.8,1.35.68.56,1.23,1.52,1.5,2.67.05.21.09.44.08.66-.05.64-.54.93-.94.92s-.83-.16-1.19.13c-.47.38-.61,1.36-.63,2.21s0,1.78-.33,2.44c-.18.36-.43.58-.66.86s-.43.67-.43,1.13c0,.27.07.53.05.79-.03.46-.34.78-.63.79s-.57-.18-.83-.37c-.97-.68-1.95-1.3-2.95-1.86-.31-.17-1.1-.85-1.41-.67-.13.08-.27.51-.4.66-.18.21-.39.36-.61.42Z"/>
          <path class="cls-4" d="M941.81,132.02c-.24-.06-.48-.13-.72-.23-.3-.12-.6-.27-.84-.57-.52-.66-.72-1.79-1.19-2.48-.53-.8-1.2-.83-1.89-1.02-.14-.04-.29-.1-.4-.26-.16-.22-.19-.59-.21-.93-.06-.99-.08-2.03.17-2.95s.83-1.67,1.44-1.56c.34.06.75.32.96-.09.08-.15.1-.34.14-.52.18-.92.63-1.65,1.16-2.13s1.11-.74,1.69-1c.61-.27,1.32-.51,1.81.12.23.3.4.77.69.88.16.06.32,0,.47-.08.46-.23.91-.55,1.39-.73s.99-.18,1.42.19c.59.52.87,1.64,1.39,2.32.51.68,1.21.87,1.8,1.35.68.56,1.23,1.52,1.5,2.67.05.21.09.44.08.66-.05.64-.54.93-.94.92s-.83-.16-1.19.13c-.47.38-.61,1.36-.63,2.21s0,1.78-.33,2.44c-.18.36-.43.58-.66.86s-.43.67-.43,1.13c0,.27.07.53.05.79-.03.46-.34.78-.63.79s-.57-.18-.83-.37c-1.04-.74-2.2-1.69-3.31-2.1-.64-.23-1.3-.28-1.96-.43Z"/>
          <path class="cls-4" d="M960.4,132.42c-.8-.18-1.62-.74-2.14-1.74-.46-.88-.5-2.21-1.25-2.62-.38-.21-.79-.23-1.19-.35-.14-.04-.29-.1-.4-.26-.16-.22-.19-.59-.21-.93-.06-.99-.08-2.03.17-2.95s.83-1.67,1.44-1.56c.34.06.75.32.96-.09.08-.15.1-.34.14-.52.18-.92.63-1.65,1.16-2.13s1.11-.74,1.69-1c.61-.27,1.32-.51,1.81.12.23.3.4.77.69.88.16.06.32,0,.47-.08.46-.23.91-.55,1.39-.73s.99-.18,1.42.19c.59.52.87,1.64,1.39,2.32.51.68,1.21.87,1.8,1.35.68.56,1.23,1.52,1.5,2.67.05.21.09.44.08.66-.05.64-.54.93-.94.92s-.83-.16-1.19.13c-.47.38-.61,1.36-.63,2.21s0,1.78-.33,2.44c-.18.36-.43.58-.66.86s-.43.67-.43,1.13c0,.27.07.53.05.79-.03.46-.34.78-.63.79s-.57-.18-.83-.37c-1-.71-2.07-1.54-3.14-1.93-.7-.25-1.36-.04-2.06-.18-.04,0-.07-.01-.11-.02Z"/>
        </g>
        <g>
          <path class="cls-10" d="M945.58,120.07c-.43.12-.9-.11-1.22-.6-.08-.12-.15-.25-.26-.27-.11-.02-.2.1-.29.21-.28.37-.59.87-.51,1.43.03.22.12.43.1.66-.03.24-.19.38-.34.45-.58.24-1.22-.28-1.53-1.1s-.32-1.87-.14-2.78c.07-.33.16-.66.32-.89.28-.41.71-.42,1.09-.35.07.01.15.03.21-.03.1-.09.1-.32.08-.5-.1-.63-.47-1.07-.85-1.27s-.79-.23-1.19-.35c-.14-.04-.29-.1-.4-.26-.16-.22-.19-.59-.21-.93-.06-.99-.08-2.03.17-2.95s.83-1.67,1.44-1.56c.34.06.75.32.96-.09.08-.15.1-.34.14-.52.18-.92.63-1.65,1.16-2.13s1.11-.74,1.69-1c.61-.27,1.32-.51,1.81.12.23.3.4.77.69.88.16.06.32,0,.47-.08.46-.23.91-.55,1.39-.73s.99-.18,1.42.19c.59.52.87,1.64,1.39,2.32.51.68,1.21.87,1.8,1.35.68.56,1.23,1.52,1.5,2.67.05.21.09.44.08.66-.05.64-.54.93-.94.92s-.83-.16-1.19.13c-.47.38-.61,1.36-.63,2.21s0,1.78-.33,2.44c-.18.36-.43.58-.66.86s-.43.67-.43,1.13c0,.27.07.53.05.79-.03.46-.34.78-.63.79s-.57-.18-.83-.37c-.97-.68-1.95-1.3-2.95-1.86-.31-.17-1.1-.85-1.41-.67-.13.08-.27.51-.4.66-.18.21-.39.36-.61.42Z"/>
          <path class="cls-10" d="M933.95,125.3c-.43.12-.9-.11-1.22-.6-.08-.12-.15-.25-.26-.27-.11-.02-.2.1-.29.21-.28.37-.59.87-.51,1.43.03.22.12.43.1.66-.03.24-.19.38-.34.45-.58.24-1.22-.28-1.53-1.1s-.32-1.87-.14-2.78c.07-.33.16-.66.32-.89.28-.41.71-.42,1.09-.35.07.01.15.03.21-.03.1-.09.1-.32.08-.5-.1-.63-.47-1.07-.85-1.27s-.79-.23-1.19-.35c-.14-.04-.29-.1-.4-.26-.16-.22-.19-.59-.21-.93-.06-.99-.08-2.03.17-2.95s.83-1.67,1.44-1.56c.34.06.75.32.96-.09.08-.15.1-.34.14-.52.18-.92.63-1.65,1.16-2.13s1.11-.74,1.69-1c.61-.27,1.32-.51,1.81.12.23.3.4.77.69.88.16.06.32,0,.47-.08.46-.23.91-.55,1.39-.73s.99-.18,1.42.19c.59.52.87,1.64,1.39,2.32.51.68,1.21.87,1.8,1.35.68.56,1.23,1.52,1.5,2.67.05.21.09.44.08.66-.05.64-.54.93-.94.92s-.83-.16-1.19.13c-.47.38-.61,1.36-.63,2.21s0,1.78-.33,2.44c-.18.36-.43.58-.66.86s-.43.67-.43,1.13c0,.27.07.53.05.79-.03.46-.34.78-.63.79s-.57-.18-.83-.37c-.97-.68-1.95-1.3-2.95-1.86-.31-.17-1.1-.85-1.41-.67-.13.08-.27.51-.4.66-.18.21-.39.36-.61.42Z"/>
          <path class="cls-10" d="M946.13,129.7c-.43.12-.9-.11-1.22-.6-.08-.12-.15-.25-.26-.27-.11-.02-.2.1-.29.21-.28.37-.59.87-.51,1.43.03.22.12.43.1.66-.03.24-.19.38-.34.45-.58.24-1.22-.28-1.53-1.1s-.32-1.87-.14-2.78c.07-.33.16-.66.32-.89.28-.41.71-.42,1.09-.35.07.01.15.03.21-.03.1-.09.1-.32.08-.5-.1-.63-.47-1.07-.85-1.27s-.79-.23-1.19-.35c-.14-.04-.29-.1-.4-.26-.16-.22-.19-.59-.21-.93-.06-.99-.08-2.03.17-2.95s.83-1.67,1.44-1.56c.34.06.75.32.96-.09.08-.15.1-.34.14-.52.18-.92.63-1.65,1.16-2.13s1.11-.74,1.69-1c.61-.27,1.32-.51,1.81.12.23.3.4.77.69.88.16.06.32,0,.47-.08.46-.23.91-.55,1.39-.73s.99-.18,1.42.19c.59.52.87,1.64,1.39,2.32.51.68,1.21.87,1.8,1.35.68.56,1.23,1.52,1.5,2.67.05.21.09.44.08.66-.05.64-.54.93-.94.92s-.83-.16-1.19.13c-.47.38-.61,1.36-.63,2.21s0,1.78-.33,2.44c-.18.36-.43.58-.66.86s-.43.67-.43,1.13c0,.27.07.53.05.79-.03.46-.34.78-.63.79s-.57-.18-.83-.37c-.97-.68-1.95-1.3-2.95-1.86-.31-.17-1.1-.85-1.41-.67-.13.08-.27.51-.4.66-.18.21-.39.36-.61.42Z"/>
          <path class="cls-10" d="M952.51,125.3c-.43.12-.9-.11-1.22-.6-.08-.12-.15-.25-.26-.27-.11-.02-.2.1-.29.21-.28.37-.59.87-.51,1.43.03.22.12.43.1.66-.03.24-.19.38-.34.45-.58.24-1.22-.28-1.53-1.1s-.32-1.87-.14-2.78c.07-.33.16-.66.32-.89.28-.41.71-.42,1.09-.35.07.01.15.03.21-.03.1-.09.1-.32.08-.5-.1-.63-.47-1.07-.85-1.27s-.79-.23-1.19-.35c-.14-.04-.29-.1-.4-.26-.16-.22-.19-.59-.21-.93-.06-.99-.08-2.03.17-2.95s.83-1.67,1.44-1.56c.34.06.75.32.96-.09.08-.15.1-.34.14-.52.18-.92.63-1.65,1.16-2.13s1.11-.74,1.69-1c.61-.27,1.32-.51,1.81.12.23.3.4.77.69.88.16.06.32,0,.47-.08.46-.23.91-.55,1.39-.73s.99-.18,1.42.19c.59.52.87,1.64,1.39,2.32.51.68,1.21.87,1.8,1.35.68.56,1.23,1.52,1.5,2.67.05.21.09.44.08.66-.05.64-.54.93-.94.92s-.83-.16-1.19.13c-.47.38-.61,1.36-.63,2.21s0,1.78-.33,2.44c-.18.36-.43.58-.66.86s-.43.67-.43,1.13c0,.27.07.53.05.79-.03.46-.34.78-.63.79s-.57-.18-.83-.37c-.97-.68-1.95-1.3-2.95-1.86-.31-.17-1.1-.85-1.41-.67-.13.08-.27.51-.4.66-.18.21-.39.36-.61.42Z"/>
          <path class="cls-10" d="M935.03,130.5c-.75-.22-1.52-.42-2.14-.9-.9-.68-.41-2.24-1.35-2.75-.38-.21-.79-.23-1.19-.35-.14-.04-.29-.1-.4-.26-.16-.22-.19-.59-.21-.93-.06-.99-.08-2.03.17-2.95s.83-1.67,1.44-1.56c.34.06.75.32.96-.09.08-.15.1-.34.14-.52.18-.92.63-1.65,1.16-2.13s1.11-.74,1.69-1c.61-.27,1.32-.51,1.81.12.23.3.4.77.69.88.16.06.32,0,.47-.08.46-.23.91-.55,1.39-.73s.99-.18,1.42.19c.59.52.87,1.64,1.39,2.32.51.68,1.21.87,1.8,1.35.68.56,1.23,1.52,1.5,2.67.05.21.09.44.08.66-.05.64-.54.93-.94.92s-.83-.16-1.19.13c-.47.38-.61,1.36-.63,2.21s0,1.78-.33,2.44c-.18.36-.43.58-.66.86s-.43.67-.43,1.13c0,.27.07.53.05.79-.03.46-.34.78-.63.79s-.57-.18-.83-.37c-1.25-.88-2.52-1.63-3.81-2.32-.44-.23-.92-.38-1.4-.52Z"/>
          <path class="cls-10" d="M953.51,131.92c-.87.25-1.66-1.04-2.22-2.14-.36-.71-.38-1.51-.66-2.18-.4-.95-.98-.88-1.65-1.08-.14-.04-.29-.1-.4-.26-.16-.22-.19-.59-.21-.93-.06-.99-.08-2.03.17-2.95s.83-1.67,1.44-1.56c.34.06.75.32.96-.09.08-.15.1-.34.14-.52.18-.92.63-1.65,1.16-2.13s1.11-.74,1.69-1c.61-.27,1.32-.51,1.81.12.23.3.4.77.69.88.16.06.32,0,.47-.08.46-.23.91-.55,1.39-.73s.99-.18,1.42.19c.59.52.87,1.64,1.39,2.32.51.68,1.21.87,1.8,1.35.68.56,1.23,1.52,1.5,2.67.05.21.09.44.08.66-.05.64-.54.93-.94.92s-.83-.16-1.19.13c-.47.38-.61,1.36-.63,2.21s0,1.78-.33,2.44c-.18.36-.43.58-.66.86s-.43.67-.43,1.13c0,.27.07.53.05.79-.03.46-.34.78-.63.79s-.57-.18-.83-.37c-.97-.68-1.95-1.3-2.95-1.86-.31-.17-1.1-.85-1.41-.67-.13.08-.27.51-.4.66-.21.25-.41.39-.61.44Z"/>
          <path class="cls-4" d="M944.03,119.39c-.43.12-.9-.11-1.22-.6-.08-.12-.15-.25-.26-.27-.11-.02-.2.1-.29.21-.28.37-.59.87-.51,1.43.03.22.12.43.1.66-.03.24-.19.38-.34.45-.58.24-1.22-.28-1.53-1.1s-.32-1.87-.14-2.78c.07-.33.16-.66.32-.89.28-.41.71-.42,1.09-.35.07.01.15.03.21-.03.1-.09.1-.32.08-.5-.1-.63-.47-1.07-.85-1.27s-.79-.23-1.19-.35c-.14-.04-.29-.1-.4-.26-.16-.22-.19-.59-.21-.93-.06-.99-.08-2.03.17-2.95s.83-1.67,1.44-1.56c.34.06.75.32.96-.09.08-.15.1-.34.14-.52.18-.92.63-1.65,1.16-2.13s1.11-.74,1.69-1c.61-.27,1.32-.51,1.81.12.23.3.4.77.69.88.16.06.32,0,.47-.08.46-.23.91-.55,1.39-.73s.99-.18,1.42.19c.59.52.87,1.64,1.39,2.32.51.68,1.21.87,1.8,1.35.68.56,1.23,1.52,1.5,2.67.05.21.09.44.08.66-.05.64-.54.93-.94.92s-.83-.16-1.19.13c-.47.38-.61,1.36-.63,2.21s0,1.78-.33,2.44c-.18.36-.43.58-.66.86s-.43.67-.43,1.13c0,.27.07.53.05.79-.03.46-.34.78-.63.79s-.57-.18-.83-.37c-.97-.68-1.95-1.3-2.95-1.86-.31-.17-1.1-.85-1.41-.67-.13.08-.27.51-.4.66-.18.21-.39.36-.61.42Z"/>
          <path class="cls-4" d="M932.4,124.61c-.43.12-.9-.11-1.22-.6-.08-.12-.15-.25-.26-.27-.11-.02-.2.1-.29.21-.28.37-.59.87-.51,1.43.03.22.12.43.1.66-.03.24-.19.38-.34.45-.58.24-1.22-.28-1.53-1.1s-.32-1.87-.14-2.78c.07-.33.16-.66.32-.89.28-.41.71-.42,1.09-.35.07.01.15.03.21-.03.1-.09.1-.32.08-.5-.1-.63-.47-1.07-.85-1.27s-.79-.23-1.19-.35c-.14-.04-.29-.1-.4-.26-.16-.22-.19-.59-.21-.93-.06-.99-.08-2.03.17-2.95s.83-1.67,1.44-1.56c.34.06.75.32.96-.09.08-.15.1-.34.14-.52.18-.92.63-1.65,1.16-2.13s1.11-.74,1.69-1c.61-.27,1.32-.51,1.81.12.23.3.4.77.69.88.16.06.32,0,.47-.08.46-.23.91-.55,1.39-.73s.99-.18,1.42.19c.59.52.87,1.64,1.39,2.32.51.68,1.21.87,1.8,1.35.68.56,1.23,1.52,1.5,2.67.05.21.09.44.08.66-.05.64-.54.93-.94.92s-.83-.16-1.19.13c-.47.38-.61,1.36-.63,2.21s0,1.78-.33,2.44c-.18.36-.43.58-.66.86s-.43.67-.43,1.13c0,.27.07.53.05.79-.03.46-.34.78-.63.79s-.57-.18-.83-.37c-.97-.68-1.95-1.3-2.95-1.86-.31-.17-1.1-.85-1.41-.67-.13.08-.27.51-.4.66-.18.21-.39.36-.61.42Z"/>
          <path class="cls-4" d="M944.58,129.02c-.43.12-.9-.11-1.22-.6-.08-.12-.15-.25-.26-.27-.11-.02-.2.1-.29.21-.28.37-.59.87-.51,1.43.03.22.12.43.1.66-.03.24-.19.38-.34.45-.58.24-1.22-.28-1.53-1.1s-.32-1.87-.14-2.78c.07-.33.16-.66.32-.89.28-.41.71-.42,1.09-.35.07.01.15.03.21-.03.1-.09.1-.32.08-.5-.1-.63-.47-1.07-.85-1.27s-.79-.23-1.19-.35c-.14-.04-.29-.1-.4-.26-.16-.22-.19-.59-.21-.93-.06-.99-.08-2.03.17-2.95s.83-1.67,1.44-1.56c.34.06.75.32.96-.09.08-.15.1-.34.14-.52.18-.92.63-1.65,1.16-2.13s1.11-.74,1.69-1c.61-.27,1.32-.51,1.81.12.23.3.4.77.69.88.16.06.32,0,.47-.08.46-.23.91-.55,1.39-.73s.99-.18,1.42.19c.59.52.87,1.64,1.39,2.32.51.68,1.21.87,1.8,1.35.68.56,1.23,1.52,1.5,2.67.05.21.09.44.08.66-.05.64-.54.93-.94.92s-.83-.16-1.19.13c-.47.38-.61,1.36-.63,2.21s0,1.78-.33,2.44c-.18.36-.43.58-.66.86s-.43.67-.43,1.13c0,.27.07.53.05.79-.03.46-.34.78-.63.79s-.57-.18-.83-.37c-.97-.68-1.95-1.3-2.95-1.86-.31-.17-1.1-.85-1.41-.67-.13.08-.27.51-.4.66-.18.21-.39.36-.61.42Z"/>
          <path class="cls-4" d="M950.96,124.61c-.43.12-.9-.11-1.22-.6-.08-.12-.15-.25-.26-.27-.11-.02-.2.1-.29.21-.28.37-.59.87-.51,1.43.03.22.12.43.1.66-.03.24-.19.38-.34.45-.58.24-1.22-.28-1.53-1.1s-.32-1.87-.14-2.78c.07-.33.16-.66.32-.89.28-.41.71-.42,1.09-.35.07.01.15.03.21-.03.1-.09.1-.32.08-.5-.1-.63-.47-1.07-.85-1.27s-.79-.23-1.19-.35c-.14-.04-.29-.1-.4-.26-.16-.22-.19-.59-.21-.93-.06-.99-.08-2.03.17-2.95s.83-1.67,1.44-1.56c.34.06.75.32.96-.09.08-.15.1-.34.14-.52.18-.92.63-1.65,1.16-2.13s1.11-.74,1.69-1c.61-.27,1.32-.51,1.81.12.23.3.4.77.69.88.16.06.32,0,.47-.08.46-.23.91-.55,1.39-.73s.99-.18,1.42.19c.59.52.87,1.64,1.39,2.32.51.68,1.21.87,1.8,1.35.68.56,1.23,1.52,1.5,2.67.05.21.09.44.08.66-.05.64-.54.93-.94.92s-.83-.16-1.19.13c-.47.38-.61,1.36-.63,2.21s0,1.78-.33,2.44c-.18.36-.43.58-.66.86s-.43.67-.43,1.13c0,.27.07.53.05.79-.03.46-.34.78-.63.79s-.57-.18-.83-.37c-.97-.68-1.95-1.3-2.95-1.86-.31-.17-1.1-.85-1.41-.67-.13.08-.27.51-.4.66-.18.21-.39.36-.61.42Z"/>
          <path class="cls-4" d="M933.43,130.13c-.24-.06-.48-.13-.72-.23-.3-.12-.6-.27-.84-.57-.52-.66-.72-1.79-1.19-2.48-.53-.8-1.2-.83-1.89-1.02-.14-.04-.29-.1-.4-.26-.16-.22-.19-.59-.21-.93-.06-.99-.08-2.03.17-2.95s.83-1.67,1.44-1.56c.34.06.75.32.96-.09.08-.15.1-.34.14-.52.18-.92.63-1.65,1.16-2.13s1.11-.74,1.69-1c.61-.27,1.32-.51,1.81.12.23.3.4.77.69.88.16.06.32,0,.47-.08.46-.23.91-.55,1.39-.73s.99-.18,1.42.19c.59.52.87,1.64,1.39,2.32.51.68,1.21.87,1.8,1.35.68.56,1.23,1.52,1.5,2.67.05.21.09.44.08.66-.05.64-.54.93-.94.92s-.83-.16-1.19.13c-.47.38-.61,1.36-.63,2.21s0,1.78-.33,2.44c-.18.36-.43.58-.66.86s-.43.67-.43,1.13c0,.27.07.53.05.79-.03.46-.34.78-.63.79s-.57-.18-.83-.37c-1.04-.74-2.2-1.69-3.31-2.1-.64-.23-1.3-.28-1.96-.43Z"/>
          <path class="cls-4" d="M952.02,130.53c-.8-.18-1.62-.74-2.14-1.74-.46-.88-.5-2.21-1.25-2.62-.38-.21-.79-.23-1.19-.35-.14-.04-.29-.1-.4-.26-.16-.22-.19-.59-.21-.93-.06-.99-.08-2.03.17-2.95s.83-1.67,1.44-1.56c.34.06.75.32.96-.09.08-.15.1-.34.14-.52.18-.92.63-1.65,1.16-2.13s1.11-.74,1.69-1c.61-.27,1.32-.51,1.81.12.23.3.4.77.69.88.16.06.32,0,.47-.08.46-.23.91-.55,1.39-.73s.99-.18,1.42.19c.59.52.87,1.64,1.39,2.32.51.68,1.21.87,1.8,1.35.68.56,1.23,1.52,1.5,2.67.05.21.09.44.08.66-.05.64-.54.93-.94.92s-.83-.16-1.19.13c-.47.38-.61,1.36-.63,2.21s0,1.78-.33,2.44c-.18.36-.43.58-.66.86s-.43.67-.43,1.13c0,.27.07.53.05.79-.03.46-.34.78-.63.79s-.57-.18-.83-.37c-1-.71-2.07-1.54-3.14-1.93-.7-.25-1.36-.04-2.06-.18-.04,0-.07-.01-.11-.02Z"/>
        </g>
        <g id="DHUsmB">
          <g>
            <path class="cls-5" d="M883.82,0c-.13.33-.16.73-.19,1.1.03-.11.05-.22.08-.34.03-.21.08-.48.11-.76Z"/>
            <path class="cls-5" d="M953.58,71.92c.29-10.61-3.07-22.62,1.86-32.88,1.6-1.5,3.48-2.88,5.52-4.15v-2c-.5.27-.98.54-1.42.8-2.07,1.06-4.6,3.67-4.05-.11.15-1.12.34-2.26.51-3.41h-1.33c-.36,2.78-.89,5.55-1.51,8.27-.13.38-.16.83-.54,1.06-.04,0-.04.02-.13-.02h-.02c-.63-.81-.59-2.06-.92-2.98-.64-2.08-1.08-4.2-1.3-6.33h-3.36c.03.33.07.65.1.93,0,.13-.04.26-.28.21h-.04c-.75-.28-1.64-.68-2.43-1.14h-5.24c.07.21.11.43.12.64.1,2.11-1.35.66-2.97-.02-.4-.2-.81-.41-1.23-.62h-2.73c1.81,1.03,3.61,2.07,5.42,3.08,1.88.93,1.92,2.62,2.07,4.11.35,6.34,4.71,12.45,4.17,18.85-.11.67.19,1.77-.34,2.21h-.03c-.21.06-.54-.17-.91-.55-.71-.74-1.28-1.62-1.79-2.45-3.14-5.1-5.02-10.76-8.46-15.84-1.26-1.96-3.02-4.67-4.28-6.79-.52-.87-.95-1.64-1.24-2.22-.07-.15-.13-.27-.18-.39h-2.25c1.35,2.32,2.64,4.19,3.66,6.45.2.51-.21.43-.65.27-1.78-.62-6.44-2.26-10.1-3.54-1.71-.6-3.2-1.12-4.09-1.43-.61-.19-2.27-.93-4.08-1.5-.13-.05-.35-.13-.64-.25h-4.91c7.83,3.18,16.52,5.74,24.2,8.69,7.56,5.39,6.91,14.86,13.89,20.81,1.55,1.48,2.58,3.21,2.52,5.07.13,13.54-.07,27.07-.44,40.59-.23,9.26-.54,18.52-2.25,27.7-.13.9-.39,1.85,1.15,1.99,3.12.31,11.58.2,15.3.09,1.33-.04,1.86-.57,1.62-1.58-4.4-20.78-5.67-40.63-5.97-61.61ZM948.77,53.09c-.09.36-.78,4.01-1.14,2.43-.3-4.47-2.51-8.46-3.76-12.78-.95-3.42-1.18-6.99-1.72-10.46-.05-.36-.2-1.04.12-1.21l.03-.02c1.23-.21,3.96,2.11,4.54,2.86,3.36,5.72,2.8,13.12,1.92,19.19Z"/>
          </g>
        </g>
        <g id="DHUsmB-2" data-name="DHUsmB" class="cls-14">
          <g>
            <path class="cls-13" d="M883.09,0c-.13.33-.16.73-.19,1.1.03-.11.05-.22.08-.34.03-.21.08-.48.11-.76Z"/>
            <path class="cls-13" d="M952.86,71.92c.29-10.61-3.07-22.62,1.86-32.88,1.6-1.5,3.48-2.88,5.52-4.15v-2c-.5.27-.98.54-1.42.8-2.07,1.06-4.6,3.67-4.05-.11.15-1.12.34-2.26.51-3.41h-1.33c-.36,2.78-.89,5.55-1.51,8.27-.13.38-.16.83-.54,1.06-.04,0-.04.02-.13-.02h-.02c-.63-.81-.59-2.06-.92-2.98-.64-2.08-1.08-4.2-1.3-6.33h-3.36c.03.33.07.65.1.93,0,.13-.04.26-.28.21h-.04c-.75-.28-1.64-.68-2.43-1.14h-5.24c.07.21.11.43.12.64.1,2.11-1.35.66-2.97-.02-.4-.2-.81-.41-1.23-.62h-2.73c1.81,1.03,3.61,2.07,5.42,3.08,1.88.93,1.92,2.62,2.07,4.11.35,6.34,4.71,12.45,4.17,18.85-.11.67.19,1.77-.34,2.21h-.03c-.21.06-.54-.17-.91-.55-.71-.74-1.28-1.62-1.79-2.45-3.14-5.1-5.02-10.76-8.46-15.84-1.26-1.96-3.02-4.67-4.28-6.79-.52-.87-.95-1.64-1.24-2.22-.07-.15-.13-.27-.18-.39h-2.25c1.35,2.32,2.64,4.19,3.66,6.45.2.51-.21.43-.65.27-1.78-.62-6.44-2.26-10.1-3.54-1.71-.6-3.2-1.12-4.09-1.43-.61-.19-2.27-.93-4.08-1.5-.13-.05-.35-.13-.64-.25h-4.91c7.83,3.18,16.52,5.74,24.2,8.69,7.56,5.39,6.91,14.86,13.89,20.81,1.55,1.48,2.58,3.21,2.52,5.07.13,13.54-.07,27.07-.44,40.59-.23,9.26-.54,18.52-2.25,27.7-.13.9-.39,1.85,1.15,1.99,3.12.31,11.58.2,15.3.09,1.33-.04,1.86-.57,1.62-1.58-4.4-20.78-5.67-40.63-5.97-61.61ZM948.05,53.09c-.09.36-.78,4.01-1.14,2.43-.3-4.47-2.51-8.46-3.76-12.78-.95-3.42-1.18-6.99-1.72-10.46-.05-.36-.2-1.04.12-1.21l.03-.02c1.23-.21,3.96,2.11,4.54,2.86,3.36,5.72,2.8,13.12,1.92,19.19Z"/>
          </g>
        </g>
        <path class="cls-3" d="M784.84,108.46c1.3.12-6.27,7.92,28.58,9.24,25.49.96,31.37-5.11,55.42-1.68,7.93,1.13,12.55.65,10.71,6.72-1.96,6.44,2.86,7.39,13.74,7.45.83,0,9.87-.68,16.63,1.25,8.74,2.5,12.86,4.39,21.83,5.97,13.79,2.43,25.46,5.38,26.29,9.98-42.05,1.8-35.78-6.34-48.34-8.51-11.8-2.05-24.47,2.48-34.96-3.27-3.49-1.91-4.04-6.81-4.19-10.77-.39-10.49-38.57-4.04-42.4-3.83-23.25,1.28-32.78-1.7-47.1-5.85-9.36-2.72-3.31-8.94-2.31-8.62"/>
        <g id="Rocks_and_Grass" data-name="Rocks and Grass">
          <g>
            <path class="cls-2" d="M926.7,126.47c-.39-.22-.79-.42-1.2-.61.4.2.79.42,1.16.66,2.99,1.92,3.55,4.48,3.37,7.68,0,0,.54,0,.54,0,.01-3.26-.72-5.91-3.88-7.73Z"/>
            <path class="cls-2" d="M931.74,130.91c.07-2.71.54-5.62,2.52-7.73-1.95,1.93-2.62,4.48-2.87,7.06-.26-2.54-.94-5.18-2.87-7.06,2.65,2.88,2.6,6.91,2.5,10.49,0,0,.11,0,.2,0,0,0,0,0,0,0,0,0,.1,0,.17,0,.07,0,.17,0,.17,0,0,0,0,0,0,0,.09,0,.2,0,.2,0-.03-.92-.05-1.84-.02-2.75Z"/>
            <path class="cls-2" d="M932.68,131.44c.07-2.71.54-5.62,2.52-7.73-2.81,2.79-2.96,6.88-3.05,10.49h.54c-.03-.92-.05-1.84-.02-2.76Z"/>
            <path class="cls-2" d="M936.27,125.52c-2.67,2.05-3.01,5.49-3.05,8.49,0,0,.54,0,.54,0-.14-2.97-.01-6.33,2.5-8.49Z"/>
          </g>
          <g>
            <path class="cls-2" d="M931.02,122.48c-.65-.38-1.33-.71-2.01-1.02.67.34,1.33.71,1.95,1.11,5.02,3.22,5.97,7.54,5.67,12.9,0,0,.91,0,.91,0,.02-5.48-1.21-9.94-6.52-13Z"/>
            <path class="cls-2" d="M939.49,129.95c.12-4.56.91-9.44,4.24-13-3.27,3.24-4.4,7.53-4.83,11.87-.43-4.27-1.57-8.7-4.83-11.87,4.46,4.84,4.36,11.61,4.21,17.62,0,0,.18,0,.33,0,0,0,0,0,0,0,0,0,.16,0,.29,0,.13,0,.29,0,.29,0,0,0,0,0,0,0,.15,0,.33,0,.33,0-.05-1.55-.08-3.09-.04-4.63Z"/>
            <path class="cls-2" d="M941.07,130.84c.12-4.56.91-9.44,4.24-13-4.73,4.68-4.98,11.56-5.12,17.63h.91c-.05-1.55-.08-3.09-.04-4.63Z"/>
            <path class="cls-2" d="M947.1,120.89c-4.49,3.45-5.06,9.22-5.12,14.27,0,0,.91,0,.91,0-.23-4.98-.02-10.64,4.21-14.27Z"/>
          </g>
          <g>
            <path class="cls-2" d="M929.55,127.17c-.39-.22-.79-.42-1.2-.61.4.2.79.42,1.16.66,2.99,1.92,3.55,4.48,3.37,7.68,0,0,.54,0,.54,0,.01-3.26-.72-5.91-3.88-7.73Z"/>
            <path class="cls-2" d="M934.59,131.61c.07-2.71.54-5.62,2.52-7.73-1.95,1.93-2.62,4.48-2.87,7.06-.26-2.54-.94-5.18-2.87-7.06,2.65,2.88,2.6,6.91,2.5,10.49,0,0,.11,0,.2,0,0,0,0,0,0,0,0,0,.1,0,.17,0,.07,0,.17,0,.17,0,0,0,0,0,0,0,.09,0,.2,0,.2,0-.03-.92-.05-1.84-.02-2.75Z"/>
            <path class="cls-2" d="M935.53,132.14c.07-2.71.54-5.62,2.52-7.73-2.81,2.79-2.96,6.88-3.05,10.49h.54c-.03-.92-.05-1.84-.02-2.76Z"/>
            <path class="cls-2" d="M939.11,126.22c-2.67,2.05-3.01,5.49-3.05,8.49,0,0,.54,0,.54,0-.14-2.97-.01-6.33,2.5-8.49Z"/>
          </g>
          <path class="cls-9" d="M939.81,133.35c-.03.35-.24.78-.66,1.17-.66.61-1.69.97-2.43.98s-1.25-.24-1.72-.49-.96-.53-1.67-.55c-.47-.01-1.09.05-1.17-.27-.02-.1.01-.22.05-.35.38-1.13,1.21-2.35,2.03-3.55.2-.29.4-.58.7-.85.29-.26.65-.48,1.01-.68.59-.33,1.22-.62,1.79-.71.6-.1,1.06.02,1.36.25s.45.56.58.9c.14.35.25.72.11,1.18-.16.53-.74,1.19-.57,1.6.2.48.64.77.59,1.38Z"/>
          <path class="cls-6" d="M936.85,135.37c-.03.35-.24.78-.66,1.17-.66.61-1.69.97-2.43.98s-1.25-.24-1.72-.49-.96-.53-1.67-.55c-.47-.01-1.09.05-1.17-.27-.02-.1.01-.22.05-.35.38-1.13,1.21-2.35,2.03-3.55.2-.29.4-.58.7-.85.29-.26.65-.48,1.01-.68.59-.33,1.22-.62,1.79-.71.6-.1,1.06.02,1.36.25s.45.56.58.9c.14.35.25.72.11,1.18-.16.53-.74,1.19-.57,1.6.2.48.64.77.59,1.38Z"/>
          <path class="cls-9" d="M946.39,137.46c-.31-.35-.51-.81-.47-1.27.06-.73.74-1.3,1.46-1.47s1.47-.03,2.19.12,1.46.31,2.19.18c.48-.08,1.03-.28,1.42.02.12.09.2.22.28.35.72,1.18,1.07,2.54,1.42,3.88.08.32.17.65.13.98-.04.31-.18.61-.35.88-.27.44-.62.86-1.09,1.07-.5.22-1.08.2-1.59.04s-.99-.45-1.44-.75c-.47-.31-.95-.65-1.25-1.12-.34-.55-.41-1.32-.98-1.68-.66-.42-1.38-.61-1.93-1.22Z"/>
          <path class="cls-6" d="M946.09,137.59c-.31-.35-.51-.81-.47-1.27.06-.73.74-1.3,1.46-1.47s1.47-.03,2.19.12,1.46.31,2.19.18c.48-.08,1.03-.28,1.42.02.12.09.2.22.28.35.72,1.18,1.07,2.54,1.42,3.88.08.32.17.65.13.98-.04.31-.18.61-.35.88-.27.44-.62.86-1.09,1.07-.5.22-1.08.2-1.59.04s-.99-.45-1.44-.75c-.47-.31-.95-.65-1.25-1.12-.34-.55-.41-1.32-.98-1.68-.66-.42-1.38-.61-1.93-1.22Z"/>
          <g>
            <path class="cls-2" d="M933.65,127.52c-.39-.22-.79-.42-1.2-.61.4.2.79.42,1.16.66,2.99,1.92,3.55,4.48,3.37,7.68,0,0,.54,0,.54,0,.01-3.26-.72-5.91-3.88-7.73Z"/>
            <path class="cls-2" d="M938.7,131.96c.07-2.71.54-5.62,2.52-7.73-1.95,1.93-2.62,4.48-2.87,7.06-.26-2.54-.94-5.18-2.87-7.06,2.65,2.88,2.6,6.91,2.5,10.49,0,0,.11,0,.2,0,0,0,0,0,0,0,0,0,.1,0,.17,0,.07,0,.17,0,.17,0,0,0,0,0,0,0,.09,0,.2,0,.2,0-.03-.92-.05-1.84-.02-2.75Z"/>
            <path class="cls-2" d="M939.64,132.49c.07-2.71.54-5.62,2.52-7.73-2.81,2.79-2.96,6.88-3.05,10.49h.54c-.03-.92-.05-1.84-.02-2.76Z"/>
            <path class="cls-2" d="M943.22,126.57c-2.67,2.05-3.01,5.49-3.05,8.49,0,0,.54,0,.54,0-.14-2.97-.01-6.33,2.5-8.49Z"/>
          </g>
          <g>
            <path class="cls-2" d="M936.27,125.39c-.39-.22-.79-.42-1.2-.61.4.2.79.42,1.16.66,2.99,1.92,3.55,4.48,3.37,7.68,0,0,.54,0,.54,0,.01-3.26-.72-5.91-3.88-7.73Z"/>
            <path class="cls-2" d="M941.31,129.83c.07-2.71.54-5.62,2.52-7.73-1.95,1.93-2.62,4.48-2.87,7.06-.26-2.54-.94-5.18-2.87-7.06,2.65,2.88,2.6,6.91,2.5,10.49,0,0,.11,0,.2,0,0,0,0,0,0,0,0,0,.1,0,.17,0,.07,0,.17,0,.17,0,0,0,0,0,0,0,.09,0,.2,0,.2,0-.03-.92-.05-1.84-.02-2.75Z"/>
            <path class="cls-2" d="M942.25,130.36c.07-2.71.54-5.62,2.52-7.73-2.81,2.79-2.96,6.88-3.05,10.49h.54c-.03-.92-.05-1.84-.02-2.76Z"/>
            <path class="cls-2" d="M945.84,124.44c-2.67,2.05-3.01,5.49-3.05,8.49,0,0,.54,0,.54,0-.14-2.97-.01-6.33,2.5-8.49Z"/>
          </g>
          <g>
            <path class="cls-2" d="M941.66,130.9c-.39-.22-.79-.42-1.2-.61.4.2.79.42,1.16.66,2.99,1.92,3.55,4.48,3.37,7.68,0,0,.54,0,.54,0,.01-3.26-.72-5.91-3.88-7.73Z"/>
            <path class="cls-2" d="M946.7,135.34c.07-2.71.54-5.62,2.52-7.73-1.95,1.93-2.62,4.48-2.87,7.06-.26-2.54-.94-5.18-2.87-7.06,2.65,2.88,2.6,6.91,2.5,10.49,0,0,.11,0,.2,0,0,0,0,0,0,0,0,0,.1,0,.17,0,.07,0,.17,0,.17,0,0,0,0,0,0,0,.09,0,.2,0,.2,0-.03-.92-.05-1.84-.02-2.75Z"/>
            <path class="cls-2" d="M947.64,135.87c.07-2.71.54-5.62,2.52-7.73-2.81,2.79-2.96,6.88-3.05,10.49h.54c-.03-.92-.05-1.84-.02-2.76Z"/>
            <path class="cls-2" d="M951.22,129.95c-2.67,2.05-3.01,5.49-3.05,8.49,0,0,.54,0,.54,0-.14-2.97-.01-6.33,2.5-8.49Z"/>
          </g>
          <path class="cls-11" d="M940.5,141.88c-1.01-.26-1.42-.82-4.19-.96-1.23-.07-2.48-.26-3.54-.9s-1.86-1.79-1.79-3.01c.09-1.65,1.64-2.82,3.14-3.51s3.19-1.19,4.24-2.47c.62-.76,1.06-1.8,1.99-2.08.4-.12.82-.07,1.23-.02,1.18.17,2.39.45,3.35,1.16,1.1.81,1.74,2.08,2.34,3.3.64,1.29,1.28,2.59,1.92,3.88.52,1.06,1.05,2.33.48,3.37-.54,1-1.82,1.28-2.95,1.38-2.07.19-4.17.15-6.23-.13"/>
          <path class="cls-8" d="M940.2,141.86c-1.01-.26-1.42-.82-4.19-.96-1.23-.07-2.48-.26-3.54-.9s-1.86-1.79-1.79-3.01c.09-1.65,1.64-2.82,3.14-3.51s3.19-1.19,4.24-2.47c.62-.76,1.06-1.8,1.99-2.08.4-.12.82-.07,1.23-.02,1.18.17,2.39.45,3.35,1.16,1.1.81,1.74,2.08,2.34,3.3.64,1.29,1.28,2.59,1.92,3.88.52,1.06,1.05,2.33.48,3.37-.54,1-1.82,1.28-2.95,1.38-2.07.19-4.17.15-6.23-.13"/>
        </g>
      </g>
    </g>
  </g>
</svg>