<?xml version="1.0" encoding="UTF-8"?>
<svg id="Layer_2" data-name="Layer 2" xmlns="http://www.w3.org/2000/svg" xmlns:xlink="http://www.w3.org/1999/xlink" viewBox="0 0 964.06 111.1">
  <defs>
    <style>
      .cls-1 {
        fill: none;
      }

      .cls-2, .cls-3 {
        fill: #332b24;
      }

      .cls-4 {
        fill: url(#linear-gradient);
      }

      .cls-5 {
        fill: #494951;
      }

      .cls-6 {
        fill: #44382c;
      }

      .cls-7 {
        opacity: .49;
      }

      .cls-7, .cls-8 {
        fill: #30311f;
      }

      .cls-9 {
        fill: #5a491b;
        opacity: .54;
      }

      .cls-3 {
        opacity: .52;
      }

      .cls-10 {
        clip-path: url(#clippath);
      }
    </style>
    <clipPath id="clippath">
      <rect class="cls-1" x="4.06" width="960" height="108"/>
    </clipPath>
    <linearGradient id="linear-gradient" x1=".78" y1="89.74" x2="97.12" y2="89.74" gradientUnits="userSpaceOnUse">
      <stop offset="0" stop-color="#3e4b20"/>
      <stop offset=".07" stop-color="#414c26"/>
      <stop offset=".3" stop-color="#4a4f34"/>
      <stop offset=".57" stop-color="#4f513d"/>
      <stop offset="1" stop-color="#515240"/>
    </linearGradient>
  </defs>
  <g id="Layer_1-2" data-name="Layer 1">
    <g id="trees_left" data-name="trees left">
      <g class="cls-10">
        <g id="Grasses">
          <g>
            <path class="cls-6" d="M47.37,93.04c-.48-.3-.97-.56-1.47-.81.49.27.97.56,1.43.87,3.67,2.54,4.37,5.94,4.14,10.17,0,0,.67,0,.67,0,.01-4.32-.88-7.84-4.76-10.25Z"/>
            <path class="cls-6" d="M53.57,98.93c.09-3.6.66-7.44,3.1-10.25-2.39,2.56-3.21,5.94-3.53,9.36-.32-3.37-1.15-6.86-3.53-9.36,3.26,3.82,3.19,9.16,3.08,13.9,0,0,.13,0,.24,0,0,0,0,0,0,0,0,0,.12,0,.21,0,.09,0,.21,0,.21,0,0,0,0,0,0,0,.11,0,.24,0,.24,0-.03-1.22-.06-2.44-.03-3.65Z"/>
            <path class="cls-6" d="M54.72,99.64c.09-3.6.66-7.44,3.1-10.25-3.46,3.7-3.64,9.12-3.74,13.91h.67c-.03-1.22-.06-2.44-.03-3.65Z"/>
            <path class="cls-6" d="M59.13,91.78c-3.28,2.72-3.7,7.28-3.74,11.26,0,0,.67,0,.67,0-.17-3.93-.01-8.4,3.08-11.25Z"/>
          </g>
          <g>
            <path class="cls-6" d="M63,89.82c-.48-.3-.97-.56-1.47-.81.49.27.97.56,1.43.87,3.67,2.54,4.37,5.94,4.14,10.17,0,0,.67,0,.67,0,.01-4.32-.88-7.84-4.76-10.25Z"/>
            <path class="cls-6" d="M69.19,95.71c.09-3.6.66-7.44,3.1-10.25-2.39,2.56-3.21,5.94-3.53,9.36-.32-3.37-1.15-6.86-3.53-9.36,3.26,3.82,3.19,9.16,3.08,13.9,0,0,.13,0,.24,0,0,0,0,0,0,0,0,0,.12,0,.21,0,.09,0,.21,0,.21,0,0,0,0,0,0,0,.11,0,.24,0,.24,0-.03-1.22-.06-2.44-.03-3.65Z"/>
            <path class="cls-6" d="M70.35,96.41c.09-3.6.66-7.44,3.1-10.25-3.46,3.7-3.64,9.12-3.74,13.91h.67c-.03-1.22-.06-2.44-.03-3.65Z"/>
            <path class="cls-6" d="M74.76,88.56c-3.28,2.72-3.7,7.28-3.74,11.26,0,0,.67,0,.67,0-.17-3.93-.01-8.4,3.08-11.25Z"/>
          </g>
          <g>
            <path class="cls-6" d="M58.14,88.02c-.48-.3-.97-.56-1.47-.81.49.27.97.56,1.43.87,3.67,2.54,4.37,5.94,4.14,10.17,0,0,.67,0,.67,0,.01-4.32-.88-7.84-4.76-10.25Z"/>
            <path class="cls-6" d="M64.33,93.91c.09-3.6.66-7.44,3.1-10.25-2.39,2.56-3.21,5.94-3.53,9.36-.32-3.37-1.15-6.86-3.53-9.36,3.26,3.82,3.19,9.16,3.08,13.9,0,0,.13,0,.24,0,0,0,0,0,0,0,0,0,.12,0,.21,0,.09,0,.21,0,.21,0,0,0,0,0,0,0,.11,0,.24,0,.24,0-.03-1.22-.06-2.44-.03-3.65Z"/>
            <path class="cls-6" d="M65.49,94.61c.09-3.6.66-7.44,3.1-10.25-3.46,3.7-3.64,9.12-3.74,13.91h.67c-.03-1.22-.06-2.44-.03-3.65Z"/>
            <path class="cls-6" d="M69.89,86.76c-3.28,2.72-3.7,7.28-3.74,11.26,0,0,.67,0,.67,0-.17-3.93-.01-8.4,3.08-11.25Z"/>
          </g>
          <g>
            <path class="cls-6" d="M53.28,93.4c-.48-.3-.97-.56-1.47-.81.49.27.97.56,1.43.87,3.67,2.54,4.37,5.94,4.14,10.17,0,0,.67,0,.67,0,.01-4.32-.88-7.84-4.76-10.25Z"/>
            <path class="cls-6" d="M59.48,99.29c.09-3.6.66-7.44,3.1-10.25-2.39,2.56-3.21,5.94-3.53,9.36-.32-3.37-1.15-6.86-3.53-9.36,3.26,3.82,3.19,9.16,3.08,13.9,0,0,.13,0,.24,0,0,0,0,0,0,0,0,0,.12,0,.21,0,.09,0,.21,0,.21,0,0,0,0,0,0,0,.11,0,.24,0,.24,0-.03-1.22-.06-2.44-.03-3.65Z"/>
            <path class="cls-6" d="M60.63,99.99c.09-3.6.66-7.44,3.1-10.25-3.46,3.7-3.64,9.12-3.74,13.91h.67c-.03-1.22-.06-2.44-.03-3.65Z"/>
            <path class="cls-6" d="M65.04,92.14c-3.28,2.72-3.7,7.28-3.74,11.26,0,0,.67,0,.67,0-.17-3.93-.01-8.4,3.08-11.25Z"/>
          </g>
          <g>
            <path class="cls-6" d="M59.36,96.02c-.43-.22-.88-.42-1.33-.6.44.2.88.41,1.29.65,3.32,1.89,3.94,4.42,3.74,7.57,0,0,.6,0,.6,0,.01-3.22-.8-5.84-4.3-7.63Z"/>
            <path class="cls-6" d="M64.96,100.4c.08-2.68.6-5.54,2.8-7.63-2.16,1.9-2.9,4.42-3.19,6.97-.28-2.51-1.04-5.11-3.19-6.97,2.94,2.84,2.88,6.82,2.78,10.35,0,0,.12,0,.22,0,0,0,0,0,0,0,0,0,.11,0,.19,0,.08,0,.19,0,.19,0,0,0,0,0,0,0,.1,0,.22,0,.22,0-.03-.91-.05-1.81-.02-2.72Z"/>
            <path class="cls-6" d="M66,100.93c.08-2.68.6-5.54,2.8-7.63-3.12,2.75-3.29,6.79-3.38,10.35h.6c-.03-.91-.05-1.82-.02-2.72Z"/>
            <path class="cls-6" d="M69.98,95.08c-2.96,2.02-3.34,5.42-3.38,8.38,0,0,.6,0,.6,0-.15-2.93-.01-6.25,2.78-8.38Z"/>
          </g>
          <g>
            <path class="cls-6" d="M65.87,92.35c-.48-.3-.97-.56-1.47-.81.49.27.97.56,1.43.87,3.67,2.54,4.37,5.94,4.14,10.17,0,0,.67,0,.67,0,.01-4.32-.88-7.84-4.76-10.25Z"/>
            <path class="cls-6" d="M72.07,98.24c.09-3.6.66-7.44,3.1-10.25-2.39,2.56-3.21,5.94-3.53,9.36-.32-3.37-1.15-6.86-3.53-9.36,3.26,3.82,3.19,9.16,3.08,13.9,0,0,.13,0,.24,0,0,0,0,0,0,0,0,0,.12,0,.21,0,.09,0,.21,0,.21,0,0,0,0,0,0,0,.11,0,.24,0,.24,0-.03-1.22-.06-2.44-.03-3.65Z"/>
            <path class="cls-6" d="M73.22,98.94c.09-3.6.66-7.44,3.1-10.25-3.46,3.7-3.64,9.12-3.74,13.91h.67c-.03-1.22-.06-2.44-.03-3.65Z"/>
            <path class="cls-6" d="M77.63,91.09c-3.28,2.72-3.7,7.28-3.74,11.26,0,0,.67,0,.67,0-.17-3.93-.01-8.4,3.08-11.25Z"/>
          </g>
          <g>
            <path class="cls-6" d="M70.03,91.24c-.48-.3-.97-.56-1.47-.81.49.27.97.56,1.43.87,3.67,2.54,4.37,5.94,4.14,10.17,0,0,.67,0,.67,0,.01-4.32-.88-7.84-4.76-10.25Z"/>
            <path class="cls-6" d="M76.22,97.13c.09-3.6.66-7.44,3.1-10.25-2.39,2.56-3.21,5.94-3.53,9.36-.32-3.37-1.15-6.86-3.53-9.36,3.26,3.82,3.19,9.16,3.08,13.9,0,0,.13,0,.24,0,0,0,0,0,0,0,0,0,.12,0,.21,0,.09,0,.21,0,.21,0,0,0,0,0,0,0,.11,0,.24,0,.24,0-.03-1.22-.06-2.44-.03-3.65Z"/>
            <path class="cls-6" d="M77.37,97.84c.09-3.6.66-7.44,3.1-10.25-3.46,3.7-3.64,9.12-3.74,13.91h.67c-.03-1.22-.06-2.44-.03-3.65Z"/>
            <path class="cls-6" d="M81.78,89.98c-3.28,2.72-3.7,7.28-3.74,11.26,0,0,.67,0,.67,0-.17-3.93-.01-8.4,3.08-11.25Z"/>
          </g>
          <g>
            <path class="cls-6" d="M72.9,93.4c-.48-.3-.97-.56-1.47-.81.49.27.97.56,1.43.87,3.67,2.54,4.37,5.94,4.14,10.17,0,0,.67,0,.67,0,.01-4.32-.88-7.84-4.76-10.25Z"/>
            <path class="cls-6" d="M79.09,99.29c.09-3.6.66-7.44,3.1-10.25-2.39,2.56-3.21,5.94-3.53,9.36-.32-3.37-1.15-6.86-3.53-9.36,3.26,3.82,3.19,9.16,3.08,13.9,0,0,.13,0,.24,0,0,0,0,0,0,0,0,0,.12,0,.21,0,.09,0,.21,0,.21,0,0,0,0,0,0,0,.11,0,.24,0,.24,0-.03-1.22-.06-2.44-.03-3.65Z"/>
            <path class="cls-6" d="M80.25,99.99c.09-3.6.66-7.44,3.1-10.25-3.46,3.7-3.64,9.12-3.74,13.91h.67c-.03-1.22-.06-2.44-.03-3.65Z"/>
            <path class="cls-6" d="M84.65,92.14c-3.28,2.72-3.7,7.28-3.74,11.26,0,0,.67,0,.67,0-.17-3.93-.01-8.4,3.08-11.25Z"/>
          </g>
          <g>
            <path class="cls-6" d="M69.78,95.82c-.4-.21-.81-.39-1.23-.56.41.19.81.39,1.19.61,3.06,1.77,3.64,4.14,3.45,7.08,0,0,.56,0,.56,0,.01-3.01-.74-5.46-3.97-7.14Z"/>
            <path class="cls-6" d="M74.94,99.92c.07-2.5.55-5.18,2.58-7.14-1.99,1.78-2.68,4.13-2.94,6.52-.26-2.34-.96-4.78-2.94-6.52,2.71,2.66,2.66,6.37,2.56,9.68,0,0,.11,0,.2,0,0,0,0,0,0,0,0,0,.1,0,.18,0,.08,0,.18,0,.18,0,0,0,0,0,0,0,.09,0,.2,0,.2,0-.03-.85-.05-1.7-.02-2.54Z"/>
            <path class="cls-6" d="M75.9,100.41c.07-2.5.55-5.18,2.58-7.14-2.88,2.57-3.03,6.35-3.12,9.68h.56c-.03-.85-.05-1.7-.02-2.54Z"/>
            <path class="cls-6" d="M79.58,94.94c-2.73,1.89-3.08,5.06-3.12,7.84,0,0,.56,0,.56,0-.14-2.74-.01-5.84,2.56-7.83Z"/>
          </g>
          <g>
            <path class="cls-6" d="M51.31,90.56c-.4-.25-.82-.47-1.25-.68.42.23.82.47,1.21.74,3.12,2.14,3.71,5.01,3.52,8.58,0,0,.57,0,.57,0,.01-3.65-.75-6.61-4.05-8.64Z"/>
            <path class="cls-6" d="M56.57,95.52c.08-3.03.56-6.28,2.64-8.64-2.03,2.15-2.73,5.01-3,7.9-.27-2.84-.98-5.79-3-7.9,2.77,3.22,2.71,7.72,2.61,11.72,0,0,.11,0,.21,0,0,0,0,0,0,0,0,0,.1,0,.18,0,.08,0,.18,0,.18,0,0,0,0,0,0,0,.1,0,.21,0,.21,0-.03-1.03-.05-2.05-.02-3.08Z"/>
            <path class="cls-6" d="M57.55,96.12c.08-3.03.56-6.28,2.64-8.64-2.94,3.12-3.09,7.69-3.18,11.73h.57c-.03-1.03-.05-2.06-.02-3.08Z"/>
            <path class="cls-6" d="M61.29,89.5c-2.79,2.29-3.14,6.13-3.18,9.49,0,0,.57,0,.57,0-.14-3.31-.01-7.08,2.61-9.49Z"/>
          </g>
          <g>
            <path class="cls-6" d="M42.33,92.67c-.48-.3-.97-.56-1.47-.81.49.27.97.56,1.43.87,3.67,2.54,4.37,5.94,4.14,10.17,0,0,.67,0,.67,0,.01-4.32-.88-7.84-4.76-10.25Z"/>
            <path class="cls-6" d="M48.52,98.56c.09-3.6.66-7.44,3.1-10.25-2.39,2.56-3.21,5.94-3.53,9.36-.32-3.37-1.15-6.86-3.53-9.36,3.26,3.82,3.19,9.16,3.08,13.9,0,0,.13,0,.24,0,0,0,0,0,0,0,0,0,.12,0,.21,0,.09,0,.21,0,.21,0,0,0,0,0,0,0,.11,0,.24,0,.24,0-.03-1.22-.06-2.44-.03-3.65Z"/>
            <path class="cls-6" d="M49.67,99.26c.09-3.6.66-7.44,3.1-10.25-3.46,3.7-3.64,9.12-3.74,13.91h.67c-.03-1.22-.06-2.44-.03-3.65Z"/>
            <path class="cls-6" d="M54.08,91.41c-3.28,2.72-3.7,7.28-3.74,11.26,0,0,.67,0,.67,0-.17-3.93-.01-8.4,3.08-11.25Z"/>
          </g>
          <g>
            <path class="cls-6" d="M44.68,89.19c-.48-.3-.97-.56-1.47-.81.49.27.97.56,1.43.87,3.67,2.54,4.37,5.94,4.14,10.17,0,0,.67,0,.67,0,.01-4.32-.88-7.84-4.76-10.25Z"/>
            <path class="cls-6" d="M50.87,95.08c.09-3.6.66-7.44,3.1-10.25-2.39,2.56-3.21,5.94-3.53,9.36-.32-3.37-1.15-6.86-3.53-9.36,3.26,3.82,3.19,9.16,3.08,13.9,0,0,.13,0,.24,0,0,0,0,0,0,0,0,0,.12,0,.21,0,.09,0,.21,0,.21,0,0,0,0,0,0,0,.11,0,.24,0,.24,0-.03-1.22-.06-2.44-.03-3.65Z"/>
            <path class="cls-6" d="M52.03,95.79c.09-3.6.66-7.44,3.1-10.25-3.46,3.7-3.64,9.12-3.74,13.91h.67c-.03-1.22-.06-2.44-.03-3.65Z"/>
            <path class="cls-6" d="M56.43,87.93c-3.28,2.72-3.7,7.28-3.74,11.26,0,0,.67,0,.67,0-.17-3.93-.01-8.4,3.08-11.25Z"/>
          </g>
          <g>
            <path class="cls-6" d="M35.44,95.54c-.39-.22-.79-.42-1.2-.61.4.2.79.42,1.16.66,2.99,1.92,3.55,4.48,3.37,7.68,0,0,.54,0,.54,0,.01-3.26-.72-5.91-3.88-7.73Z"/>
            <path class="cls-6" d="M40.48,99.98c.07-2.71.54-5.62,2.52-7.73-1.95,1.93-2.62,4.48-2.87,7.06-.26-2.54-.94-5.18-2.87-7.06,2.65,2.88,2.6,6.91,2.5,10.49,0,0,.11,0,.2,0,0,0,0,0,0,0,0,0,.1,0,.17,0,.07,0,.17,0,.17,0,0,0,0,0,0,0,.09,0,.2,0,.2,0-.03-.92-.05-1.84-.02-2.75Z"/>
            <path class="cls-6" d="M41.42,100.51c.07-2.71.54-5.62,2.52-7.73-2.81,2.79-2.96,6.88-3.05,10.49h.54c-.03-.92-.05-1.84-.02-2.76Z"/>
            <path class="cls-6" d="M45.01,94.59c-2.67,2.05-3.01,5.49-3.05,8.49,0,0,.54,0,.54,0-.14-2.97-.01-6.33,2.5-8.49Z"/>
          </g>
        </g>
        <g id="Bush_Grasses" data-name="Bush Grasses">
          <g id="Grasses-2" data-name="Grasses">
            <g>
              <path class="cls-2" d="M63.3,90.38c-.48-.3-.97-.56-1.47-.81.49.27.97.56,1.43.87,3.67,2.54,4.37,5.94,4.14,10.17,0,0,.67,0,.67,0,.01-4.32-.88-7.84-4.76-10.25Z"/>
              <path class="cls-2" d="M69.49,96.27c.09-3.6.66-7.44,3.1-10.25-2.39,2.56-3.21,5.94-3.53,9.36-.32-3.37-1.15-6.86-3.53-9.36,3.26,3.82,3.19,9.16,3.08,13.9,0,0,.13,0,.24,0,0,0,0,0,0,0,0,0,.12,0,.21,0,.09,0,.21,0,.21,0,0,0,0,0,0,0,.11,0,.24,0,.24,0-.03-1.22-.06-2.44-.03-3.65Z"/>
              <path class="cls-2" d="M70.64,96.97c.09-3.6.66-7.44,3.1-10.25-3.46,3.7-3.64,9.12-3.74,13.91h.67c-.03-1.22-.06-2.44-.03-3.65Z"/>
              <path class="cls-2" d="M75.05,89.12c-3.28,2.72-3.7,7.28-3.74,11.26,0,0,.67,0,.67,0-.17-3.93-.01-8.4,3.08-11.25Z"/>
            </g>
            <g>
              <path class="cls-2" d="M78.93,87.15c-.48-.3-.97-.56-1.47-.81.49.27.97.56,1.43.87,3.67,2.54,4.37,5.94,4.14,10.17,0,0,.67,0,.67,0,.01-4.32-.88-7.84-4.76-10.25Z"/>
              <path class="cls-2" d="M85.12,93.04c.09-3.6.66-7.44,3.1-10.25-2.39,2.56-3.21,5.94-3.53,9.36-.32-3.37-1.15-6.86-3.53-9.36,3.26,3.82,3.19,9.16,3.08,13.9,0,0,.13,0,.24,0,0,0,0,0,0,0,0,0,.12,0,.21,0,.09,0,.21,0,.21,0,0,0,0,0,0,0,.11,0,.24,0,.24,0-.03-1.22-.06-2.44-.03-3.65Z"/>
              <path class="cls-2" d="M86.27,93.75c.09-3.6.66-7.44,3.1-10.25-3.46,3.7-3.64,9.12-3.74,13.91h.67c-.03-1.22-.06-2.44-.03-3.65Z"/>
              <path class="cls-2" d="M90.68,85.89c-3.28,2.72-3.7,7.28-3.74,11.26,0,0,.67,0,.67,0-.17-3.93-.01-8.4,3.08-11.25Z"/>
            </g>
            <g>
              <path class="cls-2" d="M74.06,85.35c-.48-.3-.97-.56-1.47-.81.49.27.97.56,1.43.87,3.67,2.54,4.37,5.94,4.14,10.17,0,0,.67,0,.67,0,.01-4.32-.88-7.84-4.76-10.25Z"/>
              <path class="cls-2" d="M80.26,91.24c.09-3.6.66-7.44,3.1-10.25-2.39,2.56-3.21,5.94-3.53,9.36-.32-3.37-1.15-6.86-3.53-9.36,3.26,3.82,3.19,9.16,3.08,13.9,0,0,.13,0,.24,0,0,0,0,0,0,0,0,0,.12,0,.21,0,.09,0,.21,0,.21,0,0,0,0,0,0,0,.11,0,.24,0,.24,0-.03-1.22-.06-2.44-.03-3.65Z"/>
              <path class="cls-2" d="M81.41,91.95c.09-3.6.66-7.44,3.1-10.25-3.46,3.7-3.64,9.12-3.74,13.91h.67c-.03-1.22-.06-2.44-.03-3.65Z"/>
              <path class="cls-2" d="M85.82,84.09c-3.28,2.72-3.7,7.28-3.74,11.26,0,0,.67,0,.67,0-.17-3.93-.01-8.4,3.08-11.25Z"/>
            </g>
            <g>
              <path class="cls-2" d="M69.21,90.73c-.48-.3-.97-.56-1.47-.81.49.27.97.56,1.43.87,3.67,2.54,4.37,5.94,4.14,10.17,0,0,.67,0,.67,0,.01-4.32-.88-7.84-4.76-10.25Z"/>
              <path class="cls-2" d="M75.4,96.62c.09-3.6.66-7.44,3.1-10.25-2.39,2.56-3.21,5.94-3.53,9.36-.32-3.37-1.15-6.86-3.53-9.36,3.26,3.82,3.19,9.16,3.08,13.9,0,0,.13,0,.24,0,0,0,0,0,0,0,0,0,.12,0,.21,0,.09,0,.21,0,.21,0,0,0,0,0,0,0,.11,0,.24,0,.24,0-.03-1.22-.06-2.44-.03-3.65Z"/>
              <path class="cls-2" d="M76.56,97.33c.09-3.6.66-7.44,3.1-10.25-3.46,3.7-3.64,9.12-3.74,13.91h.67c-.03-1.22-.06-2.44-.03-3.65Z"/>
              <path class="cls-2" d="M80.96,89.47c-3.28,2.72-3.7,7.28-3.74,11.26,0,0,.67,0,.67,0-.17-3.93-.01-8.4,3.08-11.25Z"/>
            </g>
            <g>
              <path class="cls-2" d="M75.29,93.35c-.43-.22-.88-.42-1.33-.6.44.2.88.41,1.29.65,3.32,1.89,3.94,4.42,3.74,7.57,0,0,.6,0,.6,0,.01-3.22-.8-5.84-4.3-7.63Z"/>
              <path class="cls-2" d="M80.88,97.74c.08-2.68.6-5.54,2.8-7.63-2.16,1.9-2.9,4.42-3.19,6.97-.28-2.51-1.04-5.11-3.19-6.97,2.94,2.84,2.88,6.82,2.78,10.35,0,0,.12,0,.22,0,0,0,0,0,0,0,0,0,.11,0,.19,0,.08,0,.19,0,.19,0,0,0,0,0,0,0,.1,0,.22,0,.22,0-.03-.91-.05-1.81-.02-2.72Z"/>
              <path class="cls-2" d="M81.93,98.26c.08-2.68.6-5.54,2.8-7.63-3.12,2.75-3.29,6.79-3.38,10.35h.6c-.03-.91-.05-1.82-.02-2.72Z"/>
              <path class="cls-2" d="M85.91,92.41c-2.96,2.02-3.34,5.42-3.38,8.38,0,0,.6,0,.6,0-.15-2.93-.01-6.25,2.78-8.38Z"/>
            </g>
            <g>
              <path class="cls-2" d="M81.8,89.68c-.48-.3-.97-.56-1.47-.81.49.27.97.56,1.43.87,3.67,2.54,4.37,5.94,4.14,10.17,0,0,.67,0,.67,0,.01-4.32-.88-7.84-4.76-10.25Z"/>
              <path class="cls-2" d="M87.99,95.57c.09-3.6.66-7.44,3.1-10.25-2.39,2.56-3.21,5.94-3.53,9.36-.32-3.37-1.15-6.86-3.53-9.36,3.26,3.82,3.19,9.16,3.08,13.9,0,0,.13,0,.24,0,0,0,0,0,0,0,0,0,.12,0,.21,0,.09,0,.21,0,.21,0,0,0,0,0,0,0,.11,0,.24,0,.24,0-.03-1.22-.06-2.44-.03-3.65Z"/>
              <path class="cls-2" d="M89.15,96.28c.09-3.6.66-7.44,3.1-10.25-3.46,3.7-3.64,9.12-3.74,13.91h.67c-.03-1.22-.06-2.44-.03-3.65Z"/>
              <path class="cls-2" d="M93.55,88.42c-3.28,2.72-3.7,7.28-3.74,11.26,0,0,.67,0,.67,0-.17-3.93-.01-8.4,3.08-11.25Z"/>
            </g>
            <g>
              <path class="cls-2" d="M85.95,88.58c-.48-.3-.97-.56-1.47-.81.49.27.97.56,1.43.87,3.67,2.54,4.37,5.94,4.14,10.17,0,0,.67,0,.67,0,.01-4.32-.88-7.84-4.76-10.25Z"/>
              <path class="cls-2" d="M92.14,94.47c.09-3.6.66-7.44,3.1-10.25-2.39,2.56-3.21,5.94-3.53,9.36-.32-3.37-1.15-6.86-3.53-9.36,3.26,3.82,3.19,9.16,3.08,13.9,0,0,.13,0,.24,0,0,0,0,0,0,0,0,0,.12,0,.21,0,.09,0,.21,0,.21,0,0,0,0,0,0,0,.11,0,.24,0,.24,0-.03-1.22-.06-2.44-.03-3.65Z"/>
              <path class="cls-2" d="M93.3,95.17c.09-3.6.66-7.44,3.1-10.25-3.46,3.7-3.64,9.12-3.74,13.91h.67c-.03-1.22-.06-2.44-.03-3.65Z"/>
              <path class="cls-2" d="M97.71,87.32c-3.28,2.72-3.7,7.28-3.74,11.26,0,0,.67,0,.67,0-.17-3.93-.01-8.4,3.08-11.25Z"/>
            </g>
            <g>
              <path class="cls-2" d="M88.82,90.73c-.48-.3-.97-.56-1.47-.81.49.27.97.56,1.43.87,3.67,2.54,4.37,5.94,4.14,10.17,0,0,.67,0,.67,0,.01-4.32-.88-7.84-4.76-10.25Z"/>
              <path class="cls-2" d="M95.01,96.62c.09-3.6.66-7.44,3.1-10.25-2.39,2.56-3.21,5.94-3.53,9.36-.32-3.37-1.15-6.86-3.53-9.36,3.26,3.82,3.19,9.16,3.08,13.9,0,0,.13,0,.24,0,0,0,0,0,0,0,0,0,.12,0,.21,0,.09,0,.21,0,.21,0,0,0,0,0,0,0,.11,0,.24,0,.24,0-.03-1.22-.06-2.44-.03-3.65Z"/>
              <path class="cls-2" d="M96.17,97.33c.09-3.6.66-7.44,3.1-10.25-3.46,3.7-3.64,9.12-3.74,13.91h.67c-.03-1.22-.06-2.44-.03-3.65Z"/>
              <path class="cls-2" d="M100.58,89.47c-3.28,2.72-3.7,7.28-3.74,11.26,0,0,.67,0,.67,0-.17-3.93-.01-8.4,3.08-11.25Z"/>
            </g>
            <g>
              <path class="cls-2" d="M85.71,93.15c-.4-.21-.81-.39-1.23-.56.41.19.81.39,1.19.61,3.06,1.77,3.64,4.14,3.45,7.08,0,0,.56,0,.56,0,.01-3.01-.74-5.46-3.97-7.14Z"/>
              <path class="cls-2" d="M90.87,97.25c.07-2.5.55-5.18,2.58-7.14-1.99,1.78-2.68,4.13-2.94,6.52-.26-2.34-.96-4.78-2.94-6.52,2.71,2.66,2.66,6.37,2.56,9.68,0,0,.11,0,.2,0,0,0,0,0,0,0,0,0,.1,0,.18,0,.08,0,.18,0,.18,0,0,0,0,0,0,0,.09,0,.2,0,.2,0-.03-.85-.05-1.7-.02-2.54Z"/>
              <path class="cls-2" d="M91.83,97.74c.07-2.5.55-5.18,2.58-7.14-2.88,2.57-3.03,6.35-3.12,9.68h.56c-.03-.85-.05-1.7-.02-2.54Z"/>
              <path class="cls-2" d="M95.5,92.27c-2.73,1.89-3.08,5.06-3.12,7.84,0,0,.56,0,.56,0-.14-2.74-.01-5.84,2.56-7.83Z"/>
            </g>
            <g>
              <path class="cls-2" d="M67.23,87.89c-.4-.25-.82-.47-1.25-.68.42.23.82.47,1.21.74,3.12,2.14,3.71,5.01,3.52,8.58,0,0,.57,0,.57,0,.01-3.65-.75-6.61-4.05-8.64Z"/>
              <path class="cls-2" d="M72.49,92.86c.08-3.03.56-6.28,2.64-8.64-2.03,2.15-2.73,5.01-3,7.9-.27-2.84-.98-5.79-3-7.9,2.77,3.22,2.71,7.72,2.61,11.72,0,0,.11,0,.21,0,0,0,0,0,0,0,0,0,.1,0,.18,0,.08,0,.18,0,.18,0,0,0,0,0,0,0,.1,0,.21,0,.21,0-.03-1.03-.05-2.05-.02-3.08Z"/>
              <path class="cls-2" d="M73.48,93.45c.08-3.03.56-6.28,2.64-8.64-2.94,3.12-3.09,7.69-3.18,11.73h.57c-.03-1.03-.05-2.06-.02-3.08Z"/>
              <path class="cls-2" d="M77.22,86.83c-2.79,2.29-3.14,6.13-3.18,9.49,0,0,.57,0,.57,0-.14-3.31-.01-7.08,2.61-9.49Z"/>
            </g>
            <g>
              <path class="cls-2" d="M58.25,90c-.48-.3-.97-.56-1.47-.81.49.27.97.56,1.43.87,3.67,2.54,4.37,5.94,4.14,10.17,0,0,.67,0,.67,0,.01-4.32-.88-7.84-4.76-10.25Z"/>
              <path class="cls-2" d="M64.44,95.89c.09-3.6.66-7.44,3.1-10.25-2.39,2.56-3.21,5.94-3.53,9.36-.32-3.37-1.15-6.86-3.53-9.36,3.26,3.82,3.19,9.16,3.08,13.9,0,0,.13,0,.24,0,0,0,0,0,0,0,0,0,.12,0,.21,0,.09,0,.21,0,.21,0,0,0,0,0,0,0,.11,0,.24,0,.24,0-.03-1.22-.06-2.44-.03-3.65Z"/>
              <path class="cls-2" d="M65.6,96.6c.09-3.6.66-7.44,3.1-10.25-3.46,3.7-3.64,9.12-3.74,13.91h.67c-.03-1.22-.06-2.44-.03-3.65Z"/>
              <path class="cls-2" d="M70,88.74c-3.28,2.72-3.7,7.28-3.74,11.26,0,0,.67,0,.67,0-.17-3.93-.01-8.4,3.08-11.25Z"/>
            </g>
            <g>
              <path class="cls-2" d="M60.6,86.53c-.48-.3-.97-.56-1.47-.81.49.27.97.56,1.43.87,3.67,2.54,4.37,5.94,4.14,10.17,0,0,.67,0,.67,0,.01-4.32-.88-7.84-4.76-10.25Z"/>
              <path class="cls-2" d="M66.8,92.42c.09-3.6.66-7.44,3.1-10.25-2.39,2.56-3.21,5.94-3.53,9.36-.32-3.37-1.15-6.86-3.53-9.36,3.26,3.82,3.19,9.16,3.08,13.9,0,0,.13,0,.24,0,0,0,0,0,0,0,0,0,.12,0,.21,0,.09,0,.21,0,.21,0,0,0,0,0,0,0,.11,0,.24,0,.24,0-.03-1.22-.06-2.44-.03-3.65Z"/>
              <path class="cls-2" d="M67.95,93.12c.09-3.6.66-7.44,3.1-10.25-3.46,3.7-3.64,9.12-3.74,13.91h.67c-.03-1.22-.06-2.44-.03-3.65Z"/>
              <path class="cls-2" d="M72.36,85.27c-3.28,2.72-3.7,7.28-3.74,11.26,0,0,.67,0,.67,0-.17-3.93-.01-8.4,3.08-11.25Z"/>
            </g>
            <g>
              <path class="cls-2" d="M51.36,92.87c-.39-.22-.79-.42-1.2-.61.4.2.79.42,1.16.66,2.99,1.92,3.55,4.48,3.37,7.68,0,0,.54,0,.54,0,.01-3.26-.72-5.91-3.88-7.73Z"/>
              <path class="cls-2" d="M56.4,97.32c.07-2.71.54-5.62,2.52-7.73-1.95,1.93-2.62,4.48-2.87,7.06-.26-2.54-.94-5.18-2.87-7.06,2.65,2.88,2.6,6.91,2.5,10.49,0,0,.11,0,.2,0,0,0,0,0,0,0,0,0,.1,0,.17,0,.07,0,.17,0,.17,0,0,0,0,0,0,0,.09,0,.2,0,.2,0-.03-.92-.05-1.84-.02-2.75Z"/>
              <path class="cls-2" d="M57.34,97.85c.07-2.71.54-5.62,2.52-7.73-2.81,2.79-2.96,6.88-3.05,10.49h.54c-.03-.92-.05-1.84-.02-2.76Z"/>
              <path class="cls-2" d="M60.93,91.92c-2.67,2.05-3.01,5.49-3.05,8.49,0,0,.54,0,.54,0-.14-2.97-.01-6.33,2.5-8.49Z"/>
            </g>
          </g>
          <g id="Grasses-3" data-name="Grasses">
            <g>
              <path class="cls-2" d="M21.06,82.65c-.67-.42-1.36-.79-2.07-1.13.69.38,1.36.78,2,1.23,5.15,3.57,6.12,8.33,5.81,14.27,0,0,.93.01.93.01.02-6.06-1.24-10.99-6.68-14.37Z"/>
              <path class="cls-2" d="M29.74,90.9c.12-5.04.93-10.44,4.35-14.37-3.35,3.58-4.51,8.32-4.95,13.13-.44-4.72-1.61-9.62-4.95-13.13,4.57,5.35,4.47,12.84,4.31,19.49,0,0,.18,0,.34,0,0,0,0,0,0,0,0,0,.17,0,.3,0,.13,0,.3,0,.3,0,0,0,0,0,0,0,.16,0,.34,0,.34,0-.05-1.71-.08-3.42-.04-5.12Z"/>
              <path class="cls-2" d="M31.36,91.89c.12-5.04.93-10.44,4.35-14.37-4.85,5.18-5.1,12.79-5.25,19.5h.93c-.05-1.71-.08-3.42-.04-5.12Z"/>
              <path class="cls-2" d="M37.54,80.88c-4.6,3.81-5.18,10.2-5.25,15.79,0,0,.93,0,.93,0-.24-5.51-.02-11.77,4.31-15.78Z"/>
            </g>
            <g>
              <path class="cls-2" d="M42.97,78.12c-.67-.42-1.36-.79-2.07-1.13.69.38,1.36.78,2,1.23,5.15,3.57,6.12,8.33,5.81,14.27,0,0,.93.01.93.01.02-6.06-1.24-10.99-6.68-14.37Z"/>
              <path class="cls-2" d="M51.66,86.38c.12-5.04.93-10.44,4.35-14.37-3.35,3.58-4.51,8.32-4.95,13.13-.44-4.72-1.61-9.62-4.95-13.13,4.57,5.35,4.47,12.84,4.31,19.49,0,0,.18,0,.34,0,0,0,0,0,0,0,0,0,.17,0,.3,0,.13,0,.3,0,.3,0,0,0,0,0,0,0,.16,0,.34,0,.34,0-.05-1.71-.08-3.42-.04-5.12Z"/>
              <path class="cls-2" d="M53.28,87.37c.12-5.04.93-10.44,4.35-14.37-4.85,5.18-5.1,12.79-5.25,19.5h.93c-.05-1.71-.08-3.42-.04-5.12Z"/>
              <path class="cls-2" d="M59.45,76.36c-4.6,3.81-5.18,10.2-5.25,15.79,0,0,.93,0,.93,0-.24-5.51-.02-11.77,4.31-15.78Z"/>
            </g>
            <g>
              <path class="cls-2" d="M36.16,75.6c-.67-.42-1.36-.79-2.07-1.13.69.38,1.36.78,2,1.23,5.15,3.57,6.12,8.33,5.81,14.27,0,0,.93.01.93.01.02-6.06-1.24-10.99-6.68-14.37Z"/>
              <path class="cls-2" d="M44.84,83.86c.12-5.04.93-10.44,4.35-14.37-3.35,3.58-4.51,8.32-4.95,13.13-.44-4.72-1.61-9.62-4.95-13.13,4.57,5.35,4.47,12.84,4.31,19.49,0,0,.18,0,.34,0,0,0,0,0,0,0,0,0,.17,0,.3,0,.13,0,.3,0,.3,0,0,0,0,0,0,0,.16,0,.34,0,.34,0-.05-1.71-.08-3.42-.04-5.12Z"/>
              <path class="cls-2" d="M46.46,84.85c.12-5.04.93-10.44,4.35-14.37-4.85,5.18-5.1,12.79-5.25,19.5h.93c-.05-1.71-.08-3.42-.04-5.12Z"/>
              <path class="cls-2" d="M52.64,73.83c-4.6,3.81-5.18,10.2-5.25,15.79,0,0,.93,0,.93,0-.24-5.51-.02-11.77,4.31-15.78Z"/>
            </g>
            <g>
              <path class="cls-2" d="M29.35,83.14c-.67-.42-1.36-.79-2.07-1.13.69.38,1.36.78,2,1.23,5.15,3.57,6.12,8.33,5.81,14.27,0,0,.93.01.93.01.02-6.06-1.24-10.99-6.68-14.37Z"/>
              <path class="cls-2" d="M38.03,91.4c.12-5.04.93-10.44,4.35-14.37-3.35,3.58-4.51,8.32-4.95,13.13-.44-4.72-1.61-9.62-4.95-13.13,4.57,5.35,4.47,12.84,4.31,19.49,0,0,.18,0,.34,0,0,0,0,0,0,0,0,0,.17,0,.3,0,.13,0,.3,0,.3,0,0,0,0,0,0,0,.16,0,.34,0,.34,0-.05-1.71-.08-3.42-.04-5.12Z"/>
              <path class="cls-2" d="M39.65,92.39c.12-5.04.93-10.44,4.35-14.37-4.85,5.18-5.1,12.79-5.25,19.5h.93c-.05-1.71-.08-3.42-.04-5.12Z"/>
              <path class="cls-2" d="M45.83,81.38c-4.6,3.81-5.18,10.2-5.25,15.79,0,0,.93,0,.93,0-.24-5.51-.02-11.77,4.31-15.78Z"/>
            </g>
            <g>
              <path class="cls-2" d="M37.87,86.82c-.6-.31-1.23-.59-1.87-.84.62.28,1.23.58,1.81.91,4.65,2.65,5.53,6.2,5.25,10.62,0,0,.84,0,.84,0,.02-4.51-1.12-8.18-6.03-10.7Z"/>
              <path class="cls-2" d="M45.72,92.96c.11-3.75.84-7.77,3.93-10.7-3.03,2.67-4.07,6.2-4.47,9.77-.4-3.51-1.46-7.16-4.47-9.77,4.13,3.98,4.04,9.56,3.89,14.51,0,0,.16,0,.31,0,0,0,0,0,0,0,0,0,.15,0,.27,0,.12,0,.27,0,.27,0,0,0,0,0,0,0,.14,0,.31,0,.31,0-.04-1.27-.07-2.54-.03-3.81Z"/>
              <path class="cls-2" d="M47.18,93.7c.11-3.75.84-7.77,3.93-10.7-4.38,3.86-4.61,9.52-4.74,14.51h.84c-.04-1.28-.07-2.55-.03-3.81Z"/>
              <path class="cls-2" d="M52.76,85.5c-4.16,2.84-4.68,7.59-4.74,11.75,0,0,.84,0,.84,0-.21-4.1-.02-8.76,3.89-11.74Z"/>
            </g>
            <g>
              <path class="cls-2" d="M47,81.67c-.67-.42-1.36-.79-2.07-1.13.69.38,1.36.78,2,1.23,5.15,3.57,6.12,8.33,5.81,14.27,0,0,.93.01.93.01.02-6.06-1.24-10.99-6.68-14.37Z"/>
              <path class="cls-2" d="M55.68,89.93c.12-5.04.93-10.44,4.35-14.37-3.35,3.58-4.51,8.32-4.95,13.13-.44-4.72-1.61-9.62-4.95-13.13,4.57,5.35,4.47,12.84,4.31,19.49,0,0,.18,0,.34,0,0,0,0,0,0,0,0,0,.17,0,.3,0,.13,0,.3,0,.3,0,0,0,0,0,0,0,.16,0,.34,0,.34,0-.05-1.71-.08-3.42-.04-5.12Z"/>
              <path class="cls-2" d="M57.3,90.92c.12-5.04.93-10.44,4.35-14.37-4.85,5.18-5.1,12.79-5.25,19.5h.93c-.05-1.71-.08-3.42-.04-5.12Z"/>
              <path class="cls-2" d="M63.48,79.91c-4.6,3.81-5.18,10.2-5.25,15.79,0,0,.93,0,.93,0-.24-5.51-.02-11.77,4.31-15.78Z"/>
            </g>
            <g>
              <path class="cls-2" d="M52.82,80.12c-.67-.42-1.36-.79-2.07-1.13.69.38,1.36.78,2,1.23,5.15,3.57,6.12,8.33,5.81,14.27,0,0,.93.01.93.01.02-6.06-1.24-10.99-6.68-14.37Z"/>
              <path class="cls-2" d="M61.51,88.38c.12-5.04.93-10.44,4.35-14.37-3.35,3.58-4.51,8.32-4.95,13.13-.44-4.72-1.61-9.62-4.95-13.13,4.57,5.35,4.47,12.84,4.31,19.49,0,0,.18,0,.34,0,0,0,0,0,0,0,0,0,.17,0,.3,0,.13,0,.3,0,.3,0,0,0,0,0,0,0,.16,0,.34,0,.34,0-.05-1.71-.08-3.42-.04-5.12Z"/>
              <path class="cls-2" d="M63.13,89.37c.12-5.04.93-10.44,4.35-14.37-4.85,5.18-5.1,12.79-5.25,19.5h.93c-.05-1.71-.08-3.42-.04-5.12Z"/>
              <path class="cls-2" d="M69.3,78.36c-4.6,3.81-5.18,10.2-5.25,15.79,0,0,.93,0,.93,0-.24-5.51-.02-11.77,4.31-15.78Z"/>
            </g>
            <g>
              <path class="cls-2" d="M56.85,83.14c-.67-.42-1.36-.79-2.07-1.13.69.38,1.36.78,2,1.23,5.15,3.57,6.12,8.33,5.81,14.27,0,0,.93.01.93.01.02-6.06-1.24-10.99-6.68-14.37Z"/>
              <path class="cls-2" d="M65.53,91.4c.12-5.04.93-10.44,4.35-14.37-3.35,3.58-4.51,8.32-4.95,13.13-.44-4.72-1.61-9.62-4.95-13.13,4.57,5.35,4.47,12.84,4.31,19.49,0,0,.18,0,.34,0,0,0,0,0,0,0,0,0,.17,0,.3,0,.13,0,.3,0,.3,0,0,0,0,0,0,0,.16,0,.34,0,.34,0-.05-1.71-.08-3.42-.04-5.12Z"/>
              <path class="cls-2" d="M67.15,92.39c.12-5.04.93-10.44,4.35-14.37-4.85,5.18-5.1,12.79-5.25,19.5h.93c-.05-1.71-.08-3.42-.04-5.12Z"/>
              <path class="cls-2" d="M73.33,81.38c-4.6,3.81-5.18,10.2-5.25,15.79,0,0,.93,0,.93,0-.24-5.51-.02-11.77,4.31-15.78Z"/>
            </g>
            <g>
              <path class="cls-2" d="M52.48,86.53c-.56-.29-1.13-.55-1.72-.79.57.26,1.13.54,1.67.85,4.29,2.48,5.1,5.8,4.84,9.93,0,0,.78,0,.78,0,.01-4.22-1.03-7.65-5.57-10.01Z"/>
              <path class="cls-2" d="M59.71,92.28c.1-3.51.78-7.26,3.62-10.01-2.79,2.49-3.76,5.79-4.12,9.14-.37-3.29-1.34-6.7-4.12-9.14,3.81,3.72,3.72,8.94,3.59,13.57,0,0,.15,0,.28,0,0,0,0,0,0,0,0,0,.14,0,.25,0,.11,0,.25,0,.25,0,0,0,0,0,0,0,.13,0,.28,0,.28,0-.04-1.19-.07-2.38-.03-3.56Z"/>
              <path class="cls-2" d="M61.06,92.97c.1-3.51.78-7.26,3.62-10.01-4.04,3.61-4.25,8.9-4.37,13.57h.78c-.04-1.19-.07-2.38-.03-3.57Z"/>
              <path class="cls-2" d="M66.21,85.31c-3.83,2.65-4.32,7.1-4.37,10.99,0,0,.78,0,.78,0-.2-3.84-.02-8.19,3.59-10.98Z"/>
            </g>
            <g>
              <path class="cls-2" d="M26.57,79.16c-.57-.35-1.16-.66-1.76-.95.58.32,1.15.66,1.7,1.03,4.37,3.01,5.2,7.03,4.94,12.03,0,0,.79,0,.79,0,.02-5.11-1.05-9.27-5.68-12.12Z"/>
              <path class="cls-2" d="M33.95,86.13c.11-4.25.79-8.8,3.7-12.12-2.85,3.02-3.83,7.02-4.21,11.07-.38-3.98-1.37-8.11-4.21-11.07,3.88,4.51,3.8,10.83,3.67,16.44,0,0,.16,0,.29,0,0,0,0,0,0,0,0,0,.14,0,.25,0,.11,0,.25,0,.25,0,0,0,0,0,0,0,.13,0,.29,0,.29,0-.04-1.44-.07-2.88-.03-4.32Z"/>
              <path class="cls-2" d="M35.33,86.96c.11-4.25.79-8.8,3.7-12.12-4.12,4.37-4.34,10.78-4.46,16.44h.79c-.04-1.45-.07-2.88-.03-4.32Z"/>
              <path class="cls-2" d="M40.58,77.67c-3.91,3.22-4.4,8.6-4.46,13.31,0,0,.79,0,.79,0-.2-4.65-.02-9.92,3.67-13.31Z"/>
            </g>
            <g>
              <path class="cls-2" d="M13.98,82.12c-.67-.42-1.36-.79-2.07-1.13.69.38,1.36.78,2,1.23,5.15,3.57,6.12,8.33,5.81,14.27,0,0,.93.01.93.01.02-6.06-1.24-10.99-6.68-14.37Z"/>
              <path class="cls-2" d="M22.67,90.38c.12-5.04.93-10.44,4.35-14.37-3.35,3.58-4.51,8.32-4.95,13.13-.44-4.72-1.61-9.62-4.95-13.13,4.57,5.35,4.47,12.84,4.31,19.49,0,0,.18,0,.34,0,0,0,0,0,0,0,0,0,.17,0,.3,0,.13,0,.3,0,.3,0,0,0,0,0,0,0,.16,0,.34,0,.34,0-.05-1.71-.08-3.42-.04-5.12Z"/>
              <path class="cls-2" d="M24.29,91.37c.12-5.04.93-10.44,4.35-14.37-4.85,5.18-5.1,12.79-5.25,19.5h.93c-.05-1.71-.08-3.42-.04-5.12Z"/>
              <path class="cls-2" d="M30.46,80.36c-4.6,3.81-5.18,10.2-5.25,15.79,0,0,.93,0,.93,0-.24-5.51-.02-11.77,4.31-15.78Z"/>
            </g>
            <g>
              <path class="cls-2" d="M17.28,77.25c-.67-.42-1.36-.79-2.07-1.13.69.38,1.36.78,2,1.23,5.15,3.57,6.12,8.33,5.81,14.27,0,0,.93.01.93.01.02-6.06-1.24-10.99-6.68-14.37Z"/>
              <path class="cls-2" d="M25.97,85.5c.12-5.04.93-10.44,4.35-14.37-3.35,3.58-4.51,8.32-4.95,13.13-.44-4.72-1.61-9.62-4.95-13.13,4.57,5.35,4.47,12.84,4.31,19.49,0,0,.18,0,.34,0,0,0,0,0,0,0,0,0,.17,0,.3,0,.13,0,.3,0,.3,0,0,0,0,0,0,0,.16,0,.34,0,.34,0-.05-1.71-.08-3.42-.04-5.12Z"/>
              <path class="cls-2" d="M27.59,86.49c.12-5.04.93-10.44,4.35-14.37-4.85,5.18-5.1,12.79-5.25,19.5h.93c-.05-1.71-.08-3.42-.04-5.12Z"/>
              <path class="cls-2" d="M33.76,75.48c-4.6,3.81-5.18,10.2-5.25,15.79,0,0,.93,0,.93,0-.24-5.51-.02-11.77,4.31-15.78Z"/>
            </g>
            <g>
              <path class="cls-2" d="M4.33,86.14c-.54-.31-1.11-.59-1.68-.85.56.28,1.11.59,1.63.93,4.19,2.69,4.98,6.29,4.73,10.76,0,0,.76,0,.76,0,.01-4.57-1.01-8.29-5.44-10.84Z"/>
              <path class="cls-2" d="M11.4,92.37c.1-3.8.76-7.87,3.54-10.84-2.73,2.7-3.67,6.28-4.03,9.9-.36-3.56-1.31-7.26-4.03-9.9,3.72,4.04,3.64,9.68,3.51,14.7,0,0,.15,0,.28,0,0,0,0,0,0,0,0,0,.14,0,.24,0,.11,0,.24,0,.24,0,0,0,0,0,0,0,.13,0,.28,0,.28,0-.04-1.29-.06-2.58-.03-3.86Z"/>
              <path class="cls-2" d="M12.72,93.12c.1-3.8.76-7.87,3.54-10.84-3.94,3.91-4.15,9.64-4.27,14.71h.76c-.04-1.29-.06-2.58-.03-3.86Z"/>
              <path class="cls-2" d="M17.74,84.81c-3.75,2.88-4.22,7.7-4.27,11.91,0,0,.76,0,.76,0-.19-4.16-.02-8.88,3.51-11.9Z"/>
            </g>
          </g>
          <g id="Grasses-4" data-name="Grasses">
            <g>
              <path class="cls-6" d="M68.39,97.66c-.48-.3-.97-.56-1.47-.81.49.27.97.56,1.43.87,3.67,2.54,4.37,5.94,4.14,10.17,0,0,.67,0,.67,0,.01-4.32-.88-7.84-4.76-10.25Z"/>
              <path class="cls-6" d="M74.59,103.55c.09-3.6.66-7.44,3.1-10.25-2.39,2.56-3.21,5.94-3.53,9.36-.32-3.37-1.15-6.86-3.53-9.36,3.26,3.82,3.19,9.16,3.08,13.9,0,0,.13,0,.24,0,0,0,0,0,0,0,0,0,.12,0,.21,0,.09,0,.21,0,.21,0,0,0,0,0,0,0,.11,0,.24,0,.24,0-.03-1.22-.06-2.44-.03-3.65Z"/>
              <path class="cls-6" d="M75.74,104.26c.09-3.6.66-7.44,3.1-10.25-3.46,3.7-3.64,9.12-3.74,13.91h.67c-.03-1.22-.06-2.44-.03-3.65Z"/>
              <path class="cls-6" d="M80.15,96.4c-3.28,2.72-3.7,7.28-3.74,11.26,0,0,.67,0,.67,0-.17-3.93-.01-8.4,3.08-11.25Z"/>
            </g>
            <g>
              <path class="cls-6" d="M84.02,94.43c-.48-.3-.97-.56-1.47-.81.49.27.97.56,1.43.87,3.67,2.54,4.37,5.94,4.14,10.17,0,0,.67,0,.67,0,.01-4.32-.88-7.84-4.76-10.25Z"/>
              <path class="cls-6" d="M90.21,100.32c.09-3.6.66-7.44,3.1-10.25-2.39,2.56-3.21,5.94-3.53,9.36-.32-3.37-1.15-6.86-3.53-9.36,3.26,3.82,3.19,9.16,3.08,13.9,0,0,.13,0,.24,0,0,0,0,0,0,0,0,0,.12,0,.21,0,.09,0,.21,0,.21,0,0,0,0,0,0,0,.11,0,.24,0,.24,0-.03-1.22-.06-2.44-.03-3.65Z"/>
              <path class="cls-6" d="M91.37,101.03c.09-3.6.66-7.44,3.1-10.25-3.46,3.7-3.64,9.12-3.74,13.91h.67c-.03-1.22-.06-2.44-.03-3.65Z"/>
              <path class="cls-6" d="M95.78,93.17c-3.28,2.72-3.7,7.28-3.74,11.26,0,0,.67,0,.67,0-.17-3.93-.01-8.4,3.08-11.25Z"/>
            </g>
            <g>
              <path class="cls-6" d="M79.16,92.63c-.48-.3-.97-.56-1.47-.81.49.27.97.56,1.43.87,3.67,2.54,4.37,5.94,4.14,10.17,0,0,.67,0,.67,0,.01-4.32-.88-7.84-4.76-10.25Z"/>
              <path class="cls-6" d="M85.35,98.52c.09-3.6.66-7.44,3.1-10.25-2.39,2.56-3.21,5.94-3.53,9.36-.32-3.37-1.15-6.86-3.53-9.36,3.26,3.82,3.19,9.16,3.08,13.9,0,0,.13,0,.24,0,0,0,0,0,0,0,0,0,.12,0,.21,0,.09,0,.21,0,.21,0,0,0,0,0,0,0,.11,0,.24,0,.24,0-.03-1.22-.06-2.44-.03-3.65Z"/>
              <path class="cls-6" d="M86.51,99.23c.09-3.6.66-7.44,3.1-10.25-3.46,3.7-3.64,9.12-3.74,13.91h.67c-.03-1.22-.06-2.44-.03-3.65Z"/>
              <path class="cls-6" d="M90.91,91.37c-3.28,2.72-3.7,7.28-3.74,11.26,0,0,.67,0,.67,0-.17-3.93-.01-8.4,3.08-11.25Z"/>
            </g>
            <g>
              <path class="cls-6" d="M74.3,98.01c-.48-.3-.97-.56-1.47-.81.49.27.97.56,1.43.87,3.67,2.54,4.37,5.94,4.14,10.17,0,0,.67,0,.67,0,.01-4.32-.88-7.84-4.76-10.25Z"/>
              <path class="cls-6" d="M80.5,103.9c.09-3.6.66-7.44,3.1-10.25-2.39,2.56-3.21,5.94-3.53,9.36-.32-3.37-1.15-6.86-3.53-9.36,3.26,3.82,3.19,9.16,3.08,13.9,0,0,.13,0,.24,0,0,0,0,0,0,0,0,0,.12,0,.21,0,.09,0,.21,0,.21,0,0,0,0,0,0,0,.11,0,.24,0,.24,0-.03-1.22-.06-2.44-.03-3.65Z"/>
              <path class="cls-6" d="M81.65,104.61c.09-3.6.66-7.44,3.1-10.25-3.46,3.7-3.64,9.12-3.74,13.91h.67c-.03-1.22-.06-2.44-.03-3.65Z"/>
              <path class="cls-6" d="M86.06,96.75c-3.28,2.72-3.7,7.28-3.74,11.26,0,0,.67,0,.67,0-.17-3.93-.01-8.4,3.08-11.25Z"/>
            </g>
            <g>
              <path class="cls-6" d="M80.38,100.63c-.43-.22-.88-.42-1.33-.6.44.2.88.41,1.29.65,3.32,1.89,3.94,4.42,3.74,7.57,0,0,.6,0,.6,0,.01-3.22-.8-5.84-4.3-7.63Z"/>
              <path class="cls-6" d="M85.98,105.02c.08-2.68.6-5.54,2.8-7.63-2.16,1.9-2.9,4.42-3.19,6.97-.28-2.51-1.04-5.11-3.19-6.97,2.94,2.84,2.88,6.82,2.78,10.35,0,0,.12,0,.22,0,0,0,0,0,0,0,0,0,.11,0,.19,0,.08,0,.19,0,.19,0,0,0,0,0,0,0,.1,0,.22,0,.22,0-.03-.91-.05-1.81-.02-2.72Z"/>
              <path class="cls-6" d="M87.02,105.54c.08-2.68.6-5.54,2.8-7.63-3.12,2.75-3.29,6.79-3.38,10.35h.6c-.03-.91-.05-1.82-.02-2.72Z"/>
              <path class="cls-6" d="M91,99.7c-2.96,2.02-3.34,5.42-3.38,8.38,0,0,.6,0,.6,0-.15-2.93-.01-6.25,2.78-8.38Z"/>
            </g>
            <g>
              <path class="cls-6" d="M86.89,96.97c-.48-.3-.97-.56-1.47-.81.49.27.97.56,1.43.87,3.67,2.54,4.37,5.94,4.14,10.17,0,0,.67,0,.67,0,.01-4.32-.88-7.84-4.76-10.25Z"/>
              <path class="cls-6" d="M93.09,102.86c.09-3.6.66-7.44,3.1-10.25-2.39,2.56-3.21,5.94-3.53,9.36-.32-3.37-1.15-6.86-3.53-9.36,3.26,3.82,3.19,9.16,3.08,13.9,0,0,.13,0,.24,0,0,0,0,0,0,0,0,0,.12,0,.21,0,.09,0,.21,0,.21,0,0,0,0,0,0,0,.11,0,.24,0,.24,0-.03-1.22-.06-2.44-.03-3.65Z"/>
              <path class="cls-6" d="M94.24,103.56c.09-3.6.66-7.44,3.1-10.25-3.46,3.7-3.64,9.12-3.74,13.91h.67c-.03-1.22-.06-2.44-.03-3.65Z"/>
              <path class="cls-6" d="M98.65,95.71c-3.28,2.72-3.7,7.28-3.74,11.26,0,0,.67,0,.67,0-.17-3.93-.01-8.4,3.08-11.25Z"/>
            </g>
            <g>
              <path class="cls-6" d="M91.05,95.86c-.48-.3-.97-.56-1.47-.81.49.27.97.56,1.43.87,3.67,2.54,4.37,5.94,4.14,10.17,0,0,.67,0,.67,0,.01-4.32-.88-7.84-4.76-10.25Z"/>
              <path class="cls-6" d="M97.24,101.75c.09-3.6.66-7.44,3.1-10.25-2.39,2.56-3.21,5.94-3.53,9.36-.32-3.37-1.15-6.86-3.53-9.36,3.26,3.82,3.19,9.16,3.08,13.9,0,0,.13,0,.24,0,0,0,0,0,0,0,0,0,.12,0,.21,0,.09,0,.21,0,.21,0,0,0,0,0,0,0,.11,0,.24,0,.24,0-.03-1.22-.06-2.44-.03-3.65Z"/>
              <path class="cls-6" d="M98.39,102.46c.09-3.6.66-7.44,3.1-10.25-3.46,3.7-3.64,9.12-3.74,13.91h.67c-.03-1.22-.06-2.44-.03-3.65Z"/>
              <path class="cls-6" d="M102.8,94.6c-3.28,2.72-3.7,7.28-3.74,11.26,0,0,.67,0,.67,0-.17-3.93-.01-8.4,3.08-11.25Z"/>
            </g>
            <g>
              <path class="cls-6" d="M93.92,98.01c-.48-.3-.97-.56-1.47-.81.49.27.97.56,1.43.87,3.67,2.54,4.37,5.94,4.14,10.17,0,0,.67,0,.67,0,.01-4.32-.88-7.84-4.76-10.25Z"/>
              <path class="cls-6" d="M100.11,103.9c.09-3.6.66-7.44,3.1-10.25-2.39,2.56-3.21,5.94-3.53,9.36-.32-3.37-1.15-6.86-3.53-9.36,3.26,3.82,3.19,9.16,3.08,13.9,0,0,.13,0,.24,0,0,0,0,0,0,0,0,0,.12,0,.21,0,.09,0,.21,0,.21,0,0,0,0,0,0,0,.11,0,.24,0,.24,0-.03-1.22-.06-2.44-.03-3.65Z"/>
              <path class="cls-6" d="M101.27,104.61c.09-3.6.66-7.44,3.1-10.25-3.46,3.7-3.64,9.12-3.74,13.91h.67c-.03-1.22-.06-2.44-.03-3.65Z"/>
              <path class="cls-6" d="M105.67,96.75c-3.28,2.72-3.7,7.28-3.74,11.26,0,0,.67,0,.67,0-.17-3.93-.01-8.4,3.08-11.25Z"/>
            </g>
            <g>
              <path class="cls-6" d="M90.8,100.43c-.4-.21-.81-.39-1.23-.56.41.19.81.39,1.19.61,3.06,1.77,3.64,4.14,3.45,7.08,0,0,.56,0,.56,0,.01-3.01-.74-5.46-3.97-7.14Z"/>
              <path class="cls-6" d="M95.96,104.53c.07-2.5.55-5.18,2.58-7.14-1.99,1.78-2.68,4.13-2.94,6.52-.26-2.34-.96-4.78-2.94-6.52,2.71,2.66,2.66,6.37,2.56,9.68,0,0,.11,0,.2,0,0,0,0,0,0,0,0,0,.1,0,.18,0,.08,0,.18,0,.18,0,0,0,0,0,0,0,.09,0,.2,0,.2,0-.03-.85-.05-1.7-.02-2.54Z"/>
              <path class="cls-6" d="M96.92,105.03c.07-2.5.55-5.18,2.58-7.14-2.88,2.57-3.03,6.35-3.12,9.68h.56c-.03-.85-.05-1.7-.02-2.54Z"/>
              <path class="cls-6" d="M100.6,99.56c-2.73,1.89-3.08,5.06-3.12,7.84,0,0,.56,0,.56,0-.14-2.74-.01-5.84,2.56-7.83Z"/>
            </g>
            <g>
              <path class="cls-6" d="M72.33,95.18c-.4-.25-.82-.47-1.25-.68.42.23.82.47,1.21.74,3.12,2.14,3.71,5.01,3.52,8.58,0,0,.57,0,.57,0,.01-3.65-.75-6.61-4.05-8.64Z"/>
              <path class="cls-6" d="M77.59,100.14c.08-3.03.56-6.28,2.64-8.64-2.03,2.15-2.73,5.01-3,7.9-.27-2.84-.98-5.79-3-7.9,2.77,3.22,2.71,7.72,2.61,11.72,0,0,.11,0,.21,0,0,0,0,0,0,0,0,0,.1,0,.18,0,.08,0,.18,0,.18,0,0,0,0,0,0,0,.1,0,.21,0,.21,0-.03-1.03-.05-2.05-.02-3.08Z"/>
              <path class="cls-6" d="M78.57,100.74c.08-3.03.56-6.28,2.64-8.64-2.94,3.12-3.09,7.69-3.18,11.73h.57c-.03-1.03-.05-2.06-.02-3.08Z"/>
              <path class="cls-6" d="M82.31,94.11c-2.79,2.29-3.14,6.13-3.18,9.49,0,0,.57,0,.57,0-.14-3.31-.01-7.08,2.61-9.49Z"/>
            </g>
            <g>
              <path class="cls-6" d="M63.35,97.29c-.48-.3-.97-.56-1.47-.81.49.27.97.56,1.43.87,3.67,2.54,4.37,5.94,4.14,10.17,0,0,.67,0,.67,0,.01-4.32-.88-7.84-4.76-10.25Z"/>
              <path class="cls-6" d="M69.54,103.18c.09-3.6.66-7.44,3.1-10.25-2.39,2.56-3.21,5.94-3.53,9.36-.32-3.37-1.15-6.86-3.53-9.36,3.26,3.82,3.19,9.16,3.08,13.9,0,0,.13,0,.24,0,0,0,0,0,0,0,0,0,.12,0,.21,0,.09,0,.21,0,.21,0,0,0,0,0,0,0,.11,0,.24,0,.24,0-.03-1.22-.06-2.44-.03-3.65Z"/>
              <path class="cls-6" d="M70.69,103.88c.09-3.6.66-7.44,3.1-10.25-3.46,3.7-3.64,9.12-3.74,13.91h.67c-.03-1.22-.06-2.44-.03-3.65Z"/>
              <path class="cls-6" d="M75.1,96.03c-3.28,2.72-3.7,7.28-3.74,11.26,0,0,.67,0,.67,0-.17-3.93-.01-8.4,3.08-11.25Z"/>
            </g>
            <g>
              <path class="cls-6" d="M65.7,93.81c-.48-.3-.97-.56-1.47-.81.49.27.97.56,1.43.87,3.67,2.54,4.37,5.94,4.14,10.17,0,0,.67,0,.67,0,.01-4.32-.88-7.84-4.76-10.25Z"/>
              <path class="cls-6" d="M71.89,99.7c.09-3.6.66-7.44,3.1-10.25-2.39,2.56-3.21,5.94-3.53,9.36-.32-3.37-1.15-6.86-3.53-9.36,3.26,3.82,3.19,9.16,3.08,13.9,0,0,.13,0,.24,0,0,0,0,0,0,0,0,0,.12,0,.21,0,.09,0,.21,0,.21,0,0,0,0,0,0,0,.11,0,.24,0,.24,0-.03-1.22-.06-2.44-.03-3.65Z"/>
              <path class="cls-6" d="M73.05,100.4c.09-3.6.66-7.44,3.1-10.25-3.46,3.7-3.64,9.12-3.74,13.91h.67c-.03-1.22-.06-2.44-.03-3.65Z"/>
              <path class="cls-6" d="M77.45,92.55c-3.28,2.72-3.7,7.28-3.74,11.26,0,0,.67,0,.67,0-.17-3.93-.01-8.4,3.08-11.25Z"/>
            </g>
            <g>
              <path class="cls-6" d="M56.46,100.16c-.39-.22-.79-.42-1.2-.61.4.2.79.42,1.16.66,2.99,1.92,3.55,4.48,3.37,7.68,0,0,.54,0,.54,0,.01-3.26-.72-5.91-3.88-7.73Z"/>
              <path class="cls-6" d="M61.5,104.6c.07-2.71.54-5.62,2.52-7.73-1.95,1.93-2.62,4.48-2.87,7.06-.26-2.54-.94-5.18-2.87-7.06,2.65,2.88,2.6,6.91,2.5,10.49,0,0,.11,0,.2,0,0,0,0,0,0,0,0,0,.1,0,.17,0,.07,0,.17,0,.17,0,0,0,0,0,0,0,.09,0,.2,0,.2,0-.03-.92-.05-1.84-.02-2.75Z"/>
              <path class="cls-6" d="M62.44,105.13c.07-2.71.54-5.62,2.52-7.73-2.81,2.79-2.96,6.88-3.05,10.49h.54c-.03-.92-.05-1.84-.02-2.76Z"/>
              <path class="cls-6" d="M66.03,99.21c-2.67,2.05-3.01,5.49-3.05,8.49,0,0,.54,0,.54,0-.14-2.97-.01-6.33,2.5-8.49Z"/>
            </g>
          </g>
          <g id="Grasses-5" data-name="Grasses">
            <g>
              <path class="cls-6" d="M16.46,82.89c-.48-.3-.97-.56-1.47-.81.49.27.97.56,1.43.87,3.67,2.54,4.37,5.94,4.14,10.17,0,0,.67,0,.67,0,.01-4.32-.88-7.84-4.76-10.25Z"/>
              <path class="cls-6" d="M22.66,88.78c.09-3.6.66-7.44,3.1-10.25-2.39,2.56-3.21,5.94-3.53,9.36-.32-3.37-1.15-6.86-3.53-9.36,3.26,3.82,3.19,9.16,3.08,13.9,0,0,.13,0,.24,0,0,0,0,0,0,0,0,0,.12,0,.21,0,.09,0,.21,0,.21,0,0,0,0,0,0,0,.11,0,.24,0,.24,0-.03-1.22-.06-2.44-.03-3.65Z"/>
              <path class="cls-6" d="M23.81,89.49c.09-3.6.66-7.44,3.1-10.25-3.46,3.7-3.64,9.12-3.74,13.91h.67c-.03-1.22-.06-2.44-.03-3.65Z"/>
              <path class="cls-6" d="M28.22,81.63c-3.28,2.72-3.7,7.28-3.74,11.26,0,0,.67,0,.67,0-.17-3.93-.01-8.4,3.08-11.25Z"/>
            </g>
            <g>
              <path class="cls-6" d="M32.09,79.66c-.48-.3-.97-.56-1.47-.81.49.27.97.56,1.43.87,3.67,2.54,4.37,5.94,4.14,10.17,0,0,.67,0,.67,0,.01-4.32-.88-7.84-4.76-10.25Z"/>
              <path class="cls-6" d="M38.29,85.55c.09-3.6.66-7.44,3.1-10.25-2.39,2.56-3.21,5.94-3.53,9.36-.32-3.37-1.15-6.86-3.53-9.36,3.26,3.82,3.19,9.16,3.08,13.9,0,0,.13,0,.24,0,0,0,0,0,0,0,0,0,.12,0,.21,0,.09,0,.21,0,.21,0,0,0,0,0,0,0,.11,0,.24,0,.24,0-.03-1.22-.06-2.44-.03-3.65Z"/>
              <path class="cls-6" d="M39.44,86.26c.09-3.6.66-7.44,3.1-10.25-3.46,3.7-3.64,9.12-3.74,13.91h.67c-.03-1.22-.06-2.44-.03-3.65Z"/>
              <path class="cls-6" d="M43.85,78.41c-3.28,2.72-3.7,7.28-3.74,11.26,0,0,.67,0,.67,0-.17-3.93-.01-8.4,3.08-11.25Z"/>
            </g>
            <g>
              <path class="cls-6" d="M27.23,77.86c-.48-.3-.97-.56-1.47-.81.49.27.97.56,1.43.87,3.67,2.54,4.37,5.94,4.14,10.17,0,0,.67,0,.67,0,.01-4.32-.88-7.84-4.76-10.25Z"/>
              <path class="cls-6" d="M33.42,83.75c.09-3.6.66-7.44,3.1-10.25-2.39,2.56-3.21,5.94-3.53,9.36-.32-3.37-1.15-6.86-3.53-9.36,3.26,3.82,3.19,9.16,3.08,13.9,0,0,.13,0,.24,0,0,0,0,0,0,0,0,0,.12,0,.21,0,.09,0,.21,0,.21,0,0,0,0,0,0,0,.11,0,.24,0,.24,0-.03-1.22-.06-2.44-.03-3.65Z"/>
              <path class="cls-6" d="M34.58,84.46c.09-3.6.66-7.44,3.1-10.25-3.46,3.7-3.64,9.12-3.74,13.91h.67c-.03-1.22-.06-2.44-.03-3.65Z"/>
              <path class="cls-6" d="M38.98,76.6c-3.28,2.72-3.7,7.28-3.74,11.26,0,0,.67,0,.67,0-.17-3.93-.01-8.4,3.08-11.25Z"/>
            </g>
            <g>
              <path class="cls-6" d="M22.37,83.24c-.48-.3-.97-.56-1.47-.81.49.27.97.56,1.43.87,3.67,2.54,4.37,5.94,4.14,10.17,0,0,.67,0,.67,0,.01-4.32-.88-7.84-4.76-10.25Z"/>
              <path class="cls-6" d="M28.57,89.13c.09-3.6.66-7.44,3.1-10.25-2.39,2.56-3.21,5.94-3.53,9.36-.32-3.37-1.15-6.86-3.53-9.36,3.26,3.82,3.19,9.16,3.08,13.9,0,0,.13,0,.24,0,0,0,0,0,0,0,0,0,.12,0,.21,0,.09,0,.21,0,.21,0,0,0,0,0,0,0,.11,0,.24,0,.24,0-.03-1.22-.06-2.44-.03-3.65Z"/>
              <path class="cls-6" d="M29.72,89.84c.09-3.6.66-7.44,3.1-10.25-3.46,3.7-3.64,9.12-3.74,13.91h.67c-.03-1.22-.06-2.44-.03-3.65Z"/>
              <path class="cls-6" d="M34.13,81.98c-3.28,2.72-3.7,7.28-3.74,11.26,0,0,.67,0,.67,0-.17-3.93-.01-8.4,3.08-11.25Z"/>
            </g>
            <g>
              <path class="cls-6" d="M28.46,85.86c-.43-.22-.88-.42-1.33-.6.44.2.88.41,1.29.65,3.32,1.89,3.94,4.42,3.74,7.57,0,0,.6,0,.6,0,.01-3.22-.8-5.84-4.3-7.63Z"/>
              <path class="cls-6" d="M34.05,90.25c.08-2.68.6-5.54,2.8-7.63-2.16,1.9-2.9,4.42-3.19,6.97-.28-2.51-1.04-5.11-3.19-6.97,2.94,2.84,2.88,6.82,2.78,10.35,0,0,.12,0,.22,0,0,0,0,0,0,0,0,0,.11,0,.19,0,.08,0,.19,0,.19,0,0,0,0,0,0,0,.1,0,.22,0,.22,0-.03-.91-.05-1.81-.02-2.72Z"/>
              <path class="cls-6" d="M35.09,90.77c.08-2.68.6-5.54,2.8-7.63-3.12,2.75-3.29,6.79-3.38,10.35h.6c-.03-.91-.05-1.82-.02-2.72Z"/>
              <path class="cls-6" d="M39.07,84.93c-2.96,2.02-3.34,5.42-3.38,8.38,0,0,.6,0,.6,0-.15-2.93-.01-6.25,2.78-8.38Z"/>
            </g>
            <g>
              <path class="cls-6" d="M34.96,82.2c-.48-.3-.97-.56-1.47-.81.49.27.97.56,1.43.87,3.67,2.54,4.37,5.94,4.14,10.17,0,0,.67,0,.67,0,.01-4.32-.88-7.84-4.76-10.25Z"/>
              <path class="cls-6" d="M41.16,88.09c.09-3.6.66-7.44,3.1-10.25-2.39,2.56-3.21,5.94-3.53,9.36-.32-3.37-1.15-6.86-3.53-9.36,3.26,3.82,3.19,9.16,3.08,13.9,0,0,.13,0,.24,0,0,0,0,0,0,0,0,0,.12,0,.21,0,.09,0,.21,0,.21,0,0,0,0,0,0,0,.11,0,.24,0,.24,0-.03-1.22-.06-2.44-.03-3.65Z"/>
              <path class="cls-6" d="M42.31,88.79c.09-3.6.66-7.44,3.1-10.25-3.46,3.7-3.64,9.12-3.74,13.91h.67c-.03-1.22-.06-2.44-.03-3.65Z"/>
              <path class="cls-6" d="M46.72,80.94c-3.28,2.72-3.7,7.28-3.74,11.26,0,0,.67,0,.67,0-.17-3.93-.01-8.4,3.08-11.25Z"/>
            </g>
            <g>
              <path class="cls-6" d="M39.12,81.09c-.48-.3-.97-.56-1.47-.81.49.27.97.56,1.43.87,3.67,2.54,4.37,5.94,4.14,10.17,0,0,.67,0,.67,0,.01-4.32-.88-7.84-4.76-10.25Z"/>
              <path class="cls-6" d="M45.31,86.98c.09-3.6.66-7.44,3.1-10.25-2.39,2.56-3.21,5.94-3.53,9.36-.32-3.37-1.15-6.86-3.53-9.36,3.26,3.82,3.19,9.16,3.08,13.9,0,0,.13,0,.24,0,0,0,0,0,0,0,0,0,.12,0,.21,0,.09,0,.21,0,.21,0,0,0,0,0,0,0,.11,0,.24,0,.24,0-.03-1.22-.06-2.44-.03-3.65Z"/>
              <path class="cls-6" d="M46.47,87.69c.09-3.6.66-7.44,3.1-10.25-3.46,3.7-3.64,9.12-3.74,13.91h.67c-.03-1.22-.06-2.44-.03-3.65Z"/>
              <path class="cls-6" d="M50.87,79.83c-3.28,2.72-3.7,7.28-3.74,11.26,0,0,.67,0,.67,0-.17-3.93-.01-8.4,3.08-11.25Z"/>
            </g>
            <g>
              <path class="cls-6" d="M41.99,83.24c-.48-.3-.97-.56-1.47-.81.49.27.97.56,1.43.87,3.67,2.54,4.37,5.94,4.14,10.17,0,0,.67,0,.67,0,.01-4.32-.88-7.84-4.76-10.25Z"/>
              <path class="cls-6" d="M48.18,89.13c.09-3.6.66-7.44,3.1-10.25-2.39,2.56-3.21,5.94-3.53,9.36-.32-3.37-1.15-6.86-3.53-9.36,3.26,3.82,3.19,9.16,3.08,13.9,0,0,.13,0,.24,0,0,0,0,0,0,0,0,0,.12,0,.21,0,.09,0,.21,0,.21,0,0,0,0,0,0,0,.11,0,.24,0,.24,0-.03-1.22-.06-2.44-.03-3.65Z"/>
              <path class="cls-6" d="M49.34,89.84c.09-3.6.66-7.44,3.1-10.25-3.46,3.7-3.64,9.12-3.74,13.91h.67c-.03-1.22-.06-2.44-.03-3.65Z"/>
              <path class="cls-6" d="M53.74,81.98c-3.28,2.72-3.7,7.28-3.74,11.26,0,0,.67,0,.67,0-.17-3.93-.01-8.4,3.08-11.25Z"/>
            </g>
            <g>
              <path class="cls-6" d="M38.87,85.66c-.4-.21-.81-.39-1.23-.56.41.19.81.39,1.19.61,3.06,1.77,3.64,4.14,3.45,7.08,0,0,.56,0,.56,0,.01-3.01-.74-5.46-3.97-7.14Z"/>
              <path class="cls-6" d="M44.03,89.76c.07-2.5.55-5.18,2.58-7.14-1.99,1.78-2.68,4.13-2.94,6.52-.26-2.34-.96-4.78-2.94-6.52,2.71,2.66,2.66,6.37,2.56,9.68,0,0,.11,0,.2,0,0,0,0,0,0,0,0,0,.1,0,.18,0,.08,0,.18,0,.18,0,0,0,0,0,0,0,.09,0,.2,0,.2,0-.03-.85-.05-1.7-.02-2.54Z"/>
              <path class="cls-6" d="M44.99,90.26c.07-2.5.55-5.18,2.58-7.14-2.88,2.57-3.03,6.35-3.12,9.68h.56c-.03-.85-.05-1.7-.02-2.54Z"/>
              <path class="cls-6" d="M48.67,84.79c-2.73,1.89-3.08,5.06-3.12,7.84,0,0,.56,0,.56,0-.14-2.74-.01-5.84,2.56-7.83Z"/>
            </g>
            <g>
              <path class="cls-6" d="M20.4,80.41c-.4-.25-.82-.47-1.25-.68.42.23.82.47,1.21.74,3.12,2.14,3.71,5.01,3.52,8.58,0,0,.57,0,.57,0,.01-3.65-.75-6.61-4.05-8.64Z"/>
              <path class="cls-6" d="M25.66,85.37c.08-3.03.56-6.28,2.64-8.64-2.03,2.15-2.73,5.01-3,7.9-.27-2.84-.98-5.79-3-7.9,2.77,3.22,2.71,7.72,2.61,11.72,0,0,.11,0,.21,0,0,0,0,0,0,0,0,0,.1,0,.18,0,.08,0,.18,0,.18,0,0,0,0,0,0,0,.1,0,.21,0,.21,0-.03-1.03-.05-2.05-.02-3.08Z"/>
              <path class="cls-6" d="M26.64,85.97c.08-3.03.56-6.28,2.64-8.64-2.94,3.12-3.09,7.69-3.18,11.73h.57c-.03-1.03-.05-2.06-.02-3.08Z"/>
              <path class="cls-6" d="M30.39,79.34c-2.79,2.29-3.14,6.13-3.18,9.49,0,0,.57,0,.57,0-.14-3.31-.01-7.08,2.61-9.49Z"/>
            </g>
            <g>
              <path class="cls-6" d="M11.42,82.52c-.48-.3-.97-.56-1.47-.81.49.27.97.56,1.43.87,3.67,2.54,4.37,5.94,4.14,10.17,0,0,.67,0,.67,0,.01-4.32-.88-7.84-4.76-10.25Z"/>
              <path class="cls-6" d="M17.61,88.41c.09-3.6.66-7.44,3.1-10.25-2.39,2.56-3.21,5.94-3.53,9.36-.32-3.37-1.15-6.86-3.53-9.36,3.26,3.82,3.19,9.16,3.08,13.9,0,0,.13,0,.24,0,0,0,0,0,0,0,0,0,.12,0,.21,0,.09,0,.21,0,.21,0,0,0,0,0,0,0,.11,0,.24,0,.24,0-.03-1.22-.06-2.44-.03-3.65Z"/>
              <path class="cls-6" d="M18.76,89.11c.09-3.6.66-7.44,3.1-10.25-3.46,3.7-3.64,9.12-3.74,13.91h.67c-.03-1.22-.06-2.44-.03-3.65Z"/>
              <path class="cls-6" d="M23.17,81.26c-3.28,2.72-3.7,7.28-3.74,11.26,0,0,.67,0,.67,0-.17-3.93-.01-8.4,3.08-11.25Z"/>
            </g>
            <g>
              <path class="cls-6" d="M13.77,79.04c-.48-.3-.97-.56-1.47-.81.49.27.97.56,1.43.87,3.67,2.54,4.37,5.94,4.14,10.17,0,0,.67,0,.67,0,.01-4.32-.88-7.84-4.76-10.25Z"/>
              <path class="cls-6" d="M19.96,84.93c.09-3.6.66-7.44,3.1-10.25-2.39,2.56-3.21,5.94-3.53,9.36-.32-3.37-1.15-6.86-3.53-9.36,3.26,3.82,3.19,9.16,3.08,13.9,0,0,.13,0,.24,0,0,0,0,0,0,0,0,0,.12,0,.21,0,.09,0,.21,0,.21,0,0,0,0,0,0,0,.11,0,.24,0,.24,0-.03-1.22-.06-2.44-.03-3.65Z"/>
              <path class="cls-6" d="M21.12,85.63c.09-3.6.66-7.44,3.1-10.25-3.46,3.7-3.64,9.12-3.74,13.91h.67c-.03-1.22-.06-2.44-.03-3.65Z"/>
              <path class="cls-6" d="M25.52,77.78c-3.28,2.72-3.7,7.28-3.74,11.26,0,0,.67,0,.67,0-.17-3.93-.01-8.4,3.08-11.25Z"/>
            </g>
            <g>
              <path class="cls-6" d="M4.53,85.39c-.39-.22-.79-.42-1.2-.61.4.2.79.42,1.16.66,2.99,1.92,3.55,4.48,3.37,7.68,0,0,.54,0,.54,0,.01-3.26-.72-5.91-3.88-7.73Z"/>
              <path class="cls-6" d="M9.57,89.83c.07-2.71.54-5.62,2.52-7.73-1.95,1.93-2.62,4.48-2.87,7.06-.26-2.54-.94-5.18-2.87-7.06,2.65,2.88,2.6,6.91,2.5,10.49,0,0,.11,0,.2,0,0,0,0,0,0,0,0,0,.1,0,.17,0,.07,0,.17,0,.17,0,0,0,0,0,0,0,.09,0,.2,0,.2,0-.03-.92-.05-1.84-.02-2.75Z"/>
              <path class="cls-6" d="M10.51,90.36c.07-2.71.54-5.62,2.52-7.73-2.81,2.79-2.96,6.88-3.05,10.49h.54c-.03-.92-.05-1.84-.02-2.76Z"/>
              <path class="cls-6" d="M14.1,84.44c-2.67,2.05-3.01,5.49-3.05,8.49,0,0,.54,0,.54,0-.14-2.97-.01-6.33,2.5-8.49Z"/>
            </g>
          </g>
        </g>
        <g>
          <path class="cls-8" d="M12.54,44.73l2.49-4.21c.76-1.29,1.57-2.62,2.9-3.45s3.34-.95,4.43.13c.67-.19.23-1.11-.3-1.52-4.19-3.23-9.14-5.65-14.43-7.05-.49-.13-1.02-.28-1.28-.67-.22-.32-.18-.73-.1-1.1.52-2.36,2.97-4.25,5.62-4.35,1.88-.07,3.67.66,5.38,1.38s3.48,1.47,5.36,1.45,3.9-1.07,4.22-2.75c-3.3-1.3-5.58-4.05-7.71-6.68-.27-.34-.55-.7-.59-1.12-.02-.29.07-.57.18-.84,1.16-3.08,3.3-5.86,6.09-7.93,1.19-.88,2.86-1.66,4.2-.98.93.47,1.34,1.48,2.15,2.1,1.26.97,3.18.78,4.73.26s3.04-1.32,4.69-1.42,3.57.85,3.6,2.35c.01.49-.18,1,0,1.47.32.77,1.44.92,2.35.96,2.67.14,5.38.55,7.71,1.74s4.21,3.27,4.49,5.67c.11.94-.02,1.91.25,2.82.76,2.53,4.07,3.47,6.67,4.64,3.02,1.35,5.74,3.81,5.97,6.85.15,1.96-.76,3.86-.89,5.83-.16,2.35.81,4.64,1.86,6.8s2.22,4.32,2.52,6.67-.47,4.96-2.61,6.31c-.62.39-1.37.67-2.13.59-1.57-.16-2.45-1.66-3.56-2.67-1.83-1.66-4.89-2.11-7.2-1.04-1.19.55-2.16,1.43-3.38,1.91s-2.91.39-3.56-.66c-.08.9-.17,1.83-.63,2.64s-1.36,1.48-2.36,1.43c-.4-.02-.79-.15-1.15-.32-2.22-1.05-3.53-3.58-6.01-3.91-3.38-.45-5.9,3.58-9.31,3.34-2.4-.17-4.61-2.47-6.81-1.58-1.1.44-1.71,1.57-2.8,2.02-2.52,1.04-4.87-2.05-7.63-2.22-1.84-.11-3.69,1.11-5.42.54-1.61-.52-2.21-2.32-2.16-3.87s.49-3.12.03-4.61c-.27.06-.24-1.09-.15-1.33.37-.93.75-1.88,1.42-2.66s1.67-1.4,2.77-1.4c-1.27-.69-2.45-1.6-3.12-2.79s-.75-2.72.05-3.84,2.6-1.67,3.88-.99c1.37.72,1.67,2.36,1.83,3.78"/>
          <path class="cls-9" d="M11.18,45.22l2.49-4.21c.76-1.29,1.57-2.62,2.9-3.45s3.34-.95,4.43.13c.67-.19.23-1.11-.3-1.52-4.19-3.23-9.14-5.65-14.43-7.05-.49-.13-1.02-.28-1.28-.67-.22-.32-.18-.73-.1-1.1.52-2.36,2.97-4.25,5.62-4.35,1.88-.07,3.67.66,5.38,1.38s3.48,1.47,5.36,1.45,3.9-1.07,4.22-2.75c-3.3-1.3-5.58-4.05-7.71-6.68-.27-.34-.55-.7-.59-1.12-.02-.29.07-.57.18-.84,1.16-3.08,3.3-5.86,6.09-7.93,1.19-.88,2.86-1.66,4.2-.98.93.47,1.34,1.48,2.15,2.1,1.26.97,3.18.78,4.73.26s3.04-1.32,4.69-1.42,3.57.85,3.6,2.35c.01.49-.18,1,0,1.47.32.77,1.44.92,2.35.96,2.67.14,5.38.55,7.71,1.74s4.21,3.27,4.49,5.67c.11.94-.02,1.91.25,2.82.76,2.53,4.07,3.47,6.67,4.64,3.02,1.35,5.74,3.81,5.97,6.85.15,1.96-.76,3.86-.89,5.83-.16,2.35.81,4.64,1.86,6.8s2.22,4.32,2.52,6.67-.47,4.96-2.61,6.31c-.62.39-1.37.67-2.13.59-1.57-.16-2.45-1.66-3.56-2.67-1.83-1.66-4.89-2.11-7.2-1.04-1.19.55-2.16,1.43-3.38,1.91s-2.91.39-3.56-.66c-.08.9-.17,1.83-.63,2.64s-1.36,1.48-2.36,1.43c-.4-.02-.79-.15-1.15-.32-2.22-1.05-3.53-3.58-6.01-3.91-3.38-.45-5.9,3.58-9.31,3.34-2.4-.17-4.61-2.47-6.81-1.58-1.1.44-1.71,1.57-2.8,2.02-2.52,1.04-4.87-2.05-7.63-2.22-1.84-.11-3.69,1.11-5.42.54-1.61-.52-2.21-2.32-2.16-3.87s.49-3.12.03-4.61c-.27.06-.24-1.09-.15-1.33.37-.93.75-1.88,1.42-2.66s1.67-1.4,2.77-1.4c-1.27-.69-2.45-1.6-3.12-2.79s-.75-2.72.05-3.84,2.6-1.67,3.88-.99c1.37.72,1.67,2.36,1.83,3.78"/>
          <path class="cls-5" d="M35.08,85.98c.15-2.89.31-5.77.46-8.66.15-2.75.23-5.72-1.46-8.01-1.1-1.49-2.82-2.49-4.18-3.79-2.21-2.12-3.38-4.94-4.27-7.73-.2-.64-.4-1.3-.86-1.82-.56-.64-1.42-.98-2.22-1.36-2.64-1.25-4.91-3.13-6.52-5.4,2.21,1.75,4.78,3.12,7.54,4.01-.69-1.35-1.39-2.74-1.49-4.23s.52-3.11,1.94-3.87c-.1,3.33,1.38,6.52,3.07,9.47,1.06,1.85,2.22,3.67,3.57,5.36,1.07,1.35,2.52,2.74,4.36,2.71.57-1.95,1.14-3.9,1.72-5.85,1.09-3.73,2.22-7.52,4.55-10.75.31,1.91.63,3.82.94,5.74,2.03-3.49,6.33-5.8,10.69-5.75-2.93,1.95-6.04,3.74-8.58,6.09-2.22,2.05-4.04,4.66-4.44,7.55-.1.72.04,1.47-.08,2.18-.06.38-.45.89-.41,1.27.2,1.69,2.23,1.47,3.55,1.06,1.28-.39,2.56-.83,3.67-1.53,1.84-1.16,3.06-2.94,4.32-4.62,4.02-5.41,8.87-10.31,14.36-14.53-1.85,5.27-5.18,9.99-8.47,14.65-1.33,1.88-2.66,3.77-4.25,5.47-1.23,1.31-2.63,2.53-4.32,3.31-1.84.84-3.96,1.15-5.68,2.17-3.2,1.9-3.19,5.03-3.27,8.12-.1,3.75.59,7.48,1.42,11.15.29,1.27.62,2.59,1.52,3.59s2.27,6.84.96,7.41c-2.05.89-10.62,2.83-10.08-.12.83-4.48,1.68-8.72,1.93-13.3Z"/>
          <path class="cls-3" d="M34.13,85.98c.15-2.89.31-5.77.46-8.66.15-2.75.23-5.72-1.46-8.01-1.1-1.49-2.82-2.49-4.18-3.79-2.21-2.12-3.38-4.94-4.27-7.73-.2-.64-.4-1.3-.86-1.82-.56-.64-1.42-.98-2.22-1.36-2.64-1.25-4.91-3.13-6.52-5.4,2.21,1.75,4.78,3.12,7.54,4.01-.69-1.35-1.39-2.74-1.49-4.23s.52-3.11,1.94-3.87c-.1,3.33,1.38,6.52,3.07,9.47,1.06,1.85,2.22,3.67,3.57,5.36,1.07,1.35,2.52,2.74,4.36,2.71.57-1.95,1.14-3.9,1.72-5.85,1.09-3.73,2.22-7.52,4.55-10.75.31,1.91.63,3.82.94,5.74,2.03-3.49,6.33-5.8,10.69-5.75-2.93,1.95-6.04,3.74-8.58,6.09-2.22,2.05-4.04,4.66-4.44,7.55-.1.72.04,1.47-.08,2.18-.06.38-.45.89-.41,1.27.2,1.69,2.23,1.47,3.55,1.06,1.28-.39,2.56-.83,3.67-1.53,1.84-1.16,3.06-2.94,4.32-4.62,4.02-5.41,8.87-10.31,14.36-14.53-1.85,5.27-5.18,9.99-8.47,14.65-1.33,1.88-2.66,3.77-4.25,5.47-1.23,1.31-2.63,2.53-4.32,3.31-1.84.84-3.96,1.15-5.68,2.17-3.2,1.9-3.19,5.03-3.27,8.12-.1,3.75.59,7.48,1.42,11.15.29,1.27.62,2.59,1.52,3.59s2.27,6.84.96,7.41c-2.05.89-10.62,2.83-10.08-.12.83-4.48,1.68-8.72,1.93-13.3Z"/>
        </g>
        <path class="cls-8" d="M94.58,104.47c-.99,0-1.94.36-2.89.6-1.36.36-2.84.52-4.25.35-.86-.12-1.58-.3-2.28-.68-.86-.46-1.64-1.06-2.58-1.41-2.93-1.14-5.2.54-8.05-.5-1.31-.46-2.64-.89-4.05-.96-1.15-.09-2.34.04-3.46-.15-1.5-.23-2.34-1.45-3.7-2.26-1.57-.89-3.68-1.04-4.7-2.7-.43-.61-.79-1.39-1.41-2.03-1.83-1.85-4.97-2.33-7.49-1.77-1.55.33-2.67,1.16-4.11,1.39-1.93.33-3.05-.54-3.6-2.36-.37-1.22-.86-2.3-2.14-2.9-1.11-.55-2.31-.92-3.39-1.53-1.02-.54-1.98-1.24-3.17-1.44-.46-.07-.94-.06-1.4-.03-2.56.31-2.43-.25-4.2-1.75-.9-.69-1.98-.97-2.85-1.6-.95-.66-1.39-1.74-1.89-2.76-.72-1.56-2.08-2.8-3.72-3.32-.84-.27-1.72-.37-2.56-.57-.93-.21-1.73-.57-2.51-1.07-1.18-.74-1.98-1.98-2.41-3.27-.22-.65-.38-1.34-.69-1.98-.25-.52-.65-.99-1.14-1.37-2.42-1.86-6.51-1.24-8.17,1.45-.58.94-.57,1.66-.58,2.88-.21,10.92-.51,26.55-.7,37.14.01.52.04.55.42.56,6.99-.04,73.59.39,97.22.29.56-.4.43-2.29.23-3.12-.38-1.79-1.87-3.14-3.74-3.13h-.03Z"/>
        <path class="cls-4" d="M97.01,107.83c-.29-2.19-2.36-3.52-4.52-3.17-1.27.13-2.1,1.15-3.27,1.27-.77.08-1.53-.19-2.31-.21-.45-.01-.93.05-1.36.08-2.21.25-1.67-1.99-5.37-2.55-.75-.11-1.53-.11-2.28,0-1.15.15-1.87.67-2.89.6-.86-.1-1.52-.69-2.34-.98-.74-.29-1.63-.49-2.45-.59-.73-.09-1.46-.12-2.19-.08-1.24,0-2.13.47-3.07-.09-.52-.37-.8-.96-1.25-1.44-.82-.89-2.04-1.4-3.24-1.6-.84-.16-1.88-.14-2.36-.96-.3-.51-.38-1.31-.78-1.95-.11-.2-.24-.38-.39-.55-2.28-2.61-6.74-2.93-9.76-1.42-.63.31-1.18.8-1.83,1.04-.39.14-.81.12-1.22.02-.55-.14-1.26-.38-1.74-.61-1.11-.42-.63-1.75-.84-2.67-.23-1.15-1.24-2.11-2.43-2.45-.79-.24-1.68-.22-2.42-.56-.71-.31-1.19-.95-1.8-1.42-1-.8-2.56-1.05-3.83-.63-.69.17-1.62.89-2.06.03-.24-.4-.5-1.08-.99-1.56-.44-.45-1-.77-1.61-.95-.94-.3-2.2-.16-2.66-1.2-.19-.39-.29-.88-.41-1.32-.65-2.43-2.8-4.26-5.29-4.55-1.62-.16-2.66.23-3.81-1.1-.3-.31-.64-.65-1-.9-.54-.4-1.15-.77-1.35-1.44-.23-.79.02-1.94-.41-2.76-1.12-2.45-4.51-3.18-6.88-2.29-1.57.55-2.93,1.98-3.11,3.54-.2,9.44-.48,25.35-.65,33.92-.04,2.19-.07,3.67-.08,4.09,0,.17.02.2.08.22,4.53-.04,91.81.48,96,.26.31-.53.32-2.21.15-3.05v-.03ZM4.13,75.93c-.82-.93-.42-3.79.07-5.02.89-2.08,1.67-.87,1.48.65-.04.42-.12.86-.17,1.18-.07.42-.1.67-.03.68.08.02.3-.24.63-.62.64-.69,1.38-1.63,2.33-1.76.24-.02.43.12.45.35.06.84-1.09,2.04-1.69,2.74-.98,1.04-2.24,2.43-3.05,1.8h-.01ZM5.7,80.51c.21-.94.53-2.11,1.24-2.72.47-.39.91,0,1.04.5.38,1.31-.17,3.04-.39,4.18-.03.22.11.1.21-.02.56-.68,1.2-1.49,1.88-2.09.53-.47,1.04-.94,1.68-1.13,1.41-.3.81,1.32.27,1.97-3.8,4.99-7.19,7.55-5.94-.64v-.03ZM8.58,87.64c.39-.04.36.69.29,1.05-.16,1.09-1.59,1.35-1.89.14-.13-.43-.11-1.42.29-1.67.18-.01.27.53.47.67.26.15.58-.14.83-.18h.01ZM6.83,98.7c-.94-1.01-.5-4.35-.13-5.75.19-.76.71-1.97,1.24-2.19.55-.26.87.36.94.84.18.9-.05,2.22-.28,3.13-.12.58-.26.96-.11.92.11-.06.4-.45.78-.9.43-.53.89-1.01,1.37-1.43.54-.47,1.15-1.02,1.85-1.07.44-.01.66.31.58.8-.17.81-.78,1.47-1.29,2.12-1.32,1.53-3.67,4.51-4.93,3.56h-.01ZM11.61,101.78c-.58-.64-.33-2.23.03-3.1.22-.49.51-.65.65-.32.14.36.11.88.13,1.25.02.5.14.51.51.16.25-.24.67-.63.99-.75,1.55-.46-1.5,3.6-2.29,2.78h-.02ZM15.87,103.01c.04.79-1.6,2.74-2.42,2.77-1.11-.11-.58-3.17,0-3.63.68-.44.37,1.44.57,1.72.12.12.28-.08.38-.16.24-.21,1.25-1.25,1.47-.71h0ZM15.43,86.86c-1.17-.72-1.21-3.17-1.06-4.51.09-.82.62-2.11,1.24-1.26.42.63.4,1.73.42,2.46.01.42.03.64.12.61.34-.28.75-1.2,1.18-1.72.4-.53,1.18-1.38,1.69-.98.33.47-.09,1.27-.26,1.75-.1.26-.14.42-.09.49.06.07.22.02.48-.1.47-.2,1.36-.73,1.74-.22.28.53-.09,1.2-.4,1.66-.68,1-1.68,1.67-2.84,1.93-.72.17-1.56.28-2.23-.09h-.02ZM16.65,95.58c-.78-.87-.46-3.38-.14-4.62.14-.65.7-1.85,1.18-1.83.36,0,.49.4.56.72.15.66-.03,1.72-.16,2.38-.09.46-.13.74-.06.75.04.08.52-.5.77-.79.59-.63,1.73-2.01,2.65-1.73.84.64-1.02,2.52-1.54,3.16-1.03,1.1-2.38,2.62-3.25,1.97h-.01ZM26.29,100.42c-.23.88-1.39,1.44-2.14,1.92-2.51,1.51-7.01,3.93-5.78-.15.52-1.67,1.89-4.73,3.61-5.24,1.29-.06.48,2.06-.12,3.06-.25.44-.6.95-.84,1.34-.13.21-.19.33-.14.35.32-.06.77-.44,1.11-.61.72-.45,4.3-2.32,4.31-.69v.02ZM29.2,104.02c-.23.35-.72.56-1.17.36-.67-.36-.7-1.31-.52-1.96.08-.23.2-.57.38-.38.17.19.19.64.52.65.23,0,.6-.25.77-.22.43.2.24,1.19.03,1.52v.02ZM31.56,91.02c.08.91-.81,1.81-1.35,2.52-1.86,2.26-5.19,6-5.42,1.76-.06-1.58.08-3.21.61-4.69.32-.91,1.13-2.26,1.8-1.2.31.52.28,1.91.04,2.96-.08.39-.2.87-.28,1.21-.05.25-.07.39-.02.4.03,0,.11-.06.21-.18.19-.22.42-.52.62-.76.54-.67,3.21-3.6,3.78-2.05v.02ZM36.8,91.48c.05-.23.11-.55.31-.67.2-.05.29.6.53.69.17.07.42-.06.59-.13.13-.05.26-.12.37-.03.2.13.21.82.08,1.16-.1.48-.66.89-1.18.74-.66-.2-.82-1.06-.7-1.74v-.03ZM39.86,101.42c-.6,1.61-2.58,3.18-4.4,2.78-1.41-.39-1.77-1.9-2.11-3.25-.24-1.04-.39-2.12-.31-3.19.06-.91.41-2.36,1.31-1.71.68.56.95,2.21,1,3.37.08,1.12.01,1.67.57.27.37-.87,1.89-4.19,3.06-3.41.82.95-.7,2.82-.53,3.72.25.65,1.78-.07,1.41,1.39v.02ZM46.82,99.44c.04.72-.59,1.55-1.13,2.28-2.51,3.31-2.49-.38-2.02-2.33.13-.54.59-1.67.94-.97.21.53.07,1.45.06,2.03-.04.62.22.29.45.02.23-.29.59-.74.9-.98.21-.16.69-.46.81-.07v.02ZM51.88,106.51c-.23.35-.72.56-1.17.36-.67-.36-.7-1.31-.52-1.96.08-.23.2-.57.38-.38.17.19.19.64.52.65.23,0,.6-.25.77-.22.43.2.24,1.19.03,1.52v.02ZM53.64,97.26c.07.77-.71,1.61-1.18,2.22-1.36,1.64-4.02,4.61-4.27,1.24-.08-1.22.05-2.5.43-3.65.25-.81,1.03-2.13,1.54-.99.22.55.13,1.51,0,2.16-.07.4-.14.72-.18,1.06,0,.08-.02.16.03.2.04.01.07-.02.1-.04.17-.13.54-.62.96-1.07.2-.22.41-.43.63-.63.48-.46,1.66-1.31,1.93-.51v.02ZM60.29,105.2c-.97,1.87-3.92,2.99-5.77,1.74-.94-.79-.81-2.09-.77-3.32.09-1.34.47-4.02,1.72-4.63,1.07-.2.99,1.86.79,2.91-.07.57-.37,1.38-.37,1.88.02.05.08,0,.18-.1.07-.07.15-.17.25-.28.87-1.05,1.8-2.12,2.99-2.76.96-.46,1.49.11,1.05,1.05-.23.57-.83,1.22-1.08,1.64-.08.13-.17.29-.14.44.11.26.48.23.73.33.52.12.68.53.43,1.07v.02ZM71.19,106.06c-.23.35-.72.56-1.17.36-.67-.36-.7-1.31-.52-1.96.08-.23.2-.57.38-.38.17.19.19.64.52.65.23,0,.6-.25.77-.22.43.2.24,1.19.03,1.52v.02ZM81.24,104.68c.04.7-1.62,2.65-2.41,2.3-.75-.46-.38-2.53.14-3.04.5-.36.4.89.55,1.26.13.29.4-.02.58-.14.23-.15.97-.81,1.13-.4h0Z"/>
        <path class="cls-7" d="M96.23,107.97c-.29-2.19-2.36-3.52-4.52-3.17-1.27.13-2.1,1.15-3.27,1.27-.77.08-1.53-.19-2.31-.21-.45-.01-.93.05-1.36.08-2.21.25-1.67-1.99-5.37-2.55-.75-.11-1.53-.11-2.28,0-1.15.15-1.87.67-2.89.6-.86-.1-1.52-.69-2.34-.98-.74-.29-1.63-.49-2.45-.59-.73-.09-1.46-.12-2.19-.08-1.24,0-2.13.47-3.07-.09-.52-.37-.8-.96-1.25-1.44-.82-.89-2.04-1.4-3.24-1.6-.84-.16-1.88-.14-2.36-.96-.3-.51-.38-1.31-.78-1.95-.11-.2-.24-.38-.39-.55-2.28-2.61-6.74-2.93-9.76-1.42-.63.31-1.18.8-1.83,1.04-.39.14-.81.12-1.22.02-.55-.14-1.26-.38-1.74-.61-1.11-.42-.63-1.75-.84-2.67-.23-1.15-1.24-2.11-2.43-2.45-.79-.24-1.68-.22-2.42-.56-.71-.31-1.19-.95-1.8-1.42-1-.8-2.56-1.05-3.83-.63-.69.17-1.62.89-2.06.03-.24-.4-.5-1.08-.99-1.56-.44-.45-1-.77-1.61-.95-.94-.3-2.2-.16-2.66-1.2-.19-.39-.29-.88-.41-1.32-.65-2.43-2.8-4.26-5.29-4.55-1.62-.16-2.66.23-3.81-1.1-.3-.31-.64-.65-1-.9-.54-.4-1.15-.77-1.35-1.44-.23-.79.02-1.94-.41-2.76-1.12-2.45-4.51-3.18-6.88-2.29-1.57.55-2.93,1.98-3.11,3.54-.2,9.44-.48,25.35-.65,33.92-.04,2.19-.07,3.67-.08,4.09,0,.17.02.2.08.22,4.53-.04,91.81.48,96,.26.31-.53.32-2.21.15-3.05v-.03ZM3.34,76.07c-.82-.93-.42-3.79.07-5.02.89-2.08,1.67-.87,1.48.65-.04.42-.12.86-.17,1.18-.07.42-.1.67-.03.68.08.02.3-.24.63-.62.64-.69,1.38-1.63,2.33-1.76.24-.02.43.12.45.35.06.84-1.09,2.04-1.69,2.74-.98,1.04-2.24,2.43-3.05,1.8h-.01ZM4.92,80.65c.21-.94.53-2.11,1.24-2.72.47-.39.91,0,1.04.5.38,1.31-.17,3.04-.39,4.18-.03.22.11.1.21-.02.56-.68,1.2-1.49,1.88-2.09.53-.47,1.04-.94,1.68-1.13,1.41-.3.81,1.32.27,1.97-3.8,4.99-7.19,7.55-5.94-.64v-.03ZM7.8,87.78c.39-.04.36.69.29,1.05-.16,1.09-1.59,1.35-1.89.14-.13-.43-.11-1.42.29-1.67.18-.01.27.53.47.67.26.15.58-.14.83-.18h.01ZM6.05,98.84c-.94-1.01-.5-4.35-.13-5.75.19-.76.71-1.97,1.24-2.19.55-.26.87.36.94.84.18.9-.05,2.22-.28,3.13-.12.58-.26.96-.11.92.11-.06.4-.45.78-.9.43-.53.89-1.01,1.37-1.43.54-.47,1.15-1.02,1.85-1.07.44-.01.66.31.58.8-.17.81-.78,1.47-1.29,2.12-1.32,1.53-3.67,4.51-4.93,3.56h-.01ZM10.82,101.92c-.58-.64-.33-2.23.03-3.1.22-.49.51-.65.65-.32.14.36.11.88.13,1.25.02.5.14.51.51.16.25-.24.67-.63.99-.75,1.55-.46-1.5,3.6-2.29,2.78h-.02ZM15.09,103.15c.04.79-1.6,2.74-2.42,2.77-1.11-.11-.58-3.17,0-3.63.68-.44.37,1.44.57,1.72.12.12.28-.08.38-.16.24-.21,1.25-1.25,1.47-.71h0ZM14.65,87c-1.17-.72-1.21-3.17-1.06-4.51.09-.82.62-2.11,1.24-1.26.42.63.4,1.73.42,2.46.01.42.03.64.12.61.34-.28.75-1.2,1.18-1.72.4-.53,1.18-1.38,1.69-.98.33.47-.09,1.27-.26,1.75-.1.26-.14.42-.09.49.06.07.22.02.48-.1.47-.2,1.36-.73,1.74-.22.28.53-.09,1.2-.4,1.66-.68,1-1.68,1.67-2.84,1.93-.72.17-1.56.28-2.23-.09h-.02ZM15.87,95.72c-.78-.87-.46-3.38-.14-4.62.14-.65.7-1.85,1.18-1.83.36,0,.49.4.56.72.15.66-.03,1.72-.16,2.38-.09.46-.13.74-.06.75.04.08.52-.5.77-.79.59-.63,1.73-2.01,2.65-1.73.84.64-1.02,2.52-1.54,3.16-1.03,1.1-2.38,2.62-3.25,1.97h-.01ZM25.51,100.56c-.23.88-1.39,1.44-2.14,1.92-2.51,1.51-7.01,3.93-5.78-.15.52-1.67,1.89-4.73,3.61-5.24,1.29-.06.48,2.06-.12,3.06-.25.44-.6.95-.84,1.34-.13.21-.19.33-.14.35.32-.06.77-.44,1.11-.61.72-.45,4.3-2.32,4.31-.69v.02ZM28.42,104.16c-.23.35-.72.56-1.17.36-.67-.36-.7-1.31-.52-1.96.08-.23.2-.57.38-.38.17.19.19.64.52.65.23,0,.6-.25.77-.22.43.2.24,1.19.03,1.52v.02ZM30.78,91.16c.08.91-.81,1.81-1.35,2.52-1.86,2.26-5.19,6-5.42,1.76-.06-1.58.08-3.21.61-4.69.32-.91,1.13-2.26,1.8-1.2.31.52.28,1.91.04,2.96-.08.39-.2.87-.28,1.21-.05.25-.07.39-.02.4.03,0,.11-.06.21-.18.19-.22.42-.52.62-.76.54-.67,3.21-3.6,3.78-2.05v.02ZM36.02,91.62c.05-.23.11-.55.31-.67.2-.05.29.6.53.69.17.07.42-.06.59-.13.13-.05.26-.12.37-.03.2.13.21.82.08,1.16-.1.48-.66.89-1.18.74-.66-.2-.82-1.06-.7-1.74v-.03ZM39.08,101.56c-.6,1.61-2.58,3.18-4.4,2.78-1.41-.39-1.77-1.9-2.11-3.25-.24-1.04-.39-2.12-.31-3.19.06-.91.41-2.36,1.31-1.71.68.56.95,2.21,1,3.37.08,1.12.01,1.67.57.27.37-.87,1.89-4.19,3.06-3.41.82.95-.7,2.82-.53,3.72.25.65,1.78-.07,1.41,1.39v.02ZM46.03,99.58c.04.72-.59,1.55-1.13,2.28-2.51,3.31-2.49-.38-2.02-2.33.13-.54.59-1.67.94-.97.21.53.07,1.45.06,2.03-.04.62.22.29.45.02.23-.29.59-.74.9-.98.21-.16.69-.46.81-.07v.02ZM51.1,106.65c-.23.35-.72.56-1.17.36-.67-.36-.7-1.31-.52-1.96.08-.23.2-.57.38-.38.17.19.19.64.52.65.23,0,.6-.25.77-.22.43.2.24,1.19.03,1.52v.02ZM52.86,97.4c.07.77-.71,1.61-1.18,2.22-1.36,1.64-4.02,4.61-4.27,1.24-.08-1.22.05-2.5.43-3.65.25-.81,1.03-2.13,1.54-.99.22.55.13,1.51,0,2.16-.07.4-.14.72-.18,1.06,0,.08-.02.16.03.2.04.01.07-.02.1-.04.17-.13.54-.62.96-1.07.2-.22.41-.43.63-.63.48-.46,1.66-1.31,1.93-.51v.02ZM59.51,105.34c-.97,1.87-3.92,2.99-5.77,1.74-.94-.79-.81-2.09-.77-3.32.09-1.34.47-4.02,1.72-4.63,1.07-.2.99,1.86.79,2.91-.07.57-.37,1.38-.37,1.88.02.05.08,0,.18-.1.07-.07.15-.17.25-.28.87-1.05,1.8-2.12,2.99-2.76.96-.46,1.49.11,1.05,1.05-.23.57-.83,1.22-1.08,1.64-.08.13-.17.29-.14.44.11.26.48.23.73.33.52.12.68.53.43,1.07v.02ZM70.41,106.2c-.23.35-.72.56-1.17.36-.67-.36-.7-1.31-.52-1.96.08-.23.2-.57.38-.38.17.19.19.64.52.65.23,0,.6-.25.77-.22.43.2.24,1.19.03,1.52v.02ZM80.46,104.82c.04.7-1.62,2.65-2.41,2.3-.75-.46-.38-2.53.14-3.04.5-.36.4.89.55,1.26.13.29.4-.02.58-.14.23-.15.97-.81,1.13-.4h0Z"/>
      </g>
    </g>
  </g>
</svg>