<?xml version="1.0" encoding="UTF-8"?>
<svg id="Layer_2" data-name="Layer 2" xmlns="http://www.w3.org/2000/svg" viewBox="0 0 56.31 47.34">
  <defs>
    <style>
      .cls-1 {
        fill: #0177c1;
      }

      .cls-2 {
        fill: #a14921;
      }

      .cls-3 {
        fill: #fff;
      }

      .cls-4 {
        fill: #a0491b;
      }

      .cls-5 {
        fill: #006ebd;
      }

      .cls-6 {
        fill: #bec2c1;
      }
    </style>
  </defs>
  <g id="Layer_1-2" data-name="Layer 1">
    <g>
      <rect class="cls-6" x="8.72" y="21.62" width="2.47" height="25.38"/>
      <rect class="cls-6" x="43.59" y="21.96" width="2.47" height="25.38"/>
      <g>
        <rect class="cls-4" y="0" width="56.31" height="28.64" rx="1.9" ry="1.9"/>
        <path class="cls-4" d="M53.72.24c1.28,0,2.32.92,2.32,2.06v24.03c0,1.14-1.04,2.06-2.32,2.06H2.59c-1.28,0-2.32-.92-2.32-2.06V2.3C.27,1.17,1.31.24,2.59.24h51.13M53.72,0H2.59C1.16,0,0,1.03,0,2.3v24.03C0,27.61,1.16,28.64,2.59,28.64h51.13c1.43,0,2.59-1.03,2.59-2.3V2.3c0-1.27-1.16-2.3-2.59-2.3h0Z"/>
      </g>
      <path class="cls-1" d="M0,20.68h56.31v6.06c0,1.05-.85,1.9-1.9,1.9H1.9C.85,28.64,0,27.79,0,26.74v-6.06H0Z"/>
      <g>
        <rect class="cls-3" x=".48" y=".37" width="55.3" height="27.87" rx="1.9" ry="1.9"/>
        <path class="cls-3" d="M53.24.61c1.26,0,2.28.9,2.28,2.01v23.39c0,1.11-1.02,2.01-2.28,2.01H3.03c-1.26,0-2.28-.9-2.28-2.01V2.61C.75,1.51,1.77.61,3.03.61h50.21M53.24.37H3.03C1.62.37.48,1.38.48,2.61v23.39c0,1.24,1.14,2.24,2.54,2.24h50.21c1.41,0,2.54-1,2.54-2.24V2.61c0-1.24-1.14-2.24-2.54-2.24h0Z"/>
      </g>
      <path class="cls-2" d="M2.8.76h50.67c1.05,0,1.9.85,1.9,1.9v19.51H.9V2.66c0-1.05.85-1.9,1.9-1.9Z"/>
      <g>
        <path class="cls-3" d="M17.03,3.67c-.03.1-.05.24-.07.39,0-.04-.01-.09-.02-.12-.02-.09-.04-.18-.06-.27l-.33-1.28h-.44l-.3,1.28c-.03.14-.05.28-.07.41-.02-.14-.04-.29-.07-.41l-.32-1.28h-.35l.5,1.92h.46l.32-1.3c.02-.1.04-.19.05-.26,0-.01,0-.03,0-.05,0,.02,0,.04,0,.06.01.07.03.15.05.25l.34,1.3h.47l.5-1.92h-.33l-.32,1.28Z"/>
        <polygon class="cls-3" points="18.21 2.39 18 2.39 18 4.31 18.21 4.31 18.36 4.31 19.34 4.31 19.34 4.01 18.36 4.01 18.36 3.48 19.23 3.48 19.23 3.19 18.36 3.19 18.36 2.7 19.34 2.7 19.34 2.39 18.36 2.39 18.21 2.39"/>
        <polygon class="cls-3" points="20.11 2.39 19.75 2.39 19.75 4.31 19.98 4.31 20.11 4.31 20.95 4.31 20.95 4 20.11 4 20.11 2.39"/>
        <path class="cls-3" d="M22,2.67c.14,0,.26.04.35.11.09.07.16.19.2.34l.32-.08c-.05-.22-.15-.39-.3-.51-.15-.12-.34-.18-.58-.18-.2,0-.36.04-.5.12-.14.08-.25.2-.32.35-.08.15-.11.33-.11.53s.04.38.11.53c.08.15.18.27.32.35s.31.12.51.12c.23,0,.42-.06.57-.18.15-.12.25-.29.3-.51l-.32-.08c-.04.16-.11.27-.2.35-.09.07-.21.11-.35.11-.19,0-.33-.06-.43-.18-.1-.12-.15-.29-.15-.51s.05-.39.15-.51c.1-.12.24-.18.43-.18Z"/>
        <path class="cls-3" d="M24.63,2.48c-.14-.08-.32-.12-.51-.12s-.37.04-.52.12c-.14.08-.25.2-.33.35-.08.15-.11.32-.11.53s.04.38.11.53c.08.15.19.27.33.35s.32.12.52.12.37-.04.51-.12.25-.2.33-.35c.08-.15.11-.33.11-.53s-.04-.38-.11-.53c-.08-.15-.19-.27-.33-.35ZM24.55,3.86c-.1.12-.24.18-.44.18s-.34-.06-.44-.18c-.1-.12-.15-.29-.15-.51s.05-.39.15-.51c.1-.12.25-.18.44-.18s.34.06.44.18c.1.12.15.29.15.51s-.05.39-.15.51Z"/>
        <path class="cls-3" d="M27.23,2.39h-.21l-.46,1.44c-.01.06-.03.13-.04.2-.01-.07-.03-.15-.04-.2l-.46-1.44h-.52v1.92h.29v-1.48c0-.09,0-.17-.01-.25.02.08.04.17.06.25l.47,1.48h.39l.47-1.48c.02-.07.04-.17.06-.27,0,.09-.02.17-.02.27v1.48h.32v-1.92h-.29Z"/>
        <polygon class="cls-3" points="28.28 2.39 28.07 2.39 28.07 4.31 28.28 4.31 28.42 4.31 29.41 4.31 29.41 4.01 28.42 4.01 28.42 3.48 29.29 3.48 29.29 3.19 28.42 3.19 28.42 2.7 29.41 2.7 29.41 2.39 28.42 2.39 28.28 2.39"/>
        <polygon class="cls-3" points="30.71 2.39 30.14 2.39 30.14 2.7 30.71 2.7 30.71 4.31 31.06 4.31 31.06 2.7 31.63 2.7 31.63 2.39 31.06 2.39 30.71 2.39"/>
        <path class="cls-3" d="M33.24,2.48c-.14-.08-.32-.12-.51-.12s-.37.04-.52.12c-.14.08-.25.2-.33.35-.08.15-.11.32-.11.53s.04.38.11.53c.08.15.19.27.33.35s.32.12.52.12.37-.04.51-.12.25-.2.33-.35c.08-.15.11-.33.11-.53s-.04-.38-.11-.53c-.08-.15-.19-.27-.33-.35ZM33.16,3.86c-.1.12-.24.18-.44.18s-.34-.06-.44-.18c-.1-.12-.15-.29-.15-.51s.05-.39.15-.51c.1-.12.25-.18.44-.18s.34.06.44.18c.1.12.15.29.15.51s-.05.39-.15.51Z"/>
        <polygon class="cls-3" points="34.98 2.39 34.42 2.39 34.42 2.7 34.98 2.7 34.98 4.31 35.34 4.31 35.34 2.7 35.9 2.7 35.9 2.39 35.34 2.39 34.98 2.39"/>
        <polygon class="cls-3" points="37.5 3.19 36.57 3.19 36.57 2.39 36.22 2.39 36.22 4.31 36.57 4.31 36.57 3.5 37.5 3.5 37.5 4.31 37.86 4.31 37.86 2.39 37.5 2.39 37.5 3.19"/>
        <polygon class="cls-3" points="39.74 2.7 39.74 2.39 38.76 2.39 38.62 2.39 38.4 2.39 38.4 4.31 38.62 4.31 38.76 4.31 39.74 4.31 39.74 4.01 38.76 4.01 38.76 3.48 39.63 3.48 39.63 3.19 38.76 3.19 38.76 2.7 39.74 2.7"/>
      </g>
      <g>
        <path class="cls-3" d="M10.8,7c-.15-.05-.33-.1-.55-.15-.14-.03-.25-.06-.33-.08s-.14-.06-.19-.1c-.05-.04-.08-.1-.08-.17,0-.09.04-.17.11-.22.07-.06.18-.09.31-.09.17,0,.3.04.4.11.1.08.17.2.2.36l.64-.15c-.07-.29-.21-.51-.43-.66-.21-.15-.49-.22-.82-.22-.23,0-.42.04-.6.11-.17.08-.31.18-.4.32-.09.14-.14.29-.14.48,0,.21.05.38.15.5s.22.21.37.26c.14.05.32.1.54.14.14.03.26.06.34.08.09.03.16.06.21.11.06.05.08.12.08.2,0,.1-.04.18-.13.24s-.2.09-.33.09c-.19,0-.34-.04-.47-.13s-.21-.22-.26-.41l-.62.21c.09.29.25.51.47.66s.51.22.86.22.65-.08.86-.24c.21-.16.32-.39.32-.69,0-.23-.05-.4-.16-.53s-.23-.22-.38-.27Z"/>
        <path class="cls-3" d="M13.82,7.46c0,.21-.05.36-.16.47s-.25.16-.44.16-.34-.05-.45-.16-.16-.26-.16-.47v-1.76h-.71v1.79c0,.4.11.71.34.92.22.21.54.32.96.32s.73-.11.96-.32c.23-.22.34-.52.34-.92v-1.79h-.68v1.76Z"/>
        <path class="cls-3" d="M17.34,7.48c0,.06,0,.13.01.22-.04-.07-.08-.16-.12-.22l-1.12-1.78h-.9v2.98h.61v-1.92c0-.06,0-.16-.01-.27.05.11.1.2.13.25l1.23,1.94h.78v-2.98h-.61v1.78Z"/>
        <path class="cls-3" d="M20.49,7c-.15-.05-.33-.1-.55-.15-.14-.03-.25-.06-.33-.08s-.14-.06-.19-.1c-.05-.04-.08-.1-.08-.17,0-.09.04-.17.11-.22.07-.06.18-.09.31-.09.17,0,.3.04.4.11.1.08.17.2.2.36l.64-.15c-.07-.29-.21-.51-.43-.66-.21-.15-.49-.22-.82-.22-.23,0-.42.04-.6.11-.17.08-.31.18-.4.32-.09.14-.14.29-.14.48,0,.21.05.38.15.5s.22.21.37.26c.14.05.32.1.54.14.14.03.26.06.34.08.09.03.16.06.21.11.06.05.08.12.08.2,0,.1-.04.18-.13.24s-.2.09-.33.09c-.19,0-.34-.04-.47-.13s-.21-.22-.26-.41l-.62.21c.09.29.25.51.47.66s.51.22.86.22.65-.08.86-.24c.21-.16.32-.39.32-.69,0-.23-.05-.4-.16-.53s-.23-.22-.38-.27Z"/>
        <polygon class="cls-3" points="23.57 6.87 22.33 6.87 22.33 5.7 21.62 5.7 21.62 8.68 22.33 8.68 22.33 7.47 23.57 7.47 23.57 8.68 24.29 8.68 24.29 5.7 23.57 5.7 23.57 6.87"/>
        <rect class="cls-3" x="25.05" y="5.7" width=".71" height="2.98"/>
        <path class="cls-3" d="M28.66,7.48c0,.06,0,.13.01.22-.04-.07-.08-.16-.12-.22l-1.12-1.78h-.9v2.98h.61v-1.92c0-.06,0-.16-.01-.27.05.11.1.2.13.25l1.23,1.94h.78v-2.98h-.61v1.78Z"/>
        <polygon class="cls-3" points="30.43 5.7 30.03 5.7 30.03 8.68 30.43 8.68 30.74 8.68 32.19 8.68 32.19 8.09 30.74 8.09 30.74 7.45 32.02 7.45 32.02 6.88 30.74 6.88 30.74 6.29 32.19 6.29 32.19 5.7 30.74 5.7 30.43 5.7"/>
        <path class="cls-3" d="M34.9,6.26c.19,0,.34.05.47.16.12.1.21.26.26.48l.66-.14c-.07-.36-.23-.63-.47-.82-.24-.19-.55-.29-.94-.29-.31,0-.57.06-.8.19-.23.13-.4.31-.51.54-.12.23-.17.51-.17.82s.06.59.17.82c.12.23.28.41.51.54s.49.19.8.19c.38,0,.69-.1.93-.29s.4-.47.47-.82l-.66-.14c-.05.22-.14.38-.26.48s-.28.16-.47.16c-.24,0-.43-.08-.56-.24-.13-.16-.2-.39-.2-.7s.07-.53.2-.69c.13-.16.32-.24.56-.24Z"/>
        <path class="cls-3" d="M39.02,5.83c-.23-.13-.5-.19-.82-.19s-.6.06-.83.19c-.23.12-.4.3-.52.54-.12.23-.18.51-.18.82s.06.59.18.83c.12.23.29.41.52.54s.5.19.83.19.6-.06.82-.19.4-.31.52-.54c.12-.23.18-.51.18-.83s-.06-.59-.18-.82c-.12-.23-.29-.41-.52-.54ZM38.78,7.89c-.13.16-.33.24-.58.24s-.45-.08-.58-.24c-.13-.16-.2-.39-.2-.7s.07-.53.2-.69c.13-.16.33-.24.58-.24s.45.08.58.24c.13.16.2.39.2.69s-.07.54-.2.7Z"/>
        <path class="cls-3" d="M41.01,5.7l-1.11,2.98h.7l.21-.6h1.19l.21.6h.74l-1.12-2.98h-.83ZM41.01,7.54l.25-.69c.04-.13.09-.29.14-.48,0-.02,0-.03.01-.04,0,.02,0,.04.01.06.05.2.1.35.14.47l.25.69h-.8Z"/>
        <path class="cls-3" d="M45.12,7c-.15-.05-.33-.1-.55-.15-.14-.03-.25-.06-.33-.08s-.14-.06-.19-.1c-.05-.04-.08-.1-.08-.17,0-.09.04-.17.11-.22.07-.06.18-.09.31-.09.17,0,.3.04.4.11.1.08.17.2.2.36l.64-.15c-.07-.29-.21-.51-.43-.66-.21-.15-.49-.22-.82-.22-.23,0-.42.04-.6.11-.17.08-.31.18-.4.32-.09.14-.14.29-.14.48,0,.21.05.38.15.5s.22.21.37.26c.14.05.32.1.54.14.14.03.26.06.34.08.09.03.16.06.21.11.06.05.08.12.08.2,0,.1-.04.18-.13.24s-.2.09-.33.09c-.19,0-.34-.04-.47-.13s-.21-.22-.26-.41l-.62.21c.09.29.25.51.47.66s.51.22.86.22.65-.08.86-.24c.21-.16.32-.39.32-.69,0-.23-.05-.4-.16-.53s-.23-.22-.38-.27Z"/>
        <polygon class="cls-3" points="48.23 5.7 47.39 5.7 46.68 5.7 45.85 5.7 45.85 6.31 46.68 6.31 46.68 8.68 47.39 8.68 47.39 6.31 48.23 6.31 48.23 5.7"/>
      </g>
      <rect class="cls-3" x="1.6" y="10.4" width="9.46" height="9.46"/>
      <rect class="cls-3" x="12.55" y="10.4" width="9.46" height="9.46"/>
      <rect class="cls-3" x="23.51" y="10.4" width="9.46" height="9.46"/>
      <rect class="cls-3" x="34.46" y="10.4" width="9.46" height="9.46"/>
      <rect class="cls-3" x="45.13" y="10.4" width="9.74" height="9.46"/>
      <path class="cls-1" d="M.9,20.67h54.47v5.26c0,1.05-.85,1.9-1.9,1.9H2.8c-1.05,0-1.9-.85-1.9-1.9v-5.26h0Z"/>
      <g>
        <path class="cls-3" d="M10.72,24.68c0,.06,0,.16.01.25-.03-.08-.07-.18-.1-.25l-.88-1.64h-.48v2.48h.33v-1.76c0-.06,0-.15,0-.24.03.08.06.17.09.22l.96,1.78h.41v-2.48h-.33v1.64Z"/>
        <path class="cls-3" d="M12.13,23.04l-.77,2.48h.38l.18-.59h.86l.18.59h.39l-.77-2.48h-.43ZM12.02,24.56l.2-.66c.04-.11.07-.24.1-.37.01-.05.02-.08.03-.12.01.05.02.08.03.14.03.14.06.25.09.35l.2.66h-.64Z"/>
        <polygon class="cls-3" points="13.89 23.04 13.29 23.04 13.29 23.44 13.89 23.44 13.89 25.51 14.27 25.51 14.27 23.44 14.87 23.44 14.87 23.04 14.27 23.04 13.89 23.04"/>
        <rect class="cls-3" x="15.2" y="23.04" width=".38" height="2.48"/>
        <path class="cls-3" d="M16.99,24.65c-.03.11-.06.23-.09.35-.01.06-.02.11-.03.16-.01-.05-.02-.1-.03-.16-.03-.13-.06-.24-.09-.35l-.45-1.61h-.39l.73,2.48h.45l.73-2.48h-.37l-.46,1.61Z"/>
        <polygon class="cls-3" points="18.36 23.04 18.13 23.04 18.13 25.51 18.36 25.51 18.51 25.51 19.56 25.51 19.56 25.12 18.51 25.12 18.51 24.44 19.44 24.44 19.44 24.07 18.51 24.07 18.51 23.43 19.56 23.43 19.56 23.04 18.51 23.04 18.36 23.04"/>
        <path class="cls-3" d="M21.73,24.16c-.1-.04-.22-.08-.38-.12-.11-.03-.19-.05-.25-.07-.06-.02-.11-.06-.15-.1-.04-.04-.06-.11-.06-.18,0-.1.03-.18.09-.24.06-.06.15-.09.27-.09.13,0,.23.04.31.11s.14.19.17.35l.34-.1c-.05-.24-.14-.42-.28-.55-.14-.12-.32-.18-.54-.18-.15,0-.27.03-.39.09-.11.06-.2.14-.26.25-.06.11-.09.23-.09.38,0,.17.03.3.1.4.07.1.15.16.24.21.09.04.22.08.37.12.11.03.21.05.27.08.07.03.12.06.17.12.04.05.07.12.07.21,0,.11-.04.2-.11.26-.07.06-.17.09-.28.09-.15,0-.28-.04-.37-.13-.1-.09-.16-.22-.2-.4l-.33.13c.06.25.16.45.31.58.15.13.35.19.59.19s.42-.06.56-.19c.14-.13.21-.31.21-.54,0-.18-.04-.33-.11-.43-.07-.1-.16-.18-.26-.22Z"/>
        <path class="cls-3" d="M23.37,23.04h-.83v2.48h.38v-.98h.45c.25,0,.44-.07.57-.2.12-.13.19-.32.19-.55s-.06-.41-.19-.55c-.13-.13-.32-.2-.57-.2ZM23.65,24.06c-.06.06-.17.1-.32.1h-.41v-.74h.41c.15,0,.26.03.32.09.06.06.09.15.09.28s-.03.21-.09.28Z"/>
        <polygon class="cls-3" points="24.72 23.04 24.5 23.04 24.5 25.51 24.72 25.51 24.88 25.51 25.92 25.51 25.92 25.12 24.88 25.12 24.88 24.44 25.8 24.44 25.8 24.07 24.88 24.07 24.88 23.43 25.92 23.43 25.92 23.04 24.88 23.04 24.72 23.04"/>
        <path class="cls-3" d="M27.18,23.39c.15,0,.27.05.37.14.1.1.17.24.21.44l.34-.1c-.06-.28-.16-.5-.32-.65-.16-.15-.36-.23-.61-.23-.21,0-.39.05-.54.16-.15.1-.27.25-.35.45-.08.19-.12.42-.12.68s.04.49.12.68c.08.19.19.34.34.45s.33.16.54.16c.25,0,.45-.08.61-.23.16-.16.27-.38.32-.66l-.34-.1c-.04.2-.11.35-.21.45-.1.1-.22.14-.37.14-.2,0-.35-.08-.46-.23-.11-.15-.16-.37-.16-.66s.05-.5.16-.65c.11-.15.26-.23.46-.23Z"/>
        <rect class="cls-3" x="28.52" y="23.04" width=".38" height="2.48"/>
        <polygon class="cls-3" points="29.71 23.04 29.49 23.04 29.49 25.51 29.71 25.51 29.87 25.51 30.91 25.51 30.91 25.12 29.87 25.12 29.87 24.44 30.79 24.44 30.79 24.07 29.87 24.07 29.87 23.43 30.91 23.43 30.91 23.04 29.87 23.04 29.71 23.04"/>
        <path class="cls-3" d="M32.47,24.16c-.1-.04-.22-.08-.38-.12-.11-.03-.19-.05-.25-.07-.06-.02-.11-.06-.15-.1-.04-.04-.06-.11-.06-.18,0-.1.03-.18.09-.24.06-.06.15-.09.27-.09.13,0,.23.04.31.11s.14.19.17.35l.34-.1c-.05-.24-.14-.42-.28-.55-.14-.12-.32-.18-.54-.18-.15,0-.27.03-.39.09-.11.06-.2.14-.26.25-.06.11-.09.23-.09.38,0,.17.03.3.1.4.07.1.15.16.24.21.09.04.22.08.37.12.11.03.21.05.27.08.07.03.12.06.17.12.04.05.07.12.07.21,0,.11-.04.2-.11.26-.07.06-.17.09-.28.09-.15,0-.28-.04-.37-.13-.1-.09-.16-.22-.2-.4l-.33.13c.06.25.16.45.31.58.15.13.35.19.59.19s.42-.06.56-.19c.14-.13.21-.31.21-.54,0-.18-.04-.33-.11-.43-.07-.1-.16-.18-.26-.22Z"/>
        <path class="cls-3" d="M34.72,23.39c.15,0,.27.05.37.14.1.1.17.24.21.44l.34-.1c-.06-.28-.16-.5-.32-.65-.16-.15-.36-.23-.61-.23-.21,0-.39.05-.54.16-.15.1-.27.25-.35.45-.08.19-.12.42-.12.68s.04.49.12.68c.08.19.19.34.34.45s.33.16.54.16c.25,0,.45-.08.61-.23.16-.16.27-.38.32-.66l-.34-.1c-.04.2-.11.35-.21.45-.1.1-.22.14-.37.14-.2,0-.35-.08-.46-.23-.11-.15-.16-.37-.16-.66s.05-.5.16-.65c.11-.15.26-.23.46-.23Z"/>
        <path class="cls-3" d="M37.51,23.15c-.15-.1-.34-.16-.55-.16s-.4.05-.55.16c-.15.1-.27.25-.35.44-.08.19-.12.42-.12.68s.04.49.12.68c.08.19.2.34.35.45.15.1.34.16.55.16s.39-.05.55-.16c.15-.1.27-.25.35-.45.08-.19.12-.42.12-.68s-.04-.49-.12-.68c-.08-.19-.2-.34-.35-.45ZM37.43,24.93c-.1.15-.26.23-.47.23s-.36-.08-.47-.23c-.11-.15-.16-.37-.16-.66s.05-.5.16-.65c.11-.15.26-.23.47-.23s.36.08.47.23c.1.15.16.37.16.65s-.05.51-.16.66Z"/>
        <path class="cls-3" d="M39.74,24.52c0,.2-.04.36-.12.46-.08.1-.2.15-.35.15s-.28-.05-.36-.15c-.08-.1-.12-.26-.12-.46v-1.48h-.38v1.51c0,.32.08.57.23.74.15.17.36.26.63.26s.47-.09.62-.26c.15-.17.23-.42.23-.74v-1.51h-.36v1.48Z"/>
        <path class="cls-3" d="M42.09,24.68c0,.06,0,.16.01.25-.03-.08-.07-.18-.1-.25l-.88-1.64h-.48v2.48h.33v-1.76c0-.06,0-.15,0-.24.03.08.06.17.09.22l.96,1.78h.41v-2.48h-.33v1.64Z"/>
        <polygon class="cls-3" points="43.35 23.04 42.75 23.04 42.75 23.44 43.35 23.44 43.35 25.51 43.73 25.51 43.73 23.44 44.33 23.44 44.33 23.04 43.73 23.04 43.35 23.04"/>
        <polygon class="cls-3" points="44.89 23.04 44.67 23.04 44.67 25.51 44.89 25.51 45.05 25.51 46.09 25.51 46.09 25.12 45.05 25.12 45.05 24.44 45.97 24.44 45.97 24.07 45.05 24.07 45.05 23.43 46.09 23.43 46.09 23.04 45.05 23.04 44.89 23.04"/>
        <path class="cls-3" d="M48.09,25.3c-.02-.09-.06-.24-.1-.45-.03-.14-.06-.25-.1-.32s-.09-.13-.16-.16c0,0-.02,0-.03,0,.11-.03.2-.07.27-.14.11-.11.17-.26.17-.46,0-.22-.06-.39-.19-.52-.12-.13-.32-.19-.58-.19h-.84v2.48h.38v-.99h.35c.07,0,.13.01.17.04.04.02.08.06.11.12.03.06.05.14.07.24.03.18.06.32.08.4.02.09.04.15.06.19h.41c-.03-.06-.05-.13-.07-.22ZM46.9,24.17v-.75h.42c.15,0,.26.03.32.1.06.06.09.16.09.28s-.03.22-.09.28c-.06.06-.17.1-.32.1h-.42Z"/>
      </g>
      <g>
        <path class="cls-5" d="M4.3,17.91h.2v.86h-.2v-.86ZM4.42,18.27h.24s.08,0,.1-.03.03-.04.03-.08,0-.06-.03-.08-.05-.03-.1-.03h-.24v-.15h.26c.11,0,.19.02.24.06.05.04.07.1.07.17,0,.07-.02.12-.07.15-.05.04-.12.05-.22.05h-.28v-.09ZM4.45,18.62h.24s.08,0,.1-.03c.02-.02.03-.04.03-.08s0-.06-.03-.08c-.02-.02-.05-.03-.1-.03h-.24v-.09h.28c.1,0,.17.02.22.05s.08.09.08.16c0,.08-.02.13-.07.18-.05.04-.13.06-.24.06h-.26v-.15Z"/>
        <path class="cls-5" d="M5.4,17.91v.86h-.2v-.86h.2Z"/>
        <path class="cls-5" d="M5.62,17.91h.2v.86h-.2v-.86ZM5.74,18.3h.24c.05,0,.09,0,.11-.03.02-.02.03-.05.03-.08s-.01-.06-.03-.08c-.02-.02-.06-.03-.11-.03h-.24v-.16h.26c.12,0,.2.02.26.07.05.05.08.11.08.19,0,.07-.02.12-.07.16-.05.04-.12.06-.22.06h-.04v.06h-.26v-.15ZM6.11,18.71s-.02-.07-.03-.13c0-.04-.02-.06-.03-.08-.01-.02-.02-.03-.04-.04-.02,0-.04-.01-.06-.01v-.09h.11s.09,0,.11.02c.03.01.05.03.07.06.02.03.03.06.04.11.02.07.03.12.04.15,0,.03.02.05.03.07h0s-.22,0-.22,0c0-.01-.02-.04-.03-.06Z"/>
        <path class="cls-5" d="M6.72,17.91v.86h-.2v-.86h.2ZM7.17,18.03c.08.08.11.18.11.32s-.04.24-.11.32c-.07.07-.18.11-.32.11h-.25v-.17h.23c.08,0,.14-.02.18-.06s.06-.11.06-.19-.02-.15-.06-.19c-.04-.04-.1-.06-.18-.06h-.23v-.17h.25c.14,0,.24.04.32.11Z"/>
        <path class="cls-5" d="M7.54,18.72c-.06-.04-.11-.11-.14-.19l.18-.06c.02.05.04.09.08.12.04.03.08.04.13.04.04,0,.07,0,.1-.03.02-.02.04-.04.04-.07,0-.02,0-.04-.02-.06s-.04-.02-.06-.03c-.02,0-.06-.02-.1-.02-.06-.01-.11-.03-.16-.04-.04-.01-.08-.04-.1-.07s-.04-.08-.04-.14c0-.05.01-.1.04-.14.03-.04.07-.07.12-.09.05-.02.11-.03.17-.03.09,0,.17.02.23.06.06.04.1.11.12.19l-.18.04s-.03-.08-.06-.1-.07-.03-.11-.03c-.04,0-.07,0-.09.02-.02.02-.03.04-.03.06,0,.02,0,.04.02.05.02.01.03.02.06.03.02,0,.05.01.09.02.06.01.12.03.16.04.04.02.08.04.11.08.03.04.05.09.05.15,0,.08-.03.15-.09.2s-.14.07-.25.07-.18-.02-.25-.06Z"/>
      </g>
      <g>
        <path class="cls-5" d="M14.12,17.91h.15c0,.07.01.14.01.22v.64h-.17v-.86ZM14.26,17.91h.17l.17.6s.02.1.03.17h-.03c.01-.07.02-.13.03-.17l.17-.6h.14c-.01.08-.03.15-.05.22l-.18.64h-.22l-.18-.64c-.02-.07-.04-.14-.05-.22ZM14.92,17.91h.17v.86h-.19v-.64c0-.08,0-.15.01-.22Z"/>
        <path class="cls-5" d="M15.53,17.91h.24l.32.86h-.21l-.19-.53s-.03-.08-.04-.13c-.02-.06-.03-.1-.03-.14h.06s-.02.08-.03.13-.03.1-.04.14l-.19.53h-.2l.32-.86ZM15.41,18.44h.47v.16h-.47v-.16Z"/>
        <path class="cls-5" d="M16.2,17.91h.15c0,.07.01.14.01.22v.64h-.17v-.86ZM16.33,17.91h.17l.17.6s.02.1.03.17h-.03c.01-.07.02-.13.03-.17l.17-.6h.14c-.01.08-.03.15-.05.22l-.18.64h-.22l-.18-.64c-.02-.07-.04-.14-.05-.22ZM17,17.91h.17v.86h-.19v-.64c0-.08,0-.15.01-.22Z"/>
        <path class="cls-5" d="M17.39,17.91h.15c0,.07.01.14.01.22v.64h-.17v-.86ZM17.52,17.91h.17l.17.6s.02.1.03.17h-.03c.01-.07.02-.13.03-.17l.17-.6h.14c-.01.08-.03.15-.05.22l-.18.64h-.22l-.18-.64c-.02-.07-.04-.14-.05-.22ZM18.19,17.91h.17v.86h-.19v-.64c0-.08,0-.15.01-.22Z"/>
        <path class="cls-5" d="M18.79,17.91h.24l.32.86h-.21l-.19-.53s-.03-.08-.04-.13c-.02-.06-.03-.1-.03-.14h.06s-.02.08-.03.13-.03.1-.04.14l-.19.53h-.2l.32-.86ZM18.68,18.44h.47v.16h-.47v-.16Z"/>
        <path class="cls-5" d="M19.47,17.91h.2v.86h-.2v-.86ZM19.6,18.6h.43v.18h-.43v-.18Z"/>
        <path class="cls-5" d="M20.21,18.72c-.06-.04-.11-.11-.14-.19l.18-.06c.02.05.04.09.08.12.04.03.08.04.13.04.04,0,.07,0,.1-.03.02-.02.04-.04.04-.07,0-.02,0-.04-.02-.06s-.04-.02-.06-.03c-.02,0-.06-.02-.1-.02-.06-.01-.11-.03-.16-.04-.04-.01-.08-.04-.1-.07s-.04-.08-.04-.14c0-.05.01-.1.04-.14.03-.04.07-.07.12-.09.05-.02.11-.03.17-.03.09,0,.17.02.23.06.06.04.1.11.12.19l-.18.04s-.03-.08-.06-.1-.07-.03-.11-.03c-.04,0-.07,0-.09.02-.02.02-.03.04-.03.06,0,.02,0,.04.02.05.02.01.03.02.06.03.02,0,.05.01.09.02.06.01.12.03.16.04.04.02.08.04.11.08.03.04.05.09.05.15,0,.08-.03.15-.09.2s-.14.07-.25.07-.18-.02-.25-.06Z"/>
      </g>
      <g>
        <path class="cls-5" d="M26.1,17.91v.86h-.2v-.86h.2Z"/>
        <path class="cls-5" d="M26.32,17.91h.15s.01.11.01.17c0,.06,0,.11,0,.14v.55h-.18v-.86ZM26.46,18.09c-.03-.06-.05-.12-.07-.17h.18l.32.51c.05.08.1.18.15.29v.05h-.17l-.35-.56s-.04-.07-.06-.13ZM26.94,18.58c0-.07-.01-.12-.01-.15v-.51h.18v.86h-.14c0-.06-.02-.12-.02-.19Z"/>
        <path class="cls-5" d="M27.4,18.72c-.06-.04-.11-.11-.14-.19l.18-.06c.02.05.04.09.08.12.04.03.08.04.13.04.04,0,.07,0,.1-.03.02-.02.04-.04.04-.07,0-.02,0-.04-.02-.06s-.04-.02-.06-.03c-.02,0-.06-.02-.1-.02-.06-.01-.11-.03-.16-.04-.04-.01-.08-.04-.1-.07s-.04-.08-.04-.14c0-.05.01-.1.04-.14.03-.04.07-.07.12-.09.05-.02.11-.03.17-.03.09,0,.17.02.23.06.06.04.1.11.12.19l-.18.04s-.03-.08-.06-.1-.07-.03-.11-.03c-.04,0-.07,0-.09.02-.02.02-.03.04-.03.06,0,.02,0,.04.02.05.02.01.03.02.06.03.02,0,.05.01.09.02.06.01.12.03.16.04.04.02.08.04.11.08.03.04.05.09.05.15,0,.08-.03.15-.09.2s-.14.07-.25.07-.18-.02-.25-.06Z"/>
        <path class="cls-5" d="M28.36,17.91v.86h-.2v-.86h.2ZM28.78,17.91v.17h-.51v-.17h.51ZM28.73,18.25v.16h-.45v-.16h.45ZM28.78,18.6v.17h-.51v-.17h.51Z"/>
        <path class="cls-5" d="M29.08,18.73c-.06-.04-.11-.09-.15-.15-.03-.07-.05-.15-.05-.24s.02-.17.05-.24.08-.12.15-.15.14-.05.23-.05c.11,0,.2.03.27.08.07.05.11.13.14.24l-.19.04c-.01-.06-.04-.11-.07-.14-.03-.03-.08-.04-.13-.04-.07,0-.12.02-.16.07-.04.05-.06.11-.06.2s.02.15.06.2c.04.05.09.07.16.07.05,0,.1-.01.13-.04.04-.03.06-.08.07-.14l.19.04c-.02.1-.07.18-.14.24s-.16.08-.27.08c-.09,0-.17-.02-.23-.05Z"/>
        <path class="cls-5" d="M30.44,17.91v.17h-.68v-.17h.68ZM30.2,17.91v.86h-.2v-.86h.2Z"/>
        <path class="cls-5" d="M30.63,18.72c-.06-.04-.11-.11-.14-.19l.18-.06c.02.05.04.09.08.12.04.03.08.04.13.04.04,0,.07,0,.1-.03.02-.02.04-.04.04-.07,0-.02,0-.04-.02-.06s-.04-.02-.06-.03c-.02,0-.06-.02-.1-.02-.06-.01-.11-.03-.16-.04-.04-.01-.08-.04-.1-.07s-.04-.08-.04-.14c0-.05.01-.1.04-.14.03-.04.07-.07.12-.09.05-.02.11-.03.17-.03.09,0,.17.02.23.06.06.04.1.11.12.19l-.18.04s-.03-.08-.06-.1-.07-.03-.11-.03c-.04,0-.07,0-.09.02-.02.02-.03.04-.03.06,0,.02,0,.04.02.05.02.01.03.02.06.03.02,0,.05.01.09.02.06.01.12.03.16.04.04.02.08.04.11.08.03.04.05.09.05.15,0,.08-.03.15-.09.2s-.14.07-.25.07-.18-.02-.25-.06Z"/>
      </g>
      <g>
        <path class="cls-5" d="M36.34,17.7s.05,0,.06.01c.01,0,.03.02.04.04.01.02.02.05.03.08.01.06.02.1.03.13,0,.03.02.05.03.06h.22s-.02-.04-.03-.07c0-.03-.02-.08-.04-.15-.01-.05-.03-.09-.04-.11-.02-.03-.04-.05-.07-.06-.01,0-.03,0-.05,0,.05,0,.11-.01.14-.04.05-.04.07-.09.07-.16,0-.08-.03-.14-.08-.19-.05-.05-.14-.07-.26-.07h-.38v.86h.2v-.32h.12ZM36.38,17.32c.05,0,.09,0,.11.03.02.02.03.05.03.08s-.01.06-.03.08c-.02.02-.06.03-.11.03h-.16v-.22h.16Z"/>
        <polygon class="cls-5" points="37.12 18.02 37.53 18.02 37.53 17.85 37.12 17.85 37.12 17.66 37.48 17.66 37.48 17.5 37.12 17.5 37.12 17.33 37.53 17.33 37.53 17.16 37.12 17.16 37.03 17.16 36.91 17.16 36.91 18.02 37.03 18.02 37.12 18.02"/>
        <path class="cls-5" d="M37.9,17.7h.17c.11,0,.19-.02.25-.07.05-.05.08-.11.08-.2s-.03-.15-.08-.2c-.05-.05-.14-.07-.25-.07h-.38v.86h.2v-.32ZM38.06,17.32c.05,0,.09,0,.11.03.02.02.03.04.03.08s-.01.06-.03.08c-.02.02-.06.03-.11.03h-.15v-.21h.15Z"/>
        <polygon class="cls-5" points="38.68 17.16 38.44 17.16 38.44 17.34 38.68 17.34 38.68 18.02 38.89 18.02 38.89 17.34 39.13 17.34 39.13 17.16 38.89 17.16 38.68 17.16"/>
        <rect class="cls-5" x="39.25" y="17.16" width=".2" height=".86"/>
        <polygon class="cls-5" points="39.88 18.02 40.24 18.02 40.24 17.84 39.88 17.84 39.88 17.16 39.68 17.16 39.68 18.02 39.81 18.02 39.88 18.02"/>
        <polygon class="cls-5" points="40.97 17.85 40.55 17.85 40.55 17.66 40.92 17.66 40.92 17.5 40.55 17.5 40.55 17.33 40.97 17.33 40.97 17.16 40.55 17.16 40.46 17.16 40.35 17.16 40.35 18.02 40.46 18.02 40.55 18.02 40.97 18.02 40.97 17.85"/>
        <path class="cls-5" d="M41.64,17.54s-.09-.03-.16-.04c-.04,0-.07-.02-.09-.02-.02,0-.04-.02-.06-.03-.02-.01-.02-.03-.02-.05,0-.03,0-.05.03-.06.02-.02.05-.02.09-.02.05,0,.08.01.11.03s.05.06.06.1l.18-.04c-.02-.08-.06-.15-.12-.19-.06-.04-.14-.06-.23-.06-.06,0-.12.01-.17.03-.05.02-.09.05-.12.09s-.04.08-.04.14c0,.06.01.11.04.14s.06.06.11.07.09.03.16.04c.04,0,.07.02.1.02.02,0,.04.02.06.03.02.01.02.03.02.06,0,.03-.01.05-.04.07s-.06.03-.1.03c-.05,0-.1-.01-.13-.04-.03-.03-.06-.06-.08-.12l-.18.06c.03.08.07.15.14.19.06.04.15.06.25.06s.19-.02.25-.07c.06-.05.09-.11.09-.2,0-.06-.02-.12-.05-.15-.03-.04-.07-.06-.11-.08Z"/>
        <path class="cls-5" d="M42.9,17.88s-.03,0-.05,0c-.02,0-.03,0-.04,0-.01,0-.02-.01-.04-.03,0,0,0-.01-.01-.01.05-.07.09-.17.13-.29l-.15-.04c-.02.08-.05.14-.08.2l-.06-.08s-.03-.04-.04-.06c.02-.01.05-.03.07-.04.03-.02.06-.04.08-.07.02-.03.03-.07.03-.11,0-.06-.02-.1-.06-.14s-.09-.06-.15-.06c-.05,0-.09,0-.12.03s-.06.04-.08.07c-.02.03-.03.07-.03.1,0,.04.01.09.04.14,0,0,.02.02.02.03-.02.01-.06.02-.07.04-.04.02-.07.05-.1.09-.03.04-.04.09-.04.15,0,.05.01.09.03.13s.06.07.1.09c.04.02.1.03.16.03s.11-.01.16-.03c.03-.01.05-.04.08-.06.02.02.04.05.06.06.03.02.06.03.1.03s.07,0,.09-.03v-.13ZM42.47,17.3s.03-.02.05-.02.04,0,.05.02c.01.01.02.03.02.05,0,.02,0,.04-.02.05s-.03.03-.06.04c0,0-.02,0-.03.01,0,0,0,0,0,0-.02-.04-.03-.07-.03-.09,0-.02,0-.04.02-.05ZM42.42,17.88s-.07,0-.09-.03c-.02-.02-.03-.05-.03-.08,0-.03,0-.05.03-.08.02-.02.04-.04.06-.05,0,0,.02,0,.02-.01.02.03.02.04.04.07l.1.13s-.02.03-.04.03c-.03.01-.06.02-.09.02Z"/>
        <path class="cls-5" d="M35.55,18.71l-.32.86h.2l.06-.17h.34l.06.17h.21l-.32-.86h-.24ZM35.55,19.24l.07-.2s.03-.08.04-.14c0,0,0,0,0-.01,0,0,0,.01,0,.02.01.06.03.1.04.13l.07.2h-.23Z"/>
        <path class="cls-5" d="M37.02,18.71h-.12l-.17.6s-.01.06-.02.1c0-.03,0-.07-.02-.1l-.17-.6h-.3v.86h.17v-.64s0-.07,0-.1c0,.03.01.07.02.1l.18.64h.22l.18-.64s.02-.07.02-.11c0,.04,0,.07,0,.11v.64h.18v-.86h-.17Z"/>
        <path class="cls-5" d="M37.79,18.71h-.38v.86h.2v-.32h.17c.11,0,.19-.02.25-.07.05-.05.08-.11.08-.2s-.03-.15-.08-.2c-.05-.05-.14-.07-.25-.07ZM37.88,19.06s-.06.03-.11.03h-.15v-.21h.15c.05,0,.09,0,.11.03.02.02.03.04.03.08s-.01.06-.03.08Z"/>
        <polygon class="cls-5" points="38.82 19.05 38.46 19.05 38.46 18.71 38.26 18.71 38.26 19.57 38.46 19.57 38.46 19.22 38.82 19.22 38.82 19.57 39.03 19.57 39.03 18.71 38.82 18.71 38.82 19.05"/>
        <rect class="cls-5" x="39.24" y="18.71" width=".2" height=".86"/>
        <path class="cls-5" d="M40.16,19.13s.1,0,.12-.03c.05-.04.07-.09.07-.15,0-.07-.02-.13-.07-.17-.05-.04-.13-.06-.24-.06h-.38v.86h.41c.11,0,.19-.02.24-.06s.07-.1.07-.18c0-.07-.03-.12-.08-.16-.03-.03-.09-.03-.15-.04ZM40.03,18.86s.08,0,.1.03c.02.02.03.04.03.08s0,.06-.03.08c-.02.02-.05.03-.1.03h-.15v-.2h.15ZM40.15,19.39s-.05.03-.1.03h-.18v-.21h.18s.08,0,.1.03c.02.02.03.04.03.08s0,.06-.03.08Z"/>
        <rect class="cls-5" x="40.56" y="18.71" width=".2" height=".86"/>
        <path class="cls-5" d="M41.2,18.71l-.32.86h.2l.06-.17h.34l.06.17h.21l-.32-.86h-.24ZM41.2,19.24l.07-.2s.03-.08.04-.14c0,0,0,0,0-.01,0,0,0,0,0,.02.01.06.03.1.04.13l.07.2h-.23Z"/>
        <path class="cls-5" d="M42.48,19.22s0,.05,0,.07c-.01-.02-.03-.05-.04-.07l-.32-.51h-.26v.86h.18v-.55s0-.05,0-.08c.01.03.03.06.04.08l.35.56h.22v-.86h-.18v.51Z"/>
        <path class="cls-5" d="M43.5,19.16s-.07-.06-.11-.08-.09-.03-.16-.04c-.04,0-.07-.02-.09-.02-.02,0-.04-.02-.06-.03-.02-.01-.02-.03-.02-.05,0-.03,0-.05.03-.06.02-.02.05-.02.09-.02.05,0,.08.01.11.03s.05.06.06.1l.18-.04c-.02-.08-.06-.15-.12-.19-.06-.04-.14-.06-.23-.06-.06,0-.12.01-.17.03-.05.02-.09.05-.12.09s-.04.08-.04.14c0,.06.01.11.04.14s.06.06.11.07.09.03.16.04c.04,0,.07.02.1.02.02,0,.04.02.06.03.02.01.02.03.02.06,0,.03-.01.05-.04.07s-.06.03-.1.03c-.05,0-.1-.01-.13-.04-.03-.03-.06-.06-.08-.12l-.18.06c.03.08.07.15.14.19.06.04.15.06.25.06s.19-.02.25-.07c.06-.05.09-.11.09-.2,0-.06-.02-.12-.05-.15Z"/>
      </g>
      <g>
        <polygon class="cls-4" points="45.66 17.83 45.54 17.83 45.54 18.7 45.66 18.7 45.75 18.7 46.17 18.7 46.17 18.52 45.75 18.52 45.75 18.34 46.12 18.34 46.12 18.17 45.75 18.17 45.75 18 46.17 18 46.17 17.83 45.75 17.83 45.66 17.83"/>
        <path class="cls-4" d="M46.96,18.34s0,.05,0,.08c-.01-.02-.03-.05-.04-.08l-.33-.52h-.26v.87h.18v-.56s0-.05,0-.08c.01.03.03.06.04.08l.36.56h.23v-.87h-.18v.52Z"/>
        <path class="cls-4" d="M47.71,17.83h-.34v.87h.34c.14,0,.25-.04.32-.11.08-.08.11-.18.11-.32s-.04-.25-.11-.32-.18-.11-.32-.11ZM47.87,18.46s-.1.06-.19.06h-.11v-.52h.11c.08,0,.15.02.19.06s.06.11.06.19-.02.15-.06.2Z"/>
        <path class="cls-4" d="M48.52,17.83l-.32.87h.2l.06-.17h.35l.06.17h.22l-.33-.87h-.24ZM48.52,18.36l.07-.2s.03-.08.04-.14c0,0,0,0,0-.01,0,0,0,.01,0,.02.02.06.03.1.04.14l.07.2h-.23Z"/>
        <path class="cls-4" d="M49.83,18.34s0,.05,0,.08c-.01-.02-.03-.05-.04-.08l-.33-.52h-.26v.87h.18v-.56s0-.05,0-.08c.01.03.03.06.04.08l.36.56h.23v-.87h-.18v.52Z"/>
        <path class="cls-4" d="M50.62,17.98c.05,0,.1.01.13.04.04.03.06.06.08.12l.19-.04c-.03-.09-.08-.16-.15-.21s-.16-.07-.26-.07c-.09,0-.17.02-.24.06-.07.04-.12.09-.15.16s-.05.15-.05.24.02.17.05.24c.03.07.08.12.14.16.06.04.13.06.22.06.1,0,.18-.03.23-.09.03-.03.02-.08.04-.12v.2h.17v-.47h-.38v.15h.17s-.01.08-.03.1c-.04.04-.09.06-.16.06-.08,0-.13-.02-.17-.07-.04-.05-.06-.12-.06-.21s.02-.16.06-.21.09-.07.17-.07Z"/>
        <polygon class="cls-4" points="51.34 17.83 51.22 17.83 51.22 18.7 51.34 18.7 51.43 18.7 51.85 18.7 51.85 18.52 51.43 18.52 51.43 18.34 51.8 18.34 51.8 18.17 51.43 18.17 51.43 18 51.85 18 51.85 17.83 51.43 17.83 51.34 17.83"/>
        <path class="cls-4" d="M52.7,18.47s-.03-.09-.05-.12c-.02-.03-.04-.05-.07-.06-.01,0-.03,0-.05,0,.05-.01.11-.01.14-.04.05-.04.08-.1.08-.17,0-.08-.03-.14-.08-.19-.05-.05-.14-.07-.26-.07h-.38v.87h.21v-.33h.12s.05,0,.06.01.03.02.04.04c.01.02.02.05.03.08.01.06.02.1.03.13s.02.05.03.06h.22s-.02-.04-.03-.07c0-.03-.02-.08-.04-.15ZM52.23,18.22v-.23h.16c.05,0,.09,0,.11.03.02.02.03.05.03.08s-.01.06-.03.08c-.02.02-.06.03-.11.03h-.16Z"/>
        <polygon class="cls-4" points="53.05 17.83 52.94 17.83 52.94 18.7 53.05 18.7 53.15 18.7 53.57 18.7 53.57 18.52 53.15 18.52 53.15 18.34 53.52 18.34 53.52 18.17 53.15 18.17 53.15 18 53.57 18 53.57 17.83 53.15 17.83 53.05 17.83"/>
        <path class="cls-4" d="M54.4,17.94c-.08-.08-.18-.11-.32-.11h-.34v.87h.34c.14,0,.25-.04.32-.11.08-.08.11-.18.11-.32s-.04-.25-.11-.32ZM54.24,18.46s-.1.06-.19.06h-.11v-.52h.11c.08,0,.15.02.19.06s.06.11.06.19-.02.15-.06.2Z"/>
      </g>
    </g>
  </g>
</svg>